<svg height="30" viewBox="0 0 30 30" width="30" xmlns="http://www.w3.org/2000/svg"><path d="m22.7440555 8.19327731-1.7494732-1.63865546 2.2493227-3.65546219-2.6242099-2.89915966h-10.99668913l-2.62420991 2.89915966 2.24932278 3.52941177-1.6245109 1.63865546c-2.87413466 2.39495801-4.62360794 5.92436971-4.62360794 9.57983191 0 6.8067227 5.3733822 12.3529412 11.9963882 12.3529412 6.6230059 0 11.9963881-5.5462185 11.9963881-12.3529412.1249624-3.6554622-1.3745861-7.0588235-4.2487208-9.45378149zm-12.4962376-6.93277311h9.8720277l.999699 1.13445378h-11.99638814zm-1.24962381 2.39495798h12.24631291l-1.3745861 2.26890757h-9.4971407zm6.12315651 25.08403362c-5.99819414 0-10.74676446-4.9159664-10.74676446-11.092437 0-3.4033613 1.49954853-6.5546218 4.12375844-8.69747897l1.87443562-1.76470588h9.4971407l1.999398 1.8907563c2.4992475 2.14285715 3.9987961 5.16806725 3.9987961 8.57142855 0 6.1764706-4.7485704 11.092437-10.7467644 11.092437zm0-18.90756303c-4.2487209 0-7.62270503 3.52941173-7.62270503 7.81512603s3.49894653 7.8151261 7.62270503 7.8151261c4.1237584 0 7.6227049-3.5294118 7.6227049-7.8151261s-3.3739841-7.81512603-7.6227049-7.81512603zm0 14.49579833c-3.4989466 0-6.37308127-2.8991597-6.37308127-6.5546219 0-3.6554621 2.87413467-6.6806722 6.37308127-6.6806722 3.4989465 0 6.3730812 2.8991596 6.3730812 6.5546218s-2.8741347 6.6806723-6.3730812 6.6806723z" fill="#323232"/></svg>