<?xml version="1.0" encoding="UTF-8"?>
<svg width="45px" height="45px" viewBox="0 0 45 45" version="1.1" xmlns="http://www.w3.org/2000/svg" xmlns:xlink="http://www.w3.org/1999/xlink">
    <!-- Generator: Sketch 49.3 (51167) - http://www.bohemiancoding.com/sketch -->
    <title>global/default/social/iconLinkedin</title>
    <desc>Created with Sketch.</desc>
    <defs></defs>
    <g id="global/default/social/iconLinkedin" stroke="none" stroke-width="1" fill="none" fill-rule="evenodd">
        <path d="M15.9274569,14.9434292 L24.8666744,14.9434292 L24.8666744,19.0497667 L24.9959245,19.0497667 C26.2395203,16.686042 29.2821379,14.1945956 33.8181183,14.1945956 C43.2551234,14.1945956 45,20.4179627 45,28.5134137 L45,45 L35.6835119,45 L35.6835119,30.3837481 C35.6835119,26.8985226 35.6153936,22.4142691 30.8366325,22.4142691 C25.9827667,22.4142691 25.2421984,26.2091757 25.2421984,30.131804 L25.2421984,45 L15.9274569,45 L15.9274569,14.9434292 M5.41103866,0 C8.3960177,0 10.8150908,2.42846034 10.8150908,5.41504666 C10.8150908,8.40513219 8.3960177,10.8318429 5.41103866,10.8318429 C2.41557988,10.8318429 1.20081722e-12,8.40513219 1.20081722e-12,5.41504666 C1.20081722e-12,2.42846034 2.41557988,0 5.41103866,0 Z M0.740568235,45 L10.0762692,45 L10.0762692,14.9434292 L0.740568235,14.9434292 L0.740568235,45 Z" id="Fill-5" fill="#0071A1"></path>
    </g>
</svg>