<?xml version="1.0" standalone="no"?>
<!DOCTYPE svg PUBLIC "-//W3C//DTD SVG 1.1//EN" "http://www.w3.org/Graphics/SVG/1.1/DTD/svg11.dtd" >
<svg xmlns="http://www.w3.org/2000/svg" xmlns:xlink="http://www.w3.org/1999/xlink" version="1.1" viewBox="0 0 1001 1001">
  <g transform="matrix(1 0 0 -1 0 1001)">
   <path fill="currentColor"
d="M617.061 550.772h-233.122v17.2394c0 38.1492 5.13847 68.6908 30.7863 103.081l1.8018 2.38016c16.0827 21.5994 26.7378 35.858 32.121 63.9528c0.222444 1.22344 0.467133 2.55811 0.711822 3.89278h102.302c0.222444 -1.35691 0.467133 -2.69158 0.689578 -3.89278
c5.36091 -28.0058 15.9493 -42.1977 32.0542 -63.8416l1.86853 -2.49138c25.6478 -34.3899 30.7863 -64.9315 30.7863 -103.081zM617 187h-233v335h233v-335zM617.061 54.7213c0 -0.355911 0.0889778 -8.71982 -3.6036 -16.1272l-1.13447 -3.2032
c-5.6056 -3.24769 -28.0725 -8.05249 -111.845 -8.05249c-83.3722 0 -105.973 4.76031 -111.734 8.008l-1.17896 3.24769c-3.62584 7.22944 -3.62584 15.4599 -3.62584 16.5499v105.906h233.122zM452.585 901.768l1.84629 4.44889l-1.4014 4.6046
c-0.155711 0.489378 -0.222444 1.02324 -0.155711 2.38016l-0.0444889 21.9998c0 1.82404 0.0667333 3.87053 0.533867 5.11622l1.49038 4.82704l-0.645089 3.58136l1.69058 6.16171l-1.13447 4.31542l0.244689 2.13547l-0.444889 2.09098
c-0.222444 1.11222 -0.422644 2.33567 -0.533867 3.51462l0.133467 1.62384l-0.289178 0.756311l0.0667333 0.756311c4.82704 3.55911 34.0785 3.55911 46.5576 3.55911c12.4791 0 41.7306 0 46.0905 -3.51462l0.4004 -2.89178
c-0.133467 -1.4014 -0.311422 -2.62484 -0.556111 -3.73707l-0.556111 -4.09298l0.289178 -2.26893l-0.756311 -5.76131l1.57936 -4.004l-0.667333 -3.67033l1.31242 -3.51462c0.467133 -1.2012 0.533867 -3.18096 0.533867 -4.98276v-22.8895l-0.155711 -1.11222
l0.0222444 -0.489378l-1.4014 -4.56011l1.8018 -4.44889c0.4004 -0.956511 0.467133 -2.09098 0.222444 -3.47013c-0.177956 -1.08998 -0.489378 -1.86853 -0.734067 -2.4024l-1.02324 -2.31342l-0.266933 -5.67233c-2.49138 -53.9873 -1.13447 -92.3812 1.42364 -119.163
h-95.1172c2.55811 26.7823 3.91502 65.1762 1.42364 119.141l-0.266933 5.58336l-0.978756 2.29118c-0.289178 0.667333 -0.6006 1.46813 -0.778556 2.49138c-0.244689 1.4014 -0.155711 2.6026 0.244689 3.58136zM608.941 687.175l-1.93527 2.6026
c-15.2597 20.4649 -22.8895 30.7418 -27.0937 52.6526c-4.38216 22.9118 -8.85329 66.5554 -5.27193 144.233l0.0444889 0.845289c0.711822 2.04649 1.26793 4.09298 1.6016 6.2062c0.823044 4.62684 0.667333 9.25369 -0.355911 13.5914
c0.289178 1.89078 0.378156 3.62584 0.266933 5.005v22.8895c0 3.29218 -0.177956 7.07373 -1.17896 11.0555c0.155711 2.82504 -0.133467 5.71682 -0.867533 8.6086c0.111222 1.06773 0.177956 2.17996 0.177956 3.26993c0 0.622844 -0.0222444 1.24569 -0.0444889 1.86853
c0.222444 1.42364 0.444889 3.02524 0.622844 4.89378l0.0889778 2.38016c0 2.51362 -0.289178 4.64909 -0.578356 6.22844c-3.24769 27.4941 -32.944 27.4941 -73.9183 27.4941c-40.9965 0 -70.7151 0 -73.9183 -27.6498
c-0.4004 -2.02424 -0.578356 -4.07073 -0.578356 -6.07273l0.111222 -2.6026c0.155711 -1.69058 0.355911 -3.26993 0.6006 -4.69358c-0.0222444 -0.622844 -0.0444889 -1.22344 -0.0444889 -1.84629c0 -1.11222 0.0667333 -2.2022 0.177956 -3.24769
c-0.711822 -2.8028 -1.02324 -5.71682 -0.867533 -8.6086c-1.001 -3.98176 -1.17896 -7.78556 -1.17896 -11.1l0.0667333 -21.11c-0.133467 -2.13547 -0.0444889 -4.33767 0.289178 -6.51762c-1.08998 -4.38216 -1.26793 -9.07573 -0.467133 -13.836
c0.422644 -2.44689 1.02324 -4.51562 1.62384 -6.16171l0.0222444 -0.956511c3.6036 -77.5664 -0.867533 -121.21 -5.24969 -144.144c-4.22644 -22.022 -11.9008 -32.2989 -27.2272 -52.875l-1.77956 -2.38016c-30.03 -40.2624 -36.1695 -76.7433 -36.1695 -119.186v-512.69
c-0.0444889 -3.42564 0.244689 -15.0372 5.49438 -26.7156c3.98176 -21.3992 27.027 -28.6064 139.072 -28.6064c112.068 0 135.113 7.2072 139.117 28.6064c5.29418 11.7451 5.53887 23.1787 5.49438 26.3374v513.068c0 42.4424 -6.13947 78.9233 -36.1472 119.163z" />
  </g>

</svg>
