<svg height="30" viewBox="0 0 30 30" width="30" xmlns="http://www.w3.org/2000/svg"><path d="m19.2526716 13.92c1.9988751-1.44 3.4980314-3.6 3.4980314-6.24 0-4.32-3.7478908-7.68-7.9955004-7.68-2.4985939 0-4.99718785 1.2-6.49634419 3.36-.49971879.48-.2498594 1.2.24985939 1.68.74957817.24 1.4991563.24 1.7490157-.48.9994376-1.2 2.7484533-2.16 4.4974691-2.16 2.9983126 0 5.4969065 2.4 5.4969065 5.28s-2.4985939 5.28-5.4969065 5.28c-.2498594 0-1.249297 0-1.4991564 0-.7495782 0-1.2492969.48-1.2492969 1.2s.4997187 1.2 1.2492969 1.2h.2498594 1.249297c3.7478908 0 6.7462035 2.64 6.7462035 6s-2.9983127 6-6.7462035 6c-2.7484533 0-5.24704724-1.44-6.2464848-3.6-.24985939-.72-.99943757-.96-1.74901574-.48-.74957817.24-.99943756.96-.49971878 1.68 1.49915634 3.12 4.74732842 5.04 8.49521932 5.04 4.9971878 0 9.2447974-3.6 9.2447974-8.4 0-3.6-1.9988751-6.24-4.7473284-7.68z" fill="#323232"/></svg>