<svg height="30" viewBox="0 0 30 30" width="30" xmlns="http://www.w3.org/2000/svg"><path d="m15 11.8094686c-1 0-1.75.2491854-2.75.4983707l6-10.46578515c.25-.49837072 0-1.2459268-.5-1.74429753-.5-.24918536-1.25 0-1.75.49837073l-8.75 15.69867775c0 .2491854 0 .2491854-.25.4983707-.75 1.2459268-1 2.741039-1 4.2361512 0 4.9837072 4 8.970673 9 8.970673s9-3.9869658 9-8.970673-4-9.2198584-9-9.2198584zm0 15.4494924c-3.5 0-6.5-2.9902243-6.5-6.4788194 0-3.488595 3-6.4788194 6.5-6.4788194s6.5 2.9902244 6.5 6.4788194c0 3.4885951-2.75 6.4788194-6.5 6.4788194z" fill="#323232"/></svg>