<svg height="30" viewBox="0 0 30 30" width="30" xmlns="http://www.w3.org/2000/svg"><path d="m8.625 12.6016043c2.5 0 4.625-2.0909091 4.625-4.55080216 0-2.45989305-2-4.55080214-4.625-4.55080214s-4.625 2.09090909-4.625 4.55080214c0 2.45989306 2.125 4.55080216 4.625 4.55080216zm0-7.87165778c1.875 0 3.375 1.47593583 3.375 3.32085562.125 1.84491979-1.5 3.32085566-3.375 3.32085566s-3.375-1.47593587-3.375-3.32085566 1.5-3.32085562 3.375-3.32085562zm8.75 20.54010698h12.625v1.2299465h-30v-6.8877005c0-3.3208556 2.75-6.026738 6-5.9037434h5.375c3.25 0 6 2.5828878 6 5.9037434zm-1.25 0v-5.657754c0-2.5828877-2.25-4.6737968-4.875-4.6737968h-5.25c-2.625 0-4.75 2.0909091-4.75 4.6737968v5.657754zm7.625-4.4278075 4.625-9.4705882c.5-1.1069519 0-2.45989309-1.125-2.9518717-.25-.12299466-.625-.24598931-1-.24598931-.875 0-1.625.49197861-2.125 1.35294118l-4.625 9.47058823.25 5.0427808zm-2.75-.6149733 1 .4919786-1 .8609626zm4.375-10.33155077c.125-.36898396.5-.61497327.875-.61497327.125 0 .25 0 .375.12299466.5.2459893.75.86096258.5 1.35294118l-4.375 8.9786096-1.875-.8609625z" fill="#323232"/></svg>