<?xml version="1.0" standalone="no"?>
<!DOCTYPE svg PUBLIC "-//W3C//DTD SVG 1.1//EN" "http://www.w3.org/Graphics/SVG/1.1/DTD/svg11.dtd" >
<svg xmlns="http://www.w3.org/2000/svg" xmlns:xlink="http://www.w3.org/1999/xlink" version="1.1" viewBox="0 0 1001 1001">
  <g transform="matrix(1 0 0 -1 0 1001)">
   <path fill="currentColor"
d="M336.138 453.578h-156.535v-187.688h156.535v187.688zM304.831 297.172h-93.921v125.125h93.921zM570.941 453.578h-156.535v-187.688h156.535v187.688zM539.634 297.172h-93.921v125.125h93.921zM805.743 453.578h-156.535v-187.688h156.535v187.688zM774.436 297.172
h-93.921v125.125h93.921v-125.125zM336.138 688.188h-156.535v-187.688h156.535v187.688zM304.831 531.781h-93.921v125.125h93.921v-125.125zM570.941 688.188h-156.535v-187.688h156.535v187.688zM539.634 531.781h-93.921v125.125h93.921zM805.743 688.188h-156.535
v-187.688h156.535v187.688zM774.436 531.781h-93.921v125.125h93.921v-125.125zM336.138 922.797h-156.535v-187.688h156.535v187.688zM304.831 766.391h-93.921v125.125h93.921v-125.125zM570.941 922.797h-156.535v-187.688h156.535v187.688zM539.634 766.391h-93.921
v125.125h93.921zM805.743 922.797h-156.535v-187.688h156.535v187.688zM774.436 766.391h-93.921v125.125h93.921v-125.125zM77.8556 1001v-1001h313.07h219.149h313.07v1001h-845.289zM422.233 31.2812v125.125h62.614v-125.125h-62.614zM516.153 31.2812v125.125h62.614
v-125.125h-62.614zM891.837 31.2812h-281.763v156.406h-219.149v-156.406h-281.763v938.438h782.675v-938.438z" />
  </g>

</svg>
