<svg height="45" viewBox="0 0 45 45" width="45" xmlns="http://www.w3.org/2000/svg"><path d="m22.5035175 42.1875c.7770611 0 1.4069936-.6295996 1.4069936-1.40625s-.6299325-1.40625-1.4069936-1.40625-1.4069936.6295996-1.4069936 1.40625.6299325 1.40625 1.4069936 1.40625zm11.3685082-42.1875h-22.7440514c-3.10824436 0-5.6279743 2.51839828-5.6279743 5.625v33.75c0 3.1066017 2.51972994 5.625 5.6279743 5.625h22.7440514c3.1082444 0 5.6279743-2.5183983 5.6279743-5.625v-33.75c0-3.10660172-2.5197299-5.625-5.6279743-5.625zm4.2209807 39.375c0 2.3299513-1.8897974 4.21875-4.2209807 4.21875h-22.7440514c-2.33118326 0-4.22098071-1.8887987-4.22098071-4.21875v-33.75c0-2.32995129 1.88979745-4.21875 4.22098071-4.21875h22.7440514c2.3311833 0 4.2209807 1.88879871 4.2209807 4.21875zm-27.6685288-33.046875h-1.40699364v31.640625h26.96503204v-31.640625zm24.1510448 30.234375h-24.1510448v-28.828125h24.1510448zm-16.2637519-21.75c.7763704 0 1.4057429-.6295996 1.4057429-1.40625s-.6293725-1.40625-1.4057429-1.40625c-.7763703 0-1.4057429.6295996-1.4057429 1.40625s.6293726 1.40625 1.4057429 1.40625zm4.2209808 0c.7763703 0 1.4057429-.6295996 1.4057429-1.40625s-.6293726-1.40625-1.4057429-1.40625c-.7763704 0-1.4057429.6295996-1.4057429 1.40625s.6293725 1.40625 1.4057429 1.40625zm4.2209807 0c.7763704 0 1.4057429-.6295996 1.4057429-1.40625s-.6293725-1.40625-1.4057429-1.40625c-.7763703 0-1.4057429.6295996-1.4057429 1.40625s.6293726 1.40625 1.4057429 1.40625zm-8.4407108 4.2200003c.7770611 0 1.4069936-.6295996 1.4069936-1.40625 0-.7766505-.6299325-1.40625-1.4069936-1.40625s-1.4069936.6295995-1.4069936 1.40625c0 .7766504.6299325 1.40625 1.4069936 1.40625zm4.2209808 0c.7770611 0 1.4069935-.6295996 1.4069935-1.40625 0-.7766505-.6299324-1.40625-1.4069935-1.40625s-1.4069936.6295995-1.4069936 1.40625c0 .7766504.6299325 1.40625 1.4069936 1.40625zm4.2209807 0c.7770611 0 1.4069936-.6295996 1.4069936-1.40625 0-.7766505-.6299325-1.40625-1.4069936-1.40625s-1.4069936.6295995-1.4069936 1.40625c0 .7766504.6299325 1.40625 1.4069936 1.40625zm-8.4419615 4.21875c.7770611 0 1.4069936-.6295996 1.4069936-1.40625 0-.7766505-.6299325-1.40625-1.4069936-1.40625s-1.4069936.6295995-1.4069936 1.40625c0 .7766504.6299325 1.40625 1.4069936 1.40625zm4.2209808 0c.7770611 0 1.4069935-.6295996 1.4069935-1.40625 0-.7766505-.6299324-1.40625-1.4069935-1.40625s-1.4069936.6295995-1.4069936 1.40625c0 .7766504.6299325 1.40625 1.4069936 1.40625zm4.2209807 0c.7770611 0 1.4069936-.6295996 1.4069936-1.40625 0-.7766505-.6299325-1.40625-1.4069936-1.40625s-1.4069936.6295995-1.4069936 1.40625c0 .7766504.6299325 1.40625 1.4069936 1.40625zm-8.4419615 4.21875c.7770611 0 1.4069936-.6295996 1.4069936-1.40625 0-.7766505-.6299325-1.40625-1.4069936-1.40625s-1.4069936.6295995-1.4069936 1.40625c0 .7766504.6299325 1.40625 1.4069936 1.40625zm4.2209808 0c.7770611 0 1.4069935-.6295996 1.4069935-1.40625 0-.7766505-.6299324-1.40625-1.4069935-1.40625s-1.4069936.6295995-1.4069936 1.40625c0 .7766504.6299325 1.40625 1.4069936 1.40625zm4.2209807 0c.7770611 0 1.4069936-.6295996 1.4069936-1.40625 0-.7766505-.6299325-1.40625-1.4069936-1.40625s-1.4069936.6295995-1.4069936 1.40625c0 .7766504.6299325 1.40625 1.4069936 1.40625zm-4.2209807 4.21875c.7770611 0 1.4069935-.6295996 1.4069935-1.40625 0-.7766505-.6299324-1.40625-1.4069935-1.40625s-1.4069936.6295995-1.4069936 1.40625c0 .7766504.6299325 1.40625 1.4069936 1.40625z" fill="#323232"/></svg>