<svg height="45" viewBox="0 0 45 45" width="45" xmlns="http://www.w3.org/2000/svg"><path d="m40.2291667 3.87931034c.4625 0 .7708333.31034483.7708333.77586207v39.56896549c0 .4655173-.3083333.7758621-.7708333.7758621h-35.45833337c-.4625 0-.77083333-.3103448-.77083333-.7758621v-39.56896549c0-.46551724.30833333-.77586207.77083333-.77586207h14.72291667c0-.23275862-.0770833-.54310344-.0770833-.77586206 0-1.70689656 1.3875-3.10344828 3.0833333-3.10344828s3.0833333 1.39655172 3.0833333 3.10344828c0 .23275862-.0770833.54310344-.0770833.77586206zm-12.4104167 2.40517242h-10.6375v3.02586207h10.6375zm-13.2583333 17.76724134h16.41875v1.5517242h-16.41875zm0 4.2672414h16.41875v1.5517242h-16.41875zm0 4.2672414h12.71875v1.5517241h-12.71875zm16.4958333-16.5258621v5.7413793h-16.5729167v-5.7413793zm-1.5416667 4.1896552v-2.637931h-13.4895833v2.637931zm-20.11874997-10.93965517v30.25862067h21.58333337 4.625v-30.25862067h-6.1666667v1.55172417h-13.875v-1.55172417zm13.10416667-7.75862069c-.8479167 0-1.5416667.69827586-1.5416667 1.55172414 0 .85344827.69375 1.55172413 1.5416667 1.55172413s1.5416667-.69827586 1.5416667-1.55172413c0-.85344828-.69375-1.55172414-1.5416667-1.55172414zm16.9583333 41.89655176v-38.01724142h-10.0208333v2.32758621h6.9375c.4625 0 .7708333.31034483.7708333.77586207v31.81034484c0 .4655172-.3083333.7758621-.7708333.7758621h-5.3958333-22.3541667-.77083333v-.7758621-31.81034484-.77586207h7.70833333v-2.32758621h-10.02083333v38.01724142z" fill="#323232"/></svg>