<svg height="45" viewBox="0 0 45 45" width="45" xmlns="http://www.w3.org/2000/svg"><g fill="#414141" fill-rule="nonzero"><path d="m43.3645955 18.703125-17.0926143-17.0859375c-1.0550996-1.0546875-2.3915592-1.6171875-3.7983587-1.6171875s-2.7432591.5625-3.7983587 1.6171875l-17.09261433 17.0859375c-2.11019929 2.109375-2.11019929 5.5546875 0 7.6640625l17.09261433 17.0859375c1.0550996.984375 2.3915592 1.546875 3.7983587 1.546875s2.7432591-.5625 3.7983587-1.6171875l17.0926143-17.0859375c2.1805393-2.109375 2.1805393-5.484375 0-7.59375zm-1.6438369 6.4302083-16.6119216 16.605c-.75198.7516667-1.7090454 1.1616667-2.7344727 1.1616667s-1.9824927-.41-2.7344727-1.1616667l-16.61192164-16.605c-1.50395998-1.5033333-1.50395998-3.9633333 0-5.4666667l16.61192164-16.60499996c.75198-.75166666 1.7090454-1.16166666 2.7344727-1.16166666s1.9824927.41 2.7344727 1.16166666l16.6119216 16.60499996c1.5723218 1.5033334 1.5723218 3.9633334 0 5.4666667z"/><path d="m22 25.4285714c-.4 0-.6666667-.2857143-.6666667-.7142857v-14.99999999c0-.42857142.2666667-.71428571.6666667-.71428571s.6666667.28571429.6666667.71428571v14.99999999c0 .4285714-.2666667.7142857-.6666667.7142857zm0 4.2857143c1.1333333 0 2 .9285714 2 2.1428572 0 1.2142857-.8666667 2.1428571-2 2.1428571s-2-.9285714-2-2.1428571c0-1.2142858.8666667-2.1428572 2-2.1428572zm0 2.8571429c.4 0 .6666667-.2857143.6666667-.7142857 0-.4285715-.2666667-.7142858-.6666667-.7142858s-.6666667.2857143-.6666667.7142858c0 .4285714.2666667.7142857.6666667.7142857z"/></g></svg>