<?xml version="1.0" standalone="no"?>
<!DOCTYPE svg PUBLIC "-//W3C//DTD SVG 1.1//EN" "http://www.w3.org/Graphics/SVG/1.1/DTD/svg11.dtd" >
<svg xmlns="http://www.w3.org/2000/svg" xmlns:xlink="http://www.w3.org/1999/xlink" version="1.1" viewBox="0 0 1001 1001">
  <g transform="matrix(1 0 0 -1 0 1001)">
   <path fill="currentColor"
d="M497.366 1001l-341.654 -344.684v-656.316h689.578v656.316zM451.916 240.807h-45.4494v140.077c0 22.0346 17.2394 39.3475 39.1806 39.3475h109.706c21.9411 0 39.1806 -17.3129 39.1806 -39.3475v-140.077h-45.4494l-15.6722 -204.607h-64.2561zM423.706 572.899
c0 -42.4953 34.4789 -77.1211 76.7939 -77.1211s76.7939 34.6258 76.7939 77.1211c0 42.4953 -34.4789 77.1211 -76.7939 77.1211s-76.7939 -34.6258 -76.7939 -77.1211zM500.5 618.542c25.0756 0 45.4494 -20.4607 45.4494 -45.6431s-20.3739 -45.6431 -45.4494 -45.6431
s-45.4494 20.4607 -45.4494 45.6431s20.3739 45.6431 45.4494 45.6431zM813.944 33.0519h-249.188l14.105 177.851h47.0167v171.555c0 39.3475 -31.3444 70.8255 -70.525 70.8255h-109.706c-39.1806 0 -70.525 -31.478 -70.525 -70.8255v-171.555h48.5839l14.105 -177.851
h-250.756v610.673l310.31 313.206l316.579 -313.206v-610.673z" />
  </g>

</svg>
