<?xml version="1.0" standalone="no"?>
<!DOCTYPE svg PUBLIC "-//W3C//DTD SVG 1.1//EN" "http://www.w3.org/Graphics/SVG/1.1/DTD/svg11.dtd" >
<svg xmlns="http://www.w3.org/2000/svg" xmlns:xlink="http://www.w3.org/1999/xlink" version="1.1" viewBox="0 0 1001 1001">
  <g transform="matrix(1 0 0 -1 0 1001)">
   <path fill="currentColor"
d="M497.366 1001l-341.654 -344.684v-656.316h689.578v656.316zM813.944 31.478h-626.889v612.247l310.31 313.206l316.579 -313.206v-612.247zM511.471 487.909l-172.394 -173.129l-84.63 -84.9906c-6.26889 -6.2956 -6.26889 -15.739 0 -22.0346l70.525 -70.8255
c3.13444 -3.1478 6.26889 -4.7217 10.9706 -4.7217c4.70167 0 7.83611 1.5739 10.9706 4.7217l84.63 84.9906c6.26889 6.2956 6.26889 15.739 0 22.0346l-59.5544 59.8082l161.424 162.112c18.8067 -14.1651 40.7478 -20.4607 62.6889 -20.4607
c26.6428 0 54.8528 11.0173 75.2267 31.478c20.3739 20.4607 31.3444 47.217 31.3444 75.5472s-10.9706 55.0865 -31.3444 75.5472c-40.7478 40.9214 -108.138 40.9214 -150.453 0c-36.0461 -39.3475 -39.1806 -99.1557 -9.40333 -140.077zM398.631 231.363
l-62.6889 -62.956l-48.5839 48.7909l62.6889 62.956zM544.382 602.803c14.105 14.1651 32.9117 22.0346 53.2856 22.0346s37.6133 -7.86949 53.2856 -22.0346c14.105 -14.1651 21.9411 -33.0519 21.9411 -53.5126s-7.83611 -39.3475 -21.9411 -53.5126
c-29.7772 -29.9041 -76.7939 -29.9041 -105.004 0c-29.7772 31.478 -29.7772 78.695 -1.56722 107.025z" />
  </g>

</svg>
