<svg height="30" viewBox="0 0 30 30" width="30" xmlns="http://www.w3.org/2000/svg"><path d="m30 26.7537313-5.125-17.53731339c0-.12437811-.125-.24875622-.375-.37313433-.125-.12437811-.375-.12437811-.5 0l-3.625 1.49253732-4.375-7.58706468c-.125-.24875622-.25-.24875622-.5-.24875622s-.375.12437811-.5.24875622l-6.375 10.32338308-3.375-1.2437811c-.125 0-.375 0-.5 0-.375 0-.375.1243781-.5.3731343l-4.25 14.5522388c0 .2487563 0 .3731344.125.4975125s.25.2487562.5.2487562h28.75c.25 0 .375-.1243781.5-.2487562s.125-.3731343.125-.4975125zm-28.5-.4975124 3.875-13.1840796 3.25 1.119403c.25.1243781.625 0 .75-.2487562l6.125-9.82587068 4.125 7.21393038c.125.2487562.5.3731343.75.2487562l3.5-1.3681592 4.625 16.0447761zm17.5-8.8308458 2.25.6218906h.125c.25 0 .5-.1243781.625-.4975125.125-.3731343-.125-.6218905-.5-.7462686l-1.875-.4975125.5-1.8656716c.125-.3731343-.125-.6218905-.5-.7462686-.375-.1243782-.625.1243781-.75.4975124l-.625 2.238806-2.375 1.3681592v-2.8606966l1.625-1.6169154c.25-.2487562.25-.6218905 0-.8706467-.25-.2487563-.625-.2487563-.875 0l-1.375 1.3681592-1.375-1.3681592c-.25-.2487563-.625-.2487563-.875 0-.25.2487562-.25.6218905 0 .8706467l1.625 1.6169154v2.7363185l-2.375-1.3681593-.625-2.2388059c0-.3731343-.375-.4975125-.75-.4975125-.375.1243782-.5.3731344-.5.7462687l.5 1.8656716-1.875.4975125c-.375.1243781-.5.3731343-.5.7462686.125.2487563.375.4975125.625.4975125h.125l2.375-.4975125 2.375 1.3681592-2.375 1.3681592-2.25-.6218905c-.375-.1243781-.625.1243781-.75.4975124-.125.3731344.125.6218906.5.7462687l1.875.4975124-.5 1.8656717c-.125.3731343.125.6218905.5.7462686h.125c.25 0 .5-.1243781.625-.4975124l.625-2.238806 2.375-1.3681592v2.7363184l-1.625 1.6169154c-.25.2487563-.25.6218906 0 .8706468s.625.2487562.875 0l1.375-1.3681592 1.375 1.3681592c.125.1243781.25.1243781.5.1243781s.375 0 .5-.1243781c.25-.2487562.25-.6218905 0-.8706468l-1.625-1.6169154v-2.7363184l2.375 1.3681592.625 2.238806c.125.2487562.375.4975124.625.4975124h.125c.375-.1243781.5-.3731343.5-.7462686l-.5-1.8656717 1.875-.4975124c.375-.1243781.5-.3731343.5-.7462687-.125-.3731343-.375-.4975124-.75-.4975124l-2.25.6218905-2.375-1.3681592z" fill="#323232"/></svg>