<svg height="45" viewBox="0 0 45 45" width="45" xmlns="http://www.w3.org/2000/svg"><path d="m27.5 19.5652174h-10c-6.8 0-12 5.2826087-12 11.7391304v13.6956522h34v-13.6956522c0-6.4565217-5.2-11.7391304-12-11.7391304zm8 21.5217391h-26v-9.7826087c0-4.1086956 3.6-7.8260869 8-7.8260869h10c4.4 0 8 3.7173913 8 7.8260869zm-13-37.17391302c2.8 0 5 2.15217391 5 4.89130435 0 2.73913047-2.2 4.89130437-5 4.89130437s-5-2.1521739-5-4.89130437c0-2.73913044 2.2-4.89130435 5-4.89130435zm0-3.91304348c-5 0-9 3.91304348-9 8.80434783 0 4.89130437 4 8.80434787 9 8.80434787s9-3.9130435 9-8.80434787c0-4.89130435-4-8.80434783-9-8.80434783z" fill="#414141"/></svg>