<svg height="30" viewBox="0 0 30 30" width="30" xmlns="http://www.w3.org/2000/svg"><path d="m14.8777778 0-10.8777778 11.3924051v18.6075949h22v-18.6075949zm9.9 28.7341772h-19.55555558v-16.835443l9.65555558-10.1265823 9.9 10.1265823zm-9.5333334-13.7974683-8.18888884 8.4810126 3.05555554 3.164557 3.4222222-3.5443038-2.2-2.278481 4.7666667-4.9367089c.6111111.3797468 1.2222222.6329114 1.9555556.6329114.8555555 0 1.7111111-.3797468 2.3222222-1.0126582 1.3444444-1.3924051 1.3444444-3.5443038 0-4.9367089-1.2222222-1.26582277-3.4222222-1.26582277-4.7666667 0-1.1 1.2658228-1.2222222 3.164557-.3666667 4.4303798zm-3.4222222 8.1012658-1.7111111 1.7721519-1.34444443-1.2658228 1.71111113-1.7721519zm4.7666667-11.5189874c.3666667-.5063291.8555555-.7594936 1.4666667-.7594936.6111111 0 1.1.2531645 1.4666666.6329114.8555556.8860759.8555556 2.278481 0 3.1645569-.8555555.886076-2.2.886076-3.0555555 0-.3666667-.3797468-.6111111-1.0126582-.6111111-1.5189873.1222222-.6329114.2444444-1.1392405.7333333-1.5189874z" fill="#323232"/></svg>