<svg height="30" viewBox="0 0 30 30" width="30" xmlns="http://www.w3.org/2000/svg"><path d="m0 2.5v25h30v-25zm28.75 1.25v5.125h-27.5v-5.125zm-27.5 22.5v-16.125h27.5v16.125zm23.875-18.75c-.6213203 0-1.125-.50367966-1.125-1.125s.5036797-1.125 1.125-1.125 1.125.50367966 1.125 1.125-.5036797 1.125-1.125 1.125zm-3.875 0c-.6213203 0-1.125-.50367966-1.125-1.125s.5036797-1.125 1.125-1.125 1.125.50367966 1.125 1.125-.5036797 1.125-1.125 1.125zm-6.875 8c0-.375.375-.75 1.375-.75 1.375 0 3 .375 3.75.625v-2c-.625-.75-2.375-1.25-4-1.25-2.875 0-4.5 1.5-4.5 3.625 0 4.25 5.625 3 5.625 4.5 0 .5-.375.75-1.625.75-1.625 0-2.875-.375-4-.75v2.25c.625.75 2.5 1.25 4.25 1.25 2.875 0 4.75-1.25 4.75-3.5 0-4.5-5.625-3.125-5.625-4.75z" fill="#323232"/></svg>