<svg height="30" viewBox="0 0 30 30" width="30" xmlns="http://www.w3.org/2000/svg"><path d="m24.0722222 12.3529412v-3.40336137c0-4.91596638-4.0888889-8.94957983-9.0722222-8.94957983s-9.07222222 4.03361345-9.07222222 8.94957983v3.40336137h-2.42777778v12.9831933c.12777778 2.5210084 2.17222222 4.6638655 4.85555556 4.6638655h13.16111114c2.5555555 0 4.9833333-2.0168067 4.9833333-4.6638655v-12.9831933zm-16.86666664-3.40336137c0-4.15966386 3.57777774-7.56302521 7.79444444-7.56302521s7.7944444 3.40336135 7.7944444 7.68907563v3.27731095h-15.58888884zm18.01666664 16.38655467c0 1.7647058-1.7888889 3.4033613-3.7055555 3.4033613h-13.16111114c-1.91666667 0-3.45-1.512605-3.57777778-3.4033613v-11.7226891h20.44444442zm-12.1388889-.3781513c.1277778.1260504.2555556.1260504.5111111.1260504.2555556 0 .3833334 0 .5111112-.1260504l7.0277777-6.9327731c.2555556-.2521009.2555556-.6302521 0-.882353-.2555555-.2521008-.6388889-.2521008-.8944444 0l-6.5166667 6.4285715-3.0666666-3.0252101c-.2555556-.2521009-.6388889-.2521009-.89444449 0-.25555555.2521008-.25555555.6302521 0 .8823529z" fill="#323232"/></svg>