<svg height="30" viewBox="0 0 30 30" width="30" xmlns="http://www.w3.org/2000/svg"><path d="m23.5 0-1.25 2.51046025h-22.25v25.10460255h10.25l-.875 1.8828451 1.125.5020921 14.125-29.37238494zm-22.25 3.76569038h20.5l-10.875 22.59414222h-9.625zm28.75-1.25523013h-3.75l.875-1.88284519-1-.62761506-14.25 29.4979079 1.125.5020921 1.125-2.3849372h15.875zm-1.25 23.84937235h-14l10.875-22.59414222h3.125zm-16.125-9.0376569c0-1.7573221-1.5-3.2635983-3.375-3.3891213v-3.7656904c.5 0 1.375.3765691 2 1.0041841.25.251046.625.251046.875 0s.25-.627615 0-.8786611c-1-1.00418407-2.125-1.38075311-2.875-1.38075311v-1.0041841c0-.37656904-.25-.62761506-.625-.62761506s-.625.25104602-.625.62761506v.87866109c-1.875.12552301-3.25 1.50627612-3.25 3.13807532s1.375 3.0125523 3.25 3.1380753v4.1422594c-.625-.125523-1.5-.376569-2.375-1.1297071-.25-.251046-.625-.251046-.875 0s-.25.6276151 0 .8786611c1.125 1.0041841 2.375 1.3807531 3.125 1.5062761v1.1297072c0 .376569.25.627615.625.627615s.625-.251046.625-.627615v-1.1297072c2 0 3.5-1.3807531 3.5-3.1380753zm-1.25 0c0 1.1297071-.875 2.0083682-2.125 2.1338912v-4.1422594c1.125 0 2.125.8786611 2.125 2.0083682zm-5.375-5.3974895c0-1.0041841.875-1.7573222 2-1.8828452v3.7656904c-1.125 0-2-.8786611-2-1.8828452z" fill="#323232"/></svg>