<svg height="45" viewBox="0 0 45 45" width="45" xmlns="http://www.w3.org/2000/svg"><path d="m7 40h3.9171237v2.5764778c0 .8202315-.4948202 1.4235222-1.01035953 1.4235222h-1.89518586c-.51553931 0-1.01157831-.6032907-1.01157831-1.4235222zm36.5483871-22.2335203c0 .6723558-.4068091 1.1676016-.8294931 1.1676016h-.7776498c-.422684 0-.829493-.4952458-.829493-1.1676016v-4.7335204c0-.6723559.406809-1.1676017.829493-1.1676017h.7776498c.422684 0 .8294931.4952458.8294931 1.1676017zm-39.66013825 0c0 .6723558-.40680905 1.1676016-.82949309 1.1676016h-.77764977c-.42268404 0-.82949309-.4952458-.82949309-1.1676016v-4.7335204c0-.6723559.40680905-1.1676017.82949309-1.1676017h.77764977c.42268404 0 .82949309.4952458.82949309 1.1676017zm2.22926267 8.5203366c0-1.7184639 1.1028056-3.0610098 2.38479263-3.0610098h27.99539175c1.281987 0 2.3847926 1.3425459 2.3847926 3.0610098v11.3604488c0 .6723559-.4068091 1.1676017-.8294931 1.1676017h-31.10599079c-.42268404 0-.82949309-.4952458-.82949309-1.1676017zm1.10368848-4.2868163v-13h30.7788v13zm30.7788-13.878h-31v-.67125025c0-.92253283.35020571-1.75199803.88753625-2.16498562 3.28252515-2.52329598 8.10072845-4.28576413 14.61246375-4.28576413 6.51069 0 11.3299386 1.76246815 14.6124637 4.28576413.5373306.41298759.8875363 1.24245279.8875363 2.16498562zm-.0828763 31.878v2.5764778c0 .8202315-.496039 1.4235222-1.0115783 1.4235222h-1.8951859c-.5155393 0-1.0103595-.6032907-1.0103595-1.4235222v-2.5764778z" fill="#fff" fill-rule="evenodd"/></svg>