<svg height="30" viewBox="0 0 30 30" width="30" xmlns="http://www.w3.org/2000/svg"><path d="m22.7262382 30h-15.28514126c-.50950471 0-1.01900942-.2542373-1.27376177-.7627119-.25475236-.5084745-.25475236-1.0169491.25475235-1.2711864l12.99237008-15.5084746c.7642571-1.0169491 1.2737618-2.2881356 1.2737618-3.55932202 0-3.30508474-2.8022759-6.10169491-6.1140565-6.10169491-2.5475236 0-4.58554241 1.52542373-5.60455183 3.81355932-.25475236.50847458-1.01900942.76271187-1.78326648.50847458-.50950471-.25423729-1.01900942-1.01694915-.50950471-1.77966102 1.27376177-3.30508474 4.58554242-5.33898305 7.89732302-5.33898305 4.8402947 0 8.66158 3.81355932 8.66158 8.6440678 0 1.779661-.5095047 3.8135593-1.7832664 5.338983l-11.2091037 13.4745763h12.4828654c.7642571 0 1.2737618.5084746 1.2737618 1.2711865 0 .7627118-.5095047 1.2711864-1.2737618 1.2711864z" fill="#323232"/></svg>