<svg height="45" viewBox="0 0 45 45" width="45" xmlns="http://www.w3.org/2000/svg"><g fill="#fff" fill-rule="evenodd"><path d="m41.8932028 18.1784719c-.183169-5.0506875-2.780493-9.7214844-6.9059155-12.4249219l.8302817-1.4965c4.6375352 3.01221875 7.5542958 8.2582969 7.7393662 13.9214219z"/><path d="m28.0921465 18.1784719 6.348169-11.43964065c3.789507 2.49779687 6.1783098 6.79574995 6.3602112 11.43964065z"/><path d="m17.9436324 41.1389844c-9.12485917.0192187-16.56507044-7.7060781-16.58471833-17.22-.01901408-9.5145625 7.38950704-17.26996877 16.51436623-17.28918752 2.706338-.005125 5.3866901.69379687 7.7869014 2.02629687l-.8334507 1.51315625c-2.1454226-1.18003125-4.535493-1.8065625-6.9496479-1.8014375-8.20647889.01729688-14.86711269 6.9917813-14.85000001 15.5479688.01711267 8.5555468 6.7069014 15.5018437 14.91274651 15.4851875 8.0188732-.0166563 14.5451408-6.6817188 14.8233802-14.970125l1.6859155-.0032032c-.2750704 9.2493438-7.566338 16.6927657-16.5054929 16.7113438z"/><path d="m17.4277169 23.5973906c-.0988733.1787344-.0982394.3984688.0012676.5778438.099507.1774531.2826761.287.4804225.287l13.7630282-.0288282c-.2757042 7.6529063-6.3253521 13.7971407-13.7351408 13.8125157-7.5948592.0160156-13.78647892-6.4139375-13.80232399-14.3327032-.01584507-7.9194062 6.14852109-14.3743437 13.74401409-14.39035933 2.2202113-.00448437 4.4220422.56118753 6.399507 1.64192183z"/></g></svg>