<svg height="45" viewBox="0 0 45 45" width="45" xmlns="http://www.w3.org/2000/svg"><path d="m38.2724252 7.5h-31.56146174c-3.70391713.01373582-6.7018545 3.025389-6.71096346 6.7416667v16.5166666c.00913098 3.7195183 3.01210801 6.7325053 6.7192691 6.7416667h31.5614618c3.7071611-.0091614 6.7101381-3.0221484 6.7192691-6.7416667v-16.5166666c-.0091474-3.7227638-3.0171705-6.73708766-6.7275748-6.7416667zm5.0581396 6.7416667v16.5166666c-.0007581.7911674-.1886293 1.5708611-.5481728 2.275l-13.7790697-11.875 13.9534883-8.8333333c.2489435.6080278.3759506 1.2593391.3737542 1.9166667zm-40.18272427-3.5833334c.94541405-.95393876 2.23061926-1.49072614 3.57142857-1.49166663h31.5614618c1.3409932.00001807 2.6265373.536947 3.5714286 1.49166663l.2242525.25-19.152824 12.125c-.2569776.1488607-.5735871.1488607-.8305647 0l-19.16943526-12.125zm-1.48671096 20.1v-16.5166666c.0004371-.6578862.13027078-1.3092185.3820598-1.9166667l13.94518273 8.8333333-13.79568107 11.85c-.34997736-.698024-.53203261-1.4686297-.53156146-2.25zm5.05813953 5.075c-1.32996942-.0022321-2.60499916-.5325191-3.54651162-1.475l14.26910302-12.275 3.7209302 2.3583334c.8059768.5032098 1.8269136.5032098 2.6328904 0l3.7209302-2.3583334 14.2857143 12.3c-.9414651.9292638-2.2092341 1.4500335-3.5299004 1.45z" fill="#323232"/></svg>