<svg height="30" viewBox="0 0 30 30" width="30" xmlns="http://www.w3.org/2000/svg"><path d="m29.8072805 14.0559441-4.496788-4.40559445c-.2569593-.25174825-.6423983-.25174825-.8993576 0s-.2569593.62937065 0 .88111885l3.4689508 3.3986014h-7.7087795l-.5139186-.7552447c.6423983-.1258742 1.1563169-.7552448 1.1563169-1.5104895 0-.8811189-.6423983-1.5104895-1.5417559-1.5104895h-.8993576c-.1284797-.37762242-.2569593-.62937068-.385439-1.13286718l-.1284796-.25174825c-.6423983-1.51048951-1.4132763-2.26573427-1.4132763-2.26573427-.1284796-.12587412-.2569593-.12587412-.3854389-.25174825-.1284797 0-1.9271949-.25174825-5.653105-.25174825h-.1284796c-3.72591007 0-5.65310493.25174825-5.65310493.25174825-.12847966.12587413-.25695932.12587413-.38543898.25174825 0 0-.77087794.75524476-1.41327623 2.26573427-.25695931.62937063-.38543897.88111888-.51391863 1.38461543h-.77087794c-.8993576 0-1.54175589.6293706-1.54175589 1.5104895 0 .6293706.51391863 1.2587412 1.15631692 1.3846153l-.51391863.8811189c0 .1258742-.12847966.2517483-.12847966.3776224v9.0629371c0 .3776223.25695931.6293706.64239829.6293706h3.5974304c.38543898 0 .64239829-.2517483.64239829-.6293706v-1.3846154h9.89293359v1.2587412c0 .3776224.2569593.6293707.6423983.6293707h3.5974304c.385439 0 .6423983-.2517483.6423983-.6293707v-8.1818181h7.5802998l-3.4689508 3.3986014c-.2569593.2517482-.2569593.6293706 0 .8811188.1284797.1258742.2569594.1258742.5139187.1258742s.3854389 0 .5139186-.1258742l4.496788-4.4055944c.2569593-.2517482.2569593-.6293706 0-.8811188zm-28.26552461-2.6433567h1.28479657c.25695932 0 .51391863-.1258741.64239829-.3776224.25695931-.6293706.38543897-1.006993.64239829-1.6363636.38543897-.88111888.77087794-1.51048951 1.02783726-1.76223776.64239828-.12587413 2.44111349-.25174826 5.2676659-.25174826h.1284797c2.9550321 0 4.6252677.12587413 5.267666.25174826.2569593.25174825.6423982.88111888 1.0278372 1.76223776l.1284797.25174825c.2569593.50349655.3854389.88111885.5139186 1.38461535.1284797.2517483.385439.3776224.6423983.3776224h1.2847966c.1284796 0 .2569593.1258741.2569593.2517483 0 .1258741-.2569593.2517482-.385439.2517482h-.7708779c-.2569594 0-.385439.1258741-.5139187.3776224-.1284796.2517482-.1284796.5034965 0 .6293706l1.0278373 1.6363637v1.1328671 2.5174825c-.1284797 1.8881119-.770878 2.3916084-2.9550321 2.3916084h-11.30620988c-2.31263383 0-2.95503212-.6293706-2.95503212-2.8951049v-3.3986014l1.02783726-1.6363636c.12847966-.2517483.12847966-.3776224 0-.6293707-.12847965-.1258741-.38543897-.2517482-.64239828-.2517482h-.64239829c-.12847966 0-.25695932-.1258741-.25695932-.2517483 0-.1258741.12847966-.1258741.25695932-.1258741zm.25695931 11.2027972v-1.5104895c.51391863.3776224 1.28479658.6293706 2.31263384.7552448v.7552447zm14.7751606 0v-.7552447c1.0278373 0 1.7987152-.2517483 2.3126338-.6293707v1.3846154zm-12.07708779-5.7902098c-.6386162 0-1.15631692-.5072019-1.15631692-1.1328671s.51770072-1.1328671 1.15631692-1.1328671 1.15631692.5072019 1.15631692 1.1328671-.51770072 1.1328671-1.15631692 1.1328671zm11.56316919 0c-.6386162 0-1.1563169-.5072019-1.1563169-1.1328671s.5177007-1.1328671 1.1563169-1.1328671 1.1563169.5072019 1.1563169 1.1328671-.5177007 1.1328671-1.1563169 1.1328671z" fill="#323232"/></svg>