<svg height="45" viewBox="0 0 45 45" width="45" xmlns="http://www.w3.org/2000/svg"><path d="m34.965 31.1248h-7.9119643v-14.708c0-7.972 3.6233036-14.7072 7.9119643-14.7072s7.9119643 6.7352 7.9119643 14.7072c0 7.9728-3.6233036 14.708-7.9119643 14.708m-7.9344643-24.1104c-.0433928.1064-.0851786.2136-.1269643.3216-.1374107.3568-.2675893.7224-.388125 1.0992-.0120535.04-.0273214.0776-.039375.1176-.1309821.4152-.2475.8432-.3567857 1.2792-.0289286.116-.0554464.2344-.0827678.352-.0835715.3536-.1591072.7128-.2282143 1.0792-.0200893.108-.0417857.2136-.061875.3232-.0795536.4584-.1486607.9256-.2065179 1.4024-.01125.0984-.0192857.1992-.0305357.2984-.0425893.3936-.0771429.7928-.1036607 1.1968-.0096429.1376-.0184822.2744-.0257143.4136-.0257143.5008-.0433929 1.0056-.0433929 1.5192v9.8448h-4.0138392v1.7096h4.0138392v4.8632 8.9448l-4.0138392-2.0024-3.8973215 1.9456-3.898125-1.9456-3.89812497 1.9456-3.898125-1.9456-4.01383929 2.0032v-13.8088h4.01383929v-1.7096h-4.01383929v-10.1296c0-7.8176 3.62330357-14.4224 7.91196429-14.4224h20.98767857c-.0602679.0512-.1189286.1104-.1783929.164-.0675.06-.1341964.1216-.2008928.1848-.2073214.1952-.4098214.4016-.6066964.6216-.0361608.04-.073125.0768-.1084822.1168-.2274107.2616-.4451786.5408-.6573214.8328-.0530357.0736-.1044643.1504-.1566964.2264-.1663393.24-.3278572.4896-.4845536.7488-.0482143.0808-.0988393.16-.14625.2432-.19125.3304-.3744643.672-.5480357 1.0296-.028125.0584-.0538393.12-.0811607.1792-.14625.3096-.2852679.6288-.4178572.9576m7.9344643-7.0144h-25.33580357c-5.39919643 0-9.62919643 7.0864-9.62919643 16.132v27.4008h2.03625l3.69482143-1.8432 3.898125 1.9448 3.89812497-1.9448 3.898125 1.9448 3.8973215-1.9448 3.6948214 1.8432h2.0354464v-10.6984h7.9119643c5.3991964 0 9.6283929-7.2112 9.6283929-16.4176 0-9.2056-4.2291965-16.4168-9.6283929-16.4168m-.0745714 11.43616c-.8935715 0-2.1399107 1.8952-2.1399107 4.9808s1.2463392 4.9816 2.1399107 4.9816c.8935714 0 2.1399107-1.896 2.1399107-4.9816s-1.2463393-4.9808-2.1399107-4.9808m0 11.6712c-2.1985715 0-3.8571429-2.876-3.8571429-6.6904s1.6585714-6.6904 3.8571429-6.6904c2.1985714 0 3.8571428 2.876 3.8571428 6.6904s-1.6585714 6.6904-3.8571428 6.6904zm-20.3889375 4.8632v-1.7096h4.8720535v1.7096zm-6.82071431 0v-1.7096h4.87205361v1.7096z" fill="#323232" fill-rule="evenodd"/></svg>