<svg height="30" viewBox="0 0 30 30" width="30" xmlns="http://www.w3.org/2000/svg"><path d="m28.1092437 17.2796209c1.2605042 1.1090047 1.8907563 2.7109004 1.8907563 4.4360189s-.6302521 3.2037915-1.8907563 4.436019-3.0252101 1.8483412-4.6638655 1.8483412c-1.6386555 0-3.4033614-.6161137-4.6638656-1.8483412l-5.1680672-4.92891c-.2521009-.2464455-.2521009-.6161137 0-.8625592.2521008-.2464455.6302521-.2464455.8823529 0l5.1680672 4.9289099c2.1428572 1.971564 5.4201681 1.971564 7.5630253 0 1.0084033-.985782 1.512605-2.2180095 1.512605-3.5734597s-.5042017-2.5876777-1.512605-3.5734597l-5.1680673-4.92891c-2.1428571-1.9715639-5.420168-1.9715639-7.5630252 0-.8823529.985782-1.512605 2.0947868-1.512605 3.450237 0 .3696683-.2521009.6161138-.6302521.6161138-.3781513 0-.6302521-.2464455-.6302521-.6161138 0-1.6018957.6302521-3.2037915 1.8907563-4.3127962 2.6470588-2.46445498 6.8067227-2.46445498 9.3277311 0zm-9.8319328-4.0663508c0 1.6018958-.6302521 3.2037915-1.8907563 4.436019s-3.0252101 1.8483412-4.6638655 1.8483412c-1.6386555 0-3.40336137-.6161137-4.66386557-1.8483412l-5.16806723-4.92891c-1.2605042-1.2322274-1.8907563-2.7109004-1.8907563-4.43601891 0-1.72511848.6302521-3.20379147 1.8907563-4.43601896 2.64705883-2.46445497 6.80672269-2.46445497 9.3277311 0l5.1680672 4.80568721c.2521009.24644549.2521009.61611374 0 .86255924-.2521008.2464455-.6302521.2464455-.8823529 0l-5.1680672-4.92890995c-2.14285719-1.97156399-5.42016811-1.97156399-7.56302526 0-1.00840336.98578199-1.51260504 2.21800947-1.51260504 3.57345971s.50420168 2.58767776 1.51260504 3.57345976l5.16806723 4.9289099c2.14285713 1.971564 5.42016803 1.971564 7.56302523 0 .8823529-.985782 1.512605-2.0947867 1.512605-3.450237 0-.3696682.2521009-.6161137.6302521-.6161137.3781513 0 .6302521.2464455.6302521.6161137z" fill="#323232"/></svg>