<svg height="30" viewBox="0 0 30 30" width="30" xmlns="http://www.w3.org/2000/svg"><path d="m22.731003 5.13234182-2.1325595.70078145 2.1852153.5129821c2.0723814.48651374 2.8897999 1.1759516 2.9161278 1.49483237.0062685.07814469-.0401187.16889337-.1391618.27728762-.6669733.71842702-3.0640655 1.43055205-6.4202452 1.37887572-.3309792-.00504159-.6531825-.02016637-.9741321-.03655155l-1.863012-.10839425 1.4217063 1.21502392c1.5608681 1.3372826 2.216558 2.6165869 2.0435462 3.142173-.0162983.0441139-.0526558.1537685-.2620253.228132-.6243472.2293925-2.0974556-.0415931-3.8965284-1.1368792l-1.931966-8.43458534c1.5658829-.79909251 3.6219661-1.55028989 5.8598371-2.12377111 2.4510017-.63019914 4.8117363-.97806907 6.6434055-.98185026h.0238205c1.9808607 0 2.5136871.40836904 2.540015.5117217.0927745.3642551-1.560868 1.89815982-6.0140434 3.36022183zm-9.884244 23.35644068-4.73149882-20.65288636-.22316025-.59616839-.61181013.14242501-4.16482224 3.24300474-1.55209209-3.29720187 5.80342027-4.54247542 4.42559376-1.0259642 5.8686131 25.61381399zm17.1131317-27.02924128c-.2469807-.96924629-1.509466-1.45954122-3.7548593-1.45954122h-.0250742c-1.9344734.00378119-4.403027.3655155-6.9530717 1.01966221-2.1977523.56591883-4.2275077 1.30073103-5.8372704 2.08847996l-.6569436-2.85984371-5.78336095 1.33854298-6.94931055 5.3667759 2.65786368 5.64784476 4.44941424-3.55054201 4.79919908 20.94907991 7.2577231-1.6813713-3.1781531-13.8757247c1.1095328.53819 2.1613948.8280816 3.0126635.8280816.3472774 0 .6619585-.0478951.9327597-.1462062.5102596-.1852785.8650594-.5369296 1.0255341-1.0171414.3372478-1.0120998-.3134273-2.2598941-1.2587241-3.3501386 3.1668697-.0327704 5.7921369-.7159063 6.7788061-1.77968241.4362908-.47138896.4977226-.93395513.4713947-1.24275271-.0789837-.94529871-1.0267879-1.60070582-2.0661129-2.04184522 2.3156011-.91504916 5.5125597-2.51575498 5.0775226-4.23367784z" fill="#414141" fill-rule="evenodd"/></svg>