<?xml version="1.0" encoding="UTF-8"?>
<svg width="45px" height="45px" viewBox="0 0 45 45" version="1.1" xmlns="http://www.w3.org/2000/svg" xmlns:xlink="http://www.w3.org/1999/xlink">
    <!-- Generator: Sketch 49.3 (51167) - http://www.bohemiancoding.com/sketch -->
    <title>global/default/social/iconFacebook</title>
    <desc>Created with Sketch.</desc>
    <defs></defs>
    <g id="global/default/social/iconFacebook" stroke="none" stroke-width="1" fill="none" fill-rule="evenodd">
        <path d="M31.0489781,45 L31.0489781,27.5735964 L36.8984132,27.5735964 L37.7741509,20.7821615 L31.0489781,20.7821615 L31.0489781,16.4462991 C31.0489781,14.4798516 31.5950917,13.1399427 34.4148523,13.1399427 L38.0110418,13.1382566 L38.0110418,7.06423875 C37.388887,6.98145338 35.2541711,6.79666161 32.7706102,6.79666161 C27.5856498,6.79666161 24.0358268,9.96155792 24.0358268,15.7737312 L24.0358268,20.7821615 L18.1715544,20.7821615 L18.1715544,27.5735964 L24.0358268,27.5735964 L24.0358268,45 L2.48364338,45 C1.11169936,45 8.24294199e-05,43.8878773 8.24294199e-05,42.5162704 L8.24294199e-05,2.48372956 C8.24294199e-05,1.11178553 1.11169936,0 2.48364338,0 L42.5161843,0 C43.8876225,0 44.9997452,1.11178553 44.9997452,2.48372956 L44.9997452,42.5162704 C44.9997452,43.8878773 43.8876225,45 42.5161843,45 L31.0489781,45 Z" id="Fill-1" fill="#395185"></path>
    </g>
</svg>