<svg height="30" viewBox="0 0 30 30" width="30" xmlns="http://www.w3.org/2000/svg"><path d="m26.8879668 5.18181818h-13.1950207c-.373444 0-.8713693-.12272727-1.120332-.36818182l-2.98755186-2.57727272c-.49792531-.49090909-1.24481328-.73636364-1.86721992-.73636364h-4.73029045c-1.61825726 0-2.98755187 1.35-2.98755187 2.94545455v21.23181815c0 1.4727273 1.36929461 2.8227273 2.98755187 2.8227273h24.02489623c1.6182573 0 2.9875519-1.35 2.9875519-2.9454545v-17.42727277c-.1244813-1.59545455-1.4937759-2.94545455-3.1120332-2.94545455zm1.7427386 20.37272732c0 .9818181-.746888 1.7181818-1.7427386 1.7181818h-23.90041493c-.99585063 0-1.74273859-.7363637-1.74273859-1.7181818v-21.10909095c0-.98181819.74688796-1.71818182 1.74273859-1.71818182h4.73029045c.37344399 0 .8713693.12272727 1.12033195.36818182l2.86307053 2.57727272c.4979253.49090909 1.2448133.73636364 1.9917013.73636364h13.319502c.8713693 0 1.6182573.73636364 1.6182573 1.71818182zm-21.78423237-9.9409091h6.22406637v-6.13636367h-6.22406637zm1.24481328-4.9090909h3.73443979v3.6818181h-3.73443979zm-1.24481328 13.5h6.22406637v-6.1363637h-6.22406637zm1.24481328-4.909091h3.73443979v3.6818182h-3.73443979zm9.95850619-3.6818181h6.2240664v-6.13636367h-6.2240664zm1.2448133-4.9090909h3.7344398v3.6818181h-3.7344398z" fill="#323232"/></svg>