<svg height="45" viewBox="0 0 45 45" width="45" xmlns="http://www.w3.org/2000/svg"><path d="m38.2272246 9.03038917-17.0747965 17.08547733c-.0984819.7920158-.0881483 1.9534101.2067237 2.2775043.5729643.559774 1.3369167.559774 1.9576281.559774.4297232 0 .8116994 0 1.0504345.2332392.8116994.7930132-.7639524 2.3790396-.8594464 2.4256874-.6207114.6064219-1.3369167.7930132-1.9576281.9329567-.6684583.1399435-1.2414226.3265349-1.909881.9329567-.5252172.5131262-.4774702 2.0525047-.4774702 3.1720528v.8863088c-.047747 1.8659134-.9549405 3.9184182-2.3396042 5.2712054-1.5756518 1.4460828-3.6765209 2.1924482-5.8728841 2.1924482-2.67383336 0-5.4431608-1.0729002-7.63952394-3.2187006-1.90988099-1.8659134-3.10355661-4.2916008-3.29454471-6.763936-.14324107-2.4723353.66845835-4.7580792 2.33960422-6.3907534 1.52790479-1.4927307 3.58102686-1.9592091 5.53865488-2.2857439.23873512-.0466478.52521727-.0932957.81169942-.0932957 1.00268752-.1399435 2.43509823-.279887 2.96031553-.7930132.6684584-.6530697.8116994-1.399435.9549405-2.1924482.1432411-.7463654.2864822-1.5393785.8594464-2.1458004 1.4324108-1.5393785 3.6287739-1.3061394 4.6792085-.7930132.7405678.3617596 1.5523323 1.0249354 2.0002754 1.401061l15.7616178-15.03015887c.0030339-.00288766.0060393-.00565947.009017-.00831767l.5643202-1.90217093.0659205-.06387831.4426929-.42897892c-.0016009-.00152527-.0031935-.00306373-.0047777-.0046154l-.4387952-.4286936c-.1866908-.18239304-.1866908-.47767383 0-.65960039.1866909-.18239303.4889296-.18239303.675143 0l.4392726.4286936c.0024274.00237765.0048233.00477448.0071874.00719l.8838091-.85643003c-.0190267-.01375007-.037244-.02906071-.0544686-.04593192l-.4392727-.4286936c-.1862134-.18239303-.1862134-.47767382.0004775-.66006686.1862134-.18192655.4889295-.18192655.6751429.00046648l.4387952.4286936c.0181969.01777803.0346202.03662857.0492698.05634209l.8874893-.85999622c-.0176145-.01298615-.0345215-.02732084-.0505743-.04300407l-.4387952-.42916008c-.1862134-.18192655-.1862134-.47720735.0004775-.65960038.1862134-.18192656.4884521-.18192656.6751429 0l.4387952.42916008c.0168948.01654816.0322567.03402556.0460858.05226324l.2221271-.21524592c.3623469-.35126106.9219901-.41843152 1.3608306-.16324667l1.2148022.70697219c.1813376.10525181.332306.25425319.4389573.43250066l.663114 1.10773218c.2499918.41712332.1896953.94531541-.1480459 1.29860541l-.2626988.27483381c.0500152.02249712.0968555.05389645.1380063.09420302l.4387952.42869361c.1866908.18239303.1862134.47767382 0 .65960038-.1866909.18239303-.4889296.18239303-.675143 0l-.4392726-.4286936c-.032962-.03228576-.0600893-.06810865-.0813794-.10621646l-.8082603.84559671c.0258484.01685755.0503792.03644533.0731656.0587642l.4387951.4286936c.1866909.18239304.1862134.47767383 0 .65960039-.1866908.18239303-.4889295.18239303-.6751429 0l-.4392726-.42869361c-.0147669-.0144639-.0283627-.02963771-.0407873-.04540884l-.9068003.94868858.4309648.42058582c.1862134.18239303.1862134.47767382-.0004775.66006686-.1862134.18192655-.4889295.18192655-.6751429-.00046648l-.4073944-.39801571-.5588208.58463469zm-1.2408487-.62356349-.1123064-.12147106-.287914-.28128589c-.1828711-.17866121-.4789026-.18052712-.6641611-.00373183l-18.5440457 17.6696784 1.4681394 1.4343412 18.0867108-18.11648494c.1595119-.15954043.1769349-.40316897.053577-.58104588zm-17.5214104 13.98066942c-.4241918-.35402-1.1407635-.9191947-1.7345875-1.2245387-.8594465-.4198305-2.4828453-.5131261-3.5332799.6064219-.3819762.4198305-.5252173 1.0262524-.6207113 1.679322-.1432411.8863089-.3342292 1.8659134-1.1936756 2.7055745-.7639524.7463653-2.2918572.9329567-3.48553283 1.0729002-.28648215.0466478-.52521728.0466478-.7639524.0932956-1.81438694.279887-3.67652091.6997175-5.01343761 2.0058569-1.48015777 1.4460829-2.19636314 3.4519398-2.05312206 5.6910359.1909881 2.239096 1.24142264 4.4315443 3.00806256 6.1575141 3.62877389 3.5452355 9.07193474 3.965066 12.12774434.9329567 1.1936756-1.1661958 2.005375-2.9854614 2.053122-4.6181356 0-.279887 0-.559774 0-.839661-.047747-1.4460829-.047747-3.0787571.7639524-3.8251225.8116994-.7930132 1.6233989-.9796045 2.3396042-1.1661958.5729643-.1399435 1.0981816-.2798871 1.5279048-.6997176.3819762-.3731826.6684584-.839661.7639524-1.0729002-.095494 0-.1909881 0-.2864821 0-.6684584 0-1.7666399 0-2.6260864-.839661-.5194126-.5074552-.6009197-1.3047269-.5595418-1.9564356l-.7041428.7045832c.0882688.2241566.0399846.4878278-.1448526.6687545l-1.3369167 1.3061393c-.2506719.2449012-.6569991.2449012-.9071935 0l-2.5305923-2.4723352c-.2506719-.2449011-.2506719-.6414077 0-.8863089l1.3369167-1.3061393c.2191251-.2144892.5580134-.2411246.8072039-.0799062zm-6.7241516 11.6269398-2.5305924-2.4723352c-.25067183-.2449012-.25067183-.6414078 0-.8863089l1.3369167-1.3061394c.2501945-.2449011.6565216-.2449011.9071935 0l2.5305923 2.4723353c.2506719.2449011.2506719.6414077 0 .8863088l-1.3369167 1.3061394c-.2506718.2449011-.656999.2449011-.9071934 0zm-1.1936757-2.5189831 1.1936757 1.1661959c.2501944.2449011.6565216.2449011.9071934 0 .2501944-.2449011.2501944-.6414077 0-.8863089l-1.1936756-1.1661958c-.2506719-.2449012-.656999-.2449012-.9071935 0-.2506718.2449011-.2506718.6414077 0 .8863088zm-1.3130431 8.8397647c.4746054 0 .8594464.3759816.8594464.839661 0 .4636795-.384841.8396611-.8594464.8396611-.47460547 0-.85944649-.3759816-.85944649-.8396611 0-.4636794.38484102-.839661.85944649-.839661zm2.1963631-2.1458004c.4746054 0 .8594464.3759816.8594464.8396611 0 .4636794-.384841.839661-.8594464.839661s-.8594464-.3759816-.8594464-.839661c0-.4636795.384841-.8396611.8594464-.8396611zm.9071935 2.5656309c.4746054 0 .8594464.3759816.8594464.8396611 0 .4636794-.384841.839661-.8594464.839661-.4746055 0-.8594465-.3759816-.8594465-.839661 0-.4636795.384841-.8396611.8594465-.8396611zm2.1963631-2.1458004c.4746054 0 .8594465.3759816.8594465.8396611 0 .4636794-.3848411.839661-.8594465.839661s-.8594464-.3759816-.8594464-.839661c0-.4636795.384841-.8396611.8594464-.8396611zm-7.38646472-4.9679944 2.63324842 2.5735611c.1866909.1819265.1862134.4772073 0 .6596004-.1866909.1819265-.4889295.1819265-.6751429 0l-2.63372592-2.5730946c-.1862134-.182393-.1862134-.4776738 0-.6600669.18669086-.1819265.48892953-.1819265.6756204 0zm7.74456742-6.3907533 1.1936756 1.1661958c.2501944.2449012.6565216.2449012.9071935 0 .2501944-.2449011.2501944-.6414077 0-.8863088l-1.1936756-1.1661959c-.2506719-.2449011-.6569991-.2449011-.9071935 0-.2506719.2449011-.2506719.6414077 0 .8863089zm22.0416534-18.86284838 1.7648286-.55620643 4.3241005-4.5238459c.1216338-.12723356.143346-.31743069.0533362-.46761651l-.6632443-1.10794984c-.0456224-.07624917-.1098412-.13963116-.1868501-.18432894l-1.2150533-.70711803c-.1580479-.09190454-.3595024-.06772522-.4900029.05878268l-4.3893545 4.25337881-.531676 1.7921357z" fill="#323232" fill-rule="evenodd"/></svg>