<svg height="11" viewBox="0 0 11 11" width="11" xmlns="http://www.w3.org/2000/svg"><path d="m8.23341193 11h-5.36611653c-.30663523 0-.61327046-.1527778-.76658807-.4583333-.15331762-.3055556-.15331762-.61111114.15331761-.76388892l4.59952845-5.5c.15331762-.30555556.30663523-.61111111.30663523-1.06944445 0-1.06944444-.76658807-1.83333333-1.83981138-1.83333333-.76658807 0-1.37985853.45833333-1.68649376 1.06944444-.15331762.45833334-.61327046.61111112-1.07322331.45833334-.30663523 0-.45995284-.45833334-.30663523-.91666667.45995285-1.22222222 1.68649377-1.98611111 3.0663523-1.98611111 1.83981138 0 3.37298753 1.52777778 3.37298753 3.36111111 0 .76388889-.30663523 1.375-.61327046 1.98611111l-3.52630514 4.27777778h3.67962276c.45995284 0 .76658807.30555556.76658807.7638889 0 .4583333-.30663523.6111111-.76658807.6111111z" fill="#323232"/></svg>