<svg height="45" viewBox="0 0 45 45" width="45" xmlns="http://www.w3.org/2000/svg"><g fill="#323232" fill-rule="evenodd"><path d="m9.94444444 30.953125h-4.81481481v5.8125h4.81481481zm-.96296296 4.84375h-2.88888889v-3.875h2.88888889zm8.18518522-4.84375h-4.8148148v5.8125h4.8148148zm-.962963 4.84375h-2.8888889v-3.875h2.8888889zm8.1851852-4.84375h-4.8148148v5.8125h4.8148148zm-.962963 4.84375h-2.8888889v-3.875h2.8888889zm-13.48148146-12.109375h-4.81481481v5.8125h4.81481481zm-.96296296 4.84375h-2.88888889v-3.875h2.88888889zm8.18518522-4.84375h-4.8148148v5.8125h4.8148148zm-.962963 4.84375h-2.8888889v-3.875h2.8888889zm8.1851852-4.84375h-4.8148148v5.8125h4.8148148zm-.962963 4.84375h-2.8888889v-3.875h2.8888889zm-13.48148146-12.109375h-4.81481481v5.8125h4.81481481zm-.96296296 4.84375h-2.88888889v-3.875h2.88888889zm8.18518522-4.84375h-4.8148148v5.8125h4.8148148zm-.962963 4.84375h-2.8888889v-3.875h2.8888889zm8.1851852-4.84375h-4.8148148v5.8125h4.8148148zm-.962963 4.84375h-2.8888889v-3.875h2.8888889zm-21.4259259-7.265625v31h9.6296296 6.7407408 9.6296296v-31zm10.5925926 30.03125v-3.875h1.9259259v3.875zm2.8888889 0v-3.875h1.9259259v3.875zm11.5555555 0h-8.6666666v-4.84375h-6.7407408v4.84375h-8.66666664v-29.0625h24.07407404z" fill-rule="nonzero"/><path d="m31.75 6.75v-4.5c0-1.24264069 1.0073593-2.25 2.25-2.25s2.25 1.00735931 2.25 2.25v4.5h4.5c1.2426407 0 2.25 1.00735931 2.25 2.25 0 1.2426407-1.0073593 2.25-2.25 2.25h-4.5v4.5c0 1.2426407-1.0073593 2.25-2.25 2.25s-2.25-1.0073593-2.25-2.25v-4.5h-4.5c-1.2426407 0-2.25-1.0073593-2.25-2.25 0-1.24264069 1.0073593-2.25 2.25-2.25z"/></g></svg>