<svg height="30" viewBox="0 0 30 30" width="30" xmlns="http://www.w3.org/2000/svg"><path d="m0 23.2333333h30v1.2666667h-30zm3.25-10.7666666c-.375 0-.625-.2533334-.75-.5066667v-.8866667c0-.38.25-.6333333.625-.6333333s.625.2533333.625.6333333v.8866667c0 .2533333-.25.5066667-.5.5066667zm2 0c-.25 0-.5-.2533334-.5-.5066667v-.8866667c0-.38.25-.6333333.5-.6333333.375 0 .625.2533333.625.6333333v.76c0 .38-.25.6333334-.625.6333334zm2.125 0c-.25 0-.5-.2533334-.5-.5066667v-.8866667c0-.38.125-.6333333.5-.6333333s.625.2533333.625.6333333v.76c0 .38-.25.6333334-.625.6333334zm-4.125 2.9133333c-.375 0-.625-.2533333-.625-.6333333v-.8866667c0-.38.25-.6333333.625-.6333333s.625.2533333.625.6333333v.8866667c0 .38-.25.6333333-.625.6333333zm2 0c-.25 0-.5-.2533333-.625-.6333333v-.8866667c0-.38.25-.6333333.625-.6333333s.625.2533333.625.6333333v.8866667c0 .38-.25.6333333-.625.6333333zm2.125 0c-.25 0-.5-.2533333-.625-.6333333v-.8866667c0-.38.25-.6333333.625-.6333333s.625.2533333.625.6333333v.8866667c0 .38-.25.6333333-.625.6333333zm2.125-2.9133333c-.25 0-.5-.2533334-.625-.5066667v-.8866667c0-.38.25-.6333333.625-.6333333s.625.2533333.625.6333333v.76c0 .38-.25.6333334-.625.6333334zm-7.125 6.08h13.875c1.25 0 2.375-1.0133334 2.375-2.4066667v-8.23333333c0-1.26666667-1-2.40666667-2.375-2.40666667h-13.875c-1.375.12666667-2.375 1.14-2.375 2.40666667v8.23333333c0 1.2666667 1 2.4066667 2.375 2.4066667zm-1.125-10.64000003c0-.63333334.5-1.14 1.125-1.14h13.875c.625 0 1.125.50666666 1.125 1.14v8.23333333c0 .6333333-.5 1.14-1.125 1.14h-13.875c-.625 0-1.125-.5066667-1.125-1.14zm15.25 5.06666663h-3.75v2.9133334h3.75zm-.875 1.9h-1.875v-1.0133333h1.875zm9.5 3.8 4.625-9.7533333c.5-1.14 0-2.53333333-1.125-3.04-.25-.12666667-.625-.25333333-1-.25333333-.875 0-1.625.50666666-2.125 1.39333333l-4.625 9.7533333.25 5.1933334zm-2.875-.76 1 .5066667-1 .8866667zm4.5-10.5133333c.125-.38.5-.63333333.875-.63333333.125 0 .25 0 .375.12666666.5.25333334.75.88666667.5 1.39333334l-4.25 9.24666663-1.875-.8866666z" fill="#323232"/></svg>