<svg height="45" viewBox="0 0 45 45" width="45" xmlns="http://www.w3.org/2000/svg"><path d="m17.7586441 33.0521355c2.0684936-.9433607 5.1021656-1.7788061 7.7451717-2.1218498 6.0566527-.781865 10.5787185-2.3676258 13.9450998-5.7355639 5.3587515-5.3612296 5.3154306-14.1362353-.101974-19.55614514-2.4936423-2.4947955-5.9885667-3.98133289-9.5796443-4.07208885-3.7857217-.09925654-7.3038982 1.30532609-9.9664892 3.97013597-3.3574025 3.35812429-4.9419302 7.88763772-5.7266165 13.95888622-.3831343 2.9670816-1.2433843 6.0773141-2.2884822 8.1396645.8401721.1084672 1.6186188.3434775 2.3243558.705063 1.3673836.6993656 2.539781 1.982181 3.2442182 3.5404935.1614797.3763412.2970479.7699558.4043607 1.1714045zm-1.4202392.7684566c-.0964986-.4544652-.2367119-.9005828-.4122968-1.3100724-.5570002-1.2318815-1.4848464-2.2471135-2.5270083-2.7801406-.7365-.3773468-1.592162-.580243-2.5562053-.6015236-.0849191.102388-.170409.1968827-.2563447.282975-.89072012.8970861-2.12580839 2.1361669-3.25875925 3.2696417l-.31675231.3168987-.4332701-.1138114c-1.29752507-.3408339-2.75648024.0757547-3.79213947 1.1118928-1.54100667 1.5408458-1.6328541 3.9267778-.24696779 5.3141538.44908293.4484555 1.02087899.7548626 1.66284839.8913335l.49581474.1054011.10535241.4960441c.13599598.640327.44346263 1.213235.89377356 1.6654322 1.39329469 1.400449 3.81604709 1.251354 5.30484212-.2490481 1.0381104-1.0464586 1.4605732-2.4986068 1.126532-3.7792582l-.112253-.4303574.3127621-.3160841c.1129071-.1141064.3105776-.3135755.5651775-.5699772.4243466-.4273496.8499046-.85472 1.2488998-1.2537397.7513578-.7512379 1.3004696-1.294312 1.6120455-1.5922796.1584712-.1516407.3548698-.3046302.5839489-.4574806zm-6.85773582-5.510726c1.24283202-1.2450997 2.56434562-5.2877907 3.04557152-9.0145168.8250768-6.3837573 2.5105185-11.2017421 6.1708624-14.86287294 2.9651819-2.96765304 6.8972641-4.53748172 11.1103469-4.42702 3.9886806.10080404 7.8651276 1.74961895 10.6431628 4.52893882 6.0245181 6.02730412 6.07272 15.79100092.101974 21.76450812-3.6691313 3.670828-8.4801683 5.3579229-14.8484963 6.1800225-3.454378.4483543-7.7417074 1.8472035-8.8709637 2.9277861-.3005256.2874-.8443044.8251997-1.5581805 1.5389588-.4266463.4266692-.8509735.8528036-1.2741341 1.2789588-.0982589.0989543-.1880018.1893919-.267613.2696628.2806829 1.7021686-.3204169 3.5113378-1.6241459 4.8255509-2.0708583 2.0870034-5.48289794 2.2969786-7.51858316.2508405-.54884563-.5511445-.95334338-1.2232033-1.18895518-1.9666925-.74436077-.2355823-1.41607545-.6395222-1.96618018-1.1888591-2.01556011-2.0177255-1.88571427-5.3907468.24677929-7.5230177 1.30712355-1.307728 3.12562605-1.9026006 4.84158801-1.6146229 1.04583751-1.0468615 2.14418875-2.1490417 2.9569671-2.9676254zm10.98673342-13.9029836c-.1384021.4083735-.5814983.6271766-.9896831.4887105-.4081847-.1384662-.6268867-.5817673-.4884846-.9901408.815737-2.4069376 1.9518816-4.35709593 3.3859024-5.79177984 1.8609238-1.86178435 4.4550811-2.9259981 7.1460355-2.9257677 1.1952268.02905632 2.4157152.26361046 3.5601033.682291.4047935.1480959.6129436.5964531.4649161 1.00143384-.1480274.40498074-.5961774.61322705-1.0009709.46513115-.985744-.36063973-2.0380753-.56287733-3.0430062-.58753798-2.2600228 0-4.4566214.90112133-6.0234067 2.46863117-1.2526963 1.25327556-2.2684054 2.99670986-3.0114058 5.18902866z" fill="#323232"/></svg>