<svg height="30" viewBox="0 0 30 30" width="30" xmlns="http://www.w3.org/2000/svg"><path d="m30 9.91395349c0-4.64651163-3.75-8.41395349-8.375-8.41395349-2.75 0-5.125 1.38139535-6.625 3.39069767-1.5-2.00930232-4-3.39069767-6.625-3.39069767-4.625.1255814-8.375 3.89302326-8.375 8.41395349 0 2.13488371.875 4.14418601 2.125 5.65116281l12.875 12.9348837 12.875-12.9348837c1.25-1.5069768 2.125-3.3906977 2.125-5.65116281zm-15 16.82790701-11.875-12.055814c-1.25-1.2558139-1.875-3.0139535-1.875-4.77209301 0-3.89302326 3.125-7.15813954 7.125-7.15813954 2.25 0 4.375 1.00465117 5.625 2.8883721l1 1.38139535 1-1.38139535c1.375-1.88372093 3.375-2.8883721 5.625-2.8883721 3.875 0 7.125 3.13953489 7.125 7.15813954 0 1.75813951-.625 3.39069771-1.875 4.77209301zm.625-12.4325582v-3.3906976c.5.1255813 1.25.3767441 1.875.8790697.25.2511628.625.2511628.875 0s.25-.627907 0-.8790697c-.875-.8790698-1.875-1.13023261-2.625-1.255814v-.87906977c0-.37674419-.25-.62790698-.625-.62790698s-.75.25116279-.75.62790698v.75348837c-1.625.1255814-3 1.3813954-3 3.0139535s1.375 2.8883721 3 3.0139535v3.7674418c-.625-.1255814-1.375-.3767441-2.125-1.0046511-.25-.2511628-.625-.2511628-.875 0s-.25.627907 0 .8790697c1 .8790698 2.125 1.255814 2.875 1.3813954v1.7581395c0 .3767442.25.627907.625.627907s.625-.2511628.625-.627907v-1.7581395c1.75-.1255814 3.125-1.5069768 3.125-3.1395349.125-1.6325581-1.25-3.0139535-3-3.1395349zm-3-1.7581395c0-.8790698.75-1.6325581 1.75-1.7581395v3.3906976c-1 0-1.75-.7534883-1.75-1.6325581zm3 6.7813953v-3.7674418c1.125.1255814 1.875.8790697 1.875 1.8837209 0 .8790698-.75 1.7581395-1.875 1.8837209z" fill="#323232"/></svg>