<?xml version="1.0" standalone="no"?>
<!DOCTYPE svg PUBLIC "-//W3C//DTD SVG 1.1//EN" "http://www.w3.org/Graphics/SVG/1.1/DTD/svg11.dtd" >
<svg xmlns="http://www.w3.org/2000/svg" xmlns:xlink="http://www.w3.org/1999/xlink" version="1.1" viewBox="0 0 1001 1001">
  <g transform="matrix(1 0 0 -1 0 1001)">
   <path fill="currentColor"
d="M83.4167 1001v-1001h250.25h333.667h250.25v1001h-834.167zM375.375 41.7083v166.833h104.271v-166.833h41.7083v166.833h104.271v-166.833h-250.25zM875.875 41.7083h-208.542v208.542h-333.667v-208.542h-208.542v917.583h750.75v-917.583zM375.375 875.875h-166.833
v-208.542h166.833v208.542zM333.667 709.042h-83.4167v125.125h83.4167v-125.125zM375.375 583.917h-166.833v-208.542h166.833v208.542zM333.667 417.083h-83.4167v125.125h83.4167v-125.125zM583.917 875.875h-166.833v-208.542h166.833v208.542zM542.208 709.042
h-83.4167v125.125h83.4167v-125.125zM583.917 583.917h-166.833v-208.542h166.833v208.542zM542.208 417.083h-83.4167v125.125h83.4167v-125.125zM792.458 875.875h-166.833v-208.542h166.833v208.542zM750.75 709.042h-83.4167v125.125h83.4167v-125.125zM792.458 583.917
h-166.833v-208.542h166.833v208.542zM750.75 417.083h-83.4167v125.125h83.4167v-125.125z" />
  </g>

</svg>
