<svg height="30" viewBox="0 0 30 30" width="30" xmlns="http://www.w3.org/2000/svg"><path d="m29.9037433 27.9661017-3.8502674-5.720339c-.7700534-1.1440678-2.3101604-1.1440678-3.0802139 0l-1.6684492 2.9237288-4.3636363-6.2288135c-.3850268-.5084746-.8983958-.8898305-1.540107-.8898305-.6417112 0-1.1550802.2542372-1.5401069.8898305l-6.41711233 9.1525423c-.12834225.2542373-.12834225.5084746 0 .6355933 0 .1271186.12834224.2542372.38502674.2542372h21.56149729c.2566845 0 .513369-.1271186.513369-.3813559.1283423-.1271186.1283423-.3813559 0-.6355932zm-20.79144383-.2542373 5.77540103-8.1355932c.1283423-.2542373.2566845-.3813559.513369-.3813559.1283423 0 .3850268.1271186.513369.3813559l5.0053476 6.9915254c.1283422.1271187.3850267.2542373.513369.2542373.2566845 0 .3850267-.1271186.513369-.2542373l2.4385026-3.6864407c.2566845-.3813559.6417113-.3813559.8983958 0l2.9518716 4.8305085zm4.62032083-16.5254237c1.9251337 2.9237288 4.7486631 5.0847457 8.0855615 6.2288135l.8983957-.6355932c-.1283422-2.4152542-1.1550802-4.5762712-2.9518716-6.1016949 1.7967914-.2542373 3.4652406-.6355932 5.0053476-1.39830508l.1283422-1.01694916c-2.6951871-2.54237288-6.802139-2.92372881-9.8823529-1.01694915-.2566845-3.43220339-2.8235294-6.3559322-6.28877007-7.24576271-.38502674.12711864-.77005348 0-1.02673797 0l-.77005348.76271186c.51336899 1.65254238 1.28342246 3.30508475 2.18181819 4.83050848-1.79679145-.38135593-3.97860963-.12711865-5.77540107.88983051-.2566845.12711864-.51336899.25423729-.77005348.50847457v1.01694916c2.31016043 1.39830508 4.87700535 2.28813562 7.57219248 2.54237292-6.16042777 4.3220339-10.01069515 11.3135593-10.1390374 18.8135593l.64171123.6355932h4.7486631l.64171123-.6355932v-.2542373c0-9.5338983 5.26203204-15.3813559 7.70053474-17.9237288zm-8.9839572 17.5423729h-3.46524064c.38502674-7.5 4.62032086-14.4915255 11.29411764-18.1779661l-.2566845-1.27118648c-2.95187164.12711864-5.64705881-.50847458-8.21390373-1.77966102 2.05347594-1.01694915 4.62032086-1.01694915 6.67379683.12711864l.7700534-1.01694915c-1.2834224-1.52542373-2.31016039-3.30508474-3.08021386-5.08474576 3.20855616.88983051 5.26203206 3.81355932 5.13368986 7.11864407l1.0267379.50847457c2.4385027-2.0338983 5.9037434-2.16101695 8.4705883-.50847457-1.7967915.63559322-3.5935829 1.01694915-5.5187166 1.01694915l-.2566845 1.27118645c2.0534759 1.0169491 3.4652407 2.7966102 3.8502674 4.9576271-2.8235294-1.2711864-5.2620321-3.3050847-6.802139-5.97457626l-1.026738-.12711865c-2.053476 2.03389831-8.47058825 8.26271191-8.5989305 18.94067801z" fill="#323232"/></svg>