<svg height="30" viewBox="0 0 30 30" width="30" xmlns="http://www.w3.org/2000/svg"><path d="m19.4143775 30h-.1261892c-1.5142704-.3813559-2.7761624-1.2711864-3.6594868-2.5423729-.8833245-1.2711864-1.1357029-2.9237288-.7571353-4.3220339l.8833245-4.3220339h-8.45467654c-1.89283802 0-3.53329764-.8898305-4.66900045-2.2881356s-1.38808121-3.559322-.88332441-5.338983l2.01902722-6.99152545c.75713521-2.41525423 3.02854084-4.19491525 5.55232487-4.19491525h9.71656851c.1261892 0 .3785676.12711864.5047568.12711864l3.0285408 3.17796611h4.7951897c.3785676 0 .630946.25423728.630946.63559322 0 1.27118644.5047568 12.07627123.5047568 12.33050843 0 .2542373-.2523784.5084746-.5047568.6355933l-3.9118652.8898305-2.5237841 4.7033898-1.5142704 6.9915254c-.1261892.2542373-.3785676.5084746-.630946.5084746zm-9.96894691-28.72881356c-2.01902723 0-3.78567605 1.39830509-4.29043285 3.30508475l-2.14521642 6.99152541c-.37856761 1.3983051-.12618921 2.9237288.7571352 4.0677966s2.14521643 1.779661 3.65948684 1.779661h9.21181174c.2523784 0 .3785676.1271187.5047568.2542373.1261892.1271187.1261892.381356.1261892.5084746l-1.1357028 5.0847458c-.2523784 1.1440678 0 2.4152542.630946 3.4322034.5047568.8898305 1.261892 1.5254237 2.2714056 1.779661l1.3880812-6.3559322v-.1271187l2.6499732-5.0847457c.1261892-.1271187.2523784-.2542373.3785676-.2542373l3.6594869-.8898305c-.1261892-1.7796611-.2523784-8.00847461-.3785676-11.18644071h-4.4166221c-.1261892 0-.3785676-.12711865-.5047568-.12711865l-3.0285408-3.1779661z" fill="#323232"/></svg>