<svg height="30" viewBox="0 0 30 30" width="30" xmlns="http://www.w3.org/2000/svg"><path d="m26.25 4h-22.5c-2.125 0-3.75 1.65454545-3.75 3.81818182v13.36363638c0 2.0363636 1.625 3.8181818 3.75 3.8181818h22.5c2.125 0 3.75-1.7818182 3.75-3.8181818v-13.36363638c0-2.16363637-1.625-3.81818182-3.75-3.81818182zm2.5 17.1818182c0 1.4-1.125 2.5454545-2.5 2.5454545h-22.5c-1.375 0-2.5-1.1454545-2.5-2.5454545v-13.36363638c0-1.4 1.125-2.54545455 2.5-2.54545455h22.5c1.375 0 2.5 1.14545455 2.5 2.54545455zm-23.625-9.2909091c-.5 0-1 .3818182-1 1.0181818v1.4c0 .5090909.375 1.0181818 1 1.0181818s1-.3818182 1-1.0181818v-1.4c0-.6363636-.5-1.0181818-1-1.0181818zm3.5 0c-.5 0-1 .3818182-1 1.0181818v1.4c0 .5090909.375 1.0181818 1 1.0181818.5 0 1-.3818182 1-1.0181818v-1.4c-.125-.6363636-.5-1.0181818-1-1.0181818zm3.375 0c-.5 0-1 .3818182-1 1.0181818v1.4c0 .5090909.375 1.0181818 1 1.0181818.5 0 1-.3818182 1-1.0181818v-1.4c-.125-.6363636-.5-1.0181818-1-1.0181818zm-6.875 4.7090909c-.5 0-1 .3818182-1 1.0181818v1.4c0 .5090909.375 1.0181818 1 1.0181818s1-.3818181 1-1.0181818v-1.4c0-.5090909-.5-1.0181818-1-1.0181818zm3.5 0c-.5 0-1 .3818182-1 1.0181818v1.4c0 .5090909.375 1.0181818 1 1.0181818.5 0 1-.3818181 1-1.0181818v-1.4c-.125-.5090909-.5-1.0181818-1-1.0181818zm3.375 0c-.5 0-1 .3818182-1 1.0181818v1.4c0 .5090909.375 1.0181818 1 1.0181818.5 0 1-.3818181 1-1.0181818v-1.4c-.125-.5090909-.5-1.0181818-1-1.0181818zm3.375-4.7090909c-.5 0-1 .3818182-1 1.0181818v1.4c0 .5090909.375 1.0181818 1 1.0181818.5 0 1-.3818182 1-1.0181818v-1.4c0-.6363636-.5-1.0181818-1-1.0181818zm5.25 8.7818182h6.125v-4.8363637h-6.125zm1.25-3.4363637h3.625v2.2909091h-3.625z" fill="#323232"/></svg>