<svg height="45" viewBox="0 0 45 45" width="45" xmlns="http://www.w3.org/2000/svg"><g fill="#323232" fill-rule="nonzero"><path d="m26.7342987 18.0060827h-17.09041926c-.51149183 0-.95584273-.352798-1.07059269-.8491484l-3.46569288-14.96715328h-4.00892406c-.60670988 0-1.09866981-.49026764-1.09866981-1.09489051s.49195993-1.09489051 1.09866981-1.09489051h4.88297693c.51149184 0 .95584274.35158151 1.07059269.84914842l3.46569287 14.96593678h16.2163664c.6067099 0 1.0986698.4902676 1.0986698 1.0948905 0 .6046228-.4919599 1.096107-1.0986698 1.096107zm-11.1283044 3.1690998c0 1.0097323-.8203401 1.8248175-1.8311164 1.8248175-1.0107762 0-1.8311163-.8150852-1.8311163-1.8248175 0-1.0072993.8203401-1.8248175 1.8311163-1.8248175 1.0107763 0 1.8311164.8175182 1.8311164 1.8248175zm11.1612645 0c0 1.0097323-.8203401 1.8248175-1.8311164 1.8248175-1.0095554 0-1.8311163-.8150852-1.8311163-1.8248175 0-1.0072993.8215609-1.8248175 1.8311163-1.8248175 1.0107763 0 1.8311164.8175182 1.8311164 1.8248175zm.047609-10.6849149c.6677471.580292 1.3965314 1.0948906 2.1851322 1.5182482-1.0583853.7761557-2.3560364 1.2530414-3.7696582 1.2530414h-7.7785822c-3.016459 0-5.5800219-2.0498784-6.2355616-4.98418494l-1.52959251-5.64963503c-.09888028-.36496351-.0219734-.75547446.20874726-1.05596107.23194145-.30048662.58961945-.47688565.96927095-.47688565h11.8753999c-.0061037.14963504-.0231942.29683698-.0231942.44890511 0 .67761557.0695825 1.33819951.1794494 1.98418492h-10.4398046l1.1267469 4.16666666c.4187153 1.86618005 2.0032413 3.1326034 3.866097 3.1326034h7.779803c.5652045 0 1.0998905-.1216545 1.5857467-.336983z" transform="translate(0 15)"/><circle cx="10" cy="10" r="10" transform="translate(25 6)"/></g></svg>