<svg height="45" viewBox="0 0 45 45" width="45" xmlns="http://www.w3.org/2000/svg"><path d="m44.7890625 26.2121212-6.2578125-5.3030303 2.3203125-.3535353c.2109375 0 .3515625-.1414142.4921875-.2828283.140625-.1414142.140625-.3535354.140625-.4949495-.2109375-1.4848485-1.0546875-2.7575758-2.25-3.6767677s-2.671875-1.2727273-4.1484375-.989899l-13.78125 2.1919192-5.2734375-2.2626263 3.234375-1.6262626h1.828125c.421875 0 .703125-.2828283.703125-.7070707s-.28125-.7070707-.703125-.7070707h-2.109375c-.140625 0-.2109375 0-.28125.0707071l-4.21875 2.1212121c-.0703125.0707071-.140625.1414141-.2109375.2121212 0 0 0 0-.0703125 0-.3515625.0707071-8.6484375 1.979798-13.9921875 7-.0703125.0707071-.0703125.1414141-.140625.1414141v.0707071c-.0703125.0707071-.0703125.1414142-.0703125.2121212v.0707071c0 .0707071 0 .1414141.0703125.2121212.140625.4242424 3.8671875 10.6767677 22.7109375 10.8181818 18.28125.0707071 21.515625.0707071 21.515625.0707071.421875 0 .703125-.2828283.703125-.7070707v-5.5151515c0-.2121212-.0703125-.4242424-.2109375-.5656566zm-9.5625-9.7575757c1.125-.1414142 2.1796875.070707 3.09375.7777777.703125.4949495 1.265625 1.2727273 1.4765625 2.0505051l-13.1484375 2.050505c-2.0390625.3535354-4.0078125-.9191919-4.640625-2.8282828zm-9.2109375 6.3636363c.28125 0 .5625 0 .84375-.0707071l9.7734375-1.5555555 6.328125 5.3737374c-4.7109375-.7070707-19.828125-2.8989899-27.421875-4.0303031-6.046875-.8484848-10.6171875-1.2020202-13.0078125-1.2727272 4.5-3.5353536 10.546875-5.1616162 11.7421875-5.4444445l6.328125 2.7575758c.5625 2.4747475 2.8125 4.2424242 5.4140625 4.2424242zm-3.234375 8.6969697c-14.4140625-.0707071-19.4765625-6.4343434-20.953125-8.9090909 2.109375.0707071 6.890625.3535354 13.5703125 1.3434343 8.0859375 1.2020203 24.8203125 3.6767677 28.1953125 4.1717172v3.4646465c-1.6875 0-6.8203125 0-20.8125-.0707071z" fill="#323232"/></svg>