<svg height="45" viewBox="0 0 45 45" width="45" xmlns="http://www.w3.org/2000/svg"><path d="m45 14.925829c0-6.84118677-5.5546875-12.425829-12.515625-12.425829-4.078125 0-7.734375 1.95462478-9.984375 5.02617801-2.25-3.07155323-5.90625-5.02617801-9.984375-5.02617801-6.890625.06980803-12.515625 5.58464223-12.515625 12.425829 0 3.2111693 1.265625 6.1431064 3.234375 8.3071553h-.0703125l19.3359375 19.2670157 19.3359375-19.1972077h-.0703125c1.96875-2.2338569 3.234375-5.165794 3.234375-8.3769633zm-5.484375 8.7260035-17.015625 16.8935427-17.3671875-17.2425829-.84375-.9773124c-1.828125-2.0244328-2.8828125-4.6771378-2.8828125-7.3996509 0-6.00349043 4.9921875-10.95986041 11.109375-10.95986041 3.515625 0 6.75 1.60558464 8.859375 4.46771378l1.125 1.53577662 1.125-1.53577662c2.109375-2.86212914 5.34375-4.46771378 8.859375-4.46771378 6.1171875 0 11.109375 4.95636998 11.109375 11.02966841 0 2.7225131-1.0546875 5.3054101-2.8828125 7.399651zm-16.3125-2.7923212v-6.0034904c.9140625.1396161 2.25.5584643 3.4453125 1.6055847.28125.2792321.703125.2094241.984375-.069808.28125-.2792322.2109375-.6980803-.0703125-.9773124-1.546875-1.3961606-3.234375-1.8150088-4.359375-1.9546248v-1.5357766c0-.4188482-.28125-.6980803-.703125-.6980803s-.703125.2792321-.703125.6980803v1.5357766c-2.671875.069808-4.78125 2.0244328-4.78125 4.3979057 0 2.443281 2.1796875 4.3979058 4.78125 4.3979058v6.5619546c-.984375-.139616-2.53125-.5584642-3.8671875-1.7452007-.28125-.2792321-.703125-.2094241-.984375.0698081-.28125.2792321-.2109375.6980802.0703125.9773123 1.6875 1.5357767 3.5859375 1.9546248 4.78125 2.0942409v3.0017452c0 .4188482.28125.6980803.703125.6980803s.703125-.2792321.703125-.6980803v-3.0017452c2.8125-.069808 5.0625-2.1640489 5.0625-4.6771379s-2.3203125-4.6073298-5.0625-4.6771379zm-4.78125-3.0715532c0-1.6753927 1.4765625-3.0017452 3.375-3.0017452v6.0034904c-1.8984375 0-3.375-1.3263525-3.375-3.0017452zm4.78125 11.0296684v-6.5619546c2.0390625.069808 3.65625 1.5357766 3.65625 3.2809773s-1.6171875 3.2809773-3.65625 3.2809773z" fill="#323232"/></svg>