<svg height="45" viewBox="0 0 45 45" width="45" xmlns="http://www.w3.org/2000/svg"><path d="m42.1693548 26.4116608c3.7741936 3.7667844 3.7741936 9.9240282 0 13.7632509-1.8870967 1.8833922-4.4274193 2.8250883-6.8951613 2.8250883-2.4677419 0-5.0080645-.9416961-6.8951612-2.8250883l-7.8387097-7.8233216c-.1451613-.2173145-.3629032-.3621908-.5080645-.5795053-.2903226-.2897526-.217742-.7243816.0725806-1.0141343.2903226-.2897526.7258065-.2173145 1.016129.0724382.1451613.1448763.2903226.2897526.4354839.434629l7.8387097 7.8233215c3.266129 3.2597173 8.4919355 3.2597173 11.7580645 0s3.266129-8.475265 0-11.7349823l-7.8387097-7.8233216c-1.5967742-1.5212014-3.6290322-2.3904593-5.8790322-2.3904593s-4.2822581.7968198-5.8790323 2.3904593c-1.5241935 1.5212014-2.3225806 3.54947-2.3951613 5.7226149 0 .434629-.3629032.7243816-.7258064.7243816-.4354839 0-.7258065-.2897526-.7258065-.7243816 0-2.5353357 1.0161291-4.8533569 2.8306452-6.664311 1.8145161-1.810954 4.282258-2.8250883 6.8951613-2.8250883 2.6129032 0 5.0806451 1.0141343 6.8951613 2.8250883zm-14.8064516-6.664311c-.0725806 2.5353357-1.0887097 4.9257951-2.9032258 6.664311-1.8870968 1.8833922-4.4274193 2.8250883-6.8951613 2.8250883-2.4677419 0-5.0080645-.9416961-6.8951613-2.8250883l-7.83870964-7.8233216c-3.77419355-3.7667844-3.77419355-9.99646641 0-13.76325086s10.01612904-3.76678445 13.79032254 0l7.8387097 7.75088336c.1451613.2173145.3629032.3621908.5080645.5795053.2903226.2897527.217742.7243817-.0725806 1.0141343-.2903226.2897527-.7258065.2173145-1.016129-.0724382-.1451613-.1448763-.2903226-.2897526-.4354839-.4346289l-7.8387097-7.82332159c-3.266129-3.18727915-8.49193547-3.18727915-11.75806451 0-3.19354838 3.25971732-3.19354838 8.47526499 0 11.73498229l7.91129031 7.8957598c3.266129 3.2597173 8.4919355 3.2597173 11.7580645 0 1.5241936-1.5212014 2.3225807-3.54947 2.3951613-5.7226149 0-.434629.3629032-.7243816.7258065-.7243816.4354838 0 .7258064.2897526.7258064.7243816z" fill="#323232"/></svg>