<svg height="45" viewBox="0 0 45 45" width="45" xmlns="http://www.w3.org/2000/svg"><path d="m44.8344209 32.8983715c-.1054926-.1050989-.2486124-.1642117-.3978943-.1643424h-3.0029752v-21.4989745c0-2.06281368-1.6805973-3.7350546-3.7537191-3.7350546h-30.59281065c-2.07312181 0-3.75371909 1.67224092-3.75371909 3.7350546v21.5213848h-2.7702447c-.31096827 0-.56305786.2508361-.56305786.5602582 0 1.1094698.44293758 2.1734987 1.23137153 2.9580123.78843395.7845137 1.85777987 1.2252489 2.97279385 1.2252489h36.68134302c1.1065187.0049743 2.166996-.4403165 2.9354083-1.2325681.763231-.7938435 1.1859616-1.8521131 1.1786678-2.9506931.0060327-.1562671-.0538474-.3079312-.1651636-.4183261zm-40.38251006-21.6633169c.00823689-1.44347406 1.18440593-2.61046063 2.63511081-2.61453821h30.57028825c1.4536342-.00002335 2.634359 1.1681553 2.6426183 2.61453821v21.5213848h-35.84801736zm36.43359756 25.1443878h-36.68134302c-1.47626829-.0051006-2.73884634-1.057252-3.00297527-2.5024866h42.61221919c-.2366524 1.4304414-1.4710632 2.4854964-2.9279009 2.5024866zm-33.97115783-5.1394352h31.16337593v-19.1160096h-31.16337593zm1.12611573-17.9954932h28.9111445v16.8749768h-28.9111445zm6.1598528 6.2387863c.7774206 0 1.4076446-.6270904 1.4076446-1.4006455 0-.7735552-.630224-1.4006455-1.4076446-1.4006455-.7774207 0-1.4076447.6270903-1.4076447 1.4006455 0 .7735551.630224 1.4006455 1.4076447 1.4006455zm0 4.2019364c.7774206 0 1.4076446-.6270903 1.4076446-1.4006455 0-.7735551-.630224-1.4006455-1.4076446-1.4006455-.7774207 0-1.4076447.6270904-1.4076447 1.4006455 0 .7735552.630224 1.4006455 1.4076447 1.4006455zm4.2241855-4.2019364c.7774206 0 1.4076446-.6270904 1.4076446-1.4006455 0-.7735552-.630224-1.4006455-1.4076446-1.4006455-.7774207 0-1.4076447.6270903-1.4076447 1.4006455 0 .7735551.630224 1.4006455 1.4076447 1.4006455zm4.2229339 0c.7774207 0 1.4076447-.6270904 1.4076447-1.4006455 0-.7735552-.630224-1.4006455-1.4076447-1.4006455-.7774206 0-1.4076446.6270903-1.4076446 1.4006455 0 .7735551.630224 1.4006455 1.4076446 1.4006455zm8.4496216 0c.7774206 0 1.4076446-.6270904 1.4076446-1.4006455 0-.7735552-.630224-1.4006455-1.4076446-1.4006455-.7774207 0-1.4076447.6270903-1.4076447 1.4006455 0 .7735551.630224 1.4006455 1.4076447 1.4006455zm0 4.2019364c.7774206 0 1.4076446-.6270903 1.4076446-1.4006455 0-.7735551-.630224-1.4006455-1.4076446-1.4006455-.7774207 0-1.4076447.6270904-1.4076447 1.4006455 0 .7735552.630224 1.4006455 1.4076447 1.4006455zm-4.2266876-4.2019364c.7774207 0 1.4076447-.6270904 1.4076447-1.4006455 0-.7735552-.630224-1.4006455-1.4076447-1.4006455s-1.4076446.6270903-1.4076446 1.4006455c0 .7735551.6302239 1.4006455 1.4076446 1.4006455zm-8.4458679 4.2019364c.7774206 0 1.4076446-.6270903 1.4076446-1.4006455 0-.7735551-.630224-1.4006455-1.4076446-1.4006455-.7774207 0-1.4076447.6270904-1.4076447 1.4006455 0 .7735552.630224 1.4006455 1.4076447 1.4006455zm4.2229339 0c.7774207 0 1.4076447-.6270903 1.4076447-1.4006455 0-.7735551-.630224-1.4006455-1.4076447-1.4006455-.7774206 0-1.4076446.6270904-1.4076446 1.4006455 0 .7735552.630224 1.4006455 1.4076446 1.4006455zm4.222934 0c.7774207 0 1.4076447-.6270903 1.4076447-1.4006455 0-.7735551-.630224-1.4006455-1.4076447-1.4006455s-1.4076446.6270904-1.4076446 1.4006455c0 .7735552.6302239 1.4006455 1.4076446 1.4006455zm-4.222934 4.2019365c.7774207 0 1.4076447-.6270904 1.4076447-1.4006455 0-.7735552-.630224-1.4006455-1.4076447-1.4006455-.7774206 0-1.4076446.6270903-1.4076446 1.4006455 0 .7735551.630224 1.4006455 1.4076446 1.4006455zm-.1476463-16.9285126c-.5224266 0-.9459372-.4214047-.9459372-.9412338 0-.51982904.4235106-.94123375.9459372-.94123375.5224267 0 .9459373.42140471.9459373.94123375 0 .5198291-.4235106.9412338-.9459373.9412338z" fill="#323232"/></svg>