<svg height="45" viewBox="0 0 45 45" width="45" xmlns="http://www.w3.org/2000/svg"><path d="m16.4083333 0h23.0916667v45h-34v-33.046875l.425-.421875v-.140625h.07083333zm-.2833333 2.390625-8.21666667 9h8.21666667zm-.6375 23.4140625 6.3041667 6.2578125v-13.8515625c0-.421875.2833333-.703125.7083333-.703125s.7083333.28125.7083333.703125v13.8515625l6.3041667-6.2578125c.2833333-.28125.7083333-.28125.9916667 0 .2833333.28125.2833333.703125 0 .984375l-7.5083334 7.453125c-.1416666.140625-.3541666.2109375-.4958333.2109375s-.3541667-.0703125-.4958333-.2109375l-7.5083334-7.453125c-.2833333-.28125-.2833333-.703125 0-.984375.2833334-.28125.7083334-.28125.9916667 0zm13.3875 11.4609375c.425 0 .7083333.28125.7083333.703125s-.2833333.703125-.7083333.703125h-12.75c-.425 0-.7083333-.28125-.7083333-.703125s.2833333-.703125.7083333-.703125zm9.2083333 6.328125v-42.1875h-20.5416666v11.390625h-10.62500003v30.796875z" fill="#323232"/></svg>