<svg height="45" viewBox="0 0 45 45" width="45" xmlns="http://www.w3.org/2000/svg"><path d="m35.9583333 17.578125v-4.21875c0-7.3828125-6.0208333-13.359375-13.4583333-13.359375s-13.45833333 5.9765625-13.45833333 13.359375v4.21875h-3.54166667v20.3203125c0 3.9375 3.1875 7.1015625 7.1541667 7.1015625h19.7625c3.8958333 0 7.0833333-3.1640625 7.0833333-7.1015625v-20.3203125zm-25.5-4.21875c0-6.609375 5.3833334-11.953125 12.0416667-11.953125s12.0416667 5.34375 12.0416667 11.953125v4.21875h-24.0833334zm27.625 24.5390625c0 3.09375-2.55 5.6953125-5.7375 5.6953125h-19.6916666c-3.1166667 0-5.73750003-2.53125-5.73750003-5.6953125v-18.9140625h31.16666663zm-15.5833333-12.9375c-1.9833333 0-3.5416667 1.546875-3.5416667 3.515625 0 1.6875 1.2041667 3.09375 2.8333334 3.4453125v4.2890625h1.4166666v-4.2890625c1.6291667-.3515625 2.8333334-1.7578125 2.8333334-3.4453125 0-1.96875-1.5583334-3.515625-3.5416667-3.515625zm0 5.625c-1.2041667 0-2.125-.9140625-2.125-2.109375s.9208333-2.109375 2.125-2.109375 2.125.9140625 2.125 2.109375-.9208333 2.109375-2.125 2.109375z" fill="#323232"/></svg>