<svg height="45" viewBox="0 0 45 45" width="45" xmlns="http://www.w3.org/2000/svg"><path d="m28.8790074 20.88c2.9983127-2.16 5.2470472-5.4 5.2470472-9.36 0-6.48-5.6218363-11.52-11.9932508-11.52-3.7478908 0-7.4957817 1.8-9.7445162 5.04-.7495782.72-.3747891 1.8.3747891 2.52 1.1243672.36 2.2487345.36 2.6235236-.72 1.4991563-1.8 4.1226799-3.24 6.7462035-3.24 4.4974691 0 8.2453599 3.6 8.2453599 7.92s-3.7478908 7.92-8.2453599 7.92c-.3747891 0-1.8739454 0-2.2487345 0-1.1243672 0-1.8739454.72-1.8739454 1.8s.7495782 1.8 1.8739454 1.8h.3747891 1.8739454c5.6218363 0 10.1193053 3.96 10.1193053 9s-4.497469 9-10.1193053 9c-4.1226799 0-7.8705708-2.16-9.3697271-5.4-.3747891-1.08-1.4991563-1.44-2.6235236-.72-1.12436726.36-1.49915635 1.44-.74957818 2.52 2.24873448 4.68 7.12099258 7.56 12.74282888 7.56 7.4957817 0 13.8671962-5.4 13.8671962-12.6 0-5.4-2.9983127-9.36-7.1209926-11.52z" fill="#323232"/></svg>