<svg height="45" viewBox="0 0 45 45" width="45" xmlns="http://www.w3.org/2000/svg"><path d="m45 15.7403846c0-1.2096154-.9936909-2.2057692-2.2003155-2.2057692h-3.1940063c-.4258675-1.3519231-.9227129-2.6326923-1.3485804-3.70000002-1.2776025-3.27307692-2.7681388-4.90961538-2.8391167-4.98076923l-.2129338-.14230769-.2129337-.07115384c-.2129338 0-3.9747634-.56923077-11.5694007-.64038462h-.9227129-.1419558-.7097792c-7.5946372.07115385-11.3564669.64038462-11.4984227.64038462l-.2839117.07115384-.14195584.14230769c-.07097791.07115385-1.56151419 1.70769231-2.83911672 4.98076923-.4258675 1.06730772-.92271293 2.34807692-1.34858044 3.70000002h-3.33596214c-1.20662461 0-2.20031546.9961538-2.20031546 2.2057692s.99369085 2.2057692 2.20031546 2.2057692h1.56151419l-1.84542586 3.4865385v1.0673077 5.6923077 12.0961538c0 .4269231.28391167.7115385.70977918.7115385h6.38801261c.42586751 0 .70977918-.2846154.70977918-.7115385v-3.7h25.41009464.1419558v3.7c0 .4269231.2839117.7115385.7097792.7115385h6.3880126c.4258675 0 .7097792-.2846154.7097792-.7115385v-12.0961538-5.6923077-1.0673077l-1.7744479-3.4153846h1.4905362c1.2066246-.0711539 2.2003155-1.0673077 2.2003155-2.2769231zm-41.66403785 23.8365385v-4.9807693c.92271293 1.1384616 2.48422712 1.7788462 4.96845425 1.9211539v3.0596154zm38.32807575 0h-4.9684543v-3.0596154c2.4132492-.2134615 3.9747634-.7826923 4.9684543-2.1346154zm0-17.7884616v.7115385 5.6923077c0 5.6211538-1.2776026 6.9730769-6.5299685 6.9730769h-25.55205047c-5.39432177 0-6.24605678-1.5653846-6.24605678-6.9730769v-5.6923077-.7115385l2.83911671-5.1942307h-3.9747634c-.42586751 0-.7807571-.3557693-.7807571-.7826923 0-.4269231.35488959-.7826923.7807571-.7826923h4.32965299l.14195584-.498077c.49684543-1.4942307.99369085-2.9173077 1.49053628-4.126923.99369085-2.41923082 2.05835963-3.84230774 2.41324923-4.34038466.9936908-.14230769 4.9684542-.56923077 11.7823344-.56923077l.1419558-.07115385h.2129338c6.8138801 0 10.7886435.49807693 11.7823343.56923077.4258675.49807693 1.4905363 1.92115385 2.4132493 4.34038461.4968454 1.2096154.9936908 2.5615385 1.4905362 4.1269231l.1419559.4980769h4.258675c.4258676 0 .7807571.3557692.7807571.7826923s-.3548895.7826923-.7807571.7826923h-3.9037854zm-33.85646692.1423077c1.56151419 0 2.83911672 1.2807693 2.83911672 2.8461539s-1.27760253 2.8461538-2.83911672 2.8461538c-1.5615142 0-2.83911672-1.2807692-2.83911672-2.8461538s1.27760252-2.8461539 2.83911672-2.8461539zm0 4.2692308c.7807571 0 1.41955836-.6403846 1.41955836-1.4230769s-.63880126-1.4230769-1.41955836-1.4230769-1.41955836.6403846-1.41955836 1.4230769.63880126 1.4230769 1.41955836 1.4230769zm26.97160882-1.4230769c0-1.5653846 1.2776025-2.8461539 2.8391167-2.8461539s2.8391167 1.2807693 2.8391167 2.8461539-1.2776025 2.8461538-2.8391167 2.8461538-2.8391167-1.2807692-2.8391167-2.8461538zm4.2586751 0c0-.7826923-.6388013-1.4230769-1.4195584-1.4230769s-1.4195583.6403846-1.4195583 1.4230769.6388012 1.4230769 1.4195583 1.4230769 1.4195584-.6403846 1.4195584-1.4230769z" fill="#323232"/></svg>