<svg height="45" viewBox="0 0 45 45" width="45" xmlns="http://www.w3.org/2000/svg"><path d="m9.140625 24.5640569c-.81548295 0-1.4765625-.6691829-1.4765625-1.4946619s.66107955-1.4946619 1.4765625-1.4946619 1.4765625.6691829 1.4765625 1.4946619-.66107955 1.4946619-1.4765625 1.4946619zm5.9765625 0c-.815483 0-1.4765625-.6691829-1.4765625-1.4946619s.6610795-1.4946619 1.4765625-1.4946619 1.4765625.6691829 1.4765625 1.4946619-.6610795 1.4946619-1.4765625 1.4946619zm5.90625 0c-.815483 0-1.4765625-.6691829-1.4765625-1.4946619s.6610795-1.4946619 1.4765625-1.4946619 1.4765625.6691829 1.4765625 1.4946619-.6610795 1.4946619-1.4765625 1.4946619zm15.890625-22.0640569h-22.8515625v10.6049822h-6.46875c-4.1484375-.0711744-7.59375 3.4163701-7.59375 7.6868327v9.039146 3.4875444 9.1814947l9.6328125-9.1814947h13.21875c4.21875 0 7.59375-3.4875444 7.59375-7.6868327v-2.0640569h4.1484375l10.40625 9.7508896v-22.6334519c0-4.55516016-3.65625-8.1850534-8.0859375-8.1850534zm-7.8046875 23.1316726c0 3.4875445-2.8125 6.2633452-6.1875 6.2633452h-13.2890625-.5625l-.421875.3558719-7.2421875 6.9039146v-5.9074733-3.4875445-8.9679716c0-3.4875444 2.8125-6.2633451 6.1875-6.2633451h21.4453125v11.1032028zm14.484375 4.4128114-8.3671875-7.9715303h-4.7109375v-9.0391459h-15.046875v-9.11032026h21.4453125c3.65625 0 6.6796875 3.06049823 6.6796875 6.76156586z" fill="#323232"/></svg>