<svg height="45" viewBox="0 0 45 45" width="45" xmlns="http://www.w3.org/2000/svg"><path d="m44.7890625 21.4614325-7.453125-7.5922865c-.28125-.2865014-.703125-.2865014-.984375 0s-.28125.7162534 0 1.0027548l6.2578125 6.3746557h-13.5l-.9140625-1.5757576h.3515625c.984375 0 1.7578125-.7878788 1.7578125-1.7906336s-.84375-1.7190083-1.828125-1.7190083h-1.7578125c-.28125-.8595041-.5625-1.7190082-.84375-2.4352617-.9140625-2.292011-1.96875-3.4380165-1.96875-3.5096419l-.140625-.214876-.2109375-.07162533c-.140625 0-2.8828125-.42975207-8.3671875-.42975207h-.2109375c-5.484375 0-8.2265625.42975207-8.3671875.42975207l-.2109375.07162533-.140625.214876c-.0703125.0716254-1.0546875 1.2176309-1.96875 3.5096419-.28125.7162535-.5625 1.5041322-.84375 2.4352617h-1.6875c-.984375 0-1.7578125.7878788-1.7578125 1.7190083s.7734375 1.7906336 1.7578125 1.7906336h.2109375l-1.1953125 2.077135v.3581267 4.7272727 7.9504133c0 .429752.28125.7162534.703125.7162534h3.515625c.421875 0 .703125-.2865014.703125-.7162534v-1.5757576c.4921875.0716253.984375.0716253 1.4765625.0716253h15.75c.4921875 0 .984375 0 1.40625-.0716253v1.5757576c0 .429752.28125.7162534.703125.7162534h3.5859375c.421875 0 .703125-.2865014.703125-.7162534v-8.0220386-4.0826446h13.21875l-6.1875 6.3746556c-.28125.2865014-.28125.7162535 0 1.0027548.140625.1432507.3515625.2148761.4921875.2148761s.3515625-.0716254.4921875-.2148761l7.453125-7.5922865c.28125-.2865013.28125-.7162534 0-1.0027548zm-40.5 12.6060606h-2.109375v-2.5785124c.5625.6446281 1.265625 1.0743802 2.109375 1.4325069zm2.953125-2.1487603c-3.515625 0-4.9921875-1.5041322-4.9921875-5.0853995v-4.6556473l2.1796875-3.8677686h-2.671875c-.140625 0-.3515625-.1432507-.3515625-.3581268 0-.214876.140625-.3581267.3515625-.3581267h2.671875l.140625-.5013774c.3515625-1.0743802.703125-2.0055096.984375-2.7933884.6328125-1.5041323 1.265625-2.5068871 1.546875-2.8650138.7734375-.0716253 3.4453125-.3581267 7.875-.4297521h.140625.0703125c4.4296875 0 7.1015625.2865014 7.875.4297521.28125.3581267.984375 1.2892562 1.546875 2.8650138.3515625.7878788.6328125 1.7906336.984375 2.7933884l.140625.5013774h2.8125c.140625 0 .3515625.1432507.3515625.3581267 0 .2148761-.140625.3581268-.3515625.3581268h-2.8125l2.25 3.8677686v4.6556473c0 3.6528926-1.40625 5.0853995-4.9921875 5.0853995zm20.7421875 2.1487603h-2.1796875v-1.1460055c.9140625-.2865014 1.6171875-.7878788 2.1796875-1.4325069zm-21.7265625-10.1707989c-.93198052 0-1.6875-.7696262-1.6875-1.7190082 0-.9493821.75551948-1.7190083 1.6875-1.7190083s1.6875.7696262 1.6875 1.7190083c0 .949382-.75551948 1.7190082-1.6875 1.7190082zm17.7890625 0c-.9319805 0-1.6875-.7696262-1.6875-1.7190082 0-.9493821.7555195-1.7190083 1.6875-1.7190083s1.6875.7696262 1.6875 1.7190083c0 .949382-.7555195 1.7190082-1.6875 1.7190082z" fill="#323232"/></svg>