<svg height="45" viewBox="0 0 45 45" width="45" xmlns="http://www.w3.org/2000/svg"><path d="m26.2791767 0c-10.3845134 0-18.79102419 8.45070423-18.79102419 18.8732394 0 4.9295775 1.9073596 9.4366198 4.94500639 12.7464789l-12.22123005 12.1830986c-.2825718.2816901-.2825718.7042254 0 .9859155.14128589.1408451.35321474.2112676.49450063.2112676.1412859 0 .35321474-.0704225.49450064-.2112676l12.22123008-12.1830986c3.3908615 3.1690141 7.8413672 5.0704225 12.7863736 5.0704225 10.3845134 0 18.7910242-8.4507042 18.7910242-18.8732394.070643-10.35211267-8.3358679-18.8028169-18.7203813-18.8028169zm0 36.2676056c-9.6074409 0-17.37816523-7.8169014-17.37816523-17.4647887 0-9.64788732 7.77072433-17.46478873 17.37816523-17.46478873 9.607441 0 17.3781653 7.81690141 17.3781653 17.46478873 0 9.6478873-7.7707243 17.4647887-17.3781653 17.4647887z" fill="#323232"/></svg>