<svg height="45" viewBox="0 0 45 45" width="45" xmlns="http://www.w3.org/2000/svg"><path d="m7.734375 18.625c.7734375 0 1.40625.6340909 1.40625 1.4090909v2.1136364c0 .775-.6328125 1.4090909-1.40625 1.4090909s-1.40625-.6340909-1.40625-1.4090909v-2.1136364c0-.775.6328125-1.4090909 1.40625-1.4090909zm5.1328125 0c.7734375 0 1.40625.6340909 1.40625 1.4090909v2.1136364c0 .775-.6328125 1.4090909-1.40625 1.4090909s-1.40625-.6340909-1.40625-1.4090909v-2.1136364c0-.775.6328125-1.4090909 1.40625-1.4090909zm5.1328125 0c.7734375 0 1.40625.6340909 1.40625 1.4090909v2.1136364c0 .775-.6328125 1.4090909-1.40625 1.4090909s-1.40625-.6340909-1.40625-1.4090909v-2.1136364c0-.775.6328125-1.4090909 1.40625-1.4090909zm-10.265625 7.0454545c.7734375 0 1.40625.634091 1.40625 1.409091v2.1136363c0 .775-.6328125 1.4090909-1.40625 1.4090909s-1.40625-.6340909-1.40625-1.4090909v-2.1136363c0-.775.6328125-1.409091 1.40625-1.409091zm5.1328125 0c.7734375 0 1.40625.634091 1.40625 1.409091v2.1136363c0 .775-.6328125 1.4090909-1.40625 1.4090909s-1.40625-.6340909-1.40625-1.4090909v-2.1136363c0-.775.6328125-1.409091 1.40625-1.409091zm5.1328125 0c.7734375 0 1.40625.634091 1.40625 1.409091v2.1136363c0 .775-.6328125 1.4090909-1.40625 1.4090909s-1.40625-.6340909-1.40625-1.4090909v-2.1136363c0-.775.6328125-1.409091 1.40625-1.409091zm5.0625-7.0454545c.7734375 0 1.40625.6340909 1.40625 1.4090909v2.1136364c0 .775-.6328125 1.4090909-1.40625 1.4090909s-1.40625-.6340909-1.40625-1.4090909v-2.1136364c0-.775.6328125-1.4090909 1.40625-1.4090909zm16.3125-11.625h-33.75c-3.09375 0-5.625 2.53636364-5.625 5.6363636v19.7272728c0 3.1 2.53125 5.6363636 5.625 5.6363636h33.75c3.09375 0 5.625-2.5363636 5.625-5.6363636v-19.7272728c0-3.09999996-2.53125-5.6363636-5.625-5.6363636zm4.21875 25.3636364c0 2.325-1.8984375 4.2272727-4.21875 4.2272727h-33.75c-2.3203125 0-4.21875-1.9022727-4.21875-4.2272727v-19.7272728c0-2.325 1.8984375-4.22727269 4.21875-4.22727269h33.75c2.3203125 0 4.21875 1.90227269 4.21875 4.22727269zm-12.65625-.7045455h9.140625v-7.0454545h-9.140625zm1.40625-5.6363636h6.328125v4.2272727h-6.328125z" fill="#323232"/></svg>