<svg height="45" viewBox="0 0 45 45" width="45" xmlns="http://www.w3.org/2000/svg"><path d="m6.37795276 28.9638932c-1.27559056 0-2.26771654.989011-2.26771654 2.2605966s.99212598 2.2605965 2.26771654 2.2605965c1.27559055 0 2.26771653-.9890109 2.26771653-2.2605965s-.99212598-2.2605966-2.26771653-2.2605966zm0 3.5321822c-.70866142 0-1.27559056-.5651492-1.27559056-1.2715856s.56692914-1.2715856 1.27559056-1.2715856c.70866141 0 1.27559055.5651492 1.27559055 1.2715856s-.56692914 1.2715856-1.27559055 1.2715856zm18.99212594-3.5321822c-1.2755905 0-2.2677165.989011-2.2677165 2.2605966s.992126 2.2605965 2.2677165 2.2605965c1.2755906 0 2.2677166-.9890109 2.2677166-2.2605965s-.992126-2.2605966-2.2677166-2.2605966zm0 3.5321822c-.7086614 0-1.2755905-.5651492-1.2755905-1.2715856s.5669291-1.2715856 1.2755905-1.2715856c.7086615 0 1.2755906.5651492 1.2755906 1.2715856s-.5669291 1.2715856-1.2755906 1.2715856zm17.8582678-22.0408164c.9921259 0 1.7716535-.77708004 1.7716535-1.76609103 0-.98901098-.7795276-1.76609105-1.7716535-1.76609105h-1.488189c-.2834646-.91836734-.6377953-1.76609105-.9212599-2.54317111-.9212598-2.40188383-2.0551181-3.5321821-2.1259842-3.60282575l-.1417323-.21193092-.2125984-.07064364c-.1417323 0-3.0472441-.42386186-8.8582677-.4945055h-.2125985c-5.8110236 0-8.7874015.42386185-8.8582677.4945055l-.2125984.07064364-.1417323.21193092c-.0708661.07064365-1.1338583 1.20094192-2.1259842 3.60282575-.2834646.77708006-.6377953 1.62480377-.9212599 2.54317111h-1.5590551c-.992126 0-1.7716535.77708007-1.7716535 1.76609105 0 .98901099.7795275 1.76609103 1.7716535 1.76609103l-1.2755906 2.1899529v5.4395605c-4.88976373.0706436-7.29921255.4238618-7.44094484.4238618l-.21259842.0706437-.14173228.2119309c-.07086615.0706436-1.13385827 1.2009419-2.12598426 3.6028257-.28346456.7770801-.63779527 1.6248038-.92125984 2.5431712h-1.55905512c-.99212598 0-1.77165354.77708-1.77165354 1.766091s.77952756 1.7660911 1.77165354 1.7660911h.07086615l-1.20472441 2.1899529v.8477237 4.3799058 8.4065934c0 .4238618.28346456.7064364.70866141.7064364h3.68503937c.42519685 0 .70866142-.2825746.70866142-.7064364v-1.6954474c.56692913.0706436 1.13385827.1412873 1.7007874.1412873h16.65354332c.5669291 0 1.1338583-.0706437 1.6299212-.1412873v1.6954474c0 .4238618.2834646.7064364.7086615.7064364h3.7559055c.2125984 0 .3543307-.0706436.496063-.2119309s.2125984-.2825746.2125984-.4945055v-8.4065934-5.1569859l-1.2755906-2.1899529c.992126 0 1.7716536-.7770801 1.7716536-1.7660911 0-.9890109-.7795276-1.766091-1.7716536-1.766091h-1.4173228c0-.0706436-.0708661-.1412873-.0708661-.2119309h9.5669291c.5669291 0 1.1338583-.0706437 1.6299213-.1412873v1.6954474c0 .4238618.2834645.7064364.7086614.7064364h3.7559055c.2125984 0 .3543307-.0706436.496063-.2119309s.2125984-.2825746.2125984-.4945055v-8.4065934-5.2982732zm-38.90551185 33.1318682h-2.26771654v-2.8963894c.56692913.7064365 1.34645669 1.2009419 2.26771654 1.5541602zm25.15748035 0h-2.3385827v-1.2715856c.992126-.3532182 1.7716535-.8477237 2.3385827-1.6248038zm-9.5669292-32.7080063c-1.2755905 0-2.2677165.989011-2.2677165 2.2605965 0 1.2715856.992126 2.2605966 2.2677165 2.2605966 1.2755906 0 2.2677166-.989011 2.2677166-2.2605966 0-1.2715855-.992126-2.2605965-2.2677166-2.2605965zm0 3.5321821c-.7086614 0-1.2755905-.5651492-1.2755905-1.2715856s.5669291-1.2715855 1.2755905-1.2715855 1.2755906.5651491 1.2755906 1.2715855-.5669292 1.2715856-1.2755906 1.2715856zm18.992126-3.5321821c-1.2755905 0-2.2677165.989011-2.2677165 2.2605965 0 1.2715856.992126 2.2605966 2.2677165 2.2605966 1.2755906 0 2.2677165-.989011 2.2677165-2.2605966 0-1.2715855-.9921259-2.2605965-2.2677165-2.2605965zm0 3.5321821c-.7086614 0-1.2755905-.5651492-1.2755905-1.2715856s.5669291-1.2715855 1.2755905-1.2715855 1.2755906.5651491 1.2755906 1.2715855-.5669292 1.2715856-1.2755906 1.2715856zm-9.2834646 11.9387755c.2125985 0 .3543308.1412873.3543308.3532182s-.1417323.3532182-.3543308.3532182h-2.4803149l2.3385827 4.0266876v.5651491 4.2386186c0 3.8147566-1.6299213 5.4395604-5.3858268 5.4395604h-16.65354332c-3.75590551 0-5.45669291-1.6954474-5.45669291-5.4395604v-4.3799058-.4238619l2.26771653-4.0266876h-2.48031496c-.21259842 0-.35433071-.1412873-.35433071-.3532182s.14173229-.3532182.35433071-.3532182h2.55118111l.14173228-.4945055c.35433071-1.0596546.70866142-2.0486656 1.06299213-2.967033.63779527-1.6248037 1.34645669-2.6138147 1.7007874-2.9670329.8503937-.0706437 3.68503934-.4238619 8.43307084-.4238619h.0708662.0708661c4.7480315 0 7.5826772.2825746 8.4330709.4238619.2834645.3532182.992126 1.4128728 1.7007874 2.9670329.3543307.8477237.7086614 1.8367347 1.0629921 2.967033l.1417323.4945055zm-2.0551181-3.0376766c-.1417322-.2825746-.2125984-.6357928-.3543307-.9183674-.9212598-2.4018838-2.0551181-3.5321821-2.1259842-3.6028257l-.1417323-.2119309-.2125984-.0706437c-.1417323 0-3.0472441-.4238618-8.8582678-.4945055h-.2125984v-5.0863422l2.2677166-4.0266876h-2.480315c-.2125984 0-.3543307-.14128728-.3543307-.35321821s.1417323-.35321821.3543307-.35321821h2.5511811l.1417323-.49450549c.3543307-1.05965464.7086614-2.04866562 1.0629921-2.96703297.6377953-1.62480377 1.3464567-2.61381476 1.7007874-2.96703297.8503937-.07064364 3.6850394-.42386185 8.503937-.42386185h.0708662.0708661c4.7480315 0 7.5826772.28257457 8.4330709.42386185.1417323.4945055.8503937 1.48351649 1.4881889 3.10832025.3543308.84772371.7086615 1.8367347 1.0629922 2.96703297l.1417323.49450549h2.4803149c.2125984 0 .3543307.14128729.3543307.35321821 0 .21193093-.1417323.35321822-.3543307.35321822h-2.4803149l2.3385826 4.02668761v.5651491 4.2386185c0 3.8147567-1.6299212 5.4395605-5.3858267 5.4395605zm15.5196851 2.2605965h-2.3385827v-1.2715855c.992126-.3532182 1.7716535-.8477237 2.3385827-1.6248038z" fill="#323232"/></svg>