<svg height="45" viewBox="0 0 45 45" width="45" xmlns="http://www.w3.org/2000/svg"><path d="m45 18.1044776h-11.953125v-2.8358209h6.46875c.421875 0 .703125-.2835821.703125-.7089552v-10.35074628c0-.42537313-.28125-.70895522-.703125-.70895522h-14.0625c-.421875 0-.703125.28358209-.703125.70895522v10.35074628c0 .4253731.28125.7089552.703125.7089552h6.1875v2.8358209h-16.875c0-.0708955 0-.141791 0-.2126866l-2.8125-8.50746264c-.0703125-.28358209-.3515625-.49626866-.6328125-.49626866h-6.3984375c-.2109375 0-.421875.14179105-.5625.28358209-.140625.21268657-.2109375.42537314-.0703125.6380597l1.3359375 4.04104481-1.1953125 4.2537313h-4.4296875v4.2537314h4.21875v19.141791h4.21875v-19.141791h28.125v19.141791h4.21875v-19.141791h4.21875zm-18.84375-4.2537313v-8.93283585h12.65625v8.93283585zm-15.3984375-3.5447762 2.3203125 7.0895523h-4.8515625l-2.3203125-7.0895523zm-4.359375 5.9552239.6328125 1.8432836h-1.1953125zm.6328125 23.8208956h-1.40625v-17.7238806h1.40625zm32.34375 0h-1.40625v-17.7238806h1.40625zm4.21875-19.1417911h-42.1875v-1.4179104h42.1875z" fill="#323232"/></svg>