<svg height="45" viewBox="0 0 45 45" width="45" xmlns="http://www.w3.org/2000/svg"><path d="m4.28571429 28.9285714c-2.35714286 0-4.28571429 1.9285715-4.28571429 4.2857143 0 2.3571429 1.92857143 4.2857143 4.28571429 4.2857143 2.35714285 0 4.28571428-1.9285714 4.28571428-4.2857143 0-2.3571428-1.92857143-4.2857143-4.28571428-4.2857143zm0 7.1428572c-1.57142858 0-2.85714286-1.2857143-2.85714286-2.8571429s1.28571428-2.8571428 2.85714286-2.8571428c1.57142857 0 2.85714285 1.2857142 2.85714285 2.8571428s-1.28571428 2.8571429-2.85714285 2.8571429zm40.71428571-13.5714286h-6.4285714v-13.57142857h3.5714285c.4285715 0 .7142858-.28571429.7142858-.71428572 0-.42857142-.2857143-.71428571-.7142858-.71428571h-27.1428571c-.4285714 0-.7142857.28571429-.7142857.71428571 0 .42857143.2857143.71428572.7142857.71428572h22.1428571v13.57142857h-.7142857c-4.8571428 0-8.8571428 3.7857143-9.2142857 8.5714286h-15.4285714l-1.85714287-2.5 7.57142857-7.5714286 2 2c.1428571.1428571.3571429.2142857.5.2142857s.3571429-.0714286.5-.2142857c.2857143-.2857143.2857143-.7142857 0-1l-5-5c-.2857143-.2857143-.7142857-.2857143-1 0s-.2857143.7142857 0 1l2 2-7.42857143 7.4285714-3.5-4.6428571c-.21428571-.2857143-.71428571-.3571429-1-.1428572-.28571428.2142858-.35714286.7142858-.14285714 1l6.64285717 8.8571429h16.0714285 4.9285715.8571428c-.0714285.2142857-.0714285.5-.0714285.7142857 0 2.3571429 1.9285714 4.2857143 4.2857142 4.2857143 2.3571429 0 4.2857143-1.9285714 4.2857143-4.2857143 0-.2142857 0-.5-.0714285-.7142857h3.6428571zm-7.8571429 13.5714286c-1.5714285 0-2.8571428-1.2857143-2.8571428-2.8571429s1.2857143-2.8571428 2.8571428-2.8571428c1.5714286 0 2.8571429 1.2857142 2.8571429 2.8571428s-1.2857143 2.8571429-2.8571429 2.8571429zm6.4285715-5h-2.7142857c-.7142858-1.2857143-2.1428572-2.1428572-3.7142858-2.1428572-1.5714285 0-3 .8571429-3.7142857 2.1428572h-1.3571428-3.4285715c.3571429-4 3.7142858-7.1428572 7.8571429-7.1428572h7.1428571v7.1428572z" fill="#323232"/></svg>