<svg height="45" viewBox="0 0 45 45" width="45" xmlns="http://www.w3.org/2000/svg"><path d="m22.3472727 0-4.7272727 4.74720467h-11.12v40.25279533h32v-29.1103549zm-14.39272725 6.20563928h8.11636365l-8.11636365 8.21827902zm0 10.28925622 14.40727275-14.43850269 14.6836363 14.44579489v27.0393777h-29.09090905zm23.06181815 4.0398639c-1.0545348-1.0589288-2.4857337-1.6539613-3.9781818-1.6539613s-2.923647.5950325-3.9781818 1.6539613l-.5527273.5542051-.5672727-.5687895c-1.4122496-1.4666604-3.5042654-2.0544312-5.470962-1.5371164-1.9666965.5173148-3.5015463 2.059087-4.013882 4.0319854s.0776948 4.0694288 1.5430258 5.4827683l8.0872727 8.1161887c.1081031.1109137.2562398.1734408.4109091.1734408.1546694 0 .3028061-.0625271.4109091-.1734408l8.1018182-8.0943121c2.1913827-2.2053307 2.1913827-5.7723067 0-7.9776374zm-.8290909 7.1754983-7.6872727 7.671366-7.6872727-7.671366c-1.126361-1.1293727-1.5662551-2.7754692-1.1539784-4.3182209.4122768-1.5427517 1.6140896-2.747778 3.1527273-3.161157 1.5386378-.4133791 3.1803447.0276911 4.3067056 1.1570638l.9745455.9771512c.2270996.227156.5947185.227156.8218182 0l.9672727-.9990277c1.1302584-1.1293726 2.7755667-1.568358 4.3161531-1.1515947 1.5405864.4167634 2.7423992 1.6259593 3.1527273 3.1720953.410328 1.546136-.0331675 3.1943173-1.1634259 4.32369z" fill="#323232"/></svg>