<svg height="45" viewBox="0 0 45 45" width="45" xmlns="http://www.w3.org/2000/svg"><path d="m29.0988476 45c-.0701631 0-.0701631 0-.1403262 0-2.1750561-.5015924-4.0694598-1.8630573-5.2622326-3.7977707-1.1927727-1.9347134-1.6137513-4.227707-1.1226096-6.4490446l1.4734251-6.8789809h-13.0503368c-2.66619787 0-5.19206952-1.2898089-6.80582085-3.5111465s-2.10489304-5.0159235-1.33309892-7.6671974l3.08717646-10.53343952c1.05244652-3.6544586 4.42027541-6.16242038 8.13891971-6.16242038h14.523762c.2104893 0 .3508155.07165605.4911417.21496815l4.7009278 4.72929937h7.2969626c.3508155 0 .701631.2866242.701631.71656051.0701631 1.86305732.701631 18.41560507.701631 18.77388537 0 .3582802-.2104893.6449044-.5613048.7165605l-6.0340267 1.433121-3.8589706 7.3089172-2.3153823 10.6767516c0 .2149681-.2806525.4299363-.631468.4299363zm-15.0149037-43.56687898c-3.0871764 0-5.89370047 2.14968153-6.80582079 5.15923567l-3.08717646 10.60509551c-.63146791 2.2213376-.2104893 4.5143312 1.12260962 6.3773886 1.33309893 1.8630573 3.43799197 2.9378981 5.68321123 2.9378981h13.9624572c.2104893 0 .4209786.071656.5613048.2866242.1403262.1433121.2104893.3582802.1403262.5732484l-1.7540776 7.6671974c-.4209786 1.8630573-.0701631 3.7977707.9121204 5.3742038.9121203 1.4331211 2.1750561 2.4363058 3.7186443 2.9378981l2.1750562-10.0318471c0-.0716561.0701631-.1433121.0701631-.2149682l4.0694599-7.6671974c.0701631-.2149682.2806524-.2866242.4911417-.3582803l5.7533743-1.3614649c-.0701631-2.4363058-.4209786-11.8232484-.6314679-17.48407647h-6.875984c-.2104893 0-.3508155-.07165605-.4911417-.21496815l-4.7009278-4.72929936h-14.3132727z" fill="#323232"/></svg>