<?xml version="1.0" encoding="UTF-8"?>
<svg width="45px" height="45px" viewBox="0 0 45 45" version="1.1" xmlns="http://www.w3.org/2000/svg" xmlns:xlink="http://www.w3.org/1999/xlink">
    <!-- Generator: Sketch 50.2 (55047) - http://www.bohemiancoding.com/sketch -->
    <title>nav/iconNavTenant</title>
    <desc>Created with Sketch.</desc>
    <defs>
        <path d="M22.3431,0.0002 L40.0001,15.2372 L40.0001,45.0002 L5.0001,45.0002 L5.0001,15.2432 L22.3431,0.0002 Z M37.1841,42.2832 L37.1841,16.4502 L22.3591,3.6582 L7.8161,16.4432 L7.8161,42.2832 L18.6591,42.2832 L17.9721,33.8092 L15.3411,33.8092 L15.3411,24.8422 C15.3411,22.7632 17.1241,21.0742 19.3181,21.0742 L25.2841,21.0742 C27.4771,21.0742 29.2611,22.7632 29.2611,24.8422 L29.2611,33.8092 L26.6301,33.8092 L25.9431,42.2832 L37.1841,42.2832 Z M19.8131,31.9262 L20.6531,42.2832 L23.9491,42.2832 L24.7891,31.9262 L27.2721,31.9262 L27.2721,24.8422 C27.2721,23.8042 26.3821,22.9582 25.2841,22.9582 L19.3181,22.9582 C18.2211,22.9582 17.3301,23.8022 17.3301,24.8422 L17.3301,31.9262 L19.8131,31.9262 Z M18.0894,14.8066 C18.0894,12.5116 19.9744,10.6506 22.3014,10.6506 C24.6284,10.6506 26.5134,12.5116 26.5134,14.8066 C26.5134,17.1006 24.6284,18.9586 22.3014,18.9586 C19.9744,18.9586 18.0894,17.1006 18.0894,14.8066 Z M24.5244,14.8066 C24.5244,13.5966 23.5264,12.6136 22.3014,12.6136 C21.0764,12.6136 20.0774,13.5966 20.0774,14.8066 C20.0774,16.0156 21.0764,16.9966 22.3014,16.9966 C23.5264,16.9966 24.5244,16.0156 24.5244,14.8066 Z" id="path-1"></path>
    </defs>
    <g id="nav/iconNavTenant" stroke="none" stroke-width="1" fill="none" fill-rule="evenodd">
        <mask id="mask-2" fill="white">
            <use xlink:href="#path-1"></use>
        </mask>
        <use id="Mask" fill="#313131" xlink:href="#path-1"></use>
    </g>
</svg>