<svg height="11" viewBox="0 0 11 11" width="11" xmlns="http://www.w3.org/2000/svg"><path d="m7.72727273 5.13333333c.63636363-.44.95454545-1.32.95454545-2.2 0-1.61333333-1.43181818-2.93333333-3.18181818-2.93333333s-3.18181818 1.32-3.18181818 2.93333333c0 .88.47727273 1.61333334 1.11363636 2.2-.79545454.58666667-1.43181818 1.46666667-1.43181818 2.64 0 1.76 1.59090909 3.22666667 3.5 3.22666667s3.5-1.46666667 3.5-3.22666667c0-1.02666666-.47727273-2.05333333-1.27272727-2.64zm-2.22727273-3.66666666c.95454545 0 1.59090909.73333333 1.59090909 1.46666666 0 .73333334-.79545454 1.46666667-1.59090909 1.46666667s-1.59090909-.73333333-1.59090909-1.46666667c0-.73333333.63636364-1.46666666 1.59090909-1.46666666zm0 8.06666666c-1.11363636 0-1.90909091-.73333333-1.90909091-1.76 0-1.02666666.95454546-1.76 1.90909091-1.76s1.90909091.73333334 1.90909091 1.76c0 1.02666667-.79545455 1.76-1.90909091 1.76z" fill="#323232"/></svg>