<svg height="30" viewBox="0 0 30 30" width="30" xmlns="http://www.w3.org/2000/svg"><path d="m24.8496311 2h-14.1818602c-.3765095 0-.6275159.25365854-.6275159.63414634v5.70731707h-5.02012751c-2.76107012 0-5.02012749 2.28292679-5.02012749 5.19999999v6.0878049 2.2829268 6.0878049l6.40066255-6.0878049h8.65971995c2.7610701 0 5.0201275-2.2829268 5.0201275-5.2v-.7609756h3.1375797l5.7731466 5.5804878c.1255032.1268293.2510064.1268293.3765095.1268293h.2510064c.2510064-.1268293.3765096-.3804878.3765096-.6341464v-13.57073166c.1255032-3.04390244-2.2590574-5.45365854-5.1456307-5.45365854zm-6.024153 14.7121951c0 2.1560976-1.6315414 3.9317073-3.7650956 3.9317073h-8.65971995c-.37650956 0-.62751593.1268293-.87852231.3804878l-4.26710837 4.0585366v-3.1707317-2.2829268-6.0878049c0-2.1560975 1.63154144-3.9317073 3.76509562-3.9317073h13.80535061zm-3.7650956-.7609756c.6931349 0 1.2550319-.567834 1.2550319-1.2682927s-.561897-1.2682927-1.2550319-1.2682927c-.693135 0-1.2550319.567834-1.2550319 1.2682927s.5618969 1.2682927 1.2550319 1.2682927zm-10.04025501 0c.69313497 0 1.25503188-.567834 1.25503188-1.2682927s-.56189691-1.2682927-1.25503188-1.2682927c-.69313496 0-1.25503187.567834-1.25503187 1.2682927s.56189691 1.2682927 1.25503187 1.2682927zm5.02012751 0c.693135 0 1.2550319-.567834 1.2550319-1.2682927s-.5618969-1.2682927-1.2550319-1.2682927c-.69313498 0-1.25503189.567834-1.25503189 1.2682927s.56189691 1.2682927 1.25503189 1.2682927zm18.8254781 3.5512195-4.8946243-4.6926829c-.1255032-.1268293-.2510064-.1268293-.3765096-.1268293h-3.5140892v-5.45365851c0-.50731707-.3765096-.88780488-.8785223-.88780488h-7.9067008v-5.07317073h13.5543442c2.1335542 0 4.016102 1.90243903 4.016102 4.18536586z" fill="#323232" fill-rule="evenodd"/></svg>