<svg height="30" viewBox="0 0 30 30" width="30" xmlns="http://www.w3.org/2000/svg"><path d="m23.875 11.25v-2.375c0-4.875-4-8.875-8.875-8.875s-8.875 4-8.875 8.875v2.375h-2.125v14.125c0 2.5 2 4.625 4.625 4.625h12.75c2.5 0 4.625-2 4.625-4.625v-14.125zm-16.5-2.375c0-4.25 3.5-7.625 7.625-7.625s7.625 3.375 7.625 7.625v2.375h-15.25zm17.375 16.5c0 1.875-1.5 3.375-3.375 3.375h-12.75c-1.875 0-3.375-1.5-3.375-3.375v-12.875h19.375v12.875zm-10.375-3.625v3.375h1.25v-3.375c1.25-.25 2.125-1.375 2.125-2.625 0-1.5-1.25-2.75-2.75-2.75s-2.75 1.25-2.75 2.75c0 1.375.875 2.375 2.125 2.625zm.625-4.125c.875 0 1.5.625 1.5 1.5s-.625 1.5-1.5 1.5-1.5-.625-1.5-1.5.625-1.5 1.5-1.5z" fill="#323232"/></svg>