<svg height="30" viewBox="0 0 30 30" width="30" xmlns="http://www.w3.org/2000/svg"><path d="m18.6285714 14.0163934c1.9428572-1.4754098 3.4-3.6885245 3.4-6.39344258 0-4.18032787-3.4-7.62295082-7.5285714-7.62295082s-7.52857143 3.44262295-7.52857143 7.62295082c0 2.70491808 1.21428572 4.91803278 3.40000003 6.39344258-2.6714286 1.4754099-4.3714286 4.1803279-4.3714286 7.3770492 0 4.6721312 3.88571429 8.6065574 8.5 8.6065574 4.6142857 0 8.5-3.6885246 8.5-8.6065574 0-3.1967213-1.7-5.9016393-4.3714286-7.3770492zm-4.1285714-11.55737701c2.9142857 0 5.1 2.21311476 5.1 5.16393443 0 2.95081968-2.1857143 5.16393438-5.1 5.16393438s-5.1-2.2131147-5.1-5.16393438c0-2.95081967 2.1857143-5.16393443 5.1-5.16393443zm0 25.08196721c-3.4 0-6.07142857-2.704918-6.07142857-6.147541 0-3.4426229 2.67142857-6.147541 6.07142857-6.147541s6.0714286 2.7049181 6.0714286 6.147541c0 3.442623-2.6714286 6.147541-6.0714286 6.147541z" fill="#323232"/></svg>