<svg height="30" viewBox="0 0 30 30" width="30" xmlns="http://www.w3.org/2000/svg"><path d="m29.8896139 21.9322476c-.0703284-.0700658-.1657415-.1094744-.2652628-.1095616h-2.0019835v-14.33264958c0-1.37520914-1.1203982-2.49003642-2.5024794-2.49003642h-20.3952071c-1.38208121 0-2.5024794 1.11482728-2.5024794 2.49003642v14.34758988h-1.84682979c-.20731218 0-.37537191.1672241-.37537191.3735054 0 .7396466.29529172 1.4489992.82091436 1.9720083.52562263.5230091 1.23851991.8168325 1.98186256.8168325h24.45422868c.7376791.0033162 1.444664-.2935443 1.9569389-.821712.5088206-.529229.790641-1.2347421.7857785-1.9671288.0040218-.104178-.0358983-.2052874-.1101091-.2788841zm-26.92167334-14.44221118c.00549126-.96231606.78960395-1.74030711 1.75674054-1.74302549h20.3801922c.9690894-.00001557 1.7562393.7787702 1.7617455 1.74302549v14.34758988h-23.89867824zm24.28906504 16.76292518h-24.45422868c-.98417886-.0034004-1.82589756-.7048347-2.00198351-1.6683244h28.40814609c-.1577682.9536276-.9807087 1.6569976-1.9519339 1.6683244zm-22.64743855-3.4262901h20.77558395v-12.74400641h-20.77558395zm.75074382-11.99699549h19.27409633v11.24998449h-19.27409633zm9.63955063-1.52390229c-.3482845 0-.6306248-.28093647-.6306248-.62748917 0-.34655271.2823403-.62748918.6306248-.62748918s.6306248.28093647.6306248.62748918c0 .3465527-.2823403.62748917-.6306248.62748917z" fill="#323232"/></svg>