<svg height="45" viewBox="0 0 45 45" width="45" xmlns="http://www.w3.org/2000/svg"><path d="m29.1360167 28.0212766v-6.2553192h12.8036086v6.2553192zm2.6231783-4.7553192c.1249133 0 .2185982.0957447.2498265.2234043v2.8404255c0 .1276596-.0936849.2234043-.2185982.2234043h-.0936849c-.1249133 0-.2185982-.0957447-.2185982-.2234043v-2.2340425l-.1561416.1276596c-.0312283.0638297-.0936849.0638297-.1561416.0638297-.0624566-.0319149-.1249132-.0319149-.1561415-.0957446l-.0624567-.0638298c-.0624566-.0957447-.0624566-.2553192.0312284-.319149l.5621096-.4787234c.0312283-.0319149.0624566-.0638298.1249133-.0638298zm3.0291464 2.7446809c.1249133 0 .2185982.0957447.1873699.2234043v.0957446c0 .1276596-.0936849.2234043-.2185982.2234043h-1.5614157c-.1249132 0-.2185982-.0957447-.2185982-.2234043v-.1276595c0-.0638298.0312284-.1276596.0624567-.1595745l.9680777-1.1489362c.1561416-.1595744.2498265-.3191489.3435114-.4468085.0624567-.1276596.093685-.2234042.093685-.3191489 0-.0638298 0-.1276596-.0312283-.1914894s-.0624567-.0957447-.093685-.1276596-.0624566-.0319149-.1249132-.0638297c-.1249133-.0319149-.3122832-.0319149-.4371964.0638297-.0624566.0638298-.1249133.1595745-.1561416.2553192 0 .0638298-.0312283.0957447-.0936849.1276596-.0312283 0-.093685.0319149-.1561416 0l-.0936849-.0319149c-.093685-.0638298-.1561416-.1595745-.1249133-.2872341.0624566-.2234042.1561416-.3829787.3435115-.5106383.2498265-.1595744.6245662-.2234042.9368494-.0957447.1249132.0319149.2185982.0957447.3122831.1914894.0624566.0638298.1561416.1914894.1873699.2872341.0312283.0957446.0624566.2234042.0624566.3510638s0 .2234042-.0312283.3191489-.0624566.1914894-.1249133.2872341c-.0624566.0957446-.1249132.1914893-.1873698.287234-.093685.0957447-.1561416.1914894-.2498265.287234l-.593338.7340426zm2.4358085-1.0531915c.0624566.0957447.1249133.1914894.1561416.3510638.0312283.0957447.0624566.2234043.0624566.319149 0 .1276595-.0312283.2553191-.0624566.3829787s-.093685.2234043-.1873699.3191489c-.0624566.0957447-.1873699.1595745-.3122832.2234043-.1249132.0638298-.2810548.0957447-.4371963.0957447-.2185982 0-.4371964-.0638298-.593338-.1595745-.1873699-.0957447-.3122831-.2553191-.4059681-.4148936-.0312283-.0638298-.0312283-.1276596 0-.1914894s.0624566-.0957447.1249133-.1276596l.0936849-.0319148c.093685-.0638298.2185982 0 .2810548.0957446.0312283.0638298.093685.1276596.1873699.1914894.093685.0638298.1873699.0957447.3122832.0957447.0936849 0 .1561415 0 .2185981-.0319149.0624567-.0319149.1249133-.0638298.1561416-.0957447.0312283-.0638298.0624566-.0957447.093685-.1595745.0312283-.0638298.0312283-.1276595.0312283-.1914893s0-.1276596-.0312283-.1914894c-.0312284-.0638298-.0624567-.1276596-.1249133-.1595745-.0624566-.0319148-.1249133-.0638297-.1873699-.0957446-.0936849-.0319149-.1561415-.0319149-.2185982-.0319149h-.0936849c-.1249133 0-.2185982-.0957447-.2185982-.2234043v-.0957447c0-.1276595.0936849-.2234042.2185982-.2234042h.0936849c.0624567 0 .1249133 0 .1873699-.0319149s.1249133-.0638298.1561416-.0957447.0624566-.0638298.0936849-.1276596c.0312283-.0319149.0312283-.0957447.0312283-.1914893 0-.0638298 0-.0957447-.0312283-.1595745s-.0624566-.0957447-.0936849-.1276596-.0624567-.0319149-.1249133-.0638298c-.1249132-.0319149-.2810548-.0319149-.4059681.0319149-.0624566.0319149-.1249132.0638298-.1561415.1276596s-.0624567.0957447-.1249133.0957447-.0936849 0-.1561415-.0319149l-.0624567-.0638298c-.0624566-.0638298-.0936849-.0957447-.0936849-.1595745-.0312283-.0638297 0-.0957446.0312283-.1595744.0936849-.1276596.1873699-.2553192.3435114-.319149.2498266-.1276595.593338-.1595744.8431645-.0638298.093685.0638298.1873699.0957447.2810548.1914894.0624567.0638298.1249133.1595745.1873699.2872341.0312283.1276595.0624567.2553191.0624567.3829787 0 .0957447 0 .1914893-.0312284.287234-.0312283.0957447-.0936849.1914894-.1561415.2872341-.0312283.0319149-.0624567.0638297-.093685.0957446.0624567.0638298.1249133.0957447.1561416.1595745zm2.6231783.3191489c.1249133 0 .2185982.1276596.2185982.2234043v.0957447c0 .1276596-.0936849.2234042-.2185982.2234042h-.2498265v.5106383c0 .1276596-.0936849.2234043-.2185982.2234043h-.0936849c-.1249133 0-.2185982-.0957447-.2185982-.2234043v-.5425532h-1.0617627c-.1249132 0-.2185982-.0957446-.2185982-.2234042v-.0957447c0-.0638298 0-.0957447.0312284-.1276596l1.2491325-1.9787234c.0312283-.0638298.1249133-.0957447.1873699-.0957447h.1249132c.1249133 0 .2185982.0957447.2185982.2234043v1.787234zm-.7807078 0v-.9574468l-.593338.9574468zm-9.1186676-2.680851v4.5957447h11.2109646v-4.5957447zm-3.7786259.3829787c.5933379 0 1.0929909.5106383 1.0929909 1.1170213v1.9148936c0 .606383-.499653 1.1170213-1.0929909 1.1170213h-19.98612079c-.59333796 0-1.09299098-.5106383-1.09299098-1.1170213v-1.9148936c0-.606383.49965302-1.1170213 1.09299098-1.1170213zm.7807078 3.0319149v-1.9148936c0-.4468085-.3435115-.7978724-.7807078-.7978724h-19.98612079c-.43719639 0-.78070784.3510639-.78070784.7978724v1.9148936c0 .4468085.34351145.7978723.78070784.7978723h19.98612079c.4371963 0 .7807078-.3510638.7807078-.7978723zm-9.2435808 3.6702128c.4684247 0 .8743927.4148936.8431644.893617v2.3297872c0 .4787234-.3747397.893617-.8743928.893617h-11.71061759c-.4684247 0-.87439278-.3829787-.87439278-.893617v-2.3297872c0-.4787234.37473976-.893617.87439278-.893617zm.5621096 3.2553191h-.0312283v-2.3297872c0-.319149-.2498265-.5744681-.5621097-.5744681h-11.71061759c-.31228314 0-.56210964.2553191-.56210964.5744681v2.3297872c0 .3191489.2498265.5744681.56210964.5744681h11.74184599c.3122831 0 .5621096-.2553192.5621096-.5744681zm22.6092991-25.4361702h-36.78695351c-2.24843858 0-4.09090909 1.88297872-4.09090909 4.1808511v21.6702127c0 2.2659575 1.84247051 4.1489362 4.09090909 4.1489362h36.81818181c2.2484386 0 4.0909091-1.8829787 4.0909091-4.1808511v-21.6382978c-.0312283-2.29787238-1.8736988-4.1808511-4.1221374-4.1808511zm3.7786259 25.8191489c0 2.1382979-1.6863289 3.8617022-3.7786259 3.8617022h-36.78695351c-2.09229702 0-3.77862595-1.7234043-3.77862595-3.8617022v-21.6382978c0-2.13829791 1.68632893-3.86170216 3.77862595-3.86170216h36.81818181c2.092297 0 3.778626 1.72340425 3.778626 3.86170216v21.6382978z" fill="#323232"/></svg>