<svg height="45" viewBox="0 0 45 45" width="45" xmlns="http://www.w3.org/2000/svg"><path d="m7.03125 35.2375215h30.9375v-25.40447503h-30.9375zm1.40625-1.4113597v-4.2340792h28.125v4.2340792zm10.125-5.6454389 5.2734375-5.292599c.984375-.9879518 2.671875-.9879518 3.65625 0l5.2734375 5.292599zm18-16.9363167v16.9363167h-1.828125l-6.2578125-6.2805508c-1.546875-1.5524957-4.078125-1.5524957-5.6953125 0l-6.2578125 6.2805508h-8.0859375v-16.9363167zm-21.796875 8.4681583c1.546875 0 2.8125-1.2702237 2.8125-2.8227194s-1.265625-2.8227195-2.8125-2.8227195-2.8125 1.2702238-2.8125 2.8227195 1.265625 2.8227194 2.8125 2.8227194zm0-4.2340791c.7734375 0 1.40625.6351118 1.40625 1.4113597 0 .7762478-.6328125 1.4113597-1.40625 1.4113597s-1.40625-.6351119-1.40625-1.4113597c0-.7762479.6328125-1.4113597 1.40625-1.4113597zm28.265625 17.0068847-.6328125.3528399.6328125-.3528399c-.0703125-.141136-.140625-.211704-.140625-.282272-.6328125-1.2702237-.984375-2.6110155-.984375-3.2461274 0-.6351118.5625-1.7641996 1.3359375-2.4698795.984375-.9173838 1.7578125-2.5404475 1.7578125-3.7401032 0-1.1996558-.7734375-2.8227195-1.7578125-3.7401033-.7734375-.7056799-1.3359375-1.9053356-1.3359375-2.5404475 0-.7056799.4921875-2.3993116 1.125-3.7401033.140625-.3528399.28125-.7056799.28125-1.0585198.421875-1.69363166.140625-3.66953527-.7734375-5.01032701-1.40625-2.11703959-4.2890625-2.96385542-6.3984375-1.90533563-1.6875.77624785-4.078125 1.5524957-5.1328125 1.5524957-.984375 0-2.671875-.91738382-3.5859375-1.90533563-1.1953125-1.34079174-3.3046875-2.39931153-4.921875-2.39931153-1.546875 0-3.7265625 1.05851979-4.921875 2.39931153-.9140625.98795181-2.53125 1.90533563-3.5859375 1.90533563s-3.3046875-.70567986-4.8515625-1.5524957c-1.8984375-1.12908778-4.78125-.28227194-6.328125 1.83476764-1.125 1.5524957-1.546875 3.6695353-1.0546875 5.363167.0703125.3528399.140625.5645438.28125.8468158.6328125 1.3407917 1.125 3.0344234 1.125 3.7401033 0 .6351118-.5625 1.8347676-1.3359375 2.5404475-1.0546875.8468158-1.828125 2.4698795-1.828125 3.6695353 0 1.1996557.7734375 2.8227194 1.7578125 3.7401032.7734375.7056799 1.3359375 1.9053357 1.3359375 2.4698795 0 .6351119-.3515625 1.9053357-.84375 2.9638555-1.125 1.7641996-.9140625 4.5869191.5625 6.4922547 1.546875 2.1170396 4.4296875 2.8932874 6.3984375 1.8347676 1.546875-.8468158 3.796875-1.5524957 4.8515625-1.5524957.984375 0 2.671875.9173839 3.5859375 1.9053357 1.1953125 1.3407917 3.3046875 2.3993115 4.921875 2.3993115 1.546875 0 3.7265625-1.0585198 4.921875-2.3993115.9140625-.9879518 2.6015625-1.9053357 3.5859375-1.9053357 1.125 0 3.515625.7056799 5.203125 1.5524957 2.109375 1.0585198 4.9921875.211704 6.3984375-1.9053356.984375-1.4819277 1.265625-3.5989673.703125-5.3631669-.2109375-.070568-.28125-.282272-.3515625-.4939759zm-1.6875 5.2220309c-.984375 1.4819277-3.09375 2.1170396-4.5703125 1.4113598-1.8984375-.9879518-4.4296875-1.7641997-5.765625-1.7641997-1.40625 0-3.4453125 1.0585198-4.640625 2.3993115-.9140625 1.0585198-2.671875 1.9053357-3.8671875 1.9053357-1.125 0-2.953125-.8468159-3.8671875-1.9053357-1.1953125-1.3407917-3.234375-2.3993115-4.640625-2.3993115-1.3359375 0-3.7265625.7762479-5.5546875 1.7641997-1.3359375.7056798-3.4453125.0705679-4.5703125-1.4819278-1.125-1.4819277-1.3359375-3.6695352-.4921875-4.939759l.140625-.070568c.5625-1.2702237.984375-2.7521514.984375-3.5989673 0-1.0585198-.7734375-2.6110155-1.7578125-3.5283993-.703125-.6351119-1.3359375-1.9053356-1.3359375-2.6815835 0-.7762478.6328125-2.0464716 1.3359375-2.6815834.984375-.9173839 1.7578125-2.4698796 1.7578125-3.5989673 0-.9879518-.5625-2.9638555-1.265625-4.3752152-.0703125-.141136-.140625-.2822719-.140625-.5645439-.3515625-1.2702237-.0703125-2.96385539.84375-4.16351116 1.125-1.5524957 3.234375-2.18760757 4.5703125-1.48192771 1.7578125.98795181 4.21875 1.76419965 5.5546875 1.76419965 1.40625 0 3.4453125-1.05851979 4.640625-2.39931153.9140625-1.05851979 2.671875-1.90533563 3.8671875-1.90533563s2.953125.84681584 3.8671875 1.90533563c1.0546875 1.34079174 3.09375 2.39931153 4.5703125 2.39931153 1.3359375 0 3.8671875-.77624784 5.8359375-1.69363166 1.4765625-.77624785 3.5859375-.07056799 4.5703125 1.41135972.703125 1.05851979.9140625 2.61101546.6328125 3.95180726v.070568c0 .2822719-.0703125.4939759-.2109375.7056798-.703125 1.4113597-1.265625 3.3872634-1.265625 4.3752152 0 1.1290877.7734375 2.6815834 1.7578125 3.5989673.703125.6351118 1.3359375 1.9053356 1.3359375 2.6815834 0 .7762479-.6328125 2.0464716-1.3359375 2.6815835-.984375.9173838-1.7578125 2.4698795-1.7578125 3.5283993s.5625 2.7521515 1.125 3.8812393c0 .070568.0703125.1411359.0703125.2117039l.0703125.070568c.0703125.070568.0703125.211704.140625.3528399.3515625 1.3407918.140625 3.0344235-.6328125 4.1635112z" fill="#323232"/></svg>