<svg height="45" viewBox="0 0 45 45" width="45" xmlns="http://www.w3.org/2000/svg"><path d="m23.203125 10.9811321v-6.9811321h-23.203125v37h5.625 11.953125 5.625v-3.490566h21.796875v-26.5283019zm0 13.9622641h20.390625v2.7924529h-20.390625zm0-1.3962264v-2.7924528h20.390625v2.7924528zm0-4.1886792v-2.7924529h20.390625v2.7924529zm0 9.7735849h20.390625v2.7924528h-20.390625zm20.390625-16.754717v2.7924528h-20.390625v-2.7924528zm-32.6953125 27.2264151h-3.8671875v-10.4716981h3.8671875zm1.40625 0v-10.4716981h3.8671875v10.4716981zm9.4921875 0h-4.21875v-11.8679245h-11.953125v11.8679245h-4.21875v-34.20754718h20.390625v5.58490568 26.5283019zm1.40625-3.4905661v-2.7924528h20.390625v2.7924528zm-17.578125-13.9622641h11.953125v-4.1886792h-11.953125zm1.40625-2.7924528h9.140625v1.3962264h-9.140625zm-1.40625-4.8867925h11.953125v-4.1886792h-11.953125zm1.40625-2.7924528h9.140625v1.3962264h-9.140625z" fill="#323232"/></svg>