<svg height="45" viewBox="0 0 45 45" width="45" xmlns="http://www.w3.org/2000/svg"><path d="m9.4921875 34.0478261c0-.4173913.28125-.6956522.703125-.6956522h24.6796875c.421875 0 .703125.2782609.703125.6956522s-.28125.6956522-.703125.6956522h-24.6796875c-.421875 0-.703125-.2782609-.703125-.6956522zm29.8828125-5.2869565c-.7766504 0-1.40625-.6229082-1.40625-1.3913044s.6295996-1.3913043 1.40625-1.3913043 1.40625.6229081 1.40625 1.3913043-.6295996 1.3913044-1.40625 1.3913044zm-4.921875-6.9565218v-15.3043478h-23.90625v15.3043478h-10.546875v10.7130435c0 3.3391304 2.8125 5.9826087 6.2578125 5.9826087h32.484375c3.4453125 0 6.2578125-2.6434783 6.2578125-5.9826087v-10.7130435zm-22.5-13.91304345h21.09375v13.91304345h-21.09375zm31.640625 24.62608695c0 2.5043478-2.1796875 4.5913044-4.8515625 4.5913044h-32.484375c-2.671875 0-4.8515625-2.0869566-4.8515625-4.5913044v-9.3217391h42.1875z" fill="#323232"/></svg>