<svg height="45" viewBox="0 0 45 45" width="45" xmlns="http://www.w3.org/2000/svg"><path d="m28.8142857 21.0245902c2.9714286-2.2131148 5.2-5.5327869 5.2-9.590164 0-6.27049177-5.2-11.4344262-11.5142857-11.4344262s-11.5142857 5.16393443-11.5142857 11.4344262c0 4.0573771 1.8571428 7.3770492 5.2 9.590164-4.0857143 2.2131147-6.6857143 6.2704918-6.6857143 11.0655737 0 7.0081968 5.9428571 12.9098361 13 12.9098361s13-5.5327869 13-12.9098361c0-4.7950819-2.6-8.852459-6.6857143-11.0655737zm-6.3142857-17.33606561c4.4571429 0 7.8 3.31967213 7.8 7.74590161 0 4.4262295-3.3428571 7.7459017-7.8 7.7459017s-7.8-3.3196722-7.8-7.7459017c0-4.42622948 3.3428571-7.74590161 7.8-7.74590161zm0 37.62295081c-5.2 0-9.2857143-4.057377-9.2857143-9.2213115 0-5.1639344 4.0857143-9.2213114 9.2857143-9.2213114s9.2857143 4.057377 9.2857143 9.2213114c0 5.1639345-4.0857143 9.2213115-9.2857143 9.2213115z" fill="#323232"/></svg>