<svg height="45" viewBox="0 0 45 45" width="45" xmlns="http://www.w3.org/2000/svg"><path d="m9.45141066 26.2737342h-5.64263323v7.1202531h5.64263323zm-1.41065831 5.6962025h-2.82131661v-4.2721519h2.82131661zm8.60501565-5.6962025h-5.6426332v7.1202531h5.6426332zm-1.4106583 5.6962025h-2.8213166v-4.2721519h2.8213166zm8.5344828-5.6962025h-5.6426333v7.1202531h5.6426333zm-1.4106583 5.6962025h-2.8213166v-4.2721519h2.8213166zm-12.90752354-15.664557h-5.64263323v7.1202532h5.64263323zm-1.41065831 5.6962026h-2.82131661v-4.2721519h2.82131661zm8.60501565-5.6962026h-5.6426332v7.1202532h5.6426332zm-1.4106583 5.6962026h-2.8213166v-4.2721519h2.8213166zm8.5344828-5.6962026h-5.6426333v7.1202532h5.6426333zm-1.4106583 5.6962026h-2.8213166v-4.2721519h2.8213166zm22.4294671-10.8227848-11.0031348-10.9651899c-.2821317-.28481013-.7053292-.28481013-.9874609 0l-10.8620689 11.0363924c-.1410659.1424051-.2115988.2848101-.2115988.4984177v.4984177h-21.7241379v32.7531646h27.3667712v-10.8227848h16.9278996c.4231975 0 .7053292-.2848101.7053292-.7120253v-21.7167722c0-.2136076-.0705329-.4272152-.2115987-.5696202zm-27.7899687 27.2705696v4.9129747h-2.6802508v-4.9129747zm-4.0203762 4.9129747h-2.6802508v-4.9129747h2.6802508zm12.9780565.2136076h-7.547022v-6.5506329h-9.52194356v6.5506329h-7.47648903v-29.9050633h24.54545459zm9.3103448-10.8227848h-3.5266458v-9.5411393h3.5266458zm8.322884 0h-6.9122257v-10.9651899h-6.3479624v10.9651899h-2.9623824v-20.5063292h-4.231975v-.2136076l10.1567399-10.25316451 10.2978056 10.25316451z" fill="#323232"/></svg>