<svg height="45" viewBox="0 0 45 45" width="45" xmlns="http://www.w3.org/2000/svg"><path d="m34.0893573 45h-22.9277119c-.7642571 0-1.52851412-.3813559-1.91064265-1.1440678s-.38212853-1.5254237.38212853-1.9067797l19.48855512-23.2627118c1.1463856-1.5254238 1.9106427-3.4322034 1.9106427-5.3389831 0-4.95762709-4.2034139-9.15254235-9.1710848-9.15254235-3.8212853 0-6.8783136 2.2881356-8.4068277 5.72033899-.3821285.76271186-1.5285141 1.14406776-2.6748997.76271186-.7642571-.3813559-1.52851415-1.52542373-.7642571-2.66949152 1.9106427-4.95762712 6.8783136-8.00847458 11.8459845-8.00847458 7.2604421 0 12.9923701 5.72033898 12.9923701 12.9661017 0 2.6694915-.7642571 5.720339-2.6748997 8.0084746l-16.8136554 20.2118644h18.724298c1.1463856 0 1.9106427.7627118 1.9106427 1.9067796s-.7642571 1.9067797-1.9106427 1.9067797z" fill="#323232"/></svg>