<svg height="45" viewBox="0 0 45 45" width="45" xmlns="http://www.w3.org/2000/svg"><path d="m45 6.74641148h-6.7711599l2.8918496-6.02870813-1.2695925-.64593302-21.0188088 44.28229667 1.2695925.645933 3.1739812-6.6746411h21.7241379zm-1.4106583 30.14354072h-19.6786834l13.6128527-28.70813402h6.0658307zm-6.2068966-36.24401919-1.2695924-.64593301-3.1739812 6.67464115h-32.9388715v31.57894735h17.9153605l-2.8918495 6.0287082 1.2695924.645933zm-35.97178679 36.24401919v-28.70813402h30.82288399l-13.6128526 28.70813402zm19.25548589-10.5502393c0-2.6555024-2.2570533-4.8086124-5.0783699-4.8086124v-6.1722488c.9169279.1435406 2.2570533.5741627 3.4561128 1.6507177.2821317.2870813.7053292.215311.9874609-.0717704.2821316-.2870813.2115987-.7177033-.070533-1.0047846-1.5517241-1.4354067-3.2445141-1.8660288-4.3730407-2.0095694v-1.5789474c0-.430622-.2821317-.7177033-.7053292-.7177033s-.7053291.2870813-.7053291.7177033v1.5789474c-2.6802508.0717703-4.79623826 2.0813397-4.79623826 4.5215311 0 2.5119617 2.18652036 4.5215311 4.79623826 4.5215311v6.7464115c-.9874608-.1435407-2.539185-.5741627-3.8793104-1.7942584-.2821316-.2870814-.70532911-.215311-.98746077.0717703-.28213166.2870814-.21159875.7177034.07053291 1.0047847 1.69278996 1.5789474 3.59717866 2.0095694 4.79623826 2.1531101v3.0861244c0 .430622.2821316.7177033.7053291.7177033s.7053292-.2870813.7053292-.7177033v-3.0861244c2.8213166 0 5.0783699-2.1531101 5.0783699-4.8086125zm-9.8746081-7.9665072c0-1.722488 1.4811912-3.0861244 3.3855799-3.0861244v6.1722488c-1.8338558 0-3.3855799-1.3636363-3.3855799-3.0861244zm4.7962382 11.339713v-6.7464115c2.0454545.0717703 3.6677116 1.5789473 3.6677116 3.3732057s-1.6222571 3.3014354-3.6677116 3.3732058z" fill="#323232"/></svg>