<svg height="45" viewBox="0 0 45 45" width="45" xmlns="http://www.w3.org/2000/svg"><path d="m39.375 5.5h-33.75c-3.09375 0-5.625 2.55-5.625 5.6666667v22.6666666c0 3.1166667 2.53125 5.6666667 5.625 5.6666667h33.75c3.09375 0 5.625-2.55 5.625-5.6666667v-22.6666666c0-3.1166667-2.53125-5.6666667-5.625-5.6666667zm4.21875 28.3333333c0 2.3375-1.8984375 4.25-4.21875 4.25h-33.75c-2.3203125 0-4.21875-1.9125-4.21875-4.25v-22.6666666c0-2.33750003 1.8984375-4.25000003 4.21875-4.25000003h33.75c2.3203125 0 4.21875 1.9125 4.21875 4.25000003zm-20.1796875-12.3958333v-6.5875c.984375.1416667 2.4609375.5666667 3.796875 1.7708333.28125.2833334.703125.2125.984375-.0708333s.2109375-.7083333-.0703125-.9916667c-1.6171875-1.4875-3.515625-1.9833333-4.7109375-2.125v-1.6291666c0-.425-.28125-.7083334-.703125-.7083334s-.703125.2833334-.703125.7083334v1.5583333c-2.7421875.0708333-4.9921875 2.125-4.9921875 4.7458333 0 2.55 2.25 4.675 4.9921875 4.7458334v7.225c-1.0546875-.1416667-2.671875-.5666667-4.078125-1.9125-.28125-.2833334-.703125-.2125-.984375.0708333s-.2109375.7083333.0703125.9916667c1.7578125 1.6291666 3.7265625 2.125 5.0625 2.2666666v2.3375c0 .425.28125.7083334.703125.7083334s.703125-.2833334.703125-.7083334v-2.4083333c2.953125 0 5.4140625-2.2666667 5.4140625-5.0291667-.0703125-2.7625-2.53125-4.9583333-5.484375-4.9583333zm-4.9921875-3.3291667c0-1.7708333 1.6171875-3.2583333 3.5859375-3.2583333v6.5875c-2.0390625-.1416667-3.5859375-1.5583333-3.5859375-3.3291667zm4.9921875 11.9v-7.1541666c2.25 0 4.0078125 1.6291666 4.0078125 3.6125 0 1.9125-1.828125 3.5416666-4.0078125 3.5416666z" fill="#323232"/></svg>