<svg height="45" viewBox="0 0 45 45" width="45" xmlns="http://www.w3.org/2000/svg"><path d="m33.9376771 13.0078125c.6373937-.7734375.9915014-1.6875.9915014-2.6015625v-6.1875c0-2.671875-1.6288952-4.21875-4.4617564-4.21875h-16.0056657c-2.4787536 0-4.4617564 1.8984375-4.4617564 4.21875v6.1171875c0 .984375.3541076 1.8984375.9915014 2.6015625l6.4447592 7.734375c.8498584 1.0546875.8498584 2.4609375 0 3.4453125l-6.4447592 7.734375c-.6373938.7734375-.9915014 1.6875-.9915014 2.6015625v6.328125c0 2.3203125 1.9830028 4.21875 4.4617564 4.21875h16.0764872c2.4787536 0 4.4617564-1.8984375 4.4617564-4.21875v-6.1171875c0-.984375-.3541076-1.8984375-.9915014-2.6015625l-6.4447592-7.734375c-.8498584-1.125-.8498584-2.53125 0-3.5859375zm-7.5070822 12.09375 6.4447592 7.734375c.4249292.4921875.6373938 1.125.6373938 1.7578125v6.1875c0 1.546875-1.3456091 2.8125-3.0453258 2.8125h-16.0056657c-1.6997167 0-3.0453258-1.265625-3.0453258-2.8125v-6.1171875c0-.6328125.2124646-1.265625.6373938-1.7578125l6.4447592-7.734375c1.2747875-1.546875 1.2747875-3.7265625 0-5.2734375l-6.4447592-7.734375c-.4249292-.4921875-.6373938-1.125-.6373938-1.7578125v-6.1875c0-1.546875 1.3456091-2.8125 3.0453258-2.8125h16.0764872c1.9830029 0 3.0453258.984375 3.0453258 2.8125v6.1171875c0 .6328125-.2124646 1.265625-.6373938 1.7578125l-6.4447592 7.734375c-1.345609 1.6171875-1.345609 3.7265625-.0708215 5.2734375zm-9.2067989 15.3984375c.7040457 0 1.2747876-.5666396 1.2747876-1.265625s-.5707419-1.265625-1.2747876-1.265625-1.2747875.5666396-1.2747875 1.265625.5707418 1.265625 1.2747875 1.265625zm5.2407932 0c.7040458 0 1.2747876-.5666396 1.2747876-1.265625s-.5707418-1.265625-1.2747876-1.265625c-.7040457 0-1.2747875.5666396-1.2747875 1.265625s.5707418 1.265625 1.2747875 1.265625zm0-4.9921875c.7040458 0 1.2747876-.5666396 1.2747876-1.265625s-.5707418-1.265625-1.2747876-1.265625c-.7040457 0-1.2747875.5666396-1.2747875 1.265625s.5707418 1.265625 1.2747875 1.265625zm5.2407932 4.9921875c.7040458 0 1.2747876-.5666396 1.2747876-1.265625s-.5707418-1.265625-1.2747876-1.265625c-.7040457 0-1.2747875.5666396-1.2747875 1.265625s.5707418 1.265625 1.2747875 1.265625zm-10.4815864-4.9921875c.7040457 0 1.2747876-.5666396 1.2747876-1.265625s-.5707419-1.265625-1.2747876-1.265625-1.2747875.5666396-1.2747875 1.265625.5707418 1.265625 1.2747875 1.265625zm5.2407932-4.921875c.7040458 0 1.2747876-.5666396 1.2747876-1.265625s-.5707418-1.265625-1.2747876-1.265625c-.7040457 0-1.2747875.5666396-1.2747875 1.265625s.5707418 1.265625 1.2747875 1.265625zm0-12.375c.7040458 0 1.2747876-.5666396 1.2747876-1.265625s-.5707418-1.265625-1.2747876-1.265625c-.7040457 0-1.2747875.5666396-1.2747875 1.265625s.5707418 1.265625 1.2747875 1.265625zm5.2407932 17.296875c.7040458 0 1.2747876-.5666396 1.2747876-1.265625s-.5707418-1.265625-1.2747876-1.265625c-.7040457 0-1.2747875.5666396-1.2747875 1.265625s.5707418 1.265625 1.2747875 1.265625z" fill="#323232" fill-rule="evenodd"/></svg>