<svg height="45" viewBox="0 0 45 45" width="45" xmlns="http://www.w3.org/2000/svg"><path d="m0 5.5v34h45v-34zm43.59375 32.5833333h-42.1875v-31.16666663h42.1875zm-40.78125-5.3125c0 2.125 1.7578125 3.8958334 3.8671875 3.8958334 1.1953125 0 2.25-.5666667 2.953125-1.4166667h25.6640625c.703125.85 1.7578125 1.4166667 2.953125 1.4166667 2.109375 0 3.8671875-1.7708334 3.8671875-3.8958334 0-1.2041666-.5625-2.2666666-1.40625-2.975v-14.5916666c.84375-.7083334 1.40625-1.7708334 1.40625-2.975 0-2.125-1.7578125-3.89583337-3.8671875-3.89583337-1.1953125 0-2.25.56666667-2.953125 1.41666667h-25.6640625c-.703125-.85-1.7578125-1.41666667-2.953125-1.41666667-2.109375 0-3.8671875 1.77083337-3.8671875 3.89583337 0 1.2041666.5625 2.2666666 1.40625 2.975v14.5208333c-.84375.7791667-1.40625 1.8416667-1.40625 3.0458333zm3.8671875 2.4791667c-1.3359375 0-2.4609375-1.1333333-2.4609375-2.4791667 0-1.3458333 1.125-2.4791666 2.4609375-2.4791666s2.4609375 1.1333333 2.4609375 2.4791666c0 1.3458334-1.125 2.4791667-2.4609375 2.4791667zm31.640625 0c-1.3359375 0-2.4609375-1.1333333-2.4609375-2.4791667 0-1.3458333 1.125-2.4791666 2.4609375-2.4791666s2.4609375 1.1333333 2.4609375 2.4791666c0 1.3458334-1.125 2.4791667-2.4609375 2.4791667zm0-25.5c1.3359375 0 2.4609375 1.1333333 2.4609375 2.4791667 0 1.3458333-1.125 2.4791666-2.4609375 2.4791666s-2.4609375-1.1333333-2.4609375-2.4791666c0-1.3458334 1.125-2.4791667 2.4609375-2.4791667zm-31.640625 0c1.3359375 0 2.4609375 1.1333333 2.4609375 2.4791667 0 1.3458333-1.125 2.4791666-2.4609375 2.4791666s-2.4609375-1.1333333-2.4609375-2.4791666c0-1.3458334 1.125-2.4791667 2.4609375-2.4791667zm-1.0546875 6.2333333c.3515625.0708334.703125.1416667 1.0546875.1416667 2.109375 0 3.8671875-1.7708333 3.8671875-3.8958333 0-.3541667-.0703125-.7083334-.140625-1.0625h24.1875c-.0703125.3541666-.140625.7083333-.140625 1.0625 0 2.125 1.7578125 3.8958333 3.8671875 3.8958333.3515625 0 .703125-.0708333 1.0546875-.1416667v13.0333334c-.3515625-.0708334-.703125-.1416667-1.0546875-.1416667-2.109375 0-3.8671875 1.7708333-3.8671875 3.8958333 0 .3541667.0703125.7083334.140625 1.0625h-24.1875c.0703125-.3541666.140625-.7083333.140625-1.0625 0-2.125-1.7578125-3.8958333-3.8671875-3.8958333-.3515625 0-.703125.0708333-1.0546875.1416667zm4.640625 6.0916667c3.5859375-2.4791667 7.8046875-3.825 12.234375-3.825s8.6484375 1.3458333 12.234375 3.825c.140625.0708333.28125.1416667.421875.1416667.2109375 0 .421875-.1416667.5625-.2833334.2109375-.3541666.140625-.7791666-.2109375-.9916666-3.796875-2.6916667-8.296875-4.1083334-13.0078125-4.1083334s-9.2109375 1.4166667-13.078125 4.0375c-.3515625.2125-.421875.6375-.2109375.9916667.28125.3541667.703125.425 1.0546875.2125zm19.265625 1.1333333h-14.0625c-.421875 0-.703125.2833334-.703125.7083334s.28125.7083333.703125.7083333h14.0625c.421875 0 .703125-.2833333.703125-.7083333s-.28125-.7083334-.703125-.7083334zm-3.515625 4.25h-7.03125c-.421875 0-.703125.2833334-.703125.7083334s.28125.7083333.703125.7083333h7.03125c.421875 0 .703125-.2833333.703125-.7083333s-.28125-.7083334-.703125-.7083334z" fill="#323232"/></svg>