<svg height="45" viewBox="0 0 45 45" width="45" xmlns="http://www.w3.org/2000/svg"><path d="m22.6815746 0c-7.6008748 0-13.6815746 5.95041322-13.6815746 13.3884298 0 7.4380165 6.0806998 13.3884297 13.6815746 13.3884297 1.520175 0 3.0403499-.3719008 4.1804811-.7438016l-8.741006 15.9917355c-.3800437.7438016 0 1.8595041.7600875 2.6033058.3800438 0 .7600875.3719008.7600875.3719008.7600875 0 1.520175-.3719008 1.520175-1.1157025l13.6815746-24.9173554v-.3719008c.7600875-1.4876033 1.1401312-3.3471074 1.1401312-5.2066115.3800437-7.43801658-5.7006561-13.3884298-13.3015309-13.3884298zm-10.2611809 13.3884298c0-5.57851244 4.5605248-9.66942154 9.8811372-9.66942154 5.7006561 0 9.8811372 4.46280992 9.8811372 9.66942154 0 5.2066115-4.5605249 9.6694214-9.8811372 9.6694214-5.3206124.3719009-9.8811372-4.0909091-9.8811372-9.6694214z" fill="#323232"/></svg>