<svg height="45" viewBox="0 0 45 45" width="45" xmlns="http://www.w3.org/2000/svg"><path d="m43.5303266 17.0461741v6.1741425h-2.0995334v-8.0949868c0-1.2348285-1.1197512-2.1952506-2.5894246-2.1952506h-15.0466563v-2.0580475h4.1990669v-1.3720317h-9.7978227v1.3720317h4.1990668v2.0580475h-4.059098c-.6998444 0-1.3996889.2744063-1.88958.6860158l-4.4790047 4.1846966c-.2099534.2058047-.5598756.3430079-.9097978.3430079h-4.96889583c-1.39968896 0-2.58942457 1.0290237-2.58942457 2.1952506v2.8812665h-2.09953344v-4.116095h-1.39968896v9.6042217h1.39968896v-4.116095h2.09953344v3.1556728c0 1.2348285 1.11975116 2.1952507 2.58942457 2.1952507h3.98911353c.62986 0 1.1897356.4116095 1.1897356.823219v.0686015c.0699845.4116095.2099534 1.166227.5598756 1.5778365l2.9393468 3.0870712h23.3048212l2.8693623-3.0870712c.3499223-.4116095.5598756-.8918206.5598756-1.3720317v-6.4485488h2.0995334v6.1741425h1.399689v-13.7203167zm-3.4992224 13.994723c0 .1372032-.0699844.3430079-.2099533.4802111l-2.4494557 2.6754617h-22.0451011l-2.4494557-2.6068601c-.0699844-.1372032-.2099533-.4802111-.2799378-.823219-.0699844-1.2348285-1.1897356-2.1952507-2.5894246-2.1952507h-3.91912903c-.62986003 0-1.18973562-.4116095-1.18973562-.823219v-7.3403694c0-.4802111.55987559-.823219 1.18973562-.823219h5.03888023c.6998445 0 1.399689-.2744063 1.8895801-.6860158l4.4790047-4.1846966c.2099533-.2058047.5598756-.3430079.9097978-.3430079h20.5054432c.6298601 0 1.1897356.4116095 1.1897356.823219v15.8469657zm-10.4976672-5.9683377-.3499222-2.0580475-2.2395024-.2744064v-.0686015l.9097979-2.1266491-1.6796268-1.3720317-1.8895801 1.1662269h-.0699844l-.6998445-2.1952506h-2.1695179l-.6998445 2.126649h-.0699844l-1.9595646-1.2348284-1.6796267 1.3720316.8398134 2.0580475s-.0699845.0686016-.0699845.0686016l-2.3094868.2744063-.3499222 2.0580475 1.9595645 1.0290238v.1372031l-1.5396578 1.646438 1.0497667 1.8522428 2.1695179-.4802111s.0699844.0686016.0699844.0686016l-.0699844 2.2638522 2.029549.7546174 1.3996889-1.7836411h.0699845l1.3996889 1.7836411 2.029549-.7546174-.0699844-2.1952506s0 0 .0699844-.0686016l2.3094868.4802111 1.0497667-1.8522428-1.5396578-1.646438v-.0686016zm-2.1695179 2.949868-.1399689.2744064-2.029549-.4116095-.2099533.2058047c-.1399689.1372032-.2799378.2744064-.4199067.3430079l-.2799378.2058048.0699845 1.9894459-.2799378.1372032-1.2597201-1.5778364h-.4199067c-.1399689 0-.3499222 0-.4898911 0h-.3499222l-1.2597201 1.5778364-.2799378-.1372032.0699844-1.9894459-.2799377-.2058048c-.2099534-.1372031-.3499223-.2744063-.4898912-.4116095l-.2799378-.2744063-1.9595645.4116095-.1399689-.2744063 1.3996889-1.5092349-.0699844-.2744063c-.0699844-.2058047-.0699844-.4116095-.0699844-.6174142v-.343008l-1.7496112-.8918205.0699844-.2744064 2.029549-.2744063.1399689-.2744063c.0699844-.2058048.2099533-.3430079.3499222-.4802111l.2099534-.2744063-.769829-1.7836412.2099534-.2058048 1.7496112 1.0976254.2799378-.1372032c.1399689-.0686016.3499222-.1372032.5598756-.2058047l.3499222-.0686016.62986-1.8522428h.2099534l.62986 1.9208444.2799378.0686015c.1399689.0686016.3499222.1372032.5598756.2058048l.3499222.1372032 1.6796268-1.0976254.2099533.2058048-.7698289 1.8522427.2099533.2744064c.0699845.1372031.2099534.3430079.2799378.480211l.1399689.343008 2.029549.2744063.0699845.2744063-1.8195957.9604222-.0699844.3430079c0 .2058047-.0699845.3430079-.1399689.5488127l-.0699845.3430079zm-5.1088647-1.5092348c.7730269 0 1.399689-.6142795 1.399689-1.3720317 0-.7577521-.6266621-1.3720316-1.399689-1.3720316-.7730268 0-1.3996889.6142795-1.3996889 1.3720316 0 .7577522.6266621 1.3720317 1.3996889 1.3720317zm14.3468119-7.8205805-.9097979-1.5778364-1.6096423.3430079s-.0699844-.0686015-.0699844-.0686015l-.5598756-1.646438h-1.8895801l-.4898911 1.5778364s0 0-.0699845 0l-1.7496112-.4116095-.9097978 1.5778364 1.1197512 1.3034301-1.2597201 1.30343.9097978 1.5778365 1.6796268-.343008.5598756 1.7150396h1.8895801l.4898911-1.5778364h.0699844l1.7496112.4116095.9097979-1.5778364-1.1197512-1.1662269c0-.0686016 0-.0686016 0-.1372032zm-2.3794713 1.0976254v.1372031.2744064l-.1399689.2744063.8398134.9604222-1.2597201-.2744064-.2099533.1372032c-.1399689.0686016-.2099533.1372032-.3499222.1372032l-.2799378.1372031-.4199067 1.2348285h-.0699845l-.4199067-1.3034301-.2099533-.1372031c-.0699844-.0686016-.2099533-.1372032-.2799378-.2058048l-.2099533-.2058047-1.3297045.2744063.9797822-1.0290237v-.3430079c0-.0686016 0-.1372032 0-.2058048l.0699845-.2744063-1.0497667-.9604222 1.3996889.2744063.2099534-.1372031c.0699844-.0686016.2099533-.1372032.3499222-.1372032l.2799378-.1372032.4199067-1.2348285.4199067 1.3034301.2799378.1372032c.1399688.0686016.2799377.1372032.3499222.2058047l.2099533.2058048 1.2597201-.2744063-.9097978.9604221zm-1.7496112.9604221c.4638161 0 .8398134-.3685677.8398134-.823219s-.3759973-.823219-.8398134-.823219-.8398133.3685677-.8398133.823219.3759972.823219.8398133.823219z" fill="#323232"/></svg>