<svg height="45" viewBox="0 0 45 45" width="45" xmlns="http://www.w3.org/2000/svg"><path d="m8.67570766 11.3438486 2.92155074 28.2571438c.3478036 3.0851472 2.9215507 5.3990076 5.9822228 5.3990076h10.6427918c3.1302329 0 5.70398-2.3839774 5.9822229-5.5392416l2.2955041-28.1169098zm24.13757364 27.9766758c-.2086822 2.3839774-2.2259434 4.277136-4.5910083 4.277136h-10.6427918c-2.3650648 0-4.3127653-1.8230416-4.5910082-4.136902l-2.7824293-26.7145702h24.7636202zm-17.5988649-22.6477852c-.4173644 0-.6956073.3505849-.6260466.7712868l1.3912146 19.632755c0 .3505849.3478037.6310529.6956073.6310529h.0695607c.4173644 0 .6956074-.350585.6260466-.7712868l-1.3912146-19.632755c0-.3505849-.3478037-.6310529-.765168-.6310529zm14.7468749 0c-.4173644 0-.6956073.280468-.765168.6310529l-1.3912147 19.632755c0 .4207018.278243.7011698.6260466.7712868h.0695608c.3478036 0 .6956073-.280468.6956073-.6310529l1.3912146-19.632755c0-.4207019-.2782429-.7011698-.6260466-.7712868zm-7.3734375 0c-.4173644 0-.6956073.280468-.6956073.7011698v19.632755c0 .4207019.2782429.7011699.6956073.7011699s.6956073-.280468.6956073-.7011699v-19.632755c0-.3505849-.2782429-.7011698-.6956073-.7011698zm-13.35566029-8.76462274h.13912146l26.29395623-6.24041141c.3478037-.07011698.6260466-.49081887.4869251-.84140378-.0695607-.35058491-.4869251-.63105284-.8347287-.49081888l-9.4602594 2.17362645-.2086822-.77128681c-.1391215-.56093585-.4869251-1.05175473-.9738502-1.40233964-.4869252-.28046793-1.1129717-.42070189-1.6694576-.28046793l-3.2693543.77128681c-.5564859.14023396-1.043411.49081887-1.3912146.98163775-.278243.49081887-.4173644 1.12187171-.278243 1.68280757l.1391215.70116982-9.18201648 2.31386041c-.34780366.07011698-.62604658.49081887-.48692512.84140378.06956073.28046793.34780366.56093586.69560731.56093586zm10.22542739-4.62772082c-.0695607-.21035095 0-.42070189.0695608-.63105284.1391214-.21035094.2782429-.35058491.4869251-.35058491l3.2693543-.7712868c.2086822-.07011698.4173644 0 .6260466.07011698.2086822.14023396.3478037.28046793.3478037.49081888l.2086822.7712868-4.8692512 1.12187171z" fill="#323232"/></svg>