<svg height="45" viewBox="0 0 45 45" width="45" xmlns="http://www.w3.org/2000/svg"><path d="m36.0139319 29.6667973h-5.5727554v-27.59976473c0-.76666013-.3715171-1.53332026-1.4860681-1.91665033-.7430341-.38333006-1.4860682 0-2.2291022.76666014l-18.94736843 29.51641512c-.37151703.7666601-.37151703 1.5333202 0 1.9166503.37151703.7666601 1.11455108 1.1499902 1.48606811 1.1499902h17.08978332v9.5832517c0 1.1499902.743034 1.9166503 1.8575851 1.9166503s1.8575851-.7666601 1.8575851-1.9166503v-9.5832517h5.5727555c1.114551 0 1.8575851-.7666601 1.8575851-1.9166503s-.371517-1.9166504-1.4860681-1.9166504zm-8.9164087 0h-13.74613l13.74613-21.0831536z" fill="#323232"/></svg>