<svg height="45" viewBox="0 0 45 45" width="45" xmlns="http://www.w3.org/2000/svg"><path d="m34.3828125 7-10.40625 10.4031532v7.8896396h-2.8828125v-7.8896396l-10.6875-10.4031532-10.40625 10.4031532v20.5968468h21.0234375v-11.3108108h2.8828125v11.3108108h21.09375v-20.5968468zm-14.765625 29.6036036h-18.2109375v-18.6418919l9-9.00675675 9.2109375 9.00675675v7.3310811h-9.7734375c-.421875 0-.703125.2792793-.703125.6981982s.28125.6981982.703125.6981982h9.7734375zm23.9765625 0h-18.2109375v-9.9144144h10.8984375l-4.9921875 4.9572072c-.28125.2792793-.28125.6981982 0 .9774775.140625.1396396.3515625.2094594.4921875.2094594s.3515625-.0698198.4921875-.2094594l6.1875-6.1441442c.28125-.2792792.28125-.6981982 0-.9774774l-6.1875-6.1441442c-.28125-.2792793-.703125-.2792793-.984375 0s-.28125.6981982 0 .9774775l4.9921875 4.9572072h-10.8984375v-7.3310811l9-9.00675675 9.2109375 9.00675675z" fill="#323232"/></svg>