<svg height="45" viewBox="0 0 45 45" width="45" xmlns="http://www.w3.org/2000/svg"><path d="m41.0625 7.65517241-1.6171875-1.62586207c-1.1953125-1.20172413-2.8125-1.90862068-4.5703125-1.90862068h-20.953125l-1.1953125-1.06034483c-.7734375-.70689655-1.7578125-1.06034483-2.8125-1.06034483h-5.6953125c-2.3203125 0-4.21875 1.90862069-4.21875 4.24137931v32.51724139c0 2.3327586 1.8984375 4.2413793 4.21875 4.2413793h36.5625c2.3203125 0 4.21875-1.9086207 4.21875-4.2413793v-26.862069c0-2.26206894-1.7578125-4.09999998-3.9375-4.24137929zm-6.1875-2.12068965c1.3359375 0 2.671875.56551724 3.5859375 1.48448276l.6328125.63620689h-20.1796875c-.703125 0-1.3359375-.28275862-1.8984375-.70689655l-1.546875-1.4137931zm8.71875 33.22413794c0 1.5551724-1.265625 2.8275862-2.8125 2.8275862h-36.5625c-1.546875 0-2.8125-1.2724138-2.8125-2.8275862v-32.51724139c0-1.55517241 1.265625-2.82758621 2.8125-2.82758621h5.6953125c.703125 0 1.3359375.28275862 1.8984375.70689656l4.359375 3.88793103c.7734375.70689655 1.7578125 1.06034483 2.8125 1.06034483h21.796875c1.546875 0 2.8125 1.27241378 2.8125 2.82758618zm-28.125-24.7413793h-7.03125v7.0689655h7.03125zm-.984375 6.0793103h-5.0625v-5.0896551h5.0625zm-8.15625 2.6155173h11.25v.9896551h-11.25zm2.109375 5.4431034v7.0689655h7.03125v-7.0689655zm6.046875 6.0793104h-5.0625v-5.0896552h5.0625zm-8.15625 2.6155172h11.25v.9896552h-11.25zm29.53125-22.8327586h-7.03125v7.0689655h7.03125zm-.984375 6.0793103h-5.0625v-5.0896551h5.0625zm-8.15625 2.6155173h11.25v.9896551h-11.25z" fill="#323232"/></svg>