<svg height="45" viewBox="0 0 45 45" width="45" xmlns="http://www.w3.org/2000/svg"><path d="m18.4315482 25.3963743c-.7777179 0-1.4081828-.6369057-1.4081828-1.4225687 0-.7856629.6304649-1.4225686 1.4081828-1.4225686s1.4081828.6369057 1.4081828 1.4225686c0 .785663-.6304649 1.4225687-1.4081828 1.4225687zm4.2245484 0c-.7777179 0-1.4081828-.6369057-1.4081828-1.4225687 0-.7856629.6304649-1.4225686 1.4081828-1.4225686s1.4081828.6369057 1.4081828 1.4225686c0 .785663-.6304649 1.4225687-1.4081828 1.4225687zm4.2245484 0c-.7777179 0-1.4081828-.6369057-1.4081828-1.4225687 0-.7856629.6304649-1.4225686 1.4081828-1.4225686s1.4081828.6369057 1.4081828 1.4225686c0 .785663-.6304649 1.4225687-1.4081828 1.4225687zm-4.2245484 4.267706c-.7777179 0-1.4081828-.6369057-1.4081828-1.4225687 0-.7856629.6304649-1.4225686 1.4081828-1.4225686s1.4081828.6369057 1.4081828 1.4225686c0 .785663-.6304649 1.4225687-1.4081828 1.4225687zm-10.1884495-4.7767524c0 5.5260962 4.4797861 10.0058823 10.0058823 10.0058823s10.0058824-4.4797861 10.0058824-10.0058823c0-5.5260963-4.4797862-10.0058824-10.0058824-10.0058824s-10.0058823 4.4797861-10.0058823 10.0058824zm18.6794117 0c-.0185234 4.1386646-2.9556948 7.6889168-7.0176204 8.4824204-4.0619257.7935036-8.1192656-1.3903597-9.693977-5.2177834-1.5747115-3.8274236-.2289763-8.2342664 3.2152902-10.5290247 3.4442666-2.2947583 8.0294528-1.8394189 10.9551308 1.0879171 1.640057 1.6354123 2.5554829 3.8604059 2.5411764 6.1764706zm8.5515471-16.64545806h-1.9085018v-1.04433276c.0070975-.3700063-.1328385-.72746189-.3885333-.9924781s-.6058317-.4154993-.9721579-.41781743h-4.0467308c-.3678607-.00006961-.7202833.14936352-.9778951.41464408-.2576119.26528055-.3987516.62410231-.3916317.99565145v1.04433276h-1.9526801c-.0138338-.7322346-.1512877-1.45671173-.4064403-2.14222105-.221648-.58479162-.6012345-1.09504659-1.0956214-1.47277697-.6127978-.43148965-1.347525-.65071464-2.0940506-.62481447h-6.8122914c-.7465257-.02590017-1.4812529.19332482-2.0940507.62481447-.7094831.56990263-1.1873474 1.38294883-1.3430198 2.28503578-.1036236.43663664-.1686737.88170417-.1943845 1.32996224h-9.71922243c-2.9278791 0-5.30139407 2.39776256-5.30139407 5.35555266v22.0470249c0 2.95779 2.37351497 5.3555526 5.30139407 5.3555526h34.39721183c2.9278791 0 5.3013941-2.3977626 5.3013941-5.3555526v-22.0470249c0-2.9577901-2.373515-5.35555266-5.3013941-5.35555266zm-7.3601021-1.04433276h4.0378952v1.04433276h-4.0378952zm-15.6479481-.58911079c.1309982-.35346281.3575274-.66271062.6538386-.8925921.3849995-.26218039.8440142-.39063893 1.3076772-.36596277h6.821127c.4637337-.02533233.9229513.10318298 1.3076772.36596277.4466877.37863681.741873.9084193.8305517 1.49062881.0704656.34393877.1118478.69330869.1236992 1.04433276h-11.3449833c.0094102-.56048566.1109297-1.11549801.3004124-1.64236947zm-14.19890049 4.15055331c.74438629-.7543184 1.7553873-1.17826637 2.80973886-1.17822161h34.39721183c2.0205682.00191897 3.7153786 1.54090721 3.9318673 3.57036841h-15.7893187c-3.3924811-1.5496363-7.2809922-1.5496363-10.6734734 0h-15.78931864c.09262754-.901625.48508244-1.744898 1.11329275-2.3921468zm28.27410169 5.989293c3.9493304 3.9949852 4.5555556 10.2517797 1.4479885 14.9445543-3.1075672 4.6927745-9.063598 6.5147857-14.2261705 4.3519321-5.1625725-2.1628537-8.09412401-7.7083069-7.0021048-13.2454929 1.0920193-5.537186 5.9035271-9.5242276 11.4924408-9.5231768 3.1204759-.0081399 6.1144441 1.2453948 8.314353 3.4811092zm12.9088946 18.8961748c-.0096774 2.2142804-1.7841573 4.0068882-3.9760456 4.0166644h-34.39721183c-2.19188832-.0097762-3.9663682-1.802384-3.97604555-4.0166644v-21.1901365h13.55389748c-4.5909716 3.3425988-6.52410549 9.2948332-4.7856447 14.7352852 1.7384608 5.440452 6.7517393 9.127422 12.4108165 9.127422s10.6723558-3.68697 12.4108166-9.127422c1.7384607-5.440452-.1946731-11.3926864-4.7856448-14.7352852h13.5450619zm-5.7431769-23.2341724c-.4440617 0-.8040448-.3636607-.8040448-.8122589 0-.4485981.3599831-.8122588.8040448-.8122588.4440616 0 .8040447.3636607.8040447.8122588 0 .4485982-.3599831.8122589-.8040447.8122589zm-2.4739839 0c-.4440617 0-.8040448-.3636607-.8040448-.8122589 0-.4485981.3599831-.8122588.8040448-.8122588.4440616 0 .8040447.3636607.8040447.8122588 0 .4485982-.3599831.8122589-.8040447.8122589z" fill="#323232"/></svg>