<svg height="45" viewBox="0 0 45 45" width="45" xmlns="http://www.w3.org/2000/svg"><path d="m38.671875 32.34375c-2.25 0-4.1484375 1.125-5.2734375 2.8828125l-21.09375-10.546875c.28125-.703125.421875-1.40625.421875-2.1796875s-.140625-1.4765625-.421875-2.1796875l21.09375-10.546875c1.125 1.7578125 3.09375 2.8828125 5.2734375 2.8828125 3.515625 0 6.328125-2.8125 6.328125-6.328125s-2.8125-6.328125-6.328125-6.328125-6.328125 2.8125-6.328125 6.328125c0 .7734375.140625 1.4765625.421875 2.1796875l-21.09375 10.546875c-1.1953125-1.7578125-3.09375-2.8828125-5.34375-2.8828125-3.515625 0-6.328125 2.8125-6.328125 6.328125s2.8125 6.328125 6.328125 6.328125c2.25 0 4.1484375-1.125 5.2734375-2.8828125l21.09375 10.546875c-.28125.703125-.421875 1.40625-.421875 2.1796875 0 3.515625 2.8125 6.328125 6.328125 6.328125s6.328125-2.8125 6.328125-6.328125c.0703125-3.515625-2.7421875-6.328125-6.2578125-6.328125zm0-30.9375c2.7421875 0 4.921875 2.1796875 4.921875 4.921875s-2.1796875 4.921875-4.921875 4.921875-4.921875-2.1796875-4.921875-4.921875 2.1796875-4.921875 4.921875-4.921875zm-32.34375 26.015625c-2.7421875 0-4.921875-2.1796875-4.921875-4.921875s2.1796875-4.921875 4.921875-4.921875 4.921875 2.1796875 4.921875 4.921875-2.1796875 4.921875-4.921875 4.921875zm32.34375 16.171875c-2.7421875 0-4.921875-2.1796875-4.921875-4.921875s2.1796875-4.921875 4.921875-4.921875 4.921875 2.1796875 4.921875 4.921875-2.1796875 4.921875-4.921875 4.921875z" fill="#323232"/></svg>