<svg height="45" viewBox="0 0 45 45" width="45" xmlns="http://www.w3.org/2000/svg"><path d="m35.9583333 18.28125v-4.921875c0-7.3828125-6.0208333-13.359375-13.4583333-13.359375s-13.45833333 5.9765625-13.45833333 13.359375v4.921875h-3.54166667v19.6171875c0 3.9375 3.1875 7.1015625 7.1541667 7.1015625h19.7625c3.8958333 0 7.0833333-3.1640625 7.0833333-7.1015625v-19.6171875zm-25.5-4.921875c0-6.609375 5.3833334-11.953125 12.0416667-11.953125s12.0416667 5.34375 12.0416667 11.953125v4.921875h-24.0833334zm27.625 24.5390625c0 3.09375-2.55 5.6953125-5.7375 5.6953125h-19.6916666c-3.1166667 0-5.73750003-2.53125-5.73750003-5.6953125v-18.2109375h31.16666663zm-18.1333333.0703125c.1416667.140625.3541667.2109375.4958333.2109375.1416667 0 .3541667-.0703125.4958334-.2109375l12.75-12.65625c.2833333-.28125.2833333-.703125 0-.984375-.2833334-.28125-.7083334-.28125-.9916667 0l-12.2541667 12.1640625-5.95-5.90625c-.2833333-.28125-.7083333-.28125-.9916666 0-.2833334.28125-.2833334.703125 0 .984375z" fill="#323232"/></svg>