<svg height="45" viewBox="0 0 45 45" width="45" xmlns="http://www.w3.org/2000/svg"><path d="m22.4625624 9.73377704c-7.0382696 0-12.72878536 5.69051576-12.72878536 12.72878536 0 7.0382695 5.69051576 12.7287854 12.72878536 12.7287854 7.0382695 0 12.7287854-5.6905159 12.7287854-12.7287854 0-7.0382696-5.6905159-12.72878536-12.7287854-12.72878536zm6.0648918 22.16306156-1.4226289-2.5457571-.8985025.5241265 1.4226289 2.5457571c-1.4226289.748752-2.9201331 1.1231281-4.6422628 1.1980033v-2.9201331h-1.048253v2.9950083c-1.6472545-.0748752-3.2196339-.5241265-4.6422629-1.1980033l1.422629-2.5457571-.8985025-.5241265-1.422629 2.5457571c-1.3477537-.8985025-2.4708818-2.0216306-3.3693843-3.3693843l2.5457571-1.422629-.5241265-.8985025-2.5457571 1.422629c-.748752-1.422629-1.1231281-2.9201332-1.1980033-4.6422629h2.9201331v-1.048253h-2.9950083c.0748752-1.6472545.5241265-3.2196339 1.1980033-4.6422628l2.5457571 1.4226289.5241265-.8985025-2.5457571-1.4226289c.8985025-1.3477538 2.0216306-2.4708819 3.3693843-3.3693844l1.422629 2.5457571.8985025-.5241265-1.422629-2.5457571c1.422629-.748752 2.9201331-1.1231281 4.6422629-1.1980033v2.9201331h1.0482529v-3.0698835c1.6472546.0748752 3.219634.5241265 4.6422629 1.1980033l-1.4226289 2.5457571.8985025.5241265 1.4226289-2.5457571c1.3477538.8985025 2.4708819 2.0216306 3.3693844 3.3693843l-2.5457571 1.422629.5241265.8985025 2.5457571-1.422629c.748752 1.422629 1.1231281 2.9201331 1.1980033 4.6422629h-2.9201331v1.0482529h3.0698835c-.0748752 1.6472546-.5241265 3.219634-1.1980033 4.6422629l-2.5457571-1.4226289-.5241265.8985025 2.5457571 1.4226289c-.9733777 1.422629-2.0965058 2.5457571-3.4442596 3.4442596zm-6.0648918-16.6222962c-3.968386 0-7.18802 3.219634-7.18802 7.18802s3.219634 7.18802 7.18802 7.18802 7.18802-3.219634 7.18802-7.18802-3.219634-7.18802-7.18802-7.18802zm0 12.8785358c-3.1447587 0-5.6905158-2.5457571-5.6905158-5.6905158s2.5457571-5.6905158 5.6905158-5.6905158 5.6905158 2.5457571 5.6905158 5.6905158-2.5457571 5.6905158-5.6905158 5.6905158zm15.124792-28.1530782h-30.24958402c-4.04326123 0-7.33777038 3.29450915-7.33777038 7.33777038v30.32445922c0 4.0432612 3.29450915 7.3377704 7.33777038 7.3377704h30.32445922c4.0432612 0 7.3377704-3.2945092 7.3377704-7.3377704v-30.32445922c-.0748752-4.04326123-3.3693844-7.33777038-7.4126456-7.33777038zm5.8402662 37.5873544c0 3.219634-2.6206322 5.8402662-5.8402662 5.8402662h-30.24958402c-3.21963394 0-5.84026622-2.6206322-5.84026622-5.8402662v-30.24958402c0-3.21963394 2.62063228-5.84026622 5.84026622-5.84026622h30.32445922c3.219634 0 5.8402662 2.62063228 5.8402662 5.84026622v30.24958402z" fill="#323232"/></svg>