<svg height="45" viewBox="0 0 45 45" width="45" xmlns="http://www.w3.org/2000/svg"><path d="m45 22.5-3.09375-3.8671875 1.3359375-4.78125-4.2890625-2.390625-.5625-4.921875-4.921875-.5625-2.390625-4.2890625-4.78125 1.3359375-3.796875-3.0234375-3.8671875 3.09375-4.78125-1.3359375-2.390625 4.359375-4.921875.5625-.5625 4.921875-4.2890625 2.390625 1.3359375 4.78125-3.0234375 3.7265625 3.09375 3.8671875-1.3359375 4.7109375 4.359375 2.390625.5625 4.921875 4.921875.5625 2.390625 4.2890625 4.78125-1.3359375 3.7265625 3.09375 3.8671875-3.09375 4.78125 1.40625 2.390625-4.2890625 4.921875-.5625.5625-4.921875 4.2890625-2.390625-1.3359375-4.78125zm-6.75 9.7734375-.6328125.3515625-.0703125.703125-.421875 3.796875-3.796875.421875-.703125.0703125-.3515625.6328125-1.828125 3.3046875-3.7265625-.984375-.703125-.2109375-.5625.421875-2.953125 2.390625-2.953125-2.390625-.5625-.421875-.703125.2109375-3.65625 1.0546875-1.828125-3.375-.3515625-.6328125-.703125-.0703125-3.796875-.421875-.421875-3.796875-.0703125-.703125-.6328125-.3515625-3.375-1.828125.984375-3.7265625.2109375-.703125-.421875-.5625-2.390625-2.953125 2.390625-2.953125.421875-.5625-.2109375-.703125-1.0546875-3.65625 3.375-1.828125.6328125-.3515625.0703125-.703125.421875-3.796875 3.796875-.421875.703125-.0703125.3515625-.6328125 1.828125-3.375 3.7265625.984375.703125.2109375.5625-.421875 2.953125-2.390625 2.953125 2.390625.5625.421875.703125-.2109375 3.65625-1.0546875 1.828125 3.3046875.3515625.6328125.703125.0703125 3.796875.421875.421875 3.796875.0703125.703125.6328125.3515625 3.375 1.828125-.984375 3.796875-.2109375.703125.421875.5625 2.390625 2.953125-2.390625 2.953125-.421875.5625.2109375.703125 1.0546875 3.65625zm-15.75-26.71875c-4.5703125 0-8.7890625 1.7578125-12.0234375 4.9921875-3.1640625 3.1640625-4.921875 7.3828125-4.921875 11.953125 0 9.3515625 7.59375 16.9453125 16.9453125 16.9453125s16.9453125-7.59375 16.9453125-17.015625c0-4.5-1.7578125-8.7890625-4.9921875-12.0234375-3.1640625-3.09375-7.3828125-4.8515625-11.953125-4.8515625zm0 32.484375c-8.578125 0-15.5390625-6.9609375-15.5390625-15.5390625 0-4.1484375 1.6171875-8.0859375 4.5703125-11.0390625s6.8203125-4.5703125 11.0390625-4.5703125c4.1484375 0 8.0859375 1.6171875 11.0390625 4.5703125s4.5703125 6.8203125 4.5703125 11.0390625c-.140625 8.578125-7.1015625 15.5390625-15.6796875 15.5390625zm-11.25-9.4921875h2.1796875l.7734375 3.9375 18.28125-3.65625c.2109375-.0703125.3515625-.140625.421875-.28125h.84375v-12.515625h-22.5zm4.078125 2.25-.4921875-2.3203125h11.953125zm-2.671875-13.359375h19.6875v9.703125h-19.6875zm3.515625 5.9765625c.6213203 0 1.125-.5036797 1.125-1.125s-.5036797-1.125-1.125-1.125-1.125.5036797-1.125 1.125.5036797 1.125 1.125 1.125zm12.5859375 0c.6213203 0 1.125-.5036797 1.125-1.125s-.5036797-1.125-1.125-1.125-1.125.5036797-1.125 1.125.5036797 1.125 1.125 1.125zm-5.90625-1.828125c-.84375-.3515625-1.1953125-.4921875-1.1953125-.84375 0-.28125.2109375-.5625.84375-.5625.703125 0 1.1953125.2109375 1.40625.3515625l.28125-1.125c-.3515625-.140625-.7734375-.28125-1.4765625-.3515625v-.84375h-.984375v.9140625c-1.0546875.2109375-1.6875.9140625-1.6875 1.7578125 0 .984375.703125 1.4765625 1.7578125 1.828125.703125.28125 1.0546875.4921875 1.0546875.84375 0 .421875-.421875.6328125-.984375.6328125-.6328125 0-1.265625-.2109375-1.6171875-.421875l-.28125 1.1953125c.3515625.2109375 1.0546875.421875 1.6875.421875v.9140625h.984375v-.984375c1.125-.2109375 1.7578125-.984375 1.7578125-1.828125.140625-.9140625-.3515625-1.4765625-1.546875-1.8984375z" fill="#323232"/></svg>