<svg height="45" viewBox="0 0 45 45" width="45" xmlns="http://www.w3.org/2000/svg"><path d="m21.199847 15.6355932c-1.8815991 0-3.3868783.381356-4.8921576.7627119v-12.58474578h16.1817521c1.1289594 0 1.8815991-.76271186 1.8815991-1.90677966s-.7526397-1.90677966-1.8815991-1.90677966h-18.0633512c-1.1289594 0-1.881599.76271186-1.881599 1.90677966v17.92372884c0 .7627118.3763198 1.5254237 1.1289594 1.5254237.7526396.3813559 1.5052793.3813559 1.8815991 0 1.8815991-1.1440678 3.7631981-1.9067797 6.021117-1.9067797 6.0211171 0 10.5369549 4.9576272 10.5369549 10.6779661 0 5.720339-4.8921576 10.6779661-10.5369549 10.6779661-3.3868783 0-6.3974368-1.5254237-8.2790359-4.1949152-1.1289595-.3813559-2.2579189-.7627119-3.0105585 0-.75263966.7627119-1.12895948 1.9067797-.37631985 2.6694915 2.63423875 3.4322034 6.77375665 5.720339 11.28959445 5.720339 7.9027161 0 14.300153-6.4830508 14.300153-14.4915254 0-8.3898305-6.3974369-14.8728814-14.300153-14.8728814z" fill="#323232"/></svg>