<svg height="11" viewBox="0 0 11 11" width="11" xmlns="http://www.w3.org/2000/svg"><path d="m6.87198068 11c-.46376812 0-.77294686-.2997589-.77294686-.7493974v-1.94843312h-3.8647343c-.30917875 0-.61835749-.14987947-.61835749-.44963842-.15458937-.29975895-.15458937-.59951789 0-.74939737l4.63768116-6.7445763c.15458937-.29975895.46376811-.44963842.92753623-.29975895.30917874.14987948.61835749.44963842.61835749.74939737v5.99517894h.92753623c.46376812 0 .77294686.29975894.77294686.74939736s-.46376812.74939737-.92753623.74939737h-.92753623v1.94843312c0 .299759-.46376812.7493974-.77294686.7493974zm-3.24637682-4.19662525h2.31884058v-3.44722789z" fill="#323232"/></svg>