<svg height="30" viewBox="0 0 30 30" width="30" xmlns="http://www.w3.org/2000/svg"><path d="m30 7.27386935h-14.5v-4.77386935h-15.5v25h3.75 8 3.75v-2.3869347h14.5zm-1.25 1.2562814v3.14070355h-13.25v-3.14070355zm-13.25 8.16582915h13.25v2.5125628h-13.25zm0-1.2562814v-2.5125628h13.25v2.5125628zm-10.5 10.678392v-6.4070352h5.5v6.4070352zm9.25 0h-2.5v-7.6633166h-8v7.6633166h-2.5v-22.36180909h13zm1.25-2.2613066v-3.2663316h13.25v3.2663316zm-3.75-11.9346733h-8v2.763819h8zm-1.25 1.5075376h-5.5v-.2512562h5.5zm1.25-6.78391956h-8v2.7638191h8zm-1.25 1.63316583h-5.5v-.37688442h5.5z" fill="#323232"/></svg>