<svg height="30" viewBox="0 0 30 30" width="30" xmlns="http://www.w3.org/2000/svg"><path d="m29.8728814 14.9386503h-4.4491526v-8.71165643h2.2881356c.3813559 0 .6355932-.24539878.6355932-.61349694s-.2542373-.61349693-.6355932-.61349693h-17.4152542c-.38135596 0-.63559325.24539877-.63559325.61349693s.25423729.61349694.63559325.61349694h13.8559322v8.71165643h-.381356c-3.4322033 0-6.1016949 2.4539877-6.4830508 5.6441718h-9.15254238l-1.1440678-1.4723927 5.08474578-4.9079754 1.2711864 1.2269939c.1271187.1226993.2542373.1226993.5084746.1226993s.3813559 0 .5084746-.1226993c.2542373-.2453988.2542373-.613497 0-.8588958l-3.5593221-3.3128834c-.2542372-.2453988-.6355932-.2453988-.88983046 0-.25423729.2453988-.25423729.6134969 0 .8588957l1.27118646 1.2269939-4.95762714 4.7852761-2.28813559-2.9447853c-.25423729-.2453988-.63559322-.3680982-.88983051-.1226994s-.38135593.6134969-.12711865.8588957l4.57627119 5.8895706h9.7881356 3.559322.6355932v.3680981c0 1.595092 1.2711865 2.8220859 2.9237289 2.8220859 1.6525423 0 2.9237288-1.2269939 2.9237288-2.8220859 0-.1226994 0-.2453988 0-.3680981h2.6694915v-6.8711657zm-5.5932204 8.8343558c-.8898305 0-1.6525424-.7361963-1.6525424-1.595092s.7627119-1.595092 1.6525424-1.595092 1.6525424.7361963 1.6525424 1.595092c.1271186.8588957-.6355932 1.595092-1.6525424 1.595092zm4.3220339-3.190184h-1.779661c-.5084746-.7361963-1.3983051-1.2269939-2.4152542-1.2269939-1.0169492 0-1.9067797.4907976-2.4152543 1.2269939h-1.0169491-2.161017c.2542373-2.5766871 2.5423729-4.4171779 5.2118644-4.4171779h4.8305085v4.4171779zm-25.67796609-1.2269939c-1.65254237 0-2.92372881 1.2269939-2.92372881 2.8220859s1.27118644 2.8220859 2.92372881 2.8220859c1.65254238 0 2.92372882-1.2269939 2.92372882-2.8220859s-1.27118644-2.8220859-2.92372882-2.8220859zm0 4.4171779c-.8898305 0-1.65254237-.7361963-1.65254237-1.595092s.76271187-1.595092 1.65254237-1.595092c.88983051 0 1.65254238.7361963 1.65254238 1.595092s-.63559322 1.595092-1.65254238 1.595092z" fill="#323232"/></svg>