<?xml version="1.0" standalone="no"?>
<!DOCTYPE svg PUBLIC "-//W3C//DTD SVG 1.1//EN" "http://www.w3.org/Graphics/SVG/1.1/DTD/svg11.dtd" >
<svg xmlns="http://www.w3.org/2000/svg" xmlns:xlink="http://www.w3.org/1999/xlink" version="1.1" viewBox="0 0 1001 1001">
  <g transform="matrix(1 0 0 -1 0 1001)">
   <path fill="currentColor"
d="M397.159 372.735l-0.0460593 288.806l270.474 -144.906zM991.005 711.573c0 0 -9.78019 70.832 -39.795 102.024c-38.0644 40.939 -80.7307 41.1423 -100.297 43.5383c-140.075 10.398 -350.196 10.398 -350.196 10.398h-0.435112s-210.115 0 -350.196 -10.398
c-19.5672 -2.39598 -62.2179 -2.59926 -100.296 -43.5383c-30.0129 -31.1921 -39.7793 -102.024 -39.7793 -102.024s-10.0105 -83.1802 -10.0105 -166.359v-77.9807c0 -83.1782 10.0105 -166.357 10.0105 -166.357s9.76648 -70.833 39.7793 -102.025
c38.0781 -40.94 88.0962 -39.6449 110.374 -43.9358c80.081 -7.88532 340.336 -10.3256 340.336 -10.3256s210.337 0.325034 350.412 10.7221c19.5663 2.39699 62.2326 2.59926 100.297 43.5393c30.0148 31.1921 39.795 102.025 39.795 102.025
s9.99579 83.1792 9.99579 166.357v77.9807c0 83.1792 -9.99579 166.359 -9.99579 166.359h0.001112z" />
  </g>

</svg>
