<svg height="11" viewBox="0 0 11 11" width="11" xmlns="http://www.w3.org/2000/svg"><path d="m5.18962684 11c-1.27012438 0-2.38148322-.4520548-3.01654541-1.35616438-.3175311-.30136987-.15876555-.75342466.15876555-1.05479452.31753109-.30136987.79382774-.30136987 1.11135883 0 .47629665.60273972 1.11135884.90410958 1.74642103.90410958 1.27012439 0 2.22271768-.90410958 2.22271768-2.10958904 0-1.20547945-.95259329-2.10958904-2.22271768-2.10958904-.47629664 0-.95259329.15068493-1.27012438.30136987-.3175311.15068493-.63506219.15068493-.79382774 0-.3175311-.15068494-.47629665-.4520548-.47629665-.60273973v-4.21917808c0-.4520548.3175311-.75342466.79382774-.75342466h4.44543535c.47629665 0 .79382774.30136986.79382774.75342466 0 .45205479-.31753109.75342466-.79382774.75342466h-3.65160761v2.26027397c.3175311 0 .6350622-.15068493.95259329-.15068493 2.06395213 0 3.81037316 1.65753424 3.81037316 3.61643835s-1.58765548 3.76712329-3.81037316 3.76712329z" fill="#323232"/></svg>