<svg height="30" viewBox="0 0 30 30" width="30" xmlns="http://www.w3.org/2000/svg"><path d="m0 23.0721649h30v.9278351h-30zm3.375-10.3917525c-.328125 0-.5625-.2783505-.5625-.6030928v-.8350516c0-.3247422.234375-.5103092.5625-.5103092s.5625.2319587.5625.556701v.8350515c0 .3247423-.234375.5567011-.5625.5567011zm2.0625 0c-.28125 0-.5625-.2783505-.5625-.5567011v-.8350515c0-.3247423.234375-.556701.5625-.556701s.5625.2319587.5625.556701v.8350515c0 .3247423-.234375.5567011-.5625.5567011zm2.109375 0c-.328125 0-.5625-.2783505-.5625-.5567011v-.8350515c0-.3247423.234375-.556701.5625-.556701s.5625.2319587.5625.556701v.8350515c0 .3247423-.234375.5567011-.5625.5567011zm2.0625 0c-.328125 0-.5625-.2783505-.5625-.5567011v-.8350515c0-.3247423.234375-.556701.5625-.556701s.5625.2319587.5625.556701v.8350515c0 .3247423-.234375.5567011-.5625.5567011zm2.296875 0c-.328125 0-.5625-.2783505-.5625-.5567011v-.8350515c0-.3247423.234375-.556701.5625-.556701s.5625.2319587.5625.556701v.8350515c0 .3247423-.234375.5567011-.5625.5567011zm2.53125 0c-.328125 0-.5625-.2783505-.5625-.5567011v-.8350515c0-.3247423.234375-.556701.5625-.556701s.5625.2319587.5625.556701v.8350515c0 .3247423-.234375.5567011-.5625.5567011zm1.125 2.7835051h-12.75v-.9742268h12.75zm-13.1875 3.0827492h13.875c1.25 0 2.375-1.0133334 2.375-2.4066667v-6.23333333c0-1.26666667-1-2.40666667-2.375-2.40666667h-13.875c-1.375.12666667-2.375 1.14-2.375 2.40666667v6.23333333c0 1.2666667 1 2.4066667 2.375 2.4066667zm-1.125-8.64000003c0-.63333334.5-1.14 1.125-1.14h13.875c.625 0 1.125.50666666 1.125 1.14v6.23333333c0 .6333333-.5 1.14-1.125 1.14h-13.875c-.625 0-1.125-.5066667-1.125-1.14zm23.875 8.76666663 4.625-9.7533333c.5-1.14 0-2.53333333-1.125-3.04-.25-.12666667-.625-.25333333-1-.25333333-.875 0-1.625.50666666-2.125 1.39333333l-4.625 9.7533333.25 5.1933334zm-2.875-.76 1 .5066667-1 .8866667zm4.5-10.5133333c.125-.38.5-.63333333.875-.63333333.125 0 .25 0 .375.12666666.5.25333334.75.88666667.5 1.39333334l-4.25 9.24666663-1.875-.8866666z" fill="#323232"/></svg>