<svg height="30" viewBox="0 0 30 30" width="30" xmlns="http://www.w3.org/2000/svg"><path d="m22.6928409 0h-15.38568179c-2.10263591 0-3.80715911 1.67893219-3.80715911 3.75v22.5c0 2.0710678 1.7045232 3.75 3.80715911 3.75h15.38568179c2.1026359 0 3.8071591-1.6789322 3.8071591-3.75v-22.5c0-2.07106781-1.7045232-3.75-3.8071591-3.75zm2.8553693 26.25c0 1.5533009-1.2783924 2.8125-2.8553693 2.8125h-15.38568179c-1.57697693 0-2.85536933-1.2591991-2.85536933-2.8125v-22.5c0-1.55330086 1.2783924-2.8125 2.85536933-2.8125h15.38568179c1.5769769 0 2.8553693 1.25919914 2.8553693 2.8125zm-18.71694597-22.03125h-.95178978v21.09375h18.24105115v-21.09375zm16.33747157 20.15625h-16.33747157v-19.21875h16.33747157zm-8.1663563 3.75c-.525659 0-.9517898-.419733-.9517898-.9375s.4261308-.9375.9517898-.9375.9517898.419733.9517898.9375-.4261308.9375-.9517898.9375z" fill="#323232"/></svg>