<svg height="45" viewBox="0 0 45 45" width="45" xmlns="http://www.w3.org/2000/svg"><path d="m38.7788018 7.57363254h1.6071429c1.2943667 0 2.281106 1.20124789 2.281106 2.61921456v.2208976h.0518433c1.2943667 0 2.281106 1.2012479 2.281106 2.6192146v4.7335204c0 1.4179667-.9867393 2.6192145-2.281106 2.6192145h-.0518433v.2208977c0 1.4179667-.9867393 2.6192146-2.281106 2.6192146h-1.0656392c.6322522.808578 1.0137959 1.8876856 1.0137959 3.0610098v11.3604488c0 1.1378671-.6354092 2.1361785-1.5552996 2.4861834v2.2473369c0 1.4179667-.9867393 2.6192146-2.2811059 2.6192146h-1.5552996c-1.2943666 0-2.281106-1.2012479-2.281106-2.6192146v-2.1143057h-20.3225806v2.1143057c0 1.4179667-.9867394 2.6192146-2.281106 2.6192146h-1.55529955c-1.29436666 0-2.28110599-1.2012479-2.28110599-2.6192146v-2.2473369c-.91989038-.3500049-1.55529954-1.3483163-1.55529954-2.4861834v-11.3604488c0-1.1733242.38154365-2.2524318 1.0137959-3.0610098h-1.06563922c-1.29436665 0-2.28110599-1.2012479-2.28110599-2.6192146v-.2208977h-.05184332c-1.29436665 0-2.28110599-1.2012478-2.28110599-2.6192145v-4.7335204c0-1.4179667.98673934-2.6192146 2.28110599-2.6192146h.05184332v-.2208976c0-1.41796667.98673934-2.61921456 2.28110599-2.61921456h1.60714286v-.57685835c0-1.24861741.5478598-2.4138506 1.47515616-3.05581114 3.37738668-2.33252754 8.27208748-3.94096305 14.80364568-3.94096305s11.426259 1.60843551 14.8043171 3.94142732c.9266249.64149627 1.4744847 1.80672946 1.4744847 3.05534687zm-1.4516129 0v-.57685835c0-.79355587-.3348898-1.50582709-.8484613-1.86136978-3.1409339-2.16922596-7.7499749-3.68379151-13.9787276-3.68379151s-10.8377937 1.51456555-13.97805615 3.68332724c-.51424294.35600696-.84913279 1.06827818-.84913279 1.86183405v.57685835zm1.4516129 1.4516129v12.74894806h1.6071429c.422684 0 .8294931-.4952458.8294931-1.1676016v-.3539288c-.9198904-.3500049-1.5552996-1.3483163-1.5552996-2.4861834v-4.7335204c0-1.1378671.6354092-2.1361785 1.5552996-2.4861834v-.3539288c0-.67235586-.4068091-1.16760166-.8294931-1.16760166zm-1.4516129 0h-29.65437784v12.74894806h29.65437784zm-31.10599074 0h-1.60714286c-.42268404 0-.82949309.4952458-.82949309 1.16760166v.3539288c.91989038.3500049 1.55529954 1.3483163 1.55529954 2.4861834v4.7335204c0 1.1378671-.63540916 2.1361785-1.55529954 2.4861834v.3539288c0 .6723558.40680905 1.1676016.82949309 1.1676016h1.60714286zm2.28110599 14.20056106c-1.28198703 0-2.38479263 1.3425459-2.38479263 3.0610098v11.3604488c0 .6723559.40680905 1.1676017.82949309 1.1676017h31.10599079c.422684 0 .8294931-.4952458.8294931-1.1676017v-11.3604488c0-1.7184639-1.1028056-3.0610098-2.3847926-3.0610098zm-.82949309 17.0406732v2.1143057c0 .6723559.40680905 1.1676017.82949309 1.1676017h1.55529955c.422684 0 .8294931-.4952458.8294931-1.1676017v-2.1143057zm29.65437784 0h-3.2142857v2.1143057c0 .6723559.4068091 1.1676017.8294931 1.1676017h1.5552996c.422684 0 .829493-.4952458.829493-1.1676017zm-24.9884792-8.299439c0 1.4179667-.9867394 2.6192146-2.281106 2.6192146-1.29436667 0-2.281106-1.2012479-2.281106-2.6192146s.98673933-2.6192146 2.281106-2.6192146c1.2943666 0 2.281106 1.2012479 2.281106 2.6192146zm-1.4516129 0c0-.6723559-.4068091-1.1676017-.8294931-1.1676017-.42268405 0-.8294931.4952458-.8294931 1.1676017s.40680905 1.1676017.8294931 1.1676017c.422684 0 .8294931-.4952458.8294931-1.1676017zm26.3364055 0c0 1.4179667-.9867393 2.6192146-2.281106 2.6192146-1.2943666 0-2.281106-1.2012479-2.281106-2.6192146s.9867394-2.6192146 2.281106-2.6192146c1.2943667 0 2.281106 1.2012479 2.281106 2.6192146zm-1.4516129 0c0-.6723559-.406809-1.1676017-.8294931-1.1676017-.422684 0-.8294931.4952458-.8294931 1.1676017s.4068091 1.1676017.8294931 1.1676017c.4226841 0 .8294931-.4952458.8294931-1.1676017zm7.7764977-14.200561v-4.7335204c0-.6723559-.4068091-1.1676017-.8294931-1.1676017h-.7776498c-.422684 0-.829493.4952458-.829493 1.1676017v4.7335204c0 .6723558.406809 1.1676016.829493 1.1676016h.7776498c.422684 0 .8294931-.4952458.8294931-1.1676016zm-39.66013825 0v-4.7335204c0-.6723559-.40680905-1.1676017-.82949309-1.1676017h-.77764977c-.42268404 0-.82949309.4952458-.82949309 1.1676017v4.7335204c0 .6723558.40680905 1.1676016.82949309 1.1676016h.77764977c.42268404 0 .82949309-.4952458.82949309-1.1676016zm13.94585255-12.52805053c-.4008519 0-.7258065-.32495461-.7258065-.72580645 0-.40085183.3249546-.72580645.7258065-.72580645h9.3317972c.4008519 0 .7258065.32495462.7258065.72580645 0 .40085184-.3249546.72580645-.7258065.72580645zm-1.5552996 27.45441793c-.4008518 0-.7258064-.3249546-.7258064-.7258064 0-.4008519.3249546-.7258065.7258064-.7258065h12.4423964c.4008518 0 .7258064.3249546.7258064.7258065 0 .4008518-.3249546.7258064-.7258064.7258064zm0-3.7868162c-.4008518 0-.7258064-.3249547-.7258064-.7258065s.3249546-.7258064.7258064-.7258064h12.4423964c.4008518 0 .7258064.3249546.7258064.7258064s-.3249546.7258065-.7258064.7258065zm0 7.5736325c-.4008518 0-.7258064-.3249546-.7258064-.7258065 0-.4008518.3249546-.7258064.7258064-.7258064h12.4423964c.4008518 0 .7258064.3249546.7258064.7258064 0 .4008519-.3249546.7258065-.7258064.7258065z" fill="#323232"/></svg>