<svg height="45" viewBox="0 0 45 45" width="45" xmlns="http://www.w3.org/2000/svg"><path d="m40.9715475 21.4787234h-11.3671061v6.8297872h11.3671061zm-.0936849-13.9787234c2.2484386 0 4.0909091 1.88297872 4.1221374 4.1808511v21.6382978c0 2.2978724-1.8424705 4.1808511-4.0909091 4.1808511h-36.81818181c-2.24843858 0-4.09090909-1.8829787-4.09090909-4.1808511v-14.8085106-.3191489-4.7872341-.3191489-1.4042553c0-2.29787238 1.84247051-4.1808511 4.09090909-4.1808511zm-.6557946 20.0425532h-9.8681471v-5.2978723h9.8681471zm-8.5877863-3.4148936c.0312284.0319149.093685.0638298.1561416.0957447.0624566 0 .1249133 0 .1561416-.0638298l.2498265-.2234043v2.6489362c0 .1276596.0936849.2234042.2185982.2234042h.0936849c.1249133 0 .2185982-.0957446.2185982-.2234042v-3.2234043c0-.1276595-.0936849-.2234042-.2185982-.2234042h-.0936849c-.0624566 0-.093685.0319149-.1249133.0638298l-.6557946.574468c-.0936849.0638298-.0936849.1914894-.0312283.2872341zm2.5294935 2.680851h1.7800138c.1249133 0 .2185982-.0957446.2185982-.2234042v-.0957447c0-.1276596-.0936849-.2234043-.2185982-.2234043h-1.2179042l.7494795-.893617c.093685-.1276595.1873699-.2234042.2810549-.3191489.0936849-.0957447.1561415-.2234043.2185981-.3191489.0624567-.0957447.093685-.2234043.1249133-.319149s.0624566-.2234042.0624566-.3510638-.0312283-.2553192-.0624566-.3829787c-.0624566-.1276596-.1249133-.2234043-.2185982-.319149s-.1873699-.1595744-.3435114-.2234042c-.1249133-.0638298-.2498266-.0638298-.4059681-.0638298-.2498265 0-.4684247.0638298-.6245663.1914893-.1873699.1276596-.3122831.319149-.4059681.5744681-.0312283.0957447.0312283.2234043.1249133.2553192l.0936849.0319149c.0624567.0319149.1249133 0 .1561416 0 .0624566-.0319149.0936849-.0638298.0936849-.1276596.0312283-.1276596.093685-.2234043.1873699-.287234.1561416-.0957447.3747398-.1276596.5621097-.0638298.0624566.0319149.1249132.0638298.1561415.0957447.0312283.0319148.0624567.0957446.093685.1595744s.0312283.1276596.0312283.2234043c0 .1276595-.0312283.2553191-.1249133.3829787-.0936849.1595745-.2185982.3191489-.3747397.5106383l-1.092991 1.3404255c-.0312283.0319149-.0624566.0957447-.0624566.1276596v.1276596c0 .0957447.0936849.1914893.2185982.1914893zm3.0291464-.0957446c.1873699.1276595.4059681.1595744.6557946.1595744.1873699 0 .3435114-.0319149.499653-.0957447.1561416-.0638297.2498265-.1595744.3435114-.2553191.093685-.0957447.1561416-.2234043.2185982-.3510638.0312283-.1276596.0624567-.2553192.0624567-.4148937 0-.1276595-.0312284-.2553191-.0624567-.3510638-.0312283-.1276596-.0936849-.2234042-.1873698-.3191489-.0624567-.0638298-.1249133-.1276596-.2185982-.1914894.0624566-.0319149.0936849-.0957447.1249132-.1276596.0624566-.0957446.1249133-.1914893.1561416-.3191489.0312283-.0957447.0624566-.2234042.0624566-.3191489 0-.1595745-.0312283-.2872341-.0936849-.4148936-.0624567-.1276596-.1249133-.2234043-.2185982-.319149-.093685-.0957447-.1873699-.1595744-.3122832-.1914893-.2810548-.0957447-.6557946-.0957447-.9056211.0638297-.1561415.0957447-.2810548.1914894-.3747397.3510639-.0312283.0319149-.0312283.0957447-.0312283.1595744 0 .0638298.0312283.0957447.0936849.1276596l.0936849.0638298c.0624567.0319149.093685.0319149.1561416.0319149s.093685-.0319149.1249133-.0957447c.0624566-.0638298.1249132-.1276596.1873698-.1595744.1561416-.0638298.3435115-.0957447.4684248-.0319149.0624566.0319149.0936849.0638297.1561415.0957446.0312283.0319149.0624566.0957447.093685.1595745.0312283.0638298.0312283.1276596.0312283.1914894 0 .0957446-.0312283.1914893-.0624567.2553191-.0312283.0638298-.0624566.1276596-.1249132.1595745s-.1249133.0638298-.1873699.0957447-.1561416.0319149-.2185982.0319149h-.0936849c-.1249133 0-.2185982.0957446-.2185982.2234042v.0957447c0 .1276596.0936849.2234043.2185982.2234043h.0936849c.0624566 0 .1561416 0 .2498265.0319148.093685.0319149.1561416.0638298.2185982.0957447.0624566.0638298.1249133.0957447.1561416.1914894.0312283.0638298.0624566.1595745.0624566.2553191 0 .0957447 0 .1595745-.0312283.2553192-.0312283.0638298-.0624566.1276596-.0936849.1914893-.0624567.0638298-.093685.0957447-.1873699.1276596-.0624566.0319149-.1561416.0319149-.2498265.0319149-.1561416 0-.2810549-.0319149-.3747398-.0957447s-.1873699-.1276595-.2185982-.2234042c-.0624566-.0957447-.1561416-.1595745-.2810548-.0957447l-.093685.0319149c-.0624566.0319149-.0936849.0638298-.1249132.1276596s-.0312283.1276595 0 .1595744c.0936849.0957447.2498265.2553192.4371964.3829788zm-31.259542.4148936c-.59333796 0-1.09299098-.5106383-1.09299098-1.1170213v-1.9148936c0-.606383.49965302-1.1170213 1.09299098-1.1170213h19.9861207c.593338 0 1.092991.5106383 1.092991 1.1170213v1.9148936c0 .606383-.499653 1.1170213-1.092991 1.1170213zm-.78070784-3.0319149v1.9148936c0 .4468085.34351145.7978723.78070784.7978723h19.9861207c.4371964 0 .7807079-.3510638.7807079-.7978723v-1.9148936c0-.4468085-.3435115-.7978724-.7807079-.7978724h-19.9861207c-.43719639 0-.78070784.3510639-.78070784.7978724zm39.50381674 9.2234042v-14.8085106h-44.34420536v14.8085106c0 2.1382979 1.68632893 3.8617022 3.77862595 3.8617022h36.78695351c2.092297 0 3.7786259-1.7234043 3.7786259-3.8617022zm0-15.1276595v-4.7872341h-44.34420536v4.7872341zm-44.34420536-5.106383h44.37543376v-1.4042553c0-2.13829791-1.686329-3.86170216-3.778626-3.86170216h-36.81818181c-2.09229702 0-3.77862595 1.72340425-3.77862595 3.86170216z" fill="#323232"/></svg>