<?xml version="1.0" encoding="UTF-8"?>
<svg width="45px" height="45px" viewBox="0 0 45 45" version="1.1" xmlns="http://www.w3.org/2000/svg" xmlns:xlink="http://www.w3.org/1999/xlink">
    <!-- Generator: Sketch 50.2 (55047) - http://www.bohemiancoding.com/sketch -->
    <title>nav/iconNavCondo</title>
    <desc>Created with Sketch.</desc>
    <defs>
        <path d="M3,45 L41,45 L41,0 L3,0 L3,45 Z M5.338,2.335 L38.663,2.335 L38.663,42.665 L28.799,42.665 L28.799,33.897 L15.201,33.897 L15.201,42.665 L5.338,42.665 L5.338,2.335 Z M22.939,42.568 L26.461,42.568 L26.461,36.232 L22.939,36.232 L22.939,42.568 Z M17.54,42.568 L17.54,36.232 L21.062,36.232 L21.062,42.568 L17.54,42.568 Z M28,16.375 L28,7 L35.506,7 L35.506,16.375 L28,16.375 Z M29.876,14.501 L33.629,14.501 L33.629,8.876 L29.876,8.876 L29.876,14.501 Z M9,29.375 L9,20 L16.506,20 L16.506,29.375 L9,29.375 Z M10.877,27.5 L14.63,27.5 L14.63,21.875 L10.877,21.875 L10.877,27.5 Z M9,16.375 L9,7 L16.506,7 L16.506,16.375 L9,16.375 Z M10.877,14.501 L14.63,14.501 L14.63,8.876 L10.877,8.876 L10.877,14.501 Z M18,16.375 L18,7 L25.506,7 L25.506,16.375 L18,16.375 Z M19.877,14.501 L23.63,14.501 L23.63,8.876 L19.877,8.876 L19.877,14.501 Z M28,29.375 L28,20 L35.506,20 L35.506,29.375 L28,29.375 Z M29.876,27.5 L33.629,27.5 L33.629,21.875 L29.876,21.875 L29.876,27.5 Z M18,29.375 L18,20 L25.506,20 L25.506,29.375 L18,29.375 Z M19.877,27.5 L23.63,27.5 L23.63,21.875 L19.877,21.875 L19.877,27.5 Z" id="path-1"></path>
    </defs>
    <g id="nav/iconNavCondo" stroke="none" stroke-width="1" fill="none" fill-rule="evenodd">
        <mask id="mask-2" fill="white">
            <use xlink:href="#path-1"></use>
        </mask>
        <use id="Mask" fill="#313131" xlink:href="#path-1"></use>
    </g>
</svg>