<svg height="45" viewBox="0 0 45 45" width="45" xmlns="http://www.w3.org/2000/svg"><path d="m40 45h-35v-29.7567498l17.3441182-15.2432502 17.6538704 15.2374278v29.7625722zm-32.1820585-2.7171569h29.3661284v-25.8323989l-14.8218493-12.79198651-14.54226772 12.78422321v25.8401622zm6.8145509-2.459027-4.95603702-4.7880186 13.98913852-13.4965065 1.4220447 1.3721642-8.3271076 8.0311395 3.5380151 3.4139135zm-2.1119476-4.7880186 2.1119476 2.0436901 2.8219642-2.7210385-2.1159703-2.0417494zm15.2120568-10.7094799c-1.476352 0-2.8662146-.5570172-3.9101201-1.564306-2.156198-2.0805659-2.156198-5.4673079 0-7.5498146 2.0898224-2.0165186 5.7324291-2.0165186 7.8222516 0 2.1561979 2.0805659 2.1561979 5.4673079 0 7.5498146-1.0459169 1.0072888-2.4337682 1.564306-3.9121315 1.564306zm0-8.7376003c-.9393139 0-1.8223091.3532304-2.4880754.995644-.6657664.6424135-1.0318373 1.4944363-1.0318373 2.402743s.3660709 1.7603295 1.0318373 2.402743c1.3315326 1.2848271 3.6446181 1.2848271 4.9781622 0 .6657663-.6424135 1.0318372-1.4944363 1.0318372-2.402743s-.3660709-1.7603295-1.0318372-2.402743c-.6657664-.6424136-1.550773-.995644-2.4900868-.995644z" fill="#323232"/></svg>