<svg height="30" viewBox="0 0 30 30" width="30" xmlns="http://www.w3.org/2000/svg"><path d="m25.125 0h-20.25c-2.75 0-4.875 2.125-4.875 4.875v20.25c0 2.75 2.125 4.875 4.875 4.875h20.25c2.75 0 4.875-2.125 4.875-4.875v-20.25c0-2.75-2.125-4.875-4.875-4.875zm3.625 25.125c0 2-1.625 3.625-3.625 3.625h-20.25c-2 0-3.625-1.625-3.625-3.625v-20.25c0-2 1.625-3.625 3.625-3.625h20.25c2 0 3.625 1.625 3.625 3.625zm-13.75-19.75c-5.25 0-9.625 4.375-9.625 9.625s4.375 9.625 9.625 9.625 9.625-4.375 9.625-9.625-4.375-9.625-9.625-9.625zm4.5 16.625-1-1.875-.75.375 1 1.875c-1 .5-2.125.875-3.375.875v-2h-.875v2.125c-1.25 0-2.375-.375-3.375-.875l1-1.875-.75-.375-1 1.875c-1-.625-1.875-1.5-2.5-2.5l1.875-1-.375-.75-1.875 1c-.5-1-.875-2.125-.875-3.375h2.125v-.875h-2.125c0-1.25.375-2.375.875-3.375l1.875 1 .375-.75-1.75-1c.625-1 1.5-1.875 2.5-2.5l1 1.875.75-.375-1.125-1.875c1-.5 2.125-.875 3.375-.875v2h.875v-2.125c1.25 0 2.375.375 3.375.875l-1 1.875.75.375 1-1.875c1 .625 1.875 1.5 2.5 2.5l-1.875 1 .375.75 1.875-1c.5 1 .875 2.125.875 3.375h-2v.875h2.125c0 1.25-.375 2.375-.875 3.375l-1.875-1-.375.75 1.875 1c-.75 1-1.625 1.875-2.625 2.5zm-4.5-11.375c-2.375 0-4.375 2-4.375 4.375s2 4.375 4.375 4.375 4.375-2 4.375-4.375-2-4.375-4.375-4.375zm0 7.5c-1.75 0-3.125-1.375-3.125-3.125s1.375-3.125 3.125-3.125 3.125 1.375 3.125 3.125-1.375 3.125-3.125 3.125z" fill="#414141"/></svg>