<svg height="30" viewBox="0 0 30 30" width="30" xmlns="http://www.w3.org/2000/svg"><g fill="#323232" fill-rule="nonzero"><path d="m15 15.5086207c-.3 0-.5-.2241379-.5-.4482759v-6.49999997c0-.3362069.2-.56034483.5-.56034483s.5.22413793.5.56034483v6.38793107c0 .3362069-.2.5603448-.5.5603448zm0 5.4913793c-.5522847 0-1-.5017498-1-1.1206897 0-.6189398.4477153-1.1206896 1-1.1206896s1 .5017498 1 1.1206896c0 .6189399-.4477153 1.1206897-1 1.1206897z"/><path d="m28.9991524 12.5-11.4872853-11.5c-.624309-.625-1.6232034-1-2.497236-1s-1.8729269.375-2.4972359 1l-11.48728537 11.5c-1.37347977 1.375-1.37347977 3.75 0 5.125l11.36242357 11.375c.7491708.75 1.6232033 1 2.4972359 1s1.872927-.375 2.497236-1l11.3624235-11.375c1.6232034-1.5 1.6232034-3.75.2497236-5.125zm-.9988944 4.125-11.3624235 11.375c-.3745854.5-.9988944.75-1.6232034.75s-1.248618-.25-1.6232034-.75l-11.3624235-11.375c-.49944718-.375-.74917078-1-.74917078-1.625s.2497236-1.25.74917078-1.625l11.3624235-11.375c.3745854-.5.9988944-.75 1.6232034-.75s1.248618.25 1.6232034.75l11.3624235 11.375c.9988944.875.9988944 2.375 0 3.25z"/></g></svg>