<svg height="45" viewBox="0 0 45 45" width="45" xmlns="http://www.w3.org/2000/svg"><path d="m38.0501931 31.8412698h-24.3243244c-.6949807 0-1.3899614-.5238095-1.5637065-1.2222222l-4.8648649-21.47619046h-5.73359074c-.86872586 0-1.56370656-.6984127-1.56370656-1.57142857s.6949807-1.57142857 1.56370656-1.57142857h6.94980695c.6949807 0 1.38996139.52380952 1.56370659 1.22222222l4.8648648 21.47619048h23.1081082c.8687258 0 1.5637065.6984127 1.5637065 1.5714286 0 .8730158-.6949807 1.5714285-1.5637065 1.5714285zm-15.8108109 4.5396826c0 1.3968254-1.2162162 2.6190476-2.6061776 2.6190476s-2.6061776-1.2222222-2.6061776-2.6190476 1.2162162-2.6190476 2.6061776-2.6190476 2.6061776 1.2222222 2.6061776 2.6190476zm15.8108109 0c0 1.3968254-1.2162163 2.6190476-2.6061777 2.6190476-1.3899613 0-2.6061776-1.2222222-2.6061776-2.6190476s1.2162163-2.6190476 2.6061776-2.6190476c1.5637066 0 2.6061777 1.2222222 2.6061777 2.6190476zm-2.0849421-11.3492064h-11.1196912c-4.3436293 0-7.9922779-2.9682539-8.8610038-7.1587301l-2.2586873-8.03174606c-.1737451-.52380952 0-1.04761905.3474904-1.57142857.3474903-.52380952.8687258-.6984127 1.3899614-.6984127h27.7992278c1.042471 0 1.7374517.6984127 1.7374517 1.74603175v6.63492068c0 5.063492-3.996139 9.079365-9.034749 9.079365zm-18.2432433-13.9682539 1.5637066 5.9365079c.5212355 2.6190476 2.7799228 4.5396825 5.5598455 4.5396825h11.1196912c3.1274131 0 5.5598455-2.4444444 5.5598455-5.5873015v-4.8888889z" fill="#323232"/></svg>