<svg height="45" viewBox="0 0 45 45" width="45" xmlns="http://www.w3.org/2000/svg"><path d="m40.8120142 20.6201883c-1.6109256-2.2163465-4.0623342-3.5032574-6.7939038-3.5032574h-13.0274856l1.4708451-6.8635247c.4902817-2.2163465.0700403-4.50418807-1.1206439-6.43455439s-3.0817708-3.28877225-5.2530184-3.78923759c-.2101207-.07149505-.3502012 0-.560322.07149505-.1400805.07149505-.2801609.28598019-.2801609.42897029l-2.3113281 10.65276234-3.85221354 7.2924949-6.0234611 1.429901c-.35020122.0714951-.56032196.3574753-.56032196.7149505 0 .4289703.63036221 16.8728316.70040245 18.7317028 0 .3574753.35020123.7149505.70040246.7149505h7.28418549l4.6926965 4.7186733c.1400805.1429901.2801609.2144851.4902817.2144851h14.568371c3.712133 0 7.0740648-2.5738218 8.1246685-6.1485742l3.0817708-10.5812673c.7704427-2.6453168.2801609-5.4336237-1.3307647-7.6499702zm0 7.221-3.0817708 10.5812672c-.9105232 3.0027921-3.6420927 5.1476435-6.7939038 5.1476435h-14.2181698l-4.6926964-4.7186732c-.1400805-.1429901-.280161-.2144852-.4902817-.2144852h-6.86394409c-.21012074-5.6481088-.56032197-15.0139602-.63036221-17.4447919l5.74330012-1.3584059c.21012073-.0714951.35020118-.1429901.49028168-.3574753l3.992294-7.6499702c0-.0714951.0700403-.1429901.0700403-.2144852l2.1712476-10.0093068c1.5408854.50046534 2.8016098 1.57289107 3.712133 2.931297.9805634 1.64438613 1.3307646 3.5032574.9105232 5.36212867l-1.6809659 7.72146533c-.0700403.2144851 0 .4289703.1400805.5719603.1400805.1429901.3502012.2859802.5603219.2859802h13.9380089c2.2412878 0 4.3424952 1.0724258 5.6732598 2.9312971 1.2607244 1.9303663 1.6809659 4.2182078 1.0506037 6.4345544z" fill="#323232"/></svg>