<svg height="45" viewBox="0 0 45 45" width="45" xmlns="http://www.w3.org/2000/svg"><path d="m35.5462185.48511836c-.5294118-.52458614-1.210084-.52458614-1.3613446-.44964527h-.0756302c-3.1008403.3747044-4.9159664 5.99527026-4.9159664 11.31607261v6.8945608c0 1.6486993.7563025 3.2224578 2.0420168 4.27163l-.9831933 19.6345101c0 1.5737585 1.2857143 2.8477534 2.8739496 2.8477534s2.8739496-1.2739949 2.8739496-2.8477534v-40.39313331c0-.59952702-.2268908-1.04917229-.4537815-1.27399493zm-1.0588235 41.66712824c0 .7494088-.6050421 1.3489358-1.3613446 1.3489358s-1.3613445-.599527-1.3613445-1.3489358l1.0588235-20.4588597-.3781512-.2248226c-1.1344538-.7494088-1.7394958-1.9484629-1.7394958-3.2973987v-6.8945608c0-5.32080233 1.8907563-9.51749151 3.5546218-9.81725502.0756303 0 .1512605 0 .2268908.07494088 0 0 .0756302.07494088.0756302.22482263v40.39313331zm-14.7478992-29.8264695v-12.14042225h1.512605v12.14042225c0 2.6229308-1.5882353 4.8711571-4.0084033 5.6955068l.6806722 24.0560219c0 1.6486993-1.2857142 2.9226942-2.8739495 2.9226942s-2.8739496-1.2739949-2.8739496-2.8477534l.8319328-24.1309627c-2.3445379-.8992906-4.0084034-3.1475169-4.0084034-5.6955068v-12.14042225h1.512605v12.14042225c0 2.0983446 1.4369748 3.8969257 3.4789916 4.4215118l.6050421.1498818-.8319328 25.2550759c0 .7494088.605042 1.3489358 1.3613445 1.3489358s1.3613446-.599527 1.3613446-1.3489358l-.8319328-25.2550759.605042-.1498818c2.0420168-.5245861 3.4789916-2.3231672 3.4789916-4.4215118zm-8.092437-12.14042225h1.5126051v10.26690035h-1.5126051zm2.6470588 0h1.5126051v10.26690035h-1.5126051zm2.6470589 0h1.512605v10.26690035h-1.512605z" fill="#323232"/></svg>