<svg height="45" viewBox="0 0 45 45" width="45" xmlns="http://www.w3.org/2000/svg"><path d="m34.8484399 38.040146v-15.390511c0-2.0671532 1.6199747-3.7481751 3.6104904-3.7481751 1.9905158 0 3.6111936 1.6810219 3.6111936 3.7481751 0 1.4861314-.8514711 2.8328468-2.1677005 3.430657l-.4211653.1912408v11.7686132zm-23.292058 0h21.8858299v-4.8094891h-21.8858299zm-6.03904623 0v-11.7686132l-.4211653-.1912408c-1.31622943-.5978102-2.16699739-1.9445256-2.16699739-3.430657 0-2.0671532 1.61927158-3.7481751 3.60978735-3.7481751 1.99121889 0 3.61119357 1.6810219 3.61119357 3.7481751v15.390511zm6.03904623-6.2693431h21.8858299v-3.9138686h-21.8858299zm3.0191716-16.5846715c0-4.5357664 3.5556476-8.22627739 7.9247981-8.22627739 4.3677442 0 7.9226887 3.69051099 7.9226887 8.22627739v11.2109489h-15.8474868zm26.3119326 22.8540146v-10.8386861c1.5862252-.9116789 2.5888658-2.6496351 2.5888658-4.5518249 0-2.8729927-2.251371-5.2080292-5.0174216-5.2080292-2.7667536 0-5.0167185 2.3350365-5.0167185 5.2080292v3.7474453h-1.6129435v-11.2109489c0-5.34087593-4.1856377-9.6861314-9.3289167-9.6861314-5.1453884 0-9.3310261 4.34525547-9.3310261 9.6861314v11.2109489h-1.6129436v-3.7474453c0-2.8729927-2.25066793-5.2080292-5.01742157-5.2080292-2.76534742 0-5.01601538 2.3350365-5.01601538 5.2080292 0 1.9021898 1.00193747 3.640146 2.58816269 4.5518249v10.8386861h-4.11110764v1.459854h45v-1.459854z" fill="#414141" fill-rule="evenodd"/></svg>