<svg height="45" viewBox="0 0 45 45" width="45" xmlns="http://www.w3.org/2000/svg"><path d="m33.3117155 15.1875-4.623431-4.2890625 2.7740586-7.171875-2.5606695-3.7265625h-12.5188284l-2.7740586 3.9375 2.7029289 6.9609375-4.4811716 4.21875c-4.19665269 3.9375-6.3305439 8.296875-6.3305439 13.078125 0 9.28125 7.6108787 16.8046875 17 16.8046875s17-7.5234375 17-16.8046875c0-4.8515625-2.2050209-9.421875-6.1882845-13.0078125zm-5.9748954-4.78125h-1.9205021l.9958159-5.6953125h3.0585774zm-6.0460251 0-.9958159-5.6953125h4.7656904l-.9958159 5.6953125zm-3.414226-7.03125h-2.1338912l1.0669456-1.4765625zm.3556486-1.96875h8.8912134l-1.4937239 1.96875h-5.9748954zm10.2426778.4921875.9958159 1.4765625h-2.0627615zm-13.0167364 2.8828125h3.3430962l.9958159 5.6953125h-2.2050209zm7.041841 38.8125c-8.6066946 0-15.57740586-6.890625-15.57740586-15.3984375 0-4.4296875 1.92050209-8.3671875 5.90376566-12.0234375l4.623431-4.2890625h10.1004184l4.6945607 4.359375.0711297.0703125c3.6987448 3.3046875 5.7615063 7.5234375 5.7615063 11.953125 0 8.4375-6.9707113 15.328125-15.5774059 15.328125zm0-27.984375c-6.9707113 0-12.66108787 5.625-12.66108787 12.515625s5.69037657 12.515625 12.66108787 12.515625 12.6610879-5.625 12.6610879-12.515625-5.6903766-12.515625-12.6610879-12.515625zm0 23.625c-6.1882845 0-11.2384937-4.9921875-11.2384937-11.109375s5.0502092-11.109375 11.2384937-11.109375 11.2384937 4.9921875 11.2384937 11.109375-5.0502092 11.109375-11.2384937 11.109375z" fill="#323232"/></svg>