<svg height="45" viewBox="0 0 45 45" width="45" xmlns="http://www.w3.org/2000/svg"><path d="m22.5 17.7142029c-1.5 0-2.625.3737781-4.125.7475561l9-15.69867777c.375-.74755608 0-1.86889021-.75-2.61644629-.75-.37377805-1.875 0-2.625.74755608l-13.125 23.54801668c0 .373778 0 .373778-.375.7475561-1.125 1.8688902-1.5 4.1115584-1.5 6.3542267 0 7.4755608 6 13.4560095 13.5 13.4560095s13.5-5.9804487 13.5-13.4560095c0-7.4755609-6-13.8297876-13.5-13.8297876zm0 23.1742386c-5.25 0-9.75-4.4853365-9.75-9.7182291s4.5-9.7182291 9.75-9.7182291 9.75 4.4853365 9.75 9.7182291-4.125 9.7182291-9.75 9.7182291z" fill="#323232"/></svg>