<svg height="45" viewBox="0 0 45 45" width="45" xmlns="http://www.w3.org/2000/svg"><path d="m42.5 1.20853081-1.2811388-.63981043-21.13879 43.79146922 1.2811388.6398104 7.1886121-14.8578199 9.822064 9.8104265 4.0569395-4.0521327-11.316726-11.1611374zm-12.0284698 24.88151659 9.8220641 9.8104265-1.9928826 1.9905214-9.1103202-9.0995261.4270462-.7819905zm6.975089-25.52132702-9.8932384 20.54502372-5.1957296-5.1895735 1.0676157-1.0663507c.4270463.2843602.9252669.4265403 1.4234875.4265403.7117438 0 1.4234876-.2843602 1.9928826-.8530806l1.9928826-1.9905213c.569395-.5687204.8540925-1.2796209.8540925-1.9905213 0-.78199055-.2846975-1.49289103-.8540925-1.99052136l-7.4733096-7.60663507c-.5693951-.56872038-1.2811388-.85308057-1.9928826-.85308057s-1.4946619.28436019-1.9928826.85308057l-1.9928825 1.99052133c-.9252669.92417061-1.0676157 2.34597156-.4270463 3.41232227l-6.1921708 6.18483413c-1.06761566-.6398104-2.49110321-.4976303-3.41637011.4265403l-1.99288256 1.9905213c-.56939502.5687204-.85409253 1.2796209-.85409253 1.9905213 0 .7109005.28469751 1.492891.85409253 1.9905214l7.40213527 7.6777251c.569395.5687204 1.2811387.8530805 1.9928825.8530805.7829182 0 1.4946619-.2843601 1.9928826-.8530805l1.9928825-1.9905213c.9252669-.9241707 1.0676157-2.3459716.4270463-3.4123223l1.0676157-1.0663507 6.619217 6.6113744-8.5409252 17.7014218 1.2811388.6398104 21.13879-43.79146919zm-21.13879 3.34123223 1.9928825-1.99052133c.2846976-.28436019.6405694-.42654028.9964413-.42654028s.7117438.14218009.9964413.42654028l7.544484 7.53554502c.2846975.28436019.4270463.6398104.4270463.9952607 0 .3554502-.1423488.7109004-.4270463.9952606l-1.9928826 1.9905214c-.569395.5687203-1.4234875.5687203-1.9928825 0l-3.772242-3.76777255-3.772242-3.76777252c-.569395-.56872038-.569395-1.49289099 0-1.99052132zm-.4982207 19.54976299-1.9928825 1.9905214c-.569395.5687203-1.4946619.5687203-1.9928826 0l-7.61565835-7.464455c-.28469751-.2843602-.42704626-.6398104-.42704626-.9952607 0-.3554502.14234875-.7109004.42704626-.9952606l1.99288257-1.9905214c.2846975-.2843602.64056939-.4265402.99644128-.4265402.35587188 0 .71174377.14218.99644128.4265402l7.54448402 7.5355451c.6405694.4976303.6405694 1.4218009.0711743 1.9194312zm.4982207-3.4834123-6.54804272-6.5402843 6.04982202-6.04265407 3.2740214 3.27014217 3.2740213 3.2701422-.9964412.9952607-4.0569395 4.0521327zm5.0533808-3.056872 5.5516014 5.5450237-1.3523132 2.7014218-6.2633452-6.2559242z" fill="#323232"/></svg>