<svg height="45" viewBox="0 0 45 45" width="45" xmlns="http://www.w3.org/2000/svg"><path d="m42.6978968 22.1870024c1.1946467-1.1953181 1.1946467-3.1394678 0-4.3347859-.5976749-.5983622-1.3823869-.8957855-2.167099-.8957855-.7854151 0-1.5701272.2974233-2.1678021.8957855-1.1946467 1.1953181-1.1946467 3.1394678 0 4.3347859.6208788.6208623 1.4752024.9428951 2.3597613.8922698.7453358-.0471095 1.4463733-.3642204 1.9751398-.8922698zm-13.1657239.8950824h3.4911247l-3.4911247-3.4903289zm-1.406294 20.5116586v-19.105402h-6.1905059c-.3888403 0-.703147-.3142984-.703147-.7031283 0-.3881269.3143067-.7031283.703147-.7031283h6.1905059v-4.8965855l-3.0615019-3.0621237c-.2749305-.2756263-.2749305-.7185971 0-.9942234s.7193194-.2756263.9942498 0l2.0672521 2.0671972v-3.2491559l-10.1351604-10.13489125h-16.58442455v40.78144115zm7.9350136-10.0687972c1.6896622 0 3.0650177-1.3753189 3.0650177-3.0649362 0-.7474254-.2721179-1.4674288-.7664302-2.027822-.5815026-.6595344-1.4196538-1.0378174-2.2985875-1.0378174-1.6903653 0-3.0650176 1.3753189-3.0650176 3.0656394 0 1.6896173 1.3746523 3.0649362 3.0650176 3.0649362zm7.6312541-16.6669531c1.7438045 1.743055 1.7438045 4.5808808 0 6.3232327-.7706491.7706287-1.794431 1.232584-2.8821994 1.3014905-.0921123.0049219-.1842245.0077344-.2763368.0077344-.0140629 0-.0281259-.0014062-.0421888-.0021093h-4.0733304l2.8217288 2.8223569c.0126566.0126563.0168755.0295314.028829.043594.0485172.049219.0991437.0956254.1455514.1483601.7200225.817035 1.1180037 1.8668056 1.1180037 2.9573576 0 2.4651678-2.0060783 4.4711928-4.4713116 4.4711928s-4.4713116-2.006025-4.4713116-4.4711928c0-2.4236833 1.9385762-4.3980675 4.3454483-4.4655678l-1.5054377-1.5061008h-4.8974186v20.5116586h-29.5321729v-43.59395435h18.5729242l10.9592487 10.95895765v5.2376026l5.4796243 5.4794789h2.267649c-1.6495828-1.7493832-1.62216-4.5126774.0892997-6.2240917 1.7416951-1.7437582 4.5802994-1.7437582 6.3234007 0zm-40.50407822-2.8227086h12.56031442v-1.4062566h-12.56031442zm0 14.9049137h12.56031442v-1.4062566h-12.56031442zm0 7.4524568h10.21602242v-1.4062566h-10.21602242zm0-14.9049137h10.21602242v-1.4062565h-10.21602242zm22.99691392-21.4877413 8.4722179 16.1740602 3.8616832-12.35747981-12.2101472-3.81658039zm2.7971187 2.3083702 7.7746961 2.43001139-2.4293728 7.77659891z" fill="#494949" fill-rule="evenodd"/></svg>