<?xml version="1.0" encoding="UTF-8"?>
<svg width="45px" height="45px" viewBox="0 0 45 45" version="1.1" xmlns="http://www.w3.org/2000/svg" xmlns:xlink="http://www.w3.org/1999/xlink">
    <!-- Generator: Sketch 57.1 (83088) - https://sketch.com -->
    <title>icon_product_catLg</title>
    <desc>Created with Sketch.</desc>
    <g id="icon_product_catLg" stroke="none" stroke-width="1" fill="none" fill-rule="evenodd">
        <path d="M22.6700898,25.6943082 C23.7868743,25.6943082 25.3289461,25.7540271 25.8240323,26.2715909 C25.9360354,26.3893698 25.9863556,26.5287139 25.9831091,26.7095295 C25.9717465,27.2453407 25.2364218,28.1096059 24.1537251,28.8610688 C24.0076341,28.9622591 23.9427048,29.151369 23.9946482,29.3255491 C24.4085727,30.7140135 25.2477844,31.6081382 26.4197589,31.9100504 C26.7671309,31.9979699 27.1047634,32.0444179 27.4261636,32.0444179 C29.2052274,32.0427591 30.0541785,30.7355787 30.1856604,30.100236 C30.2668221,29.7203574 30.6060778,29.4532812 31.0118862,29.4532812 C31.0930479,29.4532812 31.1758328,29.4648932 31.2569944,29.4864584 C31.7666897,29.6208259 32.0994526,30.12346 31.9988121,30.6078466 C31.6660492,32.1754678 30.0168441,33.8442793 27.6144587,33.8442793 L27.414801,33.8409615 C26.9846441,33.824373 26.5415014,33.7580186 26.0967355,33.6435574 C24.5822587,33.2537257 23.4378792,32.3114941 22.6895686,30.8400868 C22.6197695,30.7024015 22.4801715,30.6161409 22.3292108,30.6161409 C22.3210946,30.6161409 22.3129784,30.6161409 22.303239,30.6177998 C22.1425389,30.6277529 22.0029408,30.7355787 21.9477509,30.8898525 C21.47539,32.2185981 20.4819712,33.917269 18.4253344,34.46801 C18.0162796,34.5774947 17.6072248,34.6388724 17.2111559,34.6538021 L17.073181,34.655461 C14.5750248,34.655461 13.2975402,32.6515601 13.0784036,31.38751 C12.9923723,30.8998057 13.310526,30.3839007 13.7731475,30.2611452 C13.846193,30.2395801 13.9176153,30.2296269 13.9857911,30.2296269 C14.3429025,30.2296269 14.6383309,30.4933854 14.7032603,30.8716051 C14.8103937,31.4920181 15.6074013,32.8506231 17.2793317,32.8506231 C17.5731369,32.8506231 17.8815513,32.8091517 18.1980818,32.7245499 C19.5242635,32.3678953 20.4137954,31.1469756 20.7059774,29.2807599 C20.7303259,29.1231684 20.6637733,28.9655768 20.5355379,28.8759985 C19.5161473,28.1510774 18.8100408,27.2967653 18.8214034,26.8007667 C18.8360125,26.0509627 19.9170859,25.719191 22.4363442,25.695967 L22.6700898,25.6943082 Z M12.963641,18.5982098 C14.5333077,18.6147983 15.8059227,19.9468616 15.8010669,21.5742017 C15.7961833,23.198224 14.5170754,24.5037455 12.9441622,24.4871569 C11.3712491,24.4705683 10.1002573,23.1385051 10.1067255,21.511165 C10.1132432,19.8854839 11.3907279,18.5816212 12.963641,18.5982098 Z M32.861723,18.5074702 C34.4313897,18.5240588 35.7040046,19.8561221 35.6975364,21.4834621 C35.692642,23.1074844 34.4151573,24.413006 32.8406209,24.3964174 C31.269331,24.3798288 29.9999625,23.0461067 30.0048182,21.4220843 C30.0097019,19.7930854 31.290433,18.4908816 32.861723,18.5074702 Z M43.0512459,26.5449707 C40.8939688,41.368529 29.1579913,43.581446 22.3550202,43.581446 L22.2527565,43.581446 C19.1978312,43.5764695 3.85827565,42.7238163 1.79189954,26.4072855 C0.184898476,13.7236545 3.72517051,5.63008456 5.32243217,2.73703559 C5.50748078,2.40526391 5.82401129,2.17965918 6.1941085,2.11994028 C6.21521054,2.11662256 6.35967831,2.10501055 6.38240357,2.10501055 C6.68919469,2.10501055 6.98299993,2.22278949 7.20862937,2.43678222 C10.3901668,5.44097471 12.9564988,9.1020751 12.9792241,9.13691113 C14.8670445,8.13661954 18.6199601,7.1263748 22.9345145,7.1263748 C25.4213081,7.1263748 29.0362488,7.48634706 32.1414943,9.19497117 C32.5262006,8.77859772 35.0892861,5.31987805 38.1604437,2.49981884 C38.3844499,2.2941204 38.670139,2.17965918 38.9655675,2.17965918 C38.989916,2.17965918 39.1538626,2.1945889 39.1765878,2.19956548 C39.5385689,2.25928438 39.8534762,2.48488912 40.0369015,2.81666079 C41.5741036,5.61681369 44.9455593,13.5345446 43.0512459,26.5449707 M40.2917492,0.595449447 C40.0774824,0.321737818 39.7658216,0.144239974 39.4233193,0.106086232 C39.0856868,0.066273631 38.7399381,0.170781708 38.4704813,0.393068727 C35.5989814,2.75030645 32.9969383,5.92536135 31.8119779,7.44653446 C25.6323284,4.61818096 17.4544786,5.73293378 13.4467153,7.405063 C12.2990893,5.87891331 9.75872903,2.67897554 6.9326797,0.300172659 C6.66159972,0.0745679228 6.31098131,-0.0349167288 5.96685583,0.00987244688 C5.61786065,0.0513439058 5.2997069,0.235477183 5.08381686,0.522459679 C4.80624395,0.889067376 -1.70779166,9.73078242 0.430006719,26.6113251 C2.14251795,40.1409738 13.2438111,44.9732282 22.2251615,44.9998858 C28.0947735,45.0163585 42.0026372,43.2712395 44.4115155,26.7357394 C46.9307738,9.41228161 40.5628292,0.947127419 40.2917492,0.595449447" fill="#323232"></path>
    </g>
</svg>