<svg height="45" viewBox="0 0 45 45" width="45" xmlns="http://www.w3.org/2000/svg"><path d="m35.578125 18.6101971c-.4921875 0-1.0546875.0704843-1.546875.1409686l-1.546875-6.1321375c-.140625-.634359 0-1.1982338.28125-1.7621085.3515625-.4933904.9140625-.91629639 1.546875-.98678073h.0703125l2.953125-.98678075c.3515625-.14096868.5625-.49339037.421875-.91629641-.140625-.3524217-.4921875-.56387471-.9140625-.42290604l-2.953125.91629642c-.984375.21145301-1.828125.77532773-2.390625 1.62113981-.5625.8458121-.7734375 1.8325928-.4921875 2.8193736l.28125 1.0572651-11.0390625 2.1145301c-.9140625.0704844-1.6875.5638748-2.109375 1.3392025s-.3515625 1.6211398.0703125 2.4669519l3.375 6.2731062c-.3515625.2819373-.6328125.634359-.84375 1.0572651h-2.1796875c-.2109375-4.7929351-4.21875-8.5990894-9.140625-8.5990894-5.203125 0-9.421875 4.2290603-9.421875 9.4449014s4.21875 9.4449015 9.421875 9.4449015c4.9921875 0 9.0703125-3.8766387 9.3515625-8.8105424h2.109375c.28125.9162964 1.125 1.6211398 2.1796875 1.6211398 1.265625 0 2.25-.9867808 2.25-2.2554989 0-1.1982337-.984375-2.2554988-2.1796875-2.2554988l-3.515625-6.5550436c-.2109375-.422906-.28125-.8458121-.0703125-1.1277494.140625-.3524217.5625-.5638747 1.0546875-.5638747l11.1796875-2.1850146.9140625 3.73567c-3.796875 1.1982338-6.5390625 4.7929351-6.5390625 8.9515111 0 5.2158411 4.21875 9.4449015 9.421875 9.4449015s9.421875-4.2290604 9.421875-9.4449015-4.21875-9.4449014-9.421875-9.4449014zm-26.15625 17.4801161c-4.4296875 0-8.015625-3.5947013-8.015625-8.0352147s3.5859375-8.0352147 8.015625-8.0352147c4.1484375 0 7.59375 3.1717953 7.9453125 7.259887h-5.765625c-.3515625-.8458121-1.125-1.4801711-2.109375-1.4801711-1.265625 0-2.25.9867807-2.25 2.2554988s.984375 2.2554989 2.25 2.2554989c1.0546875 0 1.8984375-.7048434 2.1796875-1.6211398h5.765625c-.421875 4.158576-3.8671875 7.4008556-8.015625 7.4008556zm.9140625-8.0352147c0 .4933904-.421875.8458121-.84375.8458121s-.84375-.422906-.84375-.8458121c0-.4933903.421875-.845812.84375-.845812s.84375.3524217.84375.845812zm13.5703125 0c0 .4933904-.421875.8458121-.84375.8458121s-.84375-.422906-.84375-.8458121c0-.4933903.421875-.845812.84375-.845812s.84375.3524217.84375.845812zm11.671875 8.0352147c-4.4296875 0-8.015625-3.5947013-8.015625-8.0352147 0-3.5242169 2.3203125-6.5550435 5.484375-7.6123086l1.40625 5.6387471c-.703125.4229061-1.125 1.1277495-1.125 1.9735615 0 1.2687181.984375 2.2554989 2.25 2.2554989s2.25-.9867808 2.25-2.2554989c0-1.1982337-.9140625-2.1145302-2.0390625-2.2554988l-1.40625-5.6387472c.3515625-.0704843.7734375-.0704843 1.1953125-.0704843 4.4296875-.0704844 8.015625 3.5242169 8.015625 7.9647303s-3.5859375 8.0352147-8.015625 8.0352147zm0-8.8810267c.4921875 0 .84375.422906.84375.845812 0 .4933904-.421875.8458121-.84375.8458121-.4921875 0-.84375-.422906-.84375-.8458121 0-.4933903.421875-.845812.84375-.845812zm-23.484375-15.0131643c-.3515625 0-.703125-.2819374-.703125-.7048434 0-.4229061.28125-.7048434.703125-.7048434h7.3828125c.421875 0 .703125.2819373.703125.7048434 0 .422906-.28125.7048434-.703125.7048434h-3.0234375l1.828125 3.2422796c.140625.3524217.0703125.7753277-.28125.9867807-.140625.0704844-.2109375.0704844-.3515625.0704844-.28125 0-.4921875-.1409687-.6328125-.3524217l-2.25-3.947123z" fill="#323232"/></svg>