<svg height="45" viewBox="0 0 45 45" width="45" xmlns="http://www.w3.org/2000/svg"><path d="m36.1132075 31.2890625v-27.0703125h-13.6830188c.2792453-.421875.4188679-.9140625.4188679-1.40625 0-1.546875-1.2566038-2.8125-2.7924528-2.8125-1.5358491 0-2.7924529 1.265625-2.7924529 2.8125 0 .4921875.1396227.984375.418868 1.40625h-13.6830189v35.859375h23.3867925c.9075471 2.8828125 3.5603773 4.921875 6.6320754 4.921875 3.8396227 0 6.9811321-3.1640625 6.9811321-7.03125 0-3.1640625-2.0245283-5.8359375-4.8867925-6.6796875zm-1.3962264-25.6640625v25.3828125c-.2094339 0-.4886792-.0703125-.6981132-.0703125-.2094339 0-.4886792 0-.6981132.0703125v-23.9765625h-6.9811321v-1.40625zm-7.3301886 30.234375h-19.19811325v-27.421875h5.58490565v1.40625h12.5660377v-1.40625h5.5849057v22.8515625c-2.1641509.6328125-3.909434 2.390625-4.5377358 4.5703125zm-2.5132076-30.1640625v2.7421875h-9.6339623v-2.7421875zm-6.2132075-2.8828125c0-.7734375.6283018-1.40625 1.3962264-1.40625.7679245 0 1.3962264.6328125 1.3962264 1.40625s-.6283019 1.40625-1.3962264 1.40625c-.7679246 0-1.3962264-.6328125-1.3962264-1.40625zm17.4528301 32.765625c.2792453-.28125.6981133-.28125.9773585 0 .2792453.28125.2792453.703125 0 .984375l-3.3509434 3.375c-.1396226.140625-.3490566.2109375-.4886792.2109375s-.3490566-.0703125-.4886792-.2109375l-1.6754717-1.6875c-.2792453-.28125-.2792453-.703125 0-.984375.2792452-.28125.6981132-.28125.9773584 0l1.1867925 1.1953125zm-9.0056603 3.09375h-21.71132078v-33.046875h8.37735848v1.40625h-6.98113207v30.234375h20.31509437c0 .2109375-.0698114.4921875-.0698114.703125s0 .4921875.0698114.703125zm6.9113207 4.921875c-2.3735849 0-4.3283019-1.4765625-5.1660377-3.515625-.1396227-.3515625-.209434-.6328125-.2792453-.984375v-.0703125c0-.140625-.0698113-.28125-.0698113-.421875 0-.2109375 0-.3515625 0-.5625 0-3.09375 2.5132075-5.625 5.5849056-5.625h.5584906c.1396227 0 .2792453.0703125.4188679.0703125h.0698114c.3490566.0703125.6981132.140625.9773584.28125 2.0245283.84375 3.4905661 2.8828125 3.4905661 5.203125 0 3.09375-2.5132076 5.625-5.5849057 5.625z" fill="#323232"/></svg>