<?xml version="1.0" encoding="UTF-8"?>
<svg width="45px" height="45px" viewBox="0 0 45 45" version="1.1" xmlns="http://www.w3.org/2000/svg" xmlns:xlink="http://www.w3.org/1999/xlink">
    <!-- Generator: Sketch 57.1 (83088) - https://sketch.com -->
    <title>icon_product_dogLg</title>
    <desc>Created with Sketch.</desc>
    <defs>
        <path d="M11.92,7.054 C8.508,8.636 5.56,11.096 3.398,14.162 L3.398,14.162 C0.425,18.191 -0.842,23.339 -0.079,28.277 L-0.079,28.277 C0.18,30.245 1.243,32.053 2.851,33.248 L2.851,33.248 C3.826,33.896 4.959,34.258 6.165,34.3 L6.165,34.3 C6.814,34.3 7.454,34.135 8.027,33.816 L8.027,33.816 C8.694,33.411 9.225,32.835 9.566,32.152 L9.566,32.152 C10.284,33.832 11.212,35.272 12.33,36.438 L12.33,36.438 C14.786,39.001 18.204,40.3 22.49,40.3 L22.49,40.3 C26.738,40.3 30.167,38.987 32.679,36.398 L32.679,36.398 C33.753,35.275 34.651,33.898 35.353,32.303 L35.353,32.303 C35.7,32.915 36.205,33.433 36.824,33.803 L36.824,33.803 C37.392,34.11 38.033,34.273 38.677,34.273 L38.677,34.273 L38.821,34.269 C40.008,34.234 41.158,33.872 42.161,33.21 L42.161,33.21 C43.75,32.042 44.814,30.252 45.078,28.305 L45.078,28.305 C45.842,23.359 44.576,18.211 41.606,14.188 L41.606,14.188 C39.44,11.116 36.492,8.656 33.082,7.075 L33.082,7.075 C29.788,5.521 26.122,4.7 22.479,4.7 L22.479,4.7 C18.853,4.7 15.201,5.514 11.92,7.054 L11.92,7.054 Z M3.54,32.198 C2.234,31.202 1.362,29.697 1.146,28.064 L1.146,28.064 C0.431,23.379 1.583,18.697 4.395,14.874 L4.395,14.874 C6.443,11.986 9.226,9.675 12.445,8.189 L12.445,8.189 C15.562,6.726 19.03,5.953 22.474,5.953 L22.474,5.953 C25.919,5.953 29.388,6.726 32.507,8.19 L32.507,8.19 C35.724,9.675 38.507,11.987 40.558,14.88 L40.558,14.88 C43.338,18.638 44.524,23.443 43.812,28.069 L43.812,28.069 C43.598,29.697 42.726,31.202 41.436,32.187 L41.436,32.187 C40.638,32.718 39.709,33.018 38.717,33.059 L38.717,33.059 C38.26,33.059 37.809,32.944 37.423,32.731 L37.423,32.731 C36.588,32.226 36.079,31.346 36.045,30.471 L36.045,30.471 C37.596,25.635 37.327,20.372 37.197,17.853 L37.197,17.853 L37.197,17.295 C37.177,16.964 36.9,16.705 36.548,16.705 L36.548,16.705 L36.546,16.705 C36.207,16.725 35.951,17.005 35.962,17.334 L35.962,17.334 L35.962,17.899 C36.084,20.251 36.339,25.127 35.009,29.636 L35.009,29.636 C34.865,29.776 34.798,29.97 34.831,30.116 L34.831,30.116 C34.829,30.154 34.828,30.191 34.828,30.228 L34.828,30.228 C34.118,32.391 33.092,34.178 31.782,35.543 L31.782,35.543 C29.551,37.857 26.435,39.03 22.52,39.03 L22.52,39.03 C18.598,39.03 15.479,37.857 13.249,35.543 L13.249,35.543 C8.446,30.536 8.897,21.389 9.069,17.894 L9.069,17.894 L9.069,17.347 C9.081,17.027 8.842,16.745 8.531,16.708 L8.531,16.708 L8.434,16.7 C8.279,16.7 8.129,16.757 8.014,16.859 L8.014,16.859 C7.871,16.986 7.794,17.167 7.803,17.344 L7.803,17.344 L7.803,17.87 C7.679,20.282 7.424,25.282 8.791,29.972 L8.791,29.972 C8.777,30.026 8.768,30.084 8.767,30.153 L8.767,30.153 C8.84,31.202 8.33,32.198 7.449,32.744 L7.449,32.744 C7.068,32.95 6.639,33.059 6.181,33.059 L6.181,33.059 C5.233,33.016 4.315,32.715 3.54,32.198 L3.54,32.198 Z M28.823,17.802 C27.898,18.289 27.462,19.535 27.824,20.619 L27.824,20.619 C28.058,21.56 28.779,22.235 29.618,22.299 L29.618,22.299 L29.634,22.3 L29.65,22.3 C29.818,22.295 29.983,22.262 30.172,22.188 L30.172,22.188 C31.106,21.709 31.543,20.466 31.174,19.382 L31.174,19.382 C30.94,18.44 30.219,17.764 29.357,17.7 L29.357,17.7 C29.189,17.7 29.024,17.729 28.823,17.802 L28.823,17.802 Z M16.592,17.701 C15.76,17.78 15.052,18.456 14.838,19.361 L14.838,19.361 C14.654,19.921 14.654,20.54 14.84,21.109 L14.84,21.109 C15.021,21.615 15.38,22.012 15.834,22.2 L15.834,22.2 C15.997,22.263 16.166,22.297 16.338,22.3 L16.338,22.3 L16.352,22.3 L16.365,22.299 C17.216,22.238 17.941,21.562 18.164,20.644 L18.164,20.644 C18.547,19.534 18.105,18.284 17.118,17.783 L17.118,17.783 C16.959,17.729 16.795,17.701 16.6,17.701 L16.6,17.701 L16.592,17.701 Z M19.705,26.924 C19.94,28.204 20.915,29.158 22.075,29.286 L22.075,29.286 C22.074,29.309 22.074,29.33 22.076,29.353 L22.076,29.353 C22.081,29.479 22.184,32.464 19.96,32.979 L19.96,32.979 C19.73,33.035 19.494,33.062 19.197,33.064 L19.197,33.064 C18.142,33.064 17.22,32.365 16.91,31.35 L16.91,31.35 C16.849,31.071 16.611,30.868 16.317,30.857 L16.317,30.857 L16.198,30.857 L16.159,30.866 C15.838,30.953 15.642,31.28 15.72,31.629 L15.72,31.629 C16.173,33.201 17.605,34.3 19.203,34.299 L19.203,34.299 L19.203,33.999 L19.31,34.3 C19.624,34.3 19.937,34.262 20.236,34.189 L20.236,34.189 C21.734,33.848 22.592,32.712 23.001,31.459 L23.001,31.459 C23.409,32.708 24.266,33.839 25.756,34.178 L25.756,34.178 C26.076,34.258 26.405,34.3 26.753,34.3 L26.753,34.3 L26.792,34.3 C28.395,34.3 29.828,33.199 30.281,31.614 L30.281,31.614 C30.321,31.453 30.298,31.286 30.214,31.145 L30.214,31.145 C30.13,31.002 29.99,30.899 29.831,30.859 L29.831,30.859 L29.71,30.849 L29.669,30.852 C29.388,30.864 29.15,31.065 29.094,31.32 L29.094,31.32 C28.779,32.358 27.858,33.054 26.74,33.054 L26.74,33.054 L26.738,33.054 C26.504,33.053 26.269,33.025 26.036,32.97 L26.036,32.97 C24.26,32.56 23.879,30.503 23.934,29.356 L23.934,29.356 C23.942,29.228 23.911,29.103 23.846,28.995 L23.846,28.995 C24.576,28.596 25.129,27.83 25.299,26.87 L25.299,26.87 C25.299,26.289 24.34,25.7 22.505,25.7 L22.505,25.7 C20.663,25.7 19.701,26.289 19.705,26.924 L19.705,26.924 Z" id="path-1"></path>
    </defs>
    <g id="icon_product_dogLg" stroke="none" stroke-width="1" fill="none" fill-rule="evenodd">
        <mask id="mask-2" fill="white">
            <use xlink:href="#path-1"></use>
        </mask>
        <use id="icon-product_dogLg" fill="#323232" xlink:href="#path-1"></use>
    </g>
</svg>