<?xml version="1.0" encoding="UTF-8"?>
<svg width="27px" height="45px" viewBox="0 0 27 45" version="1.1" xmlns="http://www.w3.org/2000/svg" xmlns:xlink="http://www.w3.org/1999/xlink">
    <!-- Generator: Sketch 51.3 (57544) - http://www.bohemiancoding.com/sketch -->
    <title>ICON-Faq-questionmark</title>
    <desc>Created with Sketch.</desc>
    <defs></defs>
    <g id="ICON-Faq-questionmark" stroke="none" stroke-width="1" fill="none" fill-rule="evenodd">
        <g transform="translate(1.000000, 0.000000)" fill="#323232" fill-rule="nonzero">
            <path d="M12.3210714,36.7857143 L12.3210714,36.9642857 C10.5805144,36.9642857 9.10678571,38.4378016 9.10678571,40.1778571 C9.10678571,41.9186649 10.5805523,43.3928571 12.3210714,43.3928571 C14.0615906,43.3928571 15.5353571,41.9186649 15.5353571,40.1778571 C15.5353571,38.4378016 14.0616285,36.9642857 12.3210714,36.9642857 L12.3210714,36.7857143 Z M12.3210714,44.6428571 L12.3210714,44.8214286 C9.8023326,44.8214286 7.67821429,42.6970771 7.67821429,40.1778571 C7.67821429,37.6593589 9.8023251,35.5357143 12.3210714,35.5357143 C14.8398178,35.5357143 16.9639286,37.6593589 16.9639286,40.1778571 C16.9639286,42.6970771 14.8398103,44.8214286 12.3210714,44.8214286 L12.3210714,44.6428571 Z" id="Fill-4"></path>
            <path d="M12.9255,5.61628571 L12.9255,5.43771429 C16.7067653,5.43771429 19.8926429,8.82799752 19.8926429,12.8405714 C19.8926429,14.8770854 18.9685026,16.8780603 17.429043,18.1859925 L12.8356056,22.7372881 C11.5570315,24.006814 10.8233571,25.7741416 10.8233571,27.5855714 L10.8233571,30.5848571 C10.8233571,31.7815811 11.7237541,32.6784286 12.9255,32.6784286 C14.1272459,32.6784286 15.0276429,31.7815811 15.0276429,30.5848571 L15.0276429,27.5855714 C15.0276429,26.7474143 15.2302499,26.2380489 15.7854589,25.6866479 L20.2968541,21.2121139 C22.7536829,19.0279537 24.0969072,16.0888466 24.0956703,12.9013466 C24.2277424,9.87914289 23.1648759,7.01977087 21.0962822,4.82663944 C19.045545,2.65142326 16.2466502,1.38199633 13.2212143,1.252 C9.99769301,1.252 7.26473242,2.29647767 4.8154346,4.45589736 C2.53251304,6.71776984 1.24978571,9.6702251 1.24978571,12.5905714 C1.24978571,13.7416773 2.27450611,14.6848571 3.35192857,14.6848571 C4.42951509,14.6848571 5.45478571,13.7415577 5.45478571,12.5905714 C5.45478571,10.4314554 6.18250318,8.75643494 7.67086006,7.49145054 L7.73968486,7.42813577 C8.97491325,6.20174096 10.9666223,5.43771429 12.9255,5.43771429 L12.9255,5.61628571 Z M12.9255,33.9284286 L12.9255,34.107 C10.9160603,34.107 9.39478571,32.5898057 9.39478571,30.5848571 L9.39478571,27.5855714 C9.39478571,25.3949392 10.2817711,23.2593512 11.8298301,21.723706 L16.4632579,17.1346488 C17.723148,16.0611533 18.4640714,14.4668466 18.4640714,12.8405714 C18.4640714,9.60121318 15.922956,6.86628571 12.9255,6.86628571 C11.3267031,6.86628571 9.71650281,7.47826573 8.72598227,8.46100267 L8.61686579,8.56163202 C7.44616581,9.556727 6.88335714,10.8636938 6.88335714,12.5905714 C6.88335714,14.535931 5.17139611,16.1134286 3.35192857,16.1134286 C1.53260015,16.1134286 -0.178785714,14.5360209 -0.178785714,12.5905714 C-0.178785714,9.28796802 1.26067002,5.9676054 3.77273223,3.47522304 L3.85525849,3.39805798 C6.58559981,0.990675798 9.63425219,-0.178714286 13.1845111,-0.178608214 L13.2688625,-0.175693282 C16.6796475,-0.0294754168 19.8268192,1.39819369 22.135424,3.8459234 C24.4686621,6.32046013 25.6724327,9.55109384 25.5240714,12.9326417 C25.5255223,16.5018947 24.0107003,19.8228215 21.2741202,22.253773 L16.7913091,26.7008702 C16.51289,26.9772718 16.4562143,27.117696 16.4562143,27.5855714 L16.4562143,30.5848571 C16.4562143,32.5898057 14.9349397,34.107 12.9255,34.107 L12.9255,33.9284286 Z" id="Fill-1"></path>
        </g>
    </g>
</svg>