<svg height="30" viewBox="0 0 30 30" width="30" xmlns="http://www.w3.org/2000/svg"><path d="m24.0092879 19.7778649h-3.7151703v-18.39984318c0-.51110676-.247678-1.02221351-.990712-1.27776689-.4953561-.25555338-.9907121 0-1.4860681.51110675l-12.63157899 19.67761012c-.24767801.5111067-.24767801 1.0222135 0 1.2777668.24767802.5111068.74303406.7666602.99071208.7666602h11.39318881v6.3888344c0 .7666601.4953561 1.2777669 1.2383901 1.2777669.7430341 0 1.2383901-.5111068 1.2383901-1.2777669v-6.3888344h3.7151703c.7430341 0 1.2383901-.5111068 1.2383901-1.2777669s-.247678-1.2777669-.9907121-1.2777669zm-5.9442724 0h-9.16408671l9.16408671-14.05543577z" fill="#323232"/></svg>