<svg height="30" viewBox="0 0 30 30" width="30" xmlns="http://www.w3.org/2000/svg"><path d="m15.37699 0c-2.2846336 0-4.188495.75471698-5.90197023 2.26415094-1.52308909 1.50943397-2.47501977 3.58490566-2.47501977 5.66037736 0 .56603774.57115841.94339623.95193068.94339623.38077228 0 .95193068-.37735849.95193068-.94339623 0-1.69811321.57115841-3.20754717 1.90386134-4.33962264 1.1423168-1.13207547 2.8557921-1.69811321 4.3788812-1.69811321 3.2365643 0 5.9019702 2.83018868 5.9019702 6.2264151 0 1.6981132-.7615445 3.39622645-2.0942475 4.52830185l-3.4269505 3.3962264c-.7615445.754717-1.3327029 1.8867925-1.3327029 3.2075472v2.264151c0 .5660377.3807723.9433962.9519307.9433962s.9519306-.3773585.9519306-.9433962v-2.264151c0-.754717.1903862-1.3207547.7615446-1.8867924l3.4269505-3.3962264c1.7134752-1.509434 2.6654059-3.5849057 2.6654059-5.84905665.1903861-4.33962264-3.2365644-7.9245283-7.6154455-8.11320755zm.3807723 24.3396226c-1.5230891 0-2.8557921 1.3207548-2.8557921 2.8301887 0 1.509434 1.332703 2.8301887 2.8557921 2.8301887s2.855792-1.3207547 2.855792-2.8301887c0-1.5094339-1.3327029-2.8301887-2.855792-2.8301887zm0 3.7735849c-.5711584 0-.9519307-.3773584-.9519307-.9433962 0-.5660377.3807723-.9433962.9519307-.9433962s.9519307.3773585.9519307.9433962c0 .5660378-.3807723.9433962-.9519307.9433962z" fill="#9e0a9a"/></svg>