<svg height="30" viewBox="0 0 30 30" width="30" xmlns="http://www.w3.org/2000/svg"><path d="m3.4995658 8.36344538v-1.00840336h7.4817257v1.00840336zm0 5.17121852v-1.0084034h6.08554157v1.0084034zm0 5.1712185v-1.0084034h7.4817257v1.0084034zm0 5.1724789v-1.0084033h6.08554157v1.0084033zm19.116246-4.5397058h-1.369532v2.2681023c.5465972-.7324616 1.4078975-1.2175482 2.38469-1.2564192zm1.4308975 0 1.9378997 1.9312661c.0135915.013545.026248.027669.0379697.0422924.028501.0297672.0564618.0601443.0838624.0911203.4996476.5645098.7803466 1.2930295.7803466 2.0642287 0 1.7219727-1.4003202 3.1172269-3.1287677 3.1172269-1.0289128 0-1.9415505-.4944225-2.5117402-1.2578661v4.6730762h-21.2462798v-30h13.3557181l7.8905617 7.53694243v9.01086947l1.7885625 1.7824402h1.5301292c-1.1297653-1.2236814-1.0988062-3.1290376.0926733-4.3151379 1.2219263-1.2179114 3.2039842-1.2179114 4.4259105 0s1.2219263 3.1934568 0 4.4113682c-.5458702.5440766-1.2606363.8600524-2.0168851.9080331-.1038042.006489-.2074217.0078375-.3105027.00414zm-2.4427645-1.0084034-.357665-.3564407v.3564407zm-1.3693926-1.3647051-4.1441921-4.1300064c-.1975658-.1968895-.1975878-.5161323-.0000493-.7130489.1975385-.1969165.5178337-.1969385.7153994-.0000491l3.428842 3.4171049v-7.57228825l-7.2853524-6.95885589h-11.93747219v27.98319324h19.22282459v-9.6529411h-6.3109039c-.2793809 0-.5058638-.2257388-.5058638-.5042017s.2264829-.5042017.5058638-.5042017h6.3109039zm5.1382713.7476667c.435165.4347265 1.0271833.6525913 1.6300465.6149055.5126402-.0325249.9952608-.2458764 1.3652858-.6146856.8268221-.8241054.8268221-2.1611651 0-2.9852705s-2.1682894-.8241054-2.9953323.0002199c-.8277924.8240552-.8277924 2.1607755 0 2.9848307zm-1.6148035 3.6430048c-1.1696022 0-2.11704.9449539-2.11704 2.1113445 0 1.1649717.9472789 2.1088236 2.11704 2.1088236 1.1697612 0 2.1170401-.9438519 2.1170401-2.1088236 0-.5236324-.1894965-1.0154472-.5274095-1.3972266-.3991385-.4512197-.9722104-.7141179-1.5896306-.7141179zm-5.9294538-21.23845125 8.6573586 2.69672994-2.7056199 8.62735601zm5.7146878 8.6999594 1.6751607-5.34155157-5.3601274-1.66965661z" fill="#595959" fill-rule="evenodd"/></svg>