<svg height="45" viewBox="0 0 45 45" width="45" xmlns="http://www.w3.org/2000/svg"><path d="m8.13253012 21.3545455c-1.06939818 0-1.93631669-.8547292-1.93631669-1.909091 0-1.0543617.86691851-1.9090909 1.93631669-1.9090909s1.93631668.8547292 1.93631668 1.9090909c0 1.0543618-.8669185 1.909091-1.93631668 1.909091zm9.29432018 0c-1.0693982 0-1.9363167-.8547292-1.9363167-1.909091 0-1.0543617.8669185-1.9090909 1.9363167-1.9090909 1.0693981 0 1.9363167.8547292 1.9363167 1.9090909 0 1.0543618-.8669186 1.909091-1.9363167 1.909091zm18.5886402 0c-1.0693981 0-1.9363167-.8547292-1.9363167-1.909091 0-1.0543617.8669186-1.9090909 1.9363167-1.9090909 1.0693982 0 1.9363167.8547292 1.9363167 1.9090909 0 1.0543618-.8669185 1.909091-1.9363167 1.909091zm-27.88296038 8.4c-1.06939818 0-1.93631669-.8547292-1.93631669-1.909091 0-1.0543617.86691851-1.9090909 1.93631669-1.9090909s1.93631668.8547292 1.93631668 1.9090909c0 1.0543618-.8669185 1.909091-1.93631668 1.909091zm9.29432018 0c-1.0693982 0-1.9363167-.8547292-1.9363167-1.909091 0-1.0543617.8669185-1.9090909 1.9363167-1.9090909 1.0693981 0 1.9363167.8547292 1.9363167 1.9090909 0 1.0543618-.8669186 1.909091-1.9363167 1.909091zm9.2943201 0c-1.0693982 0-1.9363167-.8547292-1.9363167-1.909091 0-1.0543617.8669185-1.9090909 1.9363167-1.9090909s1.9363167.8547292 1.9363167 1.9090909c0 1.0543618-.8669185 1.909091-1.9363167 1.909091zm9.2943201 0c-1.0693981 0-1.9363167-.8547292-1.9363167-1.909091 0-1.0543617.8669186-1.9090909 1.9363167-1.9090909 1.0693982 0 1.9363167.8547292 1.9363167 1.9090909 0 1.0543618-.8669185 1.909091-1.9363167 1.909091zm-27.88296038 8.4c-1.06939818 0-1.93631669-.8547292-1.93631669-1.909091 0-1.0543617.86691851-1.9090909 1.93631669-1.9090909s1.93631668.8547292 1.93631668 1.9090909c0 1.0543618-.8669185 1.909091-1.93631668 1.909091zm9.29432018 0c-1.0693982 0-1.9363167-.8547292-1.9363167-1.909091 0-1.0543617.8669185-1.9090909 1.9363167-1.9090909 1.0693981 0 1.9363167.8547292 1.9363167 1.9090909 0 1.0543618-.8669186 1.909091-1.9363167 1.909091zm9.2943201-22.1454546c-1.9363167 0-3.4853701 1.5272727-3.4853701 3.4363636 0 1.909091 1.5490534 3.4363637 3.4853701 3.4363637s3.48537-1.5272727 3.48537-3.4363637c0-1.9090909-1.5490533-3.4363636-3.48537-3.4363636zm0 5.3454546c-1.0843374 0-1.9363167-.84-1.9363167-1.909091 0-1.0690909.8519793-1.9090909 1.9363167-1.9090909 1.0843373 0 1.9363167.84 1.9363167 1.9090909 0 1.069091-.8519794 1.909091-1.9363167 1.909091zm9.6815835-16.03636368v-3.05454546c0-.45818181-.3098107-.76363636-.7745267-.76363636s-.7745267.30545455-.7745267.76363636v3.05454546h-24.7848537v-3.05454546c0-.45818181-.30981066-.76363636-.77452666-.76363636-.46471601 0-.77452668.30545455-.77452668.76363636v3.05454546h-8.51979346v31.53818178c0 3.6654546 3.02065404 6.6436364 6.7383821 6.6436364h31.5232358c3.7177281 0 6.7383821-2.9781818 6.7383821-6.6436364v-31.53818178zm6.9707401 31.53818178c0 2.8254546-2.3235801 5.1163637-5.1893288 5.1163637h-31.4457831c-2.86574871 0-5.18932874-2.2909091-5.18932874-5.1163637v-30.01090905h6.9707401v3.81818185c0 .4581818.30981067.7636363.77452668.7636363.464716 0 .77452666-.3054545.77452666-.7636363v-3.81818185h24.7848537v3.81818185c0 .4581818.3098107.7636363.7745267.7636363s.7745267-.3054545.7745267-.7636363v-3.81818185h6.9707401z" fill="#323232"/></svg>