<svg height="45" viewBox="0 0 45 45" width="45" xmlns="http://www.w3.org/2000/svg"><path d="m45 16.2332657v-6.37931032l-22.5-5.85395538-22.5 5.85395538v6.37931032h5.7v15.010142h-1.2v3.7525355h-4.5v6.0040568h45v-6.0040568h-4.5v-3.7525355h-1.05v-15.010142zm-43.5-5.178499 21-5.47870179 21 5.47870179v3.6774848h-42zm24.45 20.188641v-15.010142h6.75v15.010142zm-6.75-15.010142v15.010142h-6.75v-15.010142zm1.5 0h3.75v15.010142h-3.75zm-13.5 0h3.75v15.010142h-3.75zm36.3 20.2636917v3.0020284h-42v-3.0020284zm-37.5-1.5010142v-2.2515213h33v2.2515213zm31.95-3.7525355h-3.75v-15.010142h3.75zm-15.45-23.34077078c1.575 0 2.85 1.27586207 2.85 2.85192698 0 1.5760649-1.275 2.851927-2.85 2.851927s-2.85-1.2758621-2.85-2.851927c0-1.57606491 1.275-2.85192698 2.85-2.85192698zm0 4.12778908c.75 0 1.35-.6004057 1.35-1.3509128 0-.75050711-.6-1.35091279-1.35-1.35091279s-1.35.60040568-1.35 1.35091279c0 .7505071.6 1.3509128 1.35 1.3509128z" fill="#323232"/></svg>