<svg height="45" viewBox="0 0 45 45" width="45" xmlns="http://www.w3.org/2000/svg"><g fill="#323232" fill-rule="nonzero"><path d="m39 34h-39v-10.136646c0-4.7867494 3.94936709-8.7287784 8.74502712-8.7287784h7.75768538c4.79566 0 8.7450271 3.942029 8.7450271 8.7287784v8.7287785h13.681736v1.4078675zm-37.58951175-1.4078675h22.49728755v-8.7287785c0-4.0124223-3.3146474-7.3209109-7.3345389-7.3209109h-7.75768536c-4.0198915 0-7.33453888 3.3084886-7.33453888 7.3209109v8.7287785zm11.28390595-19.358178c-3.66726943 0-6.62929474-2.9565218-6.62929474-6.61697727 0-3.66045549 2.96202531-6.61697723 6.62929474-6.61697723 3.6672695 0 6.6292948 2.95652174 6.6292948 6.61697723 0 3.59006207-2.9620253 6.61697727-6.6292948 6.61697727zm0-11.89648038c-2.89150089 0-5.2188065 2.32298137-5.2188065 5.20910973 0 2.88612837 2.32730561 5.20910975 5.2188065 5.20910975 2.8915009 0 5.2188065-2.32298138 5.2188065-5.20910975 0-2.88612836-2.3273056-5.20910973-5.2188065-5.20910973z" transform="translate(0 11)"/><circle cx="11.5" cy="11.5" r="11.5" transform="translate(22)"/></g></svg>