<svg height="45" viewBox="0 0 45 45" width="45" xmlns="http://www.w3.org/2000/svg"><path d="m34.2740385 7.67775816-2.4594545.79790696 2.5194588.5826443c3.0775714.71251944 4.5408095 1.76587148 4.598645 2.44394888.0057835.0674489.0238571.2712309-.2711039.5855144-1.0128442 1.0799011-4.5690043 2.2007021-9.9086666 2.1375584-.5046147-.0064579-.9991082-.0287017-1.4863722-.0566859l-2.1500346-.1234172 1.6396363 1.3862916c2.4688528 2.0880479 3.4614545 4.0706171 3.1657705 4.9481712-.0484372.1427909-.1561558.3501606-.5342554.4857761-1.0453766.3716869-3.3920519-.0459227-6.2859956-1.826145l-.0339783.0545332-2.9821428-12.85405158c2.4240302-1.2521112 5.6852293-2.43246818 9.2153635-3.32796089 3.736896-.94787329 7.3371557-1.47239667 10.1356708-1.47670192h.0325325c2.8136969 0 3.9798051.5589654 4.0774025.93567507.1843507.71754224-2.4189696 3.08471407-9.272476 5.30694238zm-15.2389305 35.60085804-7.3920995-31.8552876-.9875411.2260258-6.29611681 4.9560643-2.55705191-5.3600405 8.98835922-6.94724397 6.9894198-1.59796656 9.0049869 38.80683673zm25.9124715-41.26226628c-.3462901-1.34395661-2.1673853-2.02346911-5.5131688-2.01629368-2.915632.00574033-6.6416839.5453321-10.4920821 1.52190708-3.4780822.88257695-6.7096406 2.03925503-9.1915064 3.27773293l-.886329-3.82019486-8.7093029 1.9911797-10.1551903 7.84919451 3.83232462 8.0336029 6.80723798-5.3607581 7.3111298 31.5072796 10.5679912-2.4166822-5.0295194-21.6755159c1.8644718.9801627 3.6443592 1.5154492 5.0432553 1.5154492.501723 0 .9557316-.0681665 1.3461212-.2080872.706316-.2532925 1.1957489-.730458 1.4148009-1.3805513.5197965-1.5434334-.6347446-3.5073465-2.1999178-5.1713269 4.9767446.0007175 9.119212-.9916434 10.6265497-2.5982204.603658-.644353.6882424-1.2707673.654264-1.6833541-.1250692-1.46809144-1.8160346-2.45399447-3.5272423-3.08112638 4.5935843-1.72568908 8.6644804-4.09286091 8.1005843-6.2842349z" fill="#323232" fill-rule="evenodd"/></svg>