<svg height="45" viewBox="0 0 45 45" width="45" xmlns="http://www.w3.org/2000/svg"><path d="m44.7884013 11.6826923-11.4263323-11.46634615c-.2821317-.28846153-.7053292-.28846153-.9874608 0l-11.1442007 11.46634615c-.1410658.1442308-.2115987.2884615-.2115987.5048077v5.4086538c-1.3401254-.0721153-3.1034483-.1442307-5.2899687-.1442307h-.2115987c-5.78369908 0-8.74608153.4326923-8.81661444.5048077l-.21159875.0721154-.14106583.2163461c-.07053291.0721154-1.12852664 1.2259615-2.11598746 3.6778846-.28213166.7932693-.63479624 1.6586539-.9169279 2.5961539h-1.55172414c-.98746081 0-1.76332288.7932692-1.76332288 1.8028846s.77586207 1.8028846 1.76332288 1.8028846h.07053292l-1.19905956 2.2355769v.8653846 4.4711539 8.5817308c0 .4326923.28213166.7211538.70532915.7211538h3.6677116c.42319749 0 .70532915-.2884615.70532915-.7211538v-1.7307693c.56426333.0721154 1.12852665.1442308 1.69278997.1442308h16.57523509c.5642633 0 1.1285267-.0721154 1.6222571-.1442308v1.7307693c0 .4326923.2821316.7211538.7053291.7211538h3.7382445c.2115988 0 .3526646-.0721154.4937305-.2163462.1410658-.1442307.2115987-.2884615.2115987-.5048076v-8.5817308h13.5423197c.3526646 0 .7053292-.2884616.7053292-.7211539v-22.7884615c0-.2163462-.0705329-.3605769-.2115987-.5048077zm-40.48589346 31.8028846h-2.25705329v-2.9567307c.56426332.7211538 1.34012539 1.2259615 2.25705329 1.5865384zm3.10344827-2.3076923c-3.73824451 0-5.43103448-1.7307692-5.43103448-5.5528846v-4.4711538-.4326924l2.25705329-4.1105769h-2.46865204c-.21159874 0-.35266457-.1442307-.35266457-.3605769s.14106583-.3605769.35266457-.3605769h2.53918496l.14106583-.5048077c.35266457-1.0817308.70532915-2.0913462 1.05799373-3.0288462.63479624-1.6586538 1.34012539-2.6682692 1.69278997-3.0288461.84639498-.0721154 3.66771163-.4326923 8.39341693-.4326923h.1410658c4.7257054 0 7.547022.2884615 8.393417.4326923.2821316.3605769.9874608 1.4423077 1.6927899 3.0288461.3526646.8653846.7053292 1.875 1.0579938 3.0288462l.1410658.5048077h2.468652c.2115988 0 .3526646.1442307.3526646.3605769s-.1410658.3605769-.3526646.3605769h-2.468652l2.3275862 4.1105769v.5769231 4.3269231c0 3.8942308-1.6222571 5.5528846-5.3605016 5.5528846zm21.93573669 2.3076923h-2.3275862v-1.2980769c.9874608-.3605769 1.7633229-.8653846 2.3275862-1.6586538zm.1410658-15.4326923c.9874608 0 1.7633229-.7932692 1.7633229-1.8028846 0-.7211538-.4231975-1.2980769-.9874608-1.5865385v-2.7403846h5.783699v12.3317308h-5.2899686v-3.8942308zm14.1065831 6.2019231h-6.2774295v-13.6298077h-8.1818182v3.8221154h-1.0579937c-.2821316-.9375-.6347962-1.8028846-.9169279-2.5961539-.9169279-2.451923-2.0454545-3.6057692-2.1159874-3.6778846l-.1410659-.2163461-.2115987-.0721154c-.1410659.0721154-.846395-.0721154-2.2570533-.2163462v-5.264423l10.5094044-10.74519235 10.6504702 10.81730765zm-37.24137932-5.7692308c-1.26959247 0-2.25705329 1.0096154-2.25705329 2.3076923 0 1.298077.98746082 2.3076923 2.25705329 2.3076923 1.26959248 0 2.25705329-1.0096153 2.25705329-2.3076923 0-1.2980769-.98746081-2.3076923-2.25705329-2.3076923zm0 3.6778846c-.70532915 0-1.26959247-.576923-1.26959247-1.2980769 0-.7211538.56426332-1.2980769 1.26959247-1.2980769.70532916 0 1.26959248.5769231 1.26959248 1.2980769 0 .7211539-.56426332 1.2980769-1.26959248 1.2980769zm18.90282132-3.6778846c-1.2695925 0-2.2570533 1.0096154-2.2570533 2.3076923 0 1.298077.9874608 2.3076923 2.2570533 2.3076923s2.2570533-1.0096153 2.2570533-2.3076923c0-1.2980769-.9874608-2.3076923-2.2570533-2.3076923zm0 3.6778846c-.7053292 0-1.2695925-.576923-1.2695925-1.2980769 0-.7211538.5642633-1.2980769 1.2695925-1.2980769s1.2695925.5769231 1.2695925 1.2980769c0 .7211539-.5642633 1.2980769-1.2695925 1.2980769z" fill="#323232"/></svg>