<svg height="45" viewBox="0 0 45 45" width="45" xmlns="http://www.w3.org/2000/svg"><path d="m32.2734375 30.0576208-3.65625.9888476-4.2890625-2.472119 4.2890625-2.4721189 3.65625.9888476h.2109375c.28125 0 .5625-.2118959.703125-.4944238.0703125-.3531599-.140625-.7769517-.4921875-.8475837l-3.234375-.8475836.84375-3.2490706c.0703125-.3531599-.140625-.7769517-.4921875-.8475837s-.7734375.141264-.84375.4944238l-.984375 3.6728625-4.2890625 2.4721189v-4.9442379l2.671875-2.6840149c.28125-.2825279.28125-.7063197 0-.9888476-.28125-.2825278-.703125-.2825278-.984375 0l-2.390625 2.2602231-2.390625-2.401487c-.28125-.2825279-.703125-.2825279-.984375 0s-.28125.7063197 0 .9888476l2.671875 2.6840149v4.9442379l-4.2890625-2.472119-.984375-3.6728624c-.0703125-.3531599-.4921875-.6356878-.84375-.4944238-.3515625.0706319-.6328125.4944238-.4921875.8475836l.84375 3.2490706-3.234375.8475837c-.3515625.070632-.6328125.4944238-.4921875.8475836.0703125.2825279.3515625.4944238.703125.4944238h.2109375l3.65625-.9888476 4.2890625 2.472119-4.2890625 2.472119-3.65625-.9888476c-.3515625-.070632-.7734375.1412639-.84375.4944238-.0703125.3531598.140625.7769516.4921875.8475836l3.234375.8475837-.84375 3.2490706c-.0703125.3531598.140625.7769517.4921875.8475836h.2109375c.28125 0 .5625-.2118959.703125-.4944238l.984375-3.6728624 4.2890625-2.472119v4.9442379l-2.671875 2.6840149c-.28125.2825279-.28125.7063197 0 .9888476s.703125.2825279.984375 0l2.390625-2.401487 2.390625 2.401487c.140625.1412639.3515625.2118959.4921875.2118959s.3515625-.070632.4921875-.2118959c.28125-.2825279.28125-.7063197 0-.9888476l-2.671875-2.6840149v-4.9442379l4.2890625 2.472119.984375 3.6728624c.0703125.2825279.3515625.4944238.703125.4944238h.2109375c.3515625-.0706319.5625-.4944238.4921875-.8475836l-.84375-3.2490706 3.234375-.8475837c.3515625-.070632.6328125-.4944238.4921875-.8475836-.3515625-.2118959-.703125-.4944238-1.125-.3531599zm12.7265625 10.5947956-7.734375-26.8401487c-.0703125-.211896-.2109375-.3531599-.3515625-.4237919-.2109375-.0706319-.3515625-.0706319-.5625 0l-5.765625 2.3308551-6.8203125-11.86617105c-.140625-.21189591-.3515625-.35315985-.6328125-.35315985s-.4921875.14126394-.6328125.35315985l-9.84375 15.89219335-5.34375-1.9070632c-.2109375-.070632-.3515625-.070632-.5625.0706319-.2109375.141264-.28125.2118959-.3515625.4237919l-6.3984375 22.3197026c0 .2118959 0 .4237918.140625.5650557.140625.2118959.3515625.2825279.5625.2825279h43.59375c.2109375 0 .421875-.070632.5625-.2825279.140625-.1412639.140625-.3531598.140625-.5650557zm-43.3828125-.5650558 5.9765625-20.6951673 5.1328125 1.8364312c.28125.141264.6328125 0 .84375-.2825278l9.5625-15.39776956 6.5390625 11.37174716c.140625.2825279.5625.4237919.84375.2825279l5.625-2.260223 7.2421875 25.1449814z" fill="#323232"/></svg>