<svg height="45" viewBox="0 0 45 45" width="45" xmlns="http://www.w3.org/2000/svg"><path d="m22.01 35.5078125-16.45-16.5234375c-.28-.28125-.28-.703125 0-.984375s.7-.28125.98 0l15.26 15.328125v-32.625c0-.421875.28-.703125.7-.703125s.7.28125.7.703125v32.625l15.26-15.328125c.28-.28125.7-.28125.98 0s.28.703125 0 .984375l-16.45 16.5234375c-.14.140625-.35.2109375-.49.2109375s-.35-.0703125-.49-.2109375zm20.79-4.9921875c.42 0 .7.28125.7.703125v6.5390625c0 4.0078125-3.22 7.2421875-7.21 7.2421875h-27.58c-3.99 0-7.21-3.234375-7.21-7.2421875v-6.5390625c0-.421875.28-.703125.7-.703125s.7.28125.7.703125v6.5390625c0 3.234375 2.59 5.8359375 5.81 5.8359375h27.58c3.22 0 5.81-2.6015625 5.81-5.8359375v-6.5390625c0-.421875.28-.703125.7-.703125z" fill="#323232"/></svg>