<svg height="45" viewBox="0 0 45 45" width="45" xmlns="http://www.w3.org/2000/svg"><path d="m13.4722222 6.328125v31.640625h18.0555556v-31.640625zm16.6666667 30.234375h-15.2777778v-28.828125h15.2777778zm-.6944445-36.5625h-13.8888888c-3.0555556 0-5.5555556 2.53125-5.5555556 5.625v33.75c0 3.09375 2.5 5.625 5.5555556 5.625h13.8888888c3.0555556 0 5.5555556-2.53125 5.5555556-5.625v-33.75c0-3.09375-2.5-5.625-5.5555556-5.625zm4.1666667 39.375c0 2.3203125-1.875 4.21875-4.1666667 4.21875h-13.8888888c-2.2916667 0-4.1666667-1.8984375-4.1666667-4.21875v-33.75c0-2.3203125 1.875-4.21875 4.1666667-4.21875h13.8888888c2.2916667 0 4.1666667 1.8984375 4.1666667 4.21875zm-15.2361111-21.6477273c.7593915 0 1.375-.6105208 1.375-1.3636363 0-.7531156-.6156085-1.3636364-1.375-1.3636364s-1.375.6105208-1.375 1.3636364c0 .7531155.6156085 1.3636363 1.375 1.3636363zm4.125 0c.7593915 0 1.375-.6105208 1.375-1.3636363 0-.7531156-.6156085-1.3636364-1.375-1.3636364s-1.375.6105208-1.375 1.3636364c0 .7531155.6156085 1.3636363 1.375 1.3636363zm4.125 0c.7593915 0 1.375-.6105208 1.375-1.3636363 0-.7531156-.6156085-1.3636364-1.375-1.3636364s-1.375.6105208-1.375 1.3636364c0 .7531155.6156085 1.3636363 1.375 1.3636363zm-8.25 4.0909091c.7593915 0 1.375-.6105208 1.375-1.3636363 0-.7531156-.6156085-1.3636364-1.375-1.3636364s-1.375.6105208-1.375 1.3636364c0 .7531155.6156085 1.3636363 1.375 1.3636363zm4.125 0c.7593915 0 1.375-.6105208 1.375-1.3636363 0-.7531156-.6156085-1.3636364-1.375-1.3636364s-1.375.6105208-1.375 1.3636364c0 .7531155.6156085 1.3636363 1.375 1.3636363zm4.125 0c.7593915 0 1.375-.6105208 1.375-1.3636363 0-.7531156-.6156085-1.3636364-1.375-1.3636364s-1.375.6105208-1.375 1.3636364c0 .7531155.6156085 1.3636363 1.375 1.3636363zm-8.25 4.0909091c.7593915 0 1.375-.6105208 1.375-1.3636364 0-.7531155-.6156085-1.3636363-1.375-1.3636363s-1.375.6105208-1.375 1.3636363c0 .7531156.6156085 1.3636364 1.375 1.3636364zm4.125 0c.7593915 0 1.375-.6105208 1.375-1.3636364 0-.7531155-.6156085-1.3636363-1.375-1.3636363s-1.375.6105208-1.375 1.3636363c0 .7531156.6156085 1.3636364 1.375 1.3636364zm4.125 0c.7593915 0 1.375-.6105208 1.375-1.3636364 0-.7531155-.6156085-1.3636363-1.375-1.3636363s-1.375.6105208-1.375 1.3636363c0 .7531156.6156085 1.3636364 1.375 1.3636364zm-4.125 4.0909091c.7593915 0 1.375-.6105208 1.375-1.3636364 0-.7531155-.6156085-1.3636363-1.375-1.3636363s-1.375.6105208-1.375 1.3636363c0 .7531156.6156085 1.3636364 1.375 1.3636364z" fill="#323232" fill-rule="evenodd"/></svg>