<svg height="30" viewBox="0 0 30 30" width="30" xmlns="http://www.w3.org/2000/svg"><path d="m22.125 15.1860465v-3.6418605h5.25c.375 0 .625-.2511627.625-.6279069v-8.28837212c0-.37674419-.25-.62790698-.625-.62790698h-11.75c-.375 0-.625.25116279-.625.62790698v8.28837212c0 .3767442.25.6279069.625.6279069h5.25v3.6418605h-20.875v2.5116279h2.75v11.3023256h2.25v-11.3023256h20v11.3023256h2.25v-11.3023256h2.75v-2.5116279zm-5.875-4.8976744v-7.03255815h10.5v7.03255815zm-12-.37674419s0 .12558139-.125.12558139l-.875 3.3906977c-.125.3767442.125.627907.5.7534883h.125c.25 0 .5-.2511627.625-.5023255l.5-1.6325582.625 1.7581396c.125.2511628.375.3767441.625.3767441h5.625c.25 0 .375-.1255813.5-.2511627s.125-.3767442.125-.627907l-2.5-7.15813955c-.125-.25116279-.375-.37674419-.625-.37674419h-5.625c-.25 0-.375.1255814-.5.25116279-.125.1255814-.125.37674419-.125.62790698zm4.625-2.8883721 2 6.02790699h-4.125l-2.125-6.02790699z" fill="#323232"/></svg>