<svg height="30" viewBox="0 0 30 30" width="30" xmlns="http://www.w3.org/2000/svg"><path d="m25.6431535 21.5c-1.3692946 0-2.6141079.75-3.4854772 1.75l-13.94190867-7c.12448133-.375.24896266-.875.24896266-1.25 0-.5-.12448133-.875-.24896266-1.25l14.06639007-7c.7468879 1.125 1.9917012 1.75 3.4854772 1.75 2.3651452 0 4.2323651-1.875 4.2323651-4.25s-1.9917012-4.25-4.3568465-4.25c-2.3651452 0-4.2323651 1.875-4.2323651 4.25 0 .5.1244813.875.2489626 1.25l-14.06639 7.125c-.74688797-1.125-1.99170125-1.875-3.36099585-1.875-2.36514523 0-4.23236515 1.875-4.23236515 4.25s1.86721992 4.25 4.23236515 4.25c1.3692946 0 2.61410788-.75 3.48547717-1.75l14.06639008 7c-.1244814.375-.2489627.875-.2489627 1.25 0 2.375 1.8672199 4.25 4.2323652 4.25 2.3651452 0 4.2323651-1.875 4.2323651-4.25s-1.9917012-4.25-4.3568465-4.25zm0-20.25c1.6182573 0 2.9875519 1.375 2.9875519 3s-1.3692946 3-2.9875519 3c-1.6182572 0-2.9875518-1.375-2.9875518-3s1.3692946-3 2.9875518-3zm-21.41078835 16.75c-1.61825727 0-2.98755187-1.375-2.98755187-3s1.3692946-3 2.98755187-3c1.61825726 0 2.98755186 1.375 2.98755186 3s-1.3692946 3-2.98755186 3zm21.41078835 10.75c-1.6182572 0-2.9875518-1.375-2.9875518-3s1.3692946-3 2.9875518-3c1.6182573 0 2.9875519 1.375 2.9875519 3s-1.3692946 3-2.9875519 3z" fill="#323232"/></svg>