<svg height="30" viewBox="0 0 30 30" width="30" xmlns="http://www.w3.org/2000/svg"><path d="m22.875 4.5-6.875 6.9578313v5.186747h-2v-5.186747l-7-6.9578313-7 6.9578313v14.0421687h14v-7.4638554h2v7.4638554h14v-14.0421687zm-10.125 19.7349398h-11.5v-12.1445784l5.75-5.81927706 5.875 5.81927706v4.6807229h-6.25c-.375 0-.625.2530121-.625.6325302 0 .379518.25.6325301.625.6325301h6.25v6.1987952zm16 0h-11.5v-6.1987952h6.5l-3.125 3.1626506c-.25.253012-.25.6325301 0 .8855421.125.1265061.25.1265061.5.1265061s.375 0 .5-.1265061l4.125-4.1746987c.25-.2530121.25-.6325302 0-.8855422l-4.125-4.3012048c-.25-.2530121-.625-.2530121-.875 0-.25.253012-.25.6325301 0 .8855421l3.125 3.1626506h-6.625v-4.6807229l5.75-5.81927706 5.75 5.81927706z" fill="#323232"/></svg>