<?xml version="1.0" encoding="UTF-8"?>
<svg width="30px" height="30px" viewBox="0 0 30 30" version="1.1" xmlns="http://www.w3.org/2000/svg" xmlns:xlink="http://www.w3.org/1999/xlink">
    <!-- Generator: Sketch 57.1 (83088) - https://sketch.com -->
    <title>icon_product_cat</title>
    <desc>Created with Sketch.</desc>
    <g id="icon_product_cat" stroke="none" stroke-width="1" fill="none" fill-rule="evenodd">
        <path d="M15.1135014,17.1298636 C15.8580244,17.1298636 16.8860723,17.1696771 17.2161297,17.5147279 C17.2907985,17.5932491 17.3243453,17.6861473 17.322181,17.8066939 C17.3146059,18.16391 16.8243894,18.7401005 16.1025916,19.2410877 C16.0051976,19.3085495 15.9619114,19.4346258 15.9965404,19.5507486 C16.27249,20.4764137 16.8319645,21.072511 17.6132808,21.2737907 C17.8448621,21.3324051 18.0699505,21.3633711 18.2842173,21.3633711 C19.4702598,21.3622652 20.0362272,20.4907908 20.1238818,20.0672189 C20.1779896,19.8139605 20.4041601,19.6359054 20.674699,19.6359054 C20.7288068,19.6359054 20.7839967,19.6436469 20.8381045,19.658024 C21.1779014,19.7476045 21.3997433,20.0827019 21.3326496,20.4056341 C21.1108077,21.4507398 20.0113376,22.5633073 18.4097473,22.5633073 L18.2766422,22.5610955 C17.989871,22.5500362 17.6944425,22.5057989 17.3979319,22.4294896 C16.3882807,22.1695956 15.625361,21.5414262 15.1264873,20.5604645 C15.0799546,20.4686722 14.9868892,20.4111637 14.8862487,20.4111637 C14.8808379,20.4111637 14.8754272,20.4111637 14.8689342,20.4122697 C14.7618008,20.4189052 14.6687354,20.4907908 14.6319422,20.5936425 C14.3170349,21.479494 13.6547557,22.6119683 12.2836645,22.9791378 C12.0109613,23.0521293 11.7382581,23.0930487 11.4742121,23.1030021 L11.3822289,23.1041081 C9.71679144,23.1041081 8.86513499,21.7681422 8.71904398,20.9254221 C8.66168973,20.6002781 8.87379223,20.2563332 9.18220658,20.1744943 C9.23090358,20.1601172 9.27851842,20.1534816 9.32396896,20.1534816 C9.56204319,20.1534816 9.75899551,20.3293248 9.80228173,20.5814772 C9.873704,20.9950958 10.4050424,21.9008541 11.5196627,21.9008541 C11.7155328,21.9008541 11.9211424,21.8732058 12.1321627,21.8168033 C13.0162839,21.5790279 13.6093051,20.765062 13.8040931,19.5208885 C13.8203255,19.4158249 13.7759571,19.3107614 13.6904668,19.2510411 C13.0108731,18.7677488 12.5401354,18.1981938 12.5477105,17.8675202 C12.5574499,17.3676389 13.2781655,17.1464525 14.957671,17.1309695 L15.1135014,17.1298636 Z M8.64253558,12.3990184 C9.68898004,12.4100777 10.53739,13.2981411 10.5341528,14.3830603 C10.5308971,15.4657677 9.67815849,16.3361362 8.62954971,16.3250769 C7.58094094,16.3140176 6.73361311,15.4259542 6.73792522,14.3410349 C6.74227035,13.2572216 7.59392681,12.3879591 8.64253558,12.3990184 Z M21.9079235,12.3385239 C22.954368,12.3495832 23.802778,13.2376466 23.7984658,14.3225659 C23.7952029,15.4052733 22.9435464,16.2756417 21.8938555,16.2645824 C20.8463289,16.2535231 20.0000832,15.3643538 20.0033204,14.2816464 C20.0065761,13.1956212 20.8603969,12.3274646 21.9079235,12.3385239 Z M28.4335382,17.6565084 C27.0267359,27.3179301 19.3845531,28.7788662 14.9033468,28.7788662 L14.835171,28.7788662 C12.8396761,28.7755484 2.81134015,28.2192646 1.46297428,17.5691397 C0.401379639,9.19391694 2.73234279,3.86443078 3.78419803,1.96112186 C3.8653597,1.8140329 4.00820424,1.71339309 4.17160974,1.68685073 C4.33176876,1.66030836 4.50058504,1.71228716 4.62286862,1.82730409 C6.70277167,3.7925452 8.41474183,6.22670146 8.43097416,6.2488201 C8.51754661,6.37268448 8.6906915,6.41360397 8.83786467,6.33397686 C10.98919,5.1417822 17.1693806,4.10110022 21.2999685,6.37268448 C21.4406487,6.45120565 21.6148758,6.41028617 21.7122698,6.27425654 C21.7858564,6.17361673 23.5313733,3.79033333 25.6210158,1.8726473 C25.7432994,1.75984224 25.9045406,1.70786343 26.0711925,1.7377236 C26.2335159,1.7653719 26.3741961,1.86711764 26.4542756,2.01310066 C27.4660911,3.85558332 29.6845101,9.06784069 28.4335382,17.6565084 M26.8611661,0.397334051 C26.7183216,0.214855276 26.5105477,0.0965205549 26.2822129,0.0710841196 C26.0571245,0.0434358204 25.8266254,0.114215466 25.6469875,0.26241035 C23.7326543,1.83283375 21.9979589,3.94958754 21.2079853,4.96483309 C17.0882189,3.07811315 11.636319,3.82129943 8.96447687,4.93718479 C8.19939286,3.91972737 6.50581936,1.78527867 4.62178646,0.20047816 C4.44106648,0.0500714122 4.20732087,-0.0240260298 3.97790388,0.00694006538 C3.74524043,0.0345883646 3.53313793,0.157346813 3.38921124,0.348673044 C3.20416263,0.593084009 -1.13852777,6.48659548 0.286671146,17.7405592 C1.4283453,26.7605403 8.82920742,29.9832261 14.8167743,29.9999082 C18.729849,30.0119803 28.0017581,28.847434 29.607677,17.8235041 C31.2871825,6.27536247 27.0418861,0.630685696 26.8611661,0.397334051" fill="#323232"></path>
    </g>
</svg>