<svg height="30" viewBox="0 0 30 30" width="30" xmlns="http://www.w3.org/2000/svg"><path d="m29.8755187 7.70382166-7.219917-7.01910828c-.2489627-.2462845-.6224067-.2462845-.8713693 0l-7.0954357 7.01910828c-.1244813.12314225-.1244813.2462845-.1244813.492569v3.57112524.1231423c-.9958507-.1231423-2.2406639-.1231423-4.1078839-.1231423h-.1244813c-3.73443983 0-5.60165974.2462845-5.72614107.2462845h-.24896266l-.12448132.2462845s-.74688797.8619958-1.36929461 2.3397028c-.24896266.492569-.37344398.985138-.62240664 1.477707h-.87136929c-.74688797 0-1.36929461.6157112-1.36929461 1.3545647 0 .6157113.49792531 1.2314226 1.12033195 1.2314226l-.74688797 1.2314225v.6157112 2.8322718 5.418259c0 .3694267.24896266.6157112.62240664.6157112h2.36514523c.37344398 0 .62240664-.2462845.62240664-.6157112v-.8619958c.24896266 0 .62240664.1231423.99585062.1231423h10.70539419.8713693v.8619957c0 .3694268.2489627.6157113.6224066.6157113h2.4896266c.1244813 0 .373444-.1231423.4979253-.1231423s.1244813-.2462845.1244813-.492569v-5.2951167-.492569h9.087137c.3734439 0 .6224066-.2462845.6224066-.6157113v-14.28450104c0-.12314225 0-.36942675-.1244813-.492569zm-27.01244816 20.31847134h-1.12033195v-1.2314225c.37344398.2462845.74688797.492569 1.12033195.7388535zm2.2406639-1.477707c-2.36514523 0-3.36099585-.985138-3.36099585-3.3248408v-2.8322717-.2462845l1.49377593-2.7091296h-1.86721991v-.1231422h1.74273859l.12448132-.3694268c.12448133-.492569.37344399-1.2314225.62240664-1.8471337.37344399-.985138.74688797-1.6008493.99585062-1.8471338.62240664-.1231422 2.36514523-.2462845 5.35269712-.2462845h.1244813c2.9875519 0 4.7302905.1231423 5.3526971.2462845.2489627.2462845.6224066.8619958.9958506 1.8471338.2489627.6157112.4979253 1.3545647.6224067 1.8471337l.1244813.3694268h1.7427386v.1231422h-1.8672199l1.6182572 2.7091296v.3694267 2.7091295c0 2.3397028-.9958506 3.3248408-3.2365145 3.3248408zm19.04564316-5.0488323h-3.4854772v-7.7579618h3.4854772zm-6.2240664 6.5265393v-.492569c.4979253-.1231423.8713693-.3694268 1.2448133-.7388535v1.2314225zm10.8298755-6.5265393h-3.3609958v-8.9893843h-5.9751038v3.5711253s0 0-.1244813 0h-.8713693c-.1244813-.492569-.373444-.985138-.6224066-1.477707-.6224067-1.6008493-1.3692946-2.3397028-1.3692946-2.3397028l-.1244814-.1231422h-.2489626s-.2489627 0-.4979253 0c0-.1231423 0-.1231423 0-.2462845v-3.44798304l6.473029-6.40339703 6.7219917 6.40339703zm-24.2150761.2394432c-.71995623 0-1.30359608-.5773615-1.30359608-1.289573s.58363985-1.2895729 1.30359608-1.2895729c.71995624 0 1.30359608.5773614 1.30359608 1.2895729s-.58363984 1.289573-1.30359608 1.289573zm11.7219917.0044476c-.7199562 0-1.3035961-.5773615-1.3035961-1.2895729 0-.7122115.5836399-1.289573 1.3035961-1.289573s1.3035961.5773615 1.3035961 1.289573c0 .7122114-.5836399 1.2895729-1.3035961 1.2895729z" fill="#323232"/></svg>