<svg height="30" viewBox="0 0 30 30" width="30" xmlns="http://www.w3.org/2000/svg"><path d="m15.1210497 0c-5.0672498 0-9.1210497 3.96694215-9.1210497 8.92561983 0 4.95867767 4.0537999 8.92561987 9.1210497 8.92561987 1.01345 0 2.0269-.2479339 2.7869875-.4958678l-5.8273374 10.661157c-.2533625.4958678 0 1.2396694.506725 1.7355372.2533625 0 .506725.2479339.506725.2479339.506725 0 1.01345-.2479339 1.01345-.7438017l9.1210497-16.6115702v-.2479339c.506725-.9917355.7600875-2.2314049.7600875-3.47107437.2533625-4.95867768-3.8004374-8.92561983-8.8676873-8.92561983zm-6.84078726 8.92561983c0-3.71900826 3.04034996-6.44628099 6.58742486-6.44628099 3.8004373 0 6.5874248 2.97520661 6.5874248 6.44628099 0 3.47107437-3.0403499 6.44628097-6.5874248 6.44628097-3.5470749.2479339-6.58742486-2.7272727-6.58742486-6.44628097z" fill="#323232"/></svg>