<svg height="45" viewBox="0 0 45 45" width="45" xmlns="http://www.w3.org/2000/svg"><path d="m22.4997741 25.6204125-18.73148532 18.7323744c-.43145492.4314754-.99533659.6472131-1.56135417.6472131-.56601759 0-1.12989926-.2157377-1.56135418-.6472131-.86077391-.8608148-.86077391-2.2599058 0-3.1207205l18.73247107-18.7333603-18.73033515-18.73023845c-.86077391-.86295079-.86077391-2.25990578 0-3.12285657.86290983-.86081477 2.25979851-.86081477 3.12270834 0l18.72934941 18.73122422 18.7303352-18.73122422c.858638-.86081477 2.2619344-.86081477 3.1205724 0 .8629098.86295079.8629098 2.25990578 0 3.12285657l-18.7293494 18.73023835 18.7314853 18.7333604c.8629099.8608147.8629099 2.2599057 0 3.1207205-.4314549.4314754-.9953366.6472131-1.5613541.6472131-.5660176 0-1.1298993-.2157377-1.5592183-.6472131z" fill="#323232"/></svg>