<svg height="30" viewBox="0 0 30 30" width="30" xmlns="http://www.w3.org/2000/svg"><path d="m24 7.75v-7.125c0-.375-.2571429-.625-.6428571-.625h-16.71428576c-.38571428 0-.64285714.25-.64285714.625v7.25c0 .125 0 .25.12857143.375l6.04285717 6.75-6.04285717 6.75c-.12857143.125-.12857143.25-.12857143.5v7.25c0 .25.25714286.5.64285714.5h16.71428576c.3857142 0 .6428571-.25.6428571-.625v-7.25c0-.125 0-.25-.1285714-.375l-6.0428572-6.75 6.0428572-6.75c.1285714-.125.1285714-.25.1285714-.5zm-1.2857143-.125-6.3 7c-.2571428.25-.2571428.625 0 .875l6.3 7v6.25h-15.42857141v-6.375l6.30000001-7c.2571428-.25.2571428-.625 0-.875l-6.30000001-6.875v-6.375h15.42857141zm-11.3142857 19.125c.4970563 0 .9-.3917508.9-.875s-.4029437-.875-.9-.875-.9.3917508-.9.875.4029437.875.9.875zm3.6 0c.4970563 0 .9-.3917508.9-.875s-.4029437-.875-.9-.875-.9.3917508-.9.875.4029437.875.9.875zm0-3.25c.4970563 0 .9-.3917508.9-.875s-.4029437-.875-.9-.875-.9.3917508-.9.875.4029437.875.9.875zm3.6 3.25c.4970563 0 .9-.3917508.9-.875s-.4029437-.875-.9-.875-.9.3917508-.9.875.4029437.875.9.875zm-7.2-3.25c.4970563 0 .9-.3917508.9-.875s-.4029437-.875-.9-.875-.9.3917508-.9.875.4029437.875.9.875zm3.6-3.125c.4970563 0 .9-.3917508.9-.875s-.4029437-.875-.9-.875-.9.3917508-.9.875.4029437.875.9.875zm0-8.125c.4970563 0 .9-.3917508.9-.875s-.4029437-.875-.9-.875-.9.3917508-.9.875.4029437.875.9.875zm3.6 11.25c.4970563 0 .9-.3917508.9-.875s-.4029437-.875-.9-.875-.9.3917508-.9.875.4029437.875.9.875z" fill="#323232" fill-rule="evenodd"/></svg>