<svg height="30" viewBox="0 0 30 30" width="30" xmlns="http://www.w3.org/2000/svg"><path d="m24.6204819.375c-.379518-.375-.8855421-.375-1.0120482-.375-2.0240964.25-5.186747 3.75-5.186747 7.375v6.5c0 1.125.5060241 2.125 1.3915663 2.875l-.3795181 10.625c0 1.5 1.2650603 2.625 2.7831326 2.625s2.7831325-1.125 2.7831325-2.625v-26.125c0-.5-.253012-.75-.3795181-.875zm-.8855421 27c0 .75-.6325302 1.375-1.5180723 1.375-.8855422 0-1.5180723-.625-1.5180723-1.375l.3795181-11.375-.2530121-.25c-.6325301-.5-1.1385542-1.25-1.1385542-2v-6.375c0-3.125 2.9096385-6 4.0481928-6.125zm-9.7409639-19h-.126506v-8.375h1.2650602v8.375c0 1.875-1.3915662 3.875-3.1626506 4.625l.3795181 14.125c0 1.5-1.2650603 2.875-2.78313254 2.875-1.51807229 0-2.78313253-1.375-2.78313253-2.875l.37951807-14.25c-1.77108433-.75-3.1626506-2.75-3.1626506-4.625v-8.25h1.26506024v8.375c0 1.5 1.26506024 3.125 2.78313253 3.5l.37951807.125-.37951807 15.125c0 .875.75903615 1.625 1.51807229 1.625s1.51807224-.75 1.51807224-1.625l-.379518-15.125h.5060241c1.5180723-.375 2.7831325-2.125 2.7831325-3.625zm-6.70481927-8.375h1.26506024v7.5h-1.26506024zm3.41566267 0h1.2650602v7.5h-1.2650602z" fill="#323232"/></svg>