<?xml version="1.0" encoding="UTF-8"?>
<svg width="45px" height="45px" viewBox="0 0 45 45" version="1.1" xmlns="http://www.w3.org/2000/svg" xmlns:xlink="http://www.w3.org/1999/xlink">
    <!-- Generator: Sketch 49.3 (51167) - http://www.bohemiancoding.com/sketch -->
    <title>global/default/social/iconTwitter</title>
    <desc>Created with Sketch.</desc>
    <defs></defs>
    <g id="global/default/social/iconTwitter" stroke="none" stroke-width="1" fill="none" fill-rule="evenodd">
        <path d="M40.42062,15.1423973 C40.42062,14.7488704 40.41252,14.3571154 40.39416,13.9674866 C42.19668,12.6848478 43.76376,11.0843398 45,9.26199687 C43.34562,9.98526415 41.56542,10.472876 39.69792,10.6925848 C41.60412,9.56781738 43.06752,7.78746715 43.75764,5.66550512 C41.97348,6.70646428 39.99834,7.46357381 37.8954,7.87127543 C36.21078,6.10492278 33.81138,5 31.15638,5 C26.05734,5 21.92256,9.07010602 21.92256,14.0874406 C21.92256,14.8007855 22.00374,15.4941086 22.16196,16.1596137 C14.4891,15.7799073 7.6851,12.1633937 3.132,6.66447155 C2.33838,8.00717597 1.88172,9.56781738 1.88172,11.2321117 C1.88172,14.3852878 3.51162,17.1686797 5.99004,18.7970056 C4.47588,18.7511148 3.05298,18.3414641 1.80864,17.6600124 C1.80648,17.6979299 1.80648,17.7360246 1.80648,17.7758911 C1.80648,22.1778637 4.98942,25.8523167 9.21348,26.6856156 C8.43822,26.8932758 7.6221,27.0052565 6.7797,27.0052565 C6.18498,27.0052565 5.60646,26.9473171 5.04414,26.8413608 C6.21954,30.4520273 9.62766,33.0794968 13.66902,33.1535599 C10.50858,35.5910876 6.52806,37.0436465 2.20248,37.0436465 C1.45746,37.0436465 0.7227,37.0018309 0,36.9178454 C4.08618,39.4953489 8.93754,41 14.15214,41 C31.13406,41 40.42062,27.1510793 40.42062,15.1423973 Z" id="Twitter_Logo_Blue" fill="#1DA1F2"></path>
    </g>
</svg>