<svg height="30" viewBox="0 0 30 30" width="30" xmlns="http://www.w3.org/2000/svg"><path d="m26.25 3h-22.5c-2.125 0-3.75 1.64210526-3.75 3.78947368v16.42105262c0 2.0210526 1.625 3.7894737 3.75 3.7894737h22.5c2.125 0 3.75-1.7684211 3.75-3.7894737v-16.42105262c0-2.14736842-1.625-3.78947368-3.75-3.78947368zm2.5 20.2105263c0 1.3894737-1.125 2.5263158-2.5 2.5263158h-22.5c-1.375 0-2.5-1.1368421-2.5-2.5263158v-16.42105262c0-1.38947368 1.125-2.52631579 2.5-2.52631579h22.5c1.375 0 2.5 1.13684211 2.5 2.52631579zm-13.25-9.0947368v-4.29473687c.625.12631579 1.625.37894737 2.375 1.13684207.25.2526316.625.2526316.875 0 .25-.2526315.25-.6315789 0-.8842105-1.125-1.01052631-2.375-1.38947367-3.25-1.51578946v-1.76842106c0-.37894736-.25-.63157894-.625-.63157894s-.625.25263158-.625.63157894v1.76842106c-1.875.12631579-3.5 1.51578946-3.5 3.41052636 0 1.768421 1.5 3.2842105 3.375 3.4105263v4.6736842c-.75-.1263158-1.75-.3789474-2.625-1.2631579-.25-.2526316-.625-.2526316-.875 0s-.25.6315789 0 .8842105c1.125 1.1368421 2.5 1.5157895 3.375 1.6421053v2.0210526c0 .3789474.25.631579.625.631579s.625-.2526316.625-.631579v-2.0210526c2.125 0 3.75-1.6421053 3.75-3.6631579.25-1.8947369-1.375-3.5368421-3.5-3.5368421zm-3.5-2.1473684c0-1.1368422.875-2.02105268 2.125-2.14736847v4.29473687c-1.125-.1263158-2.125-1.1368421-2.125-2.1473684zm3.5 8.0842105v-4.6736842c1.375 0 2.5 1.1368421 2.5 2.4 0 1.1368421-1.125 2.1473684-2.5 2.2736842z" fill="#323232"/></svg>