<svg height="45" viewBox="0 0 45 45" width="45" xmlns="http://www.w3.org/2000/svg"><path d="m35.2636365 20.4007619-11.9757515-11.45571466v-7.736426c0-.42178777-.3527452-.76371431-.7878784-.76371431s-.7878784.34192654-.7878784.76371431v7.57604599l-11.98363028 11.61609467c-.14748021.1441273-.22969551.3392397-.22848473.5422372v23.2932866c0 .4217878.35274517.7637143.78787841.7637143h24.42423c.4351332 0 .7878784-.3419265.7878784-.7637143v-23.2932866c-.0008741-.2040995-.0859925-.399368-.2363635-.5422372zm-15.2139317 23.0718095v-5.2849031h4.9006036v5.2696288zm13.8745384 0h-7.398178v-6.8123317h-8.0521172v6.7970574h-7.398178v-22.193538l11.3454488-10.9974861 11.5030244 10.9974861zm-9.2260559-35.33706133c.1622392-.00109045.3217716-.04040559.4648482-.11455715.1339394-.06873429.2127272-.12219429.2993938-.17565429.2553802-.18620626.563131-.29274632.8824238-.30548573.2727986.00132706.5418937.06132072.7878784.17565429.3635908.19851904.704305.43405651 1.0163631.70261717.2068324.16317432.4313895.30401962.6696967.42004288.2891606.13869504.6070785.21181951.9296965.21384.7400606-.01068466 1.4718002-.15306186 2.1587867-.42004287.3216031-.1173108.6325754-.2603646.9296965-.42768002.2338547-.13799668.3770396-.38377679.3781817-.64915716v-5.7889545c.0020405-.26917105-.1422539-.51950617-.3798033-.65891759s-.5332697-.14730923-.778378-.02078815c-.6882133.30019698-1.4356671.45135781-2.1903019.4429543-.1808201-.00437747-.3573361-.05439198-.5121209-.14510572-.2993938-.15274286-.6696967-.46586573-1.1581813-.76371431-.5919359-.39991983-1.2954453-.61568768-2.0169686-.6186086-.6979685-.02620106-1.379026.21211743-1.8987869.66443146-.2391764.20924809-.4229289.47118465-.5357574.76371431-.0126959.07843737-.0126959.15831407 0 .23675144v5.49874306c-.00212.25583699.1017896.50179249.2884236.6827024.1866339.1809099.4403715.28163265.7043032.27957763zm1.4812114-6.60612882c.2725153-.0039872.542251.05353465.7878784.16801715.403241.2215036.7855314.47706615 1.1424236.76371431.246066.1674022.5102587.30825167.7878784.42004288.300475.11724069.621552.17689303.9454541.17565429h.0393939c.5824425-.00360015 1.1621189-.07800672 1.7254537-.22147715v4.24625158c-.591806.27312608-1.2357411.42397097-1.8909082.44295431-.1271619-.00394125-.2503762-.04375303-.3545452-.11455715-.2363636-.13746858-.5672725-.4429543-1.0399995-.76371432-.5695658-.39352984-1.2469088-.6141583-1.9460596-.63388288-.3826261-.00409499-.7624811.06332282-1.1187873.19856573v-4.34553445c.0353321-.04895055.0777932-.09268179.1260605-.12983143.2311588-.15901199.5135771-.23219445.7957572-.20620287z" fill="#323232"/></svg>