<svg height="11" viewBox="0 0 11 11" width="11" xmlns="http://www.w3.org/2000/svg"><path d="m9 3.37333333c0-1.90666666-1.52173913-3.37333333-3.5-3.37333333s-3.5 1.46666667-3.5 3.37333333c0 1.90666667 1.52173913 3.37333334 3.5 3.37333334h.45652174l-1.67391304 3.08c-.15217392.29333333 0 .73333333.30434782 1.02666663.15217391 0 .30434783.1466667.30434783.1466667.30434782 0 .45652174-.1466667.60869565-.44l3.19565217-5.72c.15217392-.58666667.30434783-1.02666667.30434783-1.46666667zm-5.63043478 0c0-1.02666666.91304348-1.90666666 1.97826087-1.90666666s1.97826087.88 1.97826087 1.90666666c0 1.02666667-.76086957 1.90666667-1.82608696 1.90666667s-2.13043478-.88-2.13043478-1.90666667z" fill="#323232"/></svg>