<svg height="30" viewBox="0 0 30 30" width="30" xmlns="http://www.w3.org/2000/svg"><path d="m27.3930352 13.5897436c-1.1367674-1.5384615-2.7787647-2.3076923-4.673377-2.3076923h-8.4626018l.8841524-4.35897438c.3789225-1.53846154 0-3.07692307-.7578449-4.35897436-.757845-1.28205128-2.1472273-2.17948717-3.6629172-2.56410256-.1263075 0-.3789225 0-.50523.12820513-.1263074.12820513-.1263074.12820513-.25261494.25641026l-1.51568986 7.05128205-2.52614978 4.74358976-3.91553216.8974359c-.25261498.1282051-.50522996.3846154-.50522996.6410256 0 .2564103.37892247 11.1538462.50522996 12.4358975 0 .3846153.25261497.6410256.63153744.6410256h4.79968458l3.03137972 3.0769231c.1263075.1282051.252615.1282051.50523.1282051h9.7256766c2.5261498 0 4.7996846-1.7948718 5.5575295-4.2307692l2.0209199-7.0512821c.5052299-1.6666666.1263075-3.5897436-.8841525-5.1282051zm-.3789224 4.8717949-2.0209198 7.051282c-.6315375 1.9230769-2.3998423 3.3333333-4.2944547 3.3333333h-9.4730616l-3.03137978-3.076923c-.12630749-.1282052-.25261498-.1282052-.50522996-.1282052h-4.42076211c-.12630749-3.2051282-.37892247-9.4871794-.37892247-11.2820512l3.66291718-.8974359c.12630749 0 .37892247-.1282052.37892247-.3846154l2.65245727-5.12820515v-.12820513l1.3893824-6.41025641c2.0209198.76923077 3.2839947 3.07692308 2.7787647 5.25641026l-1.1367674 5.12820513c0 .1282051 0 .3846154.1263075.5128205s.252615.2564103.50523.2564103h9.2204467c1.3893824 0 2.7787647.6410256 3.6629172 1.7948718 1.0104599 1.1538461 1.2630748 2.6923077.8841524 4.1025641z" fill="#323232"/></svg>