<svg height="30" viewBox="0 0 30 30" width="30" xmlns="http://www.w3.org/2000/svg"><path d="m29.75 15.2824427-3.875-3.1755725 1.25-.2442748c.375 0 .625-.3664122.5-.7328244-.125-.9770992-.75-1.83206108-1.5-2.4427481-.875-.61068702-1.875-.85496183-2.875-.73282443l-9 1.34351145-3.125-1.22137404 1.75-.85496183h1.25c.375 0 .625-.24427481.625-.61068703 0-.36641221-.25-.61068702-.625-.61068702h-1.375c-.125 0-.25 0-.25.1221374l-3.125 1.46564886c-.75.24427481-5.875 1.46564885-9.125 4.51908394-.125 0-.125.1221374-.25.2442748v.1221374.1221374.1221375c0 .1221374 2.625 9.2824427 15.125 9.2824427h14.25c.375 0 .625-.2442748.625-.610687v-5.740458c0-.1221374-.125-.2442748-.25-.3664123zm-6.375-5.98473278c.625-.1221374 1.375 0 1.875.48854962.375.24427486.625.61068706.875 1.09923666l-8.5 1.3435114c-1.25.2442748-2.375-.4885496-2.75-1.4656488zm-6 4.03053438h.625l6.375-.9770993 3.75 3.0534352c-3.625-.4885497-12.75-1.8320611-17.5-2.4427481-3.75-.4885497-6.5-.7328245-8.125-.8549619 2.625-2.0763358 6.25-3.05343509 7-3.29770989l4 1.70992369c.5 1.5877862 2.125 2.8091603 3.875 2.8091603zm-2.25 7.4503817c-9.625 0-12.75-5.4961833-13.625-7.5725191 1.5 0 4.5.2442748 8.75.8549618 5.25.7328244 16 2.3206107 18.5 2.6870229v4.1526718c-1.25 0-4.75 0-13.625-.1221374z" fill="#323232"/></svg>