<?xml version="1.0" encoding="UTF-8"?>
<svg width="45px" height="45px" viewBox="0 0 45 45" version="1.1" xmlns="http://www.w3.org/2000/svg" xmlns:xlink="http://www.w3.org/1999/xlink">
    <!-- Generator: Sketch 50.2 (55047) - http://www.bohemiancoding.com/sketch -->
    <title>nav/iconNavAuto</title>
    <desc>Created with Sketch.</desc>
    <defs>
        <path d="M44.9996,15.1099 C44.9996,16.7509 43.7086,18.0969 42.0786,18.2029 L43.0576,20.4869 C43.1186,20.6299 43.1496,20.7839 43.1496,20.9389 L43.1496,27.6859 C43.1496,27.7679 43.1476,27.8459 43.1476,27.9269 L43.1476,40.8439 C43.1496,41.4819 42.6256,41.9999 41.9806,41.9999 L34.1886,41.9999 C33.5436,41.9999 33.0196,41.4819 33.0196,40.8439 L33.0196,36.8549 L11.9786,36.8549 L11.9786,40.8439 C11.9806,41.4819 11.4566,41.9999 10.8116,41.9999 L3.0196,41.9999 C2.3746,41.9999 1.8506,41.4819 1.8506,40.8439 L1.8506,22.4979 L1.8526,22.4979 L1.8526,20.9409 C1.8526,20.7959 1.8796,20.6549 1.9326,20.5199 L2.8736,18.1259 C1.2736,18.0349 -0.0004,16.7179 -0.0004,15.1119 C-0.0004,13.4449 1.3676,12.0879 3.0506,12.0879 L5.0296,12.0879 C5.3956,11.0289 5.6966,10.2529 6.1736,9.0669 C7.5216,5.7329 9.0856,4.0659 9.1516,3.9969 C9.3306,3.8079 9.5706,3.6829 9.8296,3.6459 C10.0016,3.6209 14.1016,3.0289 22.2696,2.9999 C22.2976,3.0019 22.4516,2.9999 22.4666,2.9999 C30.7446,3.0269 34.8446,3.6189 35.0146,3.6439 C35.2736,3.6829 35.5136,3.8059 35.6926,3.9949 C35.7586,4.0639 37.3246,5.7319 38.6706,9.0629 L38.8616,9.5329 C39.2336,10.4529 39.4926,11.0909 39.8146,12.0109 L41.8716,12.0109 C43.5976,12.0109 44.9996,13.3999 44.9996,15.1099 Z M41.8716,15.8989 C42.3096,15.8989 42.6636,15.5459 42.6636,15.1119 C42.6636,14.6789 42.3076,14.3259 41.8716,14.3259 L38.9746,14.3259 C38.4686,14.3259 38.0216,14.0039 37.8646,13.5299 C37.4176,12.1879 37.1436,11.5069 36.6916,10.3949 L36.4986,9.9229 C35.6356,7.7829 34.6796,6.4379 34.2366,5.8779 C32.9946,5.7299 29.0746,5.3359 22.5686,5.3139 L22.0056,5.3139 C15.6646,5.3469 11.8316,5.7319 10.6066,5.8779 C10.1666,6.4379 9.2126,7.7809 8.3456,9.9229 C7.7786,11.3339 7.4686,12.1439 6.9836,13.6049 C6.8266,14.0789 6.3756,14.4009 5.8736,14.4009 L3.0526,14.4009 C2.6596,14.4009 2.3376,14.7209 2.3376,15.1119 C2.3376,15.5019 2.6596,15.8199 3.0526,15.8199 L4.5816,15.8199 C4.9676,15.8199 5.3296,16.0089 5.5456,16.3249 C5.7646,16.6409 5.8106,17.0429 5.6686,17.3969 L4.1886,21.1579 L4.1886,27.6879 C4.1886,33.3249 5.2266,34.5429 10.0346,34.5429 L35.3586,34.5429 C40.1936,34.5429 40.7926,33.1919 40.8116,27.9509 L40.8116,22.4979 L40.8136,22.4979 L40.8136,21.1759 L39.2396,17.5069 C39.0876,17.1489 39.1246,16.7399 39.3426,16.4179 C39.5586,16.0939 39.9256,15.8989 40.3166,15.8989 L41.8716,15.8989 Z M35.25,22.627 C36.863,22.627 38.172,23.923 38.172,25.519 C38.172,27.115 36.863,28.411 35.25,28.411 C33.637,28.411 32.328,27.115 32.328,25.519 C32.328,23.923 33.637,22.627 35.25,22.627 Z M35.3546,39.6869 L40.8116,39.6869 L40.8116,35.5019 C39.6526,36.3649 37.9346,36.8549 35.3586,36.8549 L35.3546,36.8549 L35.3546,39.6869 Z M4.1866,39.6869 L9.6426,39.6869 L9.6426,36.8429 C7.1076,36.7939 5.3656,36.2779 4.1866,35.3249 L4.1866,39.6869 Z M9.9253,22.627 C11.5363,22.627 12.8473,23.923 12.8473,25.519 C12.8473,27.115 11.5363,28.411 9.9253,28.411 C8.3123,28.411 7.0033,27.115 7.0033,25.519 C7.0033,23.923 8.3123,22.627 9.9253,22.627 Z" id="path-1"></path>
    </defs>
    <g id="nav/iconNavAuto" stroke="none" stroke-width="1" fill="none" fill-rule="evenodd">
        <mask id="mask-2" fill="white">
            <use xlink:href="#path-1"></use>
        </mask>
        <use id="Mask" fill="#313131" xlink:href="#path-1"></use>
    </g>
</svg>