<svg height="30" viewBox="0 0 30 30" width="30" xmlns="http://www.w3.org/2000/svg"><path d="m14.8780833 0-10.8780833 11.3924051v18.6075949h22v-18.6075949zm-1.4666666 21.5193038h-1.4666667v-4.810443c0-.7594937.4885833-1.2655064 1.2219167-1.2655064h3.6666666c.7333334 0 1.2219167.5060127 1.2219167 1.2655064v4.810443h-1.4666667l-.4885833 7.088924h-1.95525zm11.3666666 7.2151899h-7.5780833l.4885833-5.9496836h1.5885834v-6.0759493c0-1.3927216-1.1-2.5319621-2.44475-2.5319621h-3.6666667c-1.34475 0-2.44475 1.1392405-2.44475 2.5319621v6.0759493h1.5885833l.4885834 5.9496836h-7.57808337v-16.8351266l9.65524997-10.12689875 9.9 10.12689875v16.8351266zm-12.34475-18.607595c0 1.5189874 1.1 2.6582279 2.5666667 2.6582279s2.5666667-1.1392405 2.5666667-2.6582279c0-1.51898731-1.1-2.65822781-2.5666667-2.65822781s-2.5666667 1.26550633-2.5666667 2.65822781zm2.5666667-1.39272148c.7333333 0 1.34475.63322784 1.34475 1.39272148 0 .7594937-.6114167 1.5189874-1.34475 1.5189874s-1.34475-.6332279-1.34475-1.5189874c0-.88575946.6114167-1.39272148 1.34475-1.39272148z" fill="#323232"/></svg>