<svg height="30" viewBox="0 0 30 30" width="30" xmlns="http://www.w3.org/2000/svg"><path d="m14.8705882 0-2.5882353 2.37885463h-8.2823529v27.62114537h22v-19.8237885zm-9.57647055 3.70044053h5.69411765l-5.69411765 5.15418502zm19.41176475 24.97797357h-5.3058824-8.8-5.30588235v-17.9735683l9.57647055-8.98678413 9.8352942 8.98678413zm-4.0199863-14.7357145c-.696103-.7119366-1.6408436-1.1119875-2.6260152-1.1119875-.9851715 0-1.9299121.4000509-2.6260151 1.1119875l-.3648577.372602-.3744592-.3824073c-.9322322-.9860618-2.3131809-1.3812306-3.6114059-1.0334307-1.29822497.3478-2.31138599 1.3843608-2.64958104 2.7107754s.05128666 2.7359492 1.01855807 3.6861625l5.33844407 5.4566577c.0713593.0745692.1691449.1166073.2712428.1166073s.1998836-.0420381.2712429-.1166073l5.3480456-5.4419497c1.4465412-1.482683 1.4465412-3.8808243 0-5.3635072zm-.9434131 4.7615588-4.6496999 4.7259304-4.6496999-4.7259304c-.68128726-.6957478-.94736021-1.7098224-.69799179-2.6602316.24936842-.9504093.97629319-1.6927634 1.90694889-1.9474248.9306556-.2546614 1.9236533.0170591 2.6049405.712807l.5894606.6019721c.1373627.139939.3597196.139939.4970824 0l.5850615-.6154491c.6836446-.6957479 1.6788207-.966184 2.610655-.7094377s1.6587591 1.0016691 1.9069488 1.9541632c.2481898.9524942-.0200615 1.9678531-.7037061 2.6636009z" fill="#323232"/></svg>