<svg height="30" viewBox="0 0 30 30" width="30" xmlns="http://www.w3.org/2000/svg"><path d="m20.1428571 0h-10.28571424c-2.18571429 0-3.85714286 1.625-3.85714286 3.75v22.5c0 2 1.67142857 3.75 3.85714286 3.75h10.28571424c2.1857143 0 3.8571429-1.75 3.8571429-3.75v-22.5c0-2.125-1.6714286-3.75-3.8571429-3.75zm2.5714286 26.25c0 1.375-1.1571428 2.5-2.5714286 2.5h-10.28571424c-1.41428572 0-2.57142857-1.125-2.57142857-2.5v-22.5c0-1.375 1.15714285-2.5 2.57142857-2.5h10.28571424c1.4142858 0 2.5714286 1.125 2.5714286 2.5zm-14.14285713-1.25h12.85714283v-21.25h-12.85714283zm1.28571429-20h10.28571424v18.75h-10.28571424zm5.14285714 22.875c-.6390724 0-1.1571429-.5036797-1.1571429-1.125s.5180705-1.125 1.1571429-1.125 1.1571429.5036797 1.1571429 1.125-.5180705 1.125-1.1571429 1.125z" fill="#323232" fill-rule="evenodd"/></svg>