<svg height="45" viewBox="0 0 45 45" width="45" xmlns="http://www.w3.org/2000/svg"><path d="m28.3601288 22.4998013 16.4522933 6.9427914c.3432874.1283146.1756745.6088299-.1830126.5246632l-17.3055623-4.0607894 9.1476455 13.5622804c.1968057.2917837-.242048.588788-.4791189.3242547l-11.8783665-13.2543645-1.3181641 18.2035082c-.0248964.3438132-.5673331.343803-.5922147-.000011l-1.3175358-18.2056787-11.8804568 13.2550233c-.23708251.2645129-.67590956-.0324964-.47910522-.3242706l9.14826362-13.5628484-17.30418988 4.0612954c-.35870621.0841884-.52632499-.3963718-.18300366-.5246684l16.45261484-6.9412524-16.45262947-6.9423242c-.34330218-.1283091-.17568147-.6088442.18301379-.524664l17.30566178 4.0613729-9.14775364-13.56231221c-.19680716-.29178311.24204572-.58878915.47911761-.32425633l11.87847503 13.25440324 1.3175279-18.20408968c.0248837-.34381432.5673211-.34382112.5922147-.00000742l1.3181748 18.2057267 11.8803488-13.25451256c.2370846-.26450738.6759046.03250072.479103.32427293l-9.148201 13.56284923 17.3041265-4.0612954c.3587142-.0841906.5263269.3963875.1829917.5246729zm-.9075978.2565296c-.2483651-.0928343-.2483428-.4203613.0000349-.5131663l13.053591-5.6703371-13.7532739 3.2279067c-.2595103.0609073-.4661803-.2040783-.3238004-.4151665l7.201151-10.67621114-9.5347297 10.63758284c-.1715191.1913581-.5059086.0901413-.5239175-.1585853l-1.0717908-14.80284045-1.0712495 14.80129715c-.0180027.2487405-.3524188.3499573-.523932.1585771l-9.5316747-10.63576425 7.1994956 10.67385625c.1423774.2110863-.0642879.4760693-.3237963.4151666l-13.75838875-3.2288823 13.05754075 5.6734104c.2483661.0928267.2483567.4203503-.0000146.5131648l-13.05536503 5.6717258 13.75477213-3.2282466c.2595107-.0609072.4661805.2040793.3237997.4151673l-7.2008986 10.6757633 9.534541-10.6376855c.1715204-.1913653.5059202-.0901423.5239209.1585911l1.0712783 14.8028982 1.0717621-14.800759c.0180116-.2487357.3524222-.3499444.5239319-.1585669l9.5315786 10.6357232-7.1994008-10.6738168c-.1423736-.2110827.0642822-.4760614.3237876-.4151679l13.7601947 3.2288608z" fill="#323232"/></svg>