<svg height="45" viewBox="0 0 45 45" width="45" xmlns="http://www.w3.org/2000/svg"><g fill="#323232" fill-rule="evenodd"><path d="m14.3681818 5-14.3681818 13.7735849v26.2264151h29v-26.2264151zm13.3136364 38.7421384h-26.36363638v-24.4654088l13.04999998-12.51572331 13.3136364 12.51572331zm-12.7204546-18.2389937-7.24999996 6.9182389-3.55909091 3.3962265c-.26363637.2515723-.26363637.6289308 0 .8805031l2.96590909 2.8301887c.13181818.1257862.26363636.1886792.46136363.1886792.19772728 0 .32954546-.062893.46136364-.1886792l3.55909091-3.3962264c.2636364-.2515724.2636364-.6289308 0-.8805032l-2.50454545-2.3899371 6.78863635-6.4779874c.7909091.5660377 1.7136364.8176101 2.6363636.8176101 1.1204546 0 2.3068182-.4402516 3.1636364-1.2578617.8568182-.81761 1.3181818-1.8867924 1.3181818-3.0188679s-.4613636-2.2012579-1.3181818-3.0188679c-1.7136364-1.6352201-4.5477273-1.6352201-6.3272727 0-1.5159091 1.572327-1.6477273 3.9622641-.3954546 5.5974843zm-4.7454545 10.2515723-2.63636365 2.5157233-2.04318181-1.9496856 2.63636363-2.5157233zm6.1295454-14.8427673c.5931819-.5660378 1.384091-.8805032 2.2409091-.8805032.8568182 0 1.5818182.3144654 2.2409091.8805032.5931818.5660377.9227273 1.3207547.9227273 2.1383648 0 .81761-.3295455 1.572327-.9227273 2.1383647-1.2522727 1.1949686-3.2295454 1.1949686-4.4159091 0-1.2522727-1.2578616-1.2522727-3.144654-.0659091-4.2767295z" fill-rule="nonzero"/><path d="m33.75 6.75v-4.5c0-1.24264069 1.0073593-2.25 2.25-2.25s2.25 1.00735931 2.25 2.25v4.5h4.5c1.2426407 0 2.25 1.00735931 2.25 2.25 0 1.2426407-1.0073593 2.25-2.25 2.25h-4.5v4.5c0 1.2426407-1.0073593 2.25-2.25 2.25s-2.25-1.0073593-2.25-2.25v-4.5h-4.5c-1.2426407 0-2.25-1.0073593-2.25-2.25 0-1.24264069 1.0073593-2.25 2.25-2.25z"/></g></svg>