<svg height="30" viewBox="0 0 30 30" width="30" xmlns="http://www.w3.org/2000/svg"><path d="m26.4774775.51282051-1.1351352-.51282051-7.4414414 15.6410256-3.2792793-3.3333333.5045045-.5128205c.2522523.1282051.6306307.2564103.8828829.2564103.5045045 0 1.009009-.2564103 1.3873874-.6410257l1.3873874-1.4102564c.7567567-.76923077.7567567-2.17948718 0-2.94871795l-5.0450451-5.12820513c-.7567567-.76923077-2.1441441-.76923077-2.9009009 0l-1.26126122 1.41025641c-.63063063.64102564-.75675676 1.66666667-.37837838 2.43589744l-3.90990991 3.97435897c-.75675676-.38461538-1.76576577-.25641025-2.3963964.38461536l-1.38738739 1.4102564c-.37837837.3846154-.5045045.8974359-.5045045 1.4102564 0 .5128206.25225225 1.0256411.63063063 1.4102565l5.04504505 5.1282051c.25225225.3846154.75675675.6410256 1.38738738.6410256.50450451 0 1.00900901-.2564102 1.38738739-.6410256l1.38738735-1.4102564c.6306307-.6410257.7567568-1.6666667.3783784-2.4358975l.5045045-.5128205 4.2882883 4.3589744-4.6666667 10 1.1351352.5128205zm-16.018018 3.71794872 1.3873873-1.41025641c.1261262-.12820513.3783784-.25641026.5045046-.25641026.1261261 0 .3783783.12820513.5045045.25641026l5.045045 5.12820513c.2522523.25641026.2522523.76923077 0 1.15384615l-1.3873874 1.4102564c-.2522522.2564103-.7567567.2564103-1.1351351 0l-5.0450451-5.12820512c-.1261261-.38461538-.1261261-.89743589.1261262-1.15384615zm-.50450455 13.07692307-1.38738738 1.4102564c-.25225225.2564103-.75675676.2564103-1.13513514 0l-5.04504504-5.1282051c-.12612613-.1282051-.25225225-.3846154-.25225225-.5128205 0-.1282052.12612612-.3846154.25225225-.5128205l1.38738738-1.5384616c.12612613-.1282051.37837838-.2564102.50450451-.2564102s.37837838.1282051.5045045.2564102l5.04504505 5.1282052c.25225227.1282051.25225227.3846153.25225227.5128205 0 .2564102 0 .3846154-.12612615.6410256zm.37837835-2.5641026-4.16216213-4.1025641 3.78378378-3.84615381 4.16216215 4.23076921-.5045045.5128205-2.9009009 2.948718zm2.2702703-.3846153 1.1351351-1.1538462 3.6576577 3.7179487-.3783784.6410257-.3783784.7692307zm16.3963964-13.84615389-1.1351351-.51282051-14 29.4871795 1.1351351.5128205 3.6576577-7.6923077 6.3063063 6.4102564 2.9009009-2.9487179-7.3153154-7.4358975zm-4.036036 26.41025639-5.8018018-5.8974359.7567567-1.5384615 6.1801802 6.2820513z" fill="#323232"/></svg>