<svg height="30" viewBox="0 0 30 30" width="30" xmlns="http://www.w3.org/2000/svg"><path d="m30 10.25c0-1-.9130435-1.875-1.9565217-1.875h-1.4347826c-.2608696-.625-.3913044-1.125-.652174-1.75l-.1304347-.25c-.9130435-2.125-1.9565218-3.25-1.9565218-3.25-.1304348-.125-.2608695-.125-.3913043-.25-.2608696 0-3-.375-8.4782609-.375h-.1304348c-5.47826085 0-8.21739129.375-8.34782607.375s-.26086956.125-.39130435.25c0 0-1.04347826 1.125-1.95652174 3.25-.39130434.75-.52173913 1.25-.78260869 2h-1.43478261c-1.04347826 0-1.95652174.875-1.95652174 1.875s.91304348 1.75 1.95652174 1.75h.13043478l-.78260869 1.75v.25 1 3.875 8c0 .375.26086956.625.65217391.625h5.2173913c.39130435 0 .65217392-.25.65217392-.625v-2.25h14.34782604v2.25c0 .375.2608696.625.652174.625h5.2173913c.3913043 0 .6521739-.25.6521739-.625v-8-3.875-1c0-.125 0-.125 0-.25l-.7826087-1.625c1.173913 0 2.0869565-.875 2.0869565-1.875zm-27.39130435 16v-2.75c.7826087.75 1.95652174 1.125 3.91304348 1.125v1.625zm20.86956525 0v-1.625h.1304348c1.8260869 0 3-.375 3.7826086-1v2.625zm2.8695652-14.5 1.0434782 2.375v.875 3.875c0 3.625-.3913043 4.625-3.7826086 4.625h-16.95652179c-3.26086956 0-4.04347826-.875-4.04347826-4.625v-3.875-.875l1.04347826-2.5c.13043479-.25 0-.375-.13043478-.625-.13043478-.125-.26086956-.25-.52173913-.25h-1.04347826c-.39130435 0-.65217391-.25-.65217391-.625s.26086956-.625.65217391-.625h1.82608696c.26086956 0 .52173913-.125.65217391-.375.26086956-1 .52173913-1.5.91304348-2.375.65217391-1.5 1.30434782-2.375 1.56521739-2.75.78260869 0 3.52173912-.25 7.95652172-.25h.1304348c4.4347826 0 7.0434783.25 7.826087.375.2608695.375.9130434 1.25 1.5652173 2.75l.1304348.25c.2608696.75.5217392 1.125.7826087 2 .1304348.25.3913044.375.6521739.375h1.9565218c.3913043 0 .6521739.25.6521739.625s-.2608696.625-.6521739.625h-1.0434783c-.2608695 0-.3913043.125-.5217391.25-.1304348.25-.1304348.5 0 .75zm-19.82608697 7.125c1.08055712 0 1.95652174-.8394661 1.95652174-1.875s-.87596462-1.875-1.95652174-1.875-1.95652174.8394661-1.95652174 1.875.87596462 1.875 1.95652174 1.875zm16.95652177 0c1.0805571 0 1.9565217-.8394661 1.9565217-1.875s-.8759646-1.875-1.9565217-1.875-1.9565218.8394661-1.9565218 1.875.8759647 1.875 1.9565218 1.875z" fill="#323232"/></svg>