<svg height="45" viewBox="0 0 45 45" width="45" xmlns="http://www.w3.org/2000/svg"><g fill="#323232" fill-rule="evenodd"><path d="m37 23.8365385c0-1.0134616-.8170347-1.848077-1.8091483-1.848077h-2.6261829c-.3501578-1.1326923-.7586751-2.2057692-1.1088328-3.1-1.0504732-2.7423077-2.2760253-4.1134615-2.3343849-4.1730769l-.1750789-.1192308-.1750788-.0596153c-.1750789 0-3.2681388-.4769231-9.5126183-.5365385h-.7586751-.1167192-.5835963c-6.2444795.0596154-9.33753939.5365385-9.45425863.5365385l-.23343849.0596153-.11671924.1192308c-.05835962.0596154-1.28391167 1.4307692-2.33438486 4.1730769-.35015773.8942308-.75867508 1.9673077-1.10883281 3.1h-2.74290221c-.99211356 0-1.80914826.8346154-1.80914826 1.848077 0 1.0134615.8170347 1.8480769 1.80914826 1.8480769h1.28391168l-1.51735016 2.9211538v.8942308 4.7692308 10.1346154c0 .3576923.23343848.5961538.58359621.5961538h5.25236593c.35015773 0 .58359622-.2384615.58359622-.5961538v-3.1h20.89274446.1167193v3.1c0 .3576923.2334384.5961538.5835962.5961538h5.2523659c.3501577 0 .5835962-.2384615.5835962-.5961538v-10.1346154-4.7692308-.8942308l-1.4589905-2.8615384h1.225552c.9921136-.0596154 1.8091483-.8942308 1.8091483-1.9076923zm-34.25709779 19.9711538v-4.1730769c.75867508.9538461 2.04258675 1.4903846 4.0851735 1.6096154v2.5634615zm31.51419559 0h-4.0851735v-2.5634615c1.9842271-.1788462 3.2681388-.6557693 4.0851735-1.7884616zm0-14.9038461v.5961538 4.7692308c0 4.7096154-1.0504732 5.8423077-5.3690852 5.8423077h-21.0094637c-4.43533123 0-5.13564669-1.3115385-5.13564669-5.8423077v-4.7692308-.5961538l2.33438486-4.3519231h-3.26813881c-.35015772 0-.64195583-.2980769-.64195583-.6557693 0-.3576923.29179811-.6557692.64195583-.6557692h3.55993691l.11671925-.4173077c.40851735-1.2519231.8170347-2.4442307 1.22555205-3.4576923.8170347-2.0269231 1.69242902-3.2192308 1.98422713-3.6365384.8170347-.1192308 4.090138-.5365385 9.6926617-.5365385h.2868336c5.6025236 0 8.8706624.4173077 9.6876971.4769231.3501578.4173077 1.2255521 1.6096154 1.9842272 3.6365384.4085173 1.0134616.8170347 2.1461539 1.225552 3.4576923l.1167192.4173077h3.5015773c.3501578 0 .6419559.298077.6419559.6557693s-.2917981.6557692-.6419559.6557692h-3.2097791zm-27.83753944.1192307c1.28391167 0 2.33438486 1.0730769 2.33438486 2.3846154s-1.05047319 2.3846154-2.33438486 2.3846154-2.33438486-1.0730769-2.33438486-2.3846154 1.05047319-2.3846154 2.33438486-2.3846154zm0 3.5769231c.64195584 0 1.16719243-.5365385 1.16719243-1.1923077s-.52523659-1.1923077-1.16719243-1.1923077-1.16719243.5365385-1.16719243 1.1923077.52523659 1.1923077 1.16719243 1.1923077zm22.17665614-1.1923077c0-1.3115385 1.0504732-2.3846154 2.3343849-2.3846154 1.2839116 0 2.3343848 1.0730769 2.3343848 2.3846154s-1.0504732 2.3846154-2.3343848 2.3846154c-1.2839117 0-2.3343849-1.0730769-2.3343849-2.3846154zm3.5015773 0c0-.6557692-.5252366-1.1923077-1.1671924-1.1923077-.6419559 0-1.1671925.5365385-1.1671925 1.1923077s.5252366 1.1923077 1.1671925 1.1923077c.6419558 0 1.1671924-.5365385 1.1671924-1.1923077z" fill-rule="nonzero"/><path d="m33.75 6.75v-4.5c0-1.24264069 1.0073593-2.25 2.25-2.25s2.25 1.00735931 2.25 2.25v4.5h4.5c1.2426407 0 2.25 1.00735931 2.25 2.25 0 1.2426407-1.0073593 2.25-2.25 2.25h-4.5v4.5c0 1.2426407-1.0073593 2.25-2.25 2.25s-2.25-1.0073593-2.25-2.25v-4.5h-4.5c-1.2426407 0-2.25-1.0073593-2.25-2.25 0-1.24264069 1.0073593-2.25 2.25-2.25z"/></g></svg>