<svg height="30" viewBox="0 0 30 30" width="30" xmlns="http://www.w3.org/2000/svg"><path d="m27.3627451 2.5h-10.1960784c0-.125 0-.25 0-.375 0-1.125-1.0196079-2.125-2.1666667-2.125s-2.1666667 1-2.1666667 2.125v.375h-10.1960784c-.38235294 0-.6372549.25-.6372549.625v26.25c0 .375.25490196.625.6372549.625h24.7254902c.3823529 0 .6372549-.25.6372549-.625v-26.25c0-.375-.254902-.625-.6372549-.625zm-8.7941176 1.875v1.75h-7.137255v-1.75zm1.2745098 3v-1h4.2058823v19.75h-18.09803921v-19.75h4.20588231v1zm-4.8431373-6.125c.5098039 0 .8921569.375.8921569.875s-.382353.875-.8921569.875-.8921569-.375-.8921569-.875.382353-.875.8921569-.875zm11.7254902 27.5h-23.4509804v-25h6.8823529v1.375h-4.84313721c-.38235294 0-.6372549.25-.6372549.625v21c0 .375.25490196.625.6372549.625h19.37254901c.382353 0 .6372549-.25.6372549-.625v-21c0-.375-.2549019-.625-.6372549-.625h-4.8431372v-1.375h6.8823529zm-17.33333334-12.5h11.47058824v1.25h-11.47058824zm0 2.875h11.47058824v1.25h-11.47058824zm0 2.875h8.79411764v1.25h-8.79411764zm-.12745098-7.125h11.72549022v-4.125h-11.72549022zm1.27450982-2.875h9.1764706v1.625h-9.1764706z" fill="#323232"/></svg>