<svg height="30" viewBox="0 0 30 30" width="30" xmlns="http://www.w3.org/2000/svg"><path d="m24.375 3.54545455v-1.90909091c0-.38181819-.25-.63636364-.625-.63636364s-.625.25454545-.625.63636364v1.90909091h-16.25v-1.90909091c0-.38181819-.25-.63636364-.625-.63636364s-.625.25454545-.625.63636364v1.90909091h-5.625v20.99999995c0 2.5454546 2 4.4545455 4.5 4.4545455h21c2.5 0 4.5-2.0363636 4.5-4.4545455v-20.99999995zm4.375 20.99999995c0 1.7818182-1.5 3.1818182-3.25 3.1818182h-21c-1.75 0-3.25-1.4-3.25-3.1818182v-19.72727268h4.375v2.41818182c0 .38181818.25.63636363.625.63636363s.625-.25454545.625-.63636363v-2.41818182h16.25v2.41818182c0 .38181818.25.63636363.625.63636363s.625-.25454545.625-.63636363v-2.41818182h4.375zm-21.25-9.290909c.69035594 0 1.25-.5698195 1.25-1.2727273 0-.7029079-.55964406-1.2727273-1.25-1.2727273s-1.25.5698194-1.25 1.2727273c0 .7029078.55964406 1.2727273 1.25 1.2727273zm7.5 0c.6903559 0 1.25-.5698195 1.25-1.2727273 0-.7029079-.5596441-1.2727273-1.25-1.2727273s-1.25.5698194-1.25 1.2727273c0 .7029078.5596441 1.2727273 1.25 1.2727273zm8-3.6909091c-1.375 0-2.375 1.1454545-2.375 2.4181818s1.125 2.4181818 2.375 2.4181818 2.375-1.1454545 2.375-2.4181818-1-2.4181818-2.375-2.4181818zm0 3.5636363c-.625 0-1.125-.5090909-1.125-1.1454545 0-.6363637.5-1.1454546 1.125-1.1454546s1.125.5090909 1.125 1.1454546c0 .6363636-.375 1.1454545-1.125 1.1454545zm-15.5 7.6363637c-.69035594 0-1.25-.5698194-1.25-1.2727273s.55964406-1.2727273 1.25-1.2727273 1.25.5698194 1.25 1.2727273-.55964406 1.2727273-1.25 1.2727273zm7.5 0c-.6903559 0-1.25-.5698194-1.25-1.2727273s.5596441-1.2727273 1.25-1.2727273 1.25.5698194 1.25 1.2727273-.5596441 1.2727273-1.25 1.2727273z" fill="#323232"/></svg>