<svg height="30" viewBox="0 0 30 30" width="30" xmlns="http://www.w3.org/2000/svg"><path d="m13.6499 10.4237288c-1.2302763 0-2.2144974.2542373-3.1987185.5084746v-8.38983052h10.5803764c.7381658 0 1.2302763-.50847457 1.2302763-1.27118644 0-.76271186-.4921105-1.27118644-1.2302763-1.27118644h-11.81065268c-.73816579 0-1.23027632.50847458-1.23027632 1.27118644v11.94915256c0 .5084746.24605526 1.0169491.73816579 1.0169491.49211053.2542373.98422106.2542373 1.23027632 0 1.23027629-.7627118 2.46055269-1.2711864 3.93688419-1.2711864 3.9368843 0 6.8895474 3.3050847 6.8895474 7.1186441 0 3.8135593-3.1987184 7.118644-6.8895474 7.118644-2.2144973 0-4.18293945-1.0169491-5.41321577-2.7966101-.73816579-.2542373-1.47633158-.5084746-1.96844211 0-.49211053.5084745-.73816579 1.2711864-.24605527 1.779661 1.72238685 2.2881356 4.42899475 3.8135593 7.38165795 3.8135593 5.1671605 0 9.3501-4.3220339 9.3501-9.6610169 0-5.5932204-4.1829395-9.9152543-9.3501-9.9152543z" fill="#323232"/></svg>