<svg height="30" viewBox="0 0 30 30" width="30" xmlns="http://www.w3.org/2000/svg"><path d="m4 30v-8.9440994c.0201769-4.2451458 3.42002617-7.68147 7.6201117-7.7018633h6.7597766c4.2000855.0203933 7.5999348 3.4567175 7.6201117 7.7018633v8.9440994zm1.22905028-1.242236h19.60335192v-7.7018634c-.0201414-3.5590872-2.8697522-6.4392698-6.3910614-6.4596273h-6.7597766c-1.70514245-.0149013-3.34560485.6588816-4.55712307 1.8717354-1.21151823 1.2128538-1.89381654 2.8643923-1.89539085 4.5878919zm9.89385472-17.0807454c-3.1902929 0-5.77653628-2.61398963-5.77653628-5.83850928 0-3.22451966 2.58624338-5.83850932 5.77653628-5.83850932s5.7765363 2.61398966 5.7765363 5.83850932c.001633 1.54897433-.6064402 3.03498117-1.6901051 4.13027205-1.0836649 1.09529083-2.5538985 1.70988773-4.0864312 1.70823723zm0-10.49689438c-2.5115072 0-4.547486 2.05782165-4.547486 4.5962733 0 2.53845164 2.0359788 4.59627328 4.547486 4.59627328s4.5474861-2.05782164 4.5474861-4.59627328c.0032756-1.22001942-.4747812-2.39102414-1.3283114-3.25371132-.8535301-.86268718-2.0121052-1.34587277-3.2191747-1.34256198z" fill="#323232"/></svg>