<?xml version="1.0" encoding="UTF-8"?>
<svg width="45px" height="45px" viewBox="0 0 45 45" version="1.1" xmlns="http://www.w3.org/2000/svg" xmlns:xlink="http://www.w3.org/1999/xlink">
    <!-- Generator: Sketch 63.1 (92452) - https://sketch.com -->
    <title>icon_global_closeStandAlone_hover</title>
    <desc>Created with Sketch.</desc>
    <defs>
        <path d="M3.77042469,0.645611079 L22.499,19.377 L41.2301093,0.645611079 C42.0887473,-0.215203693 43.4920437,-0.215203693 44.3506817,0.645611079 C45.2135915,1.50856187 45.2135915,2.90551686 44.3506817,3.76846765 L25.621,22.498 L44.3528176,41.2320664 C45.2157275,42.0928811 45.2157275,43.4919721 44.3528176,44.3527869 C43.9213627,44.7842623 43.357481,45 42.7914635,45 C42.2254459,45 41.6615642,44.7842623 41.2322452,44.3527869 L22.499,25.62 L3.76828878,44.3527869 C3.33683386,44.7842623 2.77295219,45 2.20693461,45 C1.64091702,45 1.07703535,44.7842623 0.645580435,44.3527869 C-0.215193478,43.4919721 -0.215193478,42.0928811 0.645580435,41.2320664 L19.378,22.498 L0.64771635,3.76846765 C-0.213057563,2.90551686 -0.213057563,1.50856187 0.64771635,0.645611079 C1.51062618,-0.215203693 2.90751486,-0.215203693 3.77042469,0.645611079 Z" id="path-1"></path>
    </defs>
    <g id="icon_global_closeStandAlone_hover" stroke="none" stroke-width="1" fill="none" fill-rule="evenodd">
        <mask id="mask-2" fill="white">
            <use xlink:href="#path-1"></use>
        </mask>
        <use id="icon_global_closeStandAlone" fill="#9E0A9A" fill-rule="nonzero" xlink:href="#path-1"></use>
    </g>
</svg>