<svg height="11" viewBox="0 0 11 11" width="11" xmlns="http://www.w3.org/2000/svg"><path d="m5.5 4.19822123c-.15217391 0-.30434783 0-.30434783 0l1.82608696-3.10515988c.15217391-.29572951 0-.73932378-.30434783-1.03505329-.30434782-.14786476-.76086956 0-1.06521739.29572951-2.13043478 3.53048634-3.19565217 5.35415167-3.19565217 5.47099597v.14786476c-.30434783.44359427-.45652174 1.03505329-.45652174 1.62651231 0 1.92224183 1.52173913 3.40088939 3.5 3.40088939s3.5-1.47864756 3.5-3.40088939c0-1.92224182-1.67391304-3.40088938-3.5-3.40088938zm0 5.32313121c-1.06521739 0-1.97826087-.88718854-1.97826087-1.92224183s.91304348-1.92224182 1.97826087-1.92224182 1.97826087.88718853 1.97826087 1.92224182-.91304348 1.92224183-1.97826087 1.92224183z" fill="#323232"/></svg>