<svg height="45" viewBox="0 0 45 45" width="45" xmlns="http://www.w3.org/2000/svg"><path d="m22.5 29.5714278c-.8 0-1.3333333-.5142857-1.3333333-1.2857143v-26.99999925c0-.77142855.5333333-1.28571425 1.3333333-1.28571425s1.3333333.5142857 1.3333333 1.28571425v26.99999925c0 .7714286-.5333333 1.2857143-1.3333333 1.2857143zm0 7.7142855c2.2666667 0 4 1.6714285 4 3.8571428 0 2.1857142-1.7333333 3.8571427-4 3.8571427s-4-1.6714285-4-3.8571427c0-2.1857143 1.7333333-3.8571428 4-3.8571428zm0 5.142857c.8 0 1.3333333-.5142857 1.3333333-1.2857142 0-.7714286-.5333333-1.2857143-1.3333333-1.2857143s-1.3333333.5142857-1.3333333 1.2857143c0 .7714285.5333333 1.2857142 1.3333333 1.2857142z" fill="#414141"/></svg>