<svg height="11" viewBox="0 0 11 11" width="11" xmlns="http://www.w3.org/2000/svg"><path d="m7.51192116 5.21052632c.59523154-.57894737 1.04165519-1.30263158 1.04165519-2.17105264 0-1.59210526-1.33927096-3.03947368-3.12496557-3.03947368-1.04165518 0-1.93450249.43421053-2.52973403 1.30263158-.29761576.28947368-.14880788.72368421.14880789 1.01315789.29761577.28947369.8928473.28947369 1.04165519-.14473684.29761577-.43421052.74403942-.72368421 1.33927095-.72368421.89284731 0 1.63688673.72368421 1.63688673 1.59210526 0 .86842106-.74403942 1.59210527-1.63688673 1.59210527-.14880788 0-.44642365 0-.59523153 0-.44642365 0-.74403942.28947368-.74403942.72368421 0 .43421052.29761577.72368421.74403942.72368421h.14880788.44642365c1.19046308 0 2.08331038.86842105 2.08331038 1.7368421 0 1.0131579-.8928473 1.73684211-2.08331038 1.73684211-.8928473 0-1.63688672-.43421053-1.93450249-1.15789474-.14880788-.43421052-.59523154-.57894737-1.04165519-.28947368-.44642365.14473684-.59523153.57894737-.29761577 1.01315789.59523154 1.15789475 1.78569461 1.88157895 3.27377345 1.88157895 1.9345025 0 3.57138922-1.44736842 3.57138922-3.18421053 0-1.01315789-.59523154-2.02631579-1.48807884-2.60526315z" fill="#323232"/></svg>