<svg height="30" viewBox="0 0 30 30" width="30" xmlns="http://www.w3.org/2000/svg"><path d="m30 15-2-2.625.875-3.125-2.875-1.625-.375-3.25-3.25-.375-1.625-2.875-3.125.875-2.625-2-2.625 2-3.125-.875-1.625 2.875-3.25.375-.375 3.25-2.875 1.625.875 3.125-2 2.625 2 2.625-.875 3.125 2.875 1.625.375 3.25 3.25.375 1.625 2.875 3.125-.875 2.625 2 2.625-2 3.125.875 1.625-2.875 3.25-.375.375-3.25 2.875-1.625-.875-3.125zm-4.625 6.25-.625.25-.125.625-.25 2.25-2.25.25-.625.125-.25.625-1.125 2-2.25-.625-.625-.125-.5.375-1.75 1.375-1.75-1.375-.5-.375-.625.125-2.25.625-1.125-2-.25-.625-.625-.125-2.25-.25-.25-2.25-.125-.625-.625-.25-2-1.125.625-2.25.125-.625-.375-.5-1.375-1.75 1.375-1.75.375-.5-.125-.625-.625-2.25 2-1.125.625-.25.125-.625.25-2.25 2.25-.25.625-.125.25-.625 1.125-2 2.25.625.625.125.5-.375 1.75-1.375 1.75 1.375.5.375.625-.125 2.25-.625 1.125 2 .25.625.625.125 2.25.25.25 2.25.125.625.625.25 2 1.125-.625 2.25-.125.625.375.5 1.375 1.75-1.375 1.75-.375.5.125.625.625 2.25zm-20.25-1.25h2l.625 3.375 16-3.25c.125 0 .125-.125.25-.125h.875v-10.875h-19.75zm3.5 2.125-.375-2.125h11.125zm-2.5-12h17.625v8.875h-17.625zm3.375 5.375c.5522847 0 1-.4477153 1-1s-.4477153-1-1-1c-.55228475 0-1 .4477153-1 1s.44771525 1 1 1zm11 0c.5522847 0 1-.4477153 1-1s-.4477153-1-1-1-1 .4477153-1 1 .4477153 1 1 1zm-5.25-1.5c-.625-.25-.875-.375-.875-.625s.125-.375.625-.375.875.125 1 .25l.25-.75c-.25-.125-.5-.25-1-.25v-.625h-.75v.625c-.75.125-1.25.625-1.25 1.25 0 .75.5 1 1.25 1.375.5.125.75.375.75.625s-.25.5-.75.5-.875-.125-1.25-.375l-.25.875c.25.125.75.25 1.25.25v.75h.75v-.75c.875-.125 1.25-.75 1.25-1.375.25-.625-.125-1-1-1.375z" fill="#323232"/></svg>