<svg height="30" viewBox="0 0 30 30" width="30" xmlns="http://www.w3.org/2000/svg"><path d="m29.875 7.51713062-7-6.83083512c-.25-.248394-.625-.248394-.875 0l-6.75 6.83083512c-.125.124197-.25.24839401-.25.49678801v.37259101h-15v21.11349036h6.25 6.25 6.25v-7.4518201h10.625c.375 0 .625-.248394.625-.620985v-13.41327627c0-.248394-.125-.37259101-.125-.49678801zm-22.375 20.74089938v-3.7259101h3.75v3.7259101zm10 0h-5v-4.9678801h-6.25v4.9678801h-5v-18.62955034h16.25zm11.25-7.4518201h-10v-12.41970026h-2.5v-.12419701l6.25-6.2098501 6.25 6.2098501zm-22.5-8.6937902h-3.75v3.7259101h3.75zm-1.25 2.48394h-1.25v-1.24197h1.25zm1.25 2.4839401h-3.75v3.7259101h3.75zm-1.25 2.48394h-1.25v-1.24197h1.25zm6.25-7.4518201h-3.75v3.7259101h3.75zm-1.25 2.48394h-1.25v-1.24197h1.25zm1.25 2.4839401h-3.75v3.7259101h3.75zm-1.25 2.48394h-1.25v-1.24197h1.25zm6.25-7.4518201h-3.75v3.7259101h3.75zm-1.25 2.48394h-1.25v-1.24197h1.25zm1.25 2.4839401h-3.75v3.7259101h3.75zm-1.25 2.48394h-1.25v-1.24197h1.25z" fill="#323232"/></svg>