<svg height="30" viewBox="0 0 30 30" width="30" xmlns="http://www.w3.org/2000/svg"><path d="m23.553719 12.5670732c-.3719008 0-.7438016 0-.9917355.1280488l-1.1157025-4.86585371c-.123967-.38414634 0-.76829268.1239669-1.02439024.2479339-.25609756.4958678-.51219512.8677686-.6402439l1.8595042-.38414635c.4958677 0 .6198347-.38414634.6198347-.76829268-.123967-.38414634-.3719009-.51219512-.7438017-.51219512l-1.8595041.51219512c-.7438017.12804878-1.2396694.51219512-1.7355372 1.15243903-.3719008.6402439-.4958678 1.2804878-.3719008 2.04878048l.2479339 1.15243903-7.1900827 1.40853654c-.6198347.1280488-1.2396694.3841464-1.4876033 1.0243903-.2479339.5121951-.2479339 1.2804878 0 1.7926829l2.107438 4.097561c-.2479339.1280488-.3719008.3841463-.4958677.6402439h-1.1157025c-.3719009-3.2012195-2.97520664-5.7621951-6.07438019-5.7621951-3.34710744 0-6.19834711 2.8170731-6.19834711 6.402439 0 3.4573171 2.72727273 6.402439 6.19834711 6.402439 3.22314049 0 5.82644629-2.5609756 6.07438019-5.7621951h1.3636363c.2479339.6402439.8677686 1.152439 1.4876033 1.152439.8677686 0 1.6115703-.7682927 1.6115703-1.6646341 0-.8963415-.6198347-1.5365854-1.4876033-1.6646342l-2.231405-4.3536585c-.1239669-.2560976-.1239669-.5121951 0-.6402439.123967-.1280488.2479339-.2560976.6198347-.2560976l7.3140496-1.4085366.6198347 2.4329269c-2.3553719.8963414-3.9669421 3.2012195-3.9669421 5.8902439 0 3.457317 2.7272727 6.402439 6.1983471 6.402439s6.1983471-2.8170732 6.1983471-6.402439c-.2479339-3.5853659-2.9752066-6.5304878-6.446281-6.5304878zm-17.35537189 11.5243902c-2.72727273 0-4.95867769-2.304878-4.95867769-5.1219512s2.23140496-5.1219512 4.95867769-5.1219512c2.47933884 0 4.58677689 1.9207317 4.83471079 4.4817073h-3.59504137c-.24793389-.5121951-.74380165-.7682927-1.23966942-.7682927-.74380166 0-1.36363637.6402439-1.36363637 1.4085366s.49586777 1.4085366 1.36363637 1.4085366c.61983471 0 .99173553-.3841464 1.23966942-.7682927h3.59504137c-.3719009 2.5609756-2.35537195 4.4817073-4.83471079 4.4817073zm8.92561979-4.6097561c-.2479338 0-.3719008-.1280488-.3719008-.3841463 0-.2560976.123967-.3841464.3719008-.3841464.2479339 0 .3719009.1280488.3719009.3841464 0 .2560975-.123967.3841463-.3719009.3841463zm8.6130051 4.8254164c-2.75988 0-5.0179637-2.3534016-5.0179637-5.2297814 0-2.0919125 1.2544909-3.922336 3.0107782-4.8375477l.8781437 3.7915915c-.2508982.261489-.3763473.5229781-.3763473.9152117 0 .7844672.6272455 1.4381899 1.37994 1.4381899.7526946 0 1.3799401-.6537227 1.3799401-1.4381899s-.6272455-1.4381899-1.3799401-1.4381899c-.4181636-2.3534016-.6272454-3.5301024-.6272454-3.5301024s.5017963-.1307445.7526945-.1307445c2.7598801 0 5.0179638 2.3534016 5.0179638 5.2297813 0 2.8763798-2.2580837 5.2297814-5.0179638 5.2297814zm-15.8030877-15.8376115c-.37190083 0-.61983471-.25609757-.61983471-.64024391s.24793388-.6402439.61983471-.6402439h4.8347107c.3719009 0 .6198348.25609756.6198348.6402439s-.2479339.64024391-.6198348.64024391h-1.7355371l.6198347 1.40853658c.1239669.38414632 0 .76829272-.2479339.89634142 0 .1280488-.123967.1280488-.2479339.1280488s-.3719008-.1280488-.4958678-.3841463l-1.11570245-2.0487805z" fill="#323232"/></svg>