<svg height="45" viewBox="0 0 45 45" width="45" xmlns="http://www.w3.org/2000/svg"><path d="m22.4989364 27.7736634-16.13097668 16.1297081c-.72734055.7273556-1.68220813 1.0928985-2.63707572 1.0928985s-1.90973517-.3655429-2.63707572-1.0928985c-1.45841104-1.4584412-1.45841104-3.8158194 0-5.2742607l16.13097672-16.1297081-16.13097672-16.13131102c-1.45841104-1.45844127-1.45841104-3.81581947 0-5.27426073 1.45841104-1.45844127 3.8157404-1.45844127 5.27415144 0l16.13123878 16.13157305 16.1328418-16.13157305c1.458411-1.45844127 3.8157404-1.45844127 5.2741514 0 1.4584111 1.45844126 1.4584111 3.81954949 0 5.27426073l-16.1328418 16.13157302 16.1328418 16.1331761c1.4584111 1.4584413 1.4584111 3.8158195 0 5.2742608-.7273405.7273556-1.6822081 1.0928984-2.6370757 1.0928984s-1.9097352-.3655428-2.6370757-1.0928984z" fill="#323232"/></svg>