<svg height="30" viewBox="0 0 30 30" width="30" xmlns="http://www.w3.org/2000/svg"><path d="m29.375 19.4871795c-.375 0-.625.2564102-.625.6410256v4.6153846c0 2.1794872-1.75 3.974359-4 3.974359h-19.5c-2.25 0-4-1.7948718-4-3.974359v-4.6153846c0-.3846154-.25-.6410256-.625-.6410256s-.625.2564102-.625.6410256v4.6153846c0 2.948718 2.375 5.2564103 5.25 5.2564103h19.5c2.875 0 5.25-2.3076923 5.25-5.2564103v-4.6153846c0-.3846154-.25-.6410256-.625-.6410256zm-14.375 2.5641026 11.375-11.6666667c.25-.2564103.25-.64102566 0-.89743591-.25-.25641026-.625-.25641026-.875 0l-9.875 10.12820511v-18.97435896c0-.38461538-.25-.64102564-.625-.64102564s-.625.25641026-.625.64102564v18.97435896l-9.875-10.12820511c-.25-.25641026-.625-.25641026-.875 0-.25.25641025-.25.64102561 0 .89743591z" fill="#323232"/></svg>