<svg height="30" viewBox="0 0 30 30" width="30" xmlns="http://www.w3.org/2000/svg"><path d="m10.6666667 0-7.6666667 8.75v21.25h23v-30zm-.3833334 2.375v5.875h-5.11111108zm14.4388889 26.375h-20.44444442v-19.25h7.28333332v-8.25h13.1611111zm-10.8611111-5.375-5.1111111-5c-.25555556-.25-.63888889-.25-.89444444 0-.25555556.25-.25555556.625 0 .875l6.13333334 6c.1277778.125.2555555.125.5111111.125s.3833333 0 .5111111-.125l6.1333333-6c.2555556-.25.2555556-.625 0-.875-.2555555-.25-.6388888-.25-.8944444 0l-5.1111111 5v-11.125c0-.375-.2555556-.625-.6388889-.625s-.6388889.25-.6388889.625z" fill="#323232"/></svg>