<svg height="30" viewBox="0 0 30 30" width="30" xmlns="http://www.w3.org/2000/svg"><path d="m29.0948276 10.8278146v4.5033112h-1.1637931v-5.82781454c0-1.05960265-.9051724-1.85430464-1.9396552-1.85430464h-8.6637931v-1.32450331h2.8448276v-1.32450331h-6.9827586v1.32450331h2.8448276v1.19205298h-2.7155173c-.5172414 0-1.0344827.26490066-1.4224138.52980133l-3.36206894 3.31125828c-.12931035.1324503-.25862069.1324503-.51724138.1324503h-3.49137931c-1.03448276 0-1.93965517.794702-1.93965517 1.8543047v1.9867549h-1.29310345v-2.9139073h-1.29310345v7.1523179h1.29310345v-2.9139073h1.1637931v2.2516557c0 1.0596026.90517242 1.8543046 1.93965517 1.8543046h2.84482759c.38793103 0 .64655172.2649007.64655172.5298013v.1324504c0 .397351.12931035.9271523.38793104 1.1920529l2.06896553 2.384106h14.7413793l2.0689655-2.384106c.2586207-.2649006.387931-.6622516.387931-1.1920529v-4.6357616h1.1637932v4.5033112h1.2931034v-10.4635761zm-2.4568966 10.4635761c0 .1324504 0 .1324504-.1293103.2649007l-1.6810345 1.986755h-13.7068965l-1.68103453-1.986755c0-.1324503-.12931034-.2649007-.12931034-.5298013 0-.9271524-.90517242-1.7218543-1.93965517-1.7218543h-2.84482759c-.38793104 0-.64655173-.2649007-.64655173-.5298014v-5.4304635c0-.2649007.25862069-.5298014.64655173-.5298014h3.62068965c.51724138 0 1.03448276-.2649006 1.4224138-.5298013l3.23275858-3.17880794c.1293104-.13245033.3879311-.26490066.5172414-.26490066h12.6724138c.387931 0 .6465517.26490066.6465517.52980133zm-3.8793103-7.1523179.7758621-1.7218543-1.5517242-1.3245033-1.5517241 1.0596027-.5172414-1.8543047h-1.9396552l-.5172413 1.7218543-1.5517242-1.0596026-1.5517241 1.3245033.6465517 1.7218543-1.8103448.2649007-.3879311 1.9867549 1.5517242.794702-1.2931035 1.4569537 1.0344828 1.7218543 1.8103448-.397351-.1293103 1.986755 1.8103448.6622516 1.1637931-1.4569536 1.1637931 1.5894039 1.8103448-.6622516-.1293103-1.8543047 1.8103448.397351 1.0344828-1.7218543-1.1637931-1.3245033 1.6810345-.9271523-.3879311-2.2516556zm-.7758621 2.2516557v.397351c0 .1324503 0 .2649006-.1293103.397351l-.1293104.397351 1.1637931 1.1920529-1.6810344-.397351-.2586207.2649007c0 .1324503-.1293104.2649007-.2586207.2649007l-.2586207.2649006.1293103 1.7218543-.775862-1.0596026-.3879311-.2649007h-.2586207c-.1293103 0-.2586207 0-.2586207 0h-.387931l-1.0344827 1.3245033.1293103-1.7218543-.6465517-.2649006c-.1293104-.1324504-.2586207-.2649007-.3879311-.2649007l-.2586207-.2649007-1.5517241.397351 1.1637931-1.1920529-.1293103-.397351c0-.1324504 0-.2649007-.1293104-.5298014v-.397351l-1.4224138-.7947019 1.6810345-.2649007.1293104-.2649007c.1293103-.1324503.1293103-.2649006.2586206-.397351l.2586207-.2649006-.6465517-1.4569537 1.4224138.9271524.2586207-.1324504c.1293103 0 .2586207-.1324503.387931-.1324503l.3879311-.1324503.5172413-1.589404.5172414 1.589404.2586207.1324503c.1293104 0 .2586207.1324503.387931.1324503l.3879311.1324504 1.4224138-.9271524-.6465517 1.589404.1293103.2649007c.1293103.1324503.1293103.2649006.2586207.397351l.1293103.397351 1.5517242.2649006zm-3.1034483 1.0596026c.6427452 0 1.1637931-.5337003 1.1637931-1.192053 0-.6583526-.5210479-1.1920529-1.1637931-1.1920529-.6427451 0-1.1637931.5337003-1.1637931 1.1920529 0 .6583527.521048 1.192053 1.1637931 1.192053z" fill="#323232"/></svg>