<svg height="30" viewBox="0 0 30 30" width="30" xmlns="http://www.w3.org/2000/svg"><path d="m0 3.5v23h30v-23zm28.75 21.7222222h-27.5v-20.44444442h27.5zm-24-10.7333333c.25.2555555.625.3833333.875.1277778 2.75-1.9166667 6-2.9388889 9.375-2.9388889s6.625 1.0222222 9.375 2.9388889c.125.1277777.25.1277777.375.1277777.25 0 .375-.1277777.5-.2555555.25-.2555556.125-.6388889-.125-.8944445-3-2.0444444-6.375-3.1944444-10-3.1944444s-7.125 1.15-10 3.1944444c-.5.2555556-.5.6388889-.375.8944445zm15.625.8944444h-10.75c-.375 0-.625.2555556-.625.6388889 0 .3833334.25.6388889.625.6388889h10.75c.375 0 .625-.2555555.625-.6388889 0-.2555555-.25-.6388889-.625-.6388889zm-2.625 3.3222223h-5.5c-.375 0-.625.2555555-.625.6388888 0 .3833334.25.6388889.625.6388889h5.375c.375 0 .625-.2555555.625-.6388889 0-.3833333-.25-.6388888-.5-.6388888zm-13.25-8.5611112c1.125 0 2.125-1.02222218 2.125-2.17222218s-1-2.17222222-2.125-2.17222222-2.125 1.02222222-2.125 2.17222222c0 1.27777778.875 2.17222218 2.125 2.17222218zm0-2.93888884c.5 0 .875.38333333.875.89444444s-.5.76666667-.875.76666667-.875-.38333334-.875-.76666667.375-.89444444.875-.89444444zm0 16.86666664c1.125 0 2.125-1.0222222 2.125-2.1722222s-1-2.1722222-2.125-2.1722222-2.125 1.0222222-2.125 2.1722222c0 1.2777778.875 2.1722222 2.125 2.1722222zm0-2.9388889c.5 0 .875.3833334.875.8944445s-.375.8944444-.875.8944444-.875-.3833333-.875-.8944444.375-.8944445.875-.8944445zm21-10.9888889c1.125 0 2.125-1.02222218 2.125-2.17222218s-1-2.17222222-2.125-2.17222222-2.125 1.02222222-2.125 2.17222222c.125 1.27777778 1 2.17222218 2.125 2.17222218zm0-2.93888884c.5 0 .875.38333333.875.89444444s-.375.89444444-.875.89444444-.875-.38333333-.875-.89444444.5-.89444444.875-.89444444zm0 12.65000004c-1.125 0-2.125 1.0222222-2.125 2.1722222s1 2.1722222 2.125 2.1722222 2.125-1.0222222 2.125-2.1722222c0-1.2777778-.875-2.1722222-2.125-2.1722222zm0 2.9388888c-.5 0-.875-.3833333-.875-.8944444s.375-.8944444.875-.8944444.875.3833333.875.8944444-.375.8944444-.875.8944444z" fill="#323232"/></svg>