<svg height="45" viewBox="0 0 45 45" width="45" xmlns="http://www.w3.org/2000/svg"><path d="m42.9541735 24.5630158h-40.90834699c-1.12929623 0-2.04582651-.9221681-2.04582651-2.0630158 0-1.1387847.91653028-2.0630158 2.04582651-2.0630158h40.90834699c1.131342 0 2.0458265.9242311 2.0458265 2.0630158 0 1.1408477-.9144845 2.0630158-2.0458265 2.0630158zm0-14.4369843h-40.90834699c-1.12929623 0-2.04582651-.92423105-2.04582651-2.06301575 0-1.13878469.91653028-2.06301575 2.04582651-2.06301575h40.90834699c1.131342 0 2.0458265.92423106 2.0458265 2.06301575 0 1.1387847-.9144845 2.06301575-2.0458265 2.06301575zm0 28.8739685h-40.90834699c-1.12929623 0-2.04582651-.922168-2.04582651-2.0630158 0-1.1408477.91653028-2.0630157 2.04582651-2.0630157h40.90834699c1.131342 0 2.0458265.922168 2.0458265 2.0630157 0 1.1408478-.9144845 2.0630158-2.0458265 2.0630158z" fill="#323232"/></svg>