<svg height="30" viewBox="0 0 30 30" width="30" xmlns="http://www.w3.org/2000/svg"><path d="m30 11.9444444v-4.98333329l-15-3.96111111-15 3.96111111v4.98333329h3.125v8.9444445h-3.125v5.1111111h30v-5.1111111h-3.125v-8.9444445zm-28.75-3.96111107 13.75-3.70555555 13.75 3.70555555v2.68333337h-27.5zm16.875 12.90555557v-8.9444445h2.5v8.9444445zm-6.25-8.9444445v8.9444445h-2.5v-8.9444445zm1.25 0h3.75v8.9444445h-3.75zm-8.75 0h3.75v8.9444445h-3.75zm24.375 12.7777778h-27.5v-2.5555555h27.5zm-3.125-3.8333333h-3.75v-8.9444445h3.75zm-10.625-15.20555557c-1 0-1.875.89444445-1.875 1.91666667s.875 1.91666667 1.875 1.91666667 1.875-.89444445 1.875-1.91666667-.875-1.91666667-1.875-1.91666667zm0 2.55555556c-.375 0-.625-.25555556-.625-.63888889s.25-.63888889.625-.63888889.625.25555556.625.63888889-.25.63888889-.625.63888889z" fill="#323232"/></svg>