<svg height="45" viewBox="0 0 45 45" width="45" xmlns="http://www.w3.org/2000/svg"><g fill="#323232" fill-rule="evenodd"><path d="m14.3681818 5-14.3681818 13.7735849v26.2264151h29v-26.2264151zm-1.9113636 30.3773585h-1.9113637v-5.5974843c0-.8805031.725-1.572327 1.6477273-1.572327h4.6136364c.9227273 0 1.6477273.6918239 1.6477273 1.572327v5.5974843h-1.9113637l-.6590909 8.1761006h-2.7022727zm-1.1863637-13.2704403c0 1.6981132 1.45 3.081761 3.2295455 3.081761s3.2295455-1.3836478 3.2295455-3.081761-1.45-3.081761-3.2295455-3.081761-3.2295455 1.3836478-3.2295455 3.081761zm3.2295455-1.8238993c1.0545455 0 1.9113636.81761 1.9113636 1.8238993s-.8568181 1.8238994-1.9113636 1.8238994-1.9113636-.8176101-1.9113636-1.8238994.8568181-1.8238993 1.9113636-1.8238993zm13.1818182 23.3962264h-10.4795455l.5931818-7.1069183h1.9772728v-6.8553459c0-1.572327-1.3181818-2.8301886-2.9659091-2.8301886h-4.6136364c-1.6477273 0-2.96590907 1.2578616-2.96590907 2.8301886v6.8553459h2.04318177l.5931819 7.1069183h-10.54545458v-24.4025157l13.04999998-12.51572331 13.3136364 12.51572331z" fill-rule="nonzero"/><path d="m33.75 6.75v-4.5c0-1.24264069 1.0073593-2.25 2.25-2.25s2.25 1.00735931 2.25 2.25v4.5h4.5c1.2426407 0 2.25 1.00735931 2.25 2.25 0 1.2426407-1.0073593 2.25-2.25 2.25h-4.5v4.5c0 1.2426407-1.0073593 2.25-2.25 2.25s-2.25-1.0073593-2.25-2.25v-4.5h-4.5c-1.2426407 0-2.25-1.0073593-2.25-2.25 0-1.24264069 1.0073593-2.25 2.25-2.25z"/></g></svg>