<svg height="30" viewBox="0 0 30 30" width="30" xmlns="http://www.w3.org/2000/svg"><path d="m17.5991649 0c-6.7640918 0-12.27557409 5.54621849-12.27557409 12.4789916 0 3.1512605 1.12734865 6.0504202 3.13152401 8.1932773l-8.26722338 8.3193277c-.25052192.2521009-.25052192.6302521 0 .882353.12526096.1260504.25052192.1260504.50104384.1260504.12526096 0 .37578288 0 .50104384-.1260504l8.26722339-8.3193278c2.12943629 2.0168068 5.13569939 3.277311 8.26722339 3.277311 6.7640918 0 12.2755741-5.5462185 12.2755741-12.4789916 0-6.93277313-5.6367432-12.3529412-12.4008351-12.3529412zm0 23.5714286c-6.0125261 0-11.02296448-5.0420168-11.02296448-11.2184874 0-6.17647061 5.01043838-11.092437 11.02296448-11.092437 6.1377871 0 11.0229645 5.04201681 11.0229645 11.2184874 0 6.1764706-4.8851774 11.092437-11.0229645 11.092437z" fill="#323232"/></svg>