<svg height="45" viewBox="0 0 45 45" width="45" xmlns="http://www.w3.org/2000/svg"><path d="m39.4489156 25.1947218c5.3587515-5.3612296 5.3154306-14.1362353-.101974-19.55614514-2.4936423-2.4947955-5.9885667-3.98133289-9.5796443-4.07208885-3.7857217-.09925654-7.3038982 1.30532609-9.9664892 3.97013597-3.3574025 3.35812429-4.9419302 7.88763772-5.7266165 13.95888622-.522431 4.0458281-1.9319764 8.3578206-3.4876418 9.9163205-.89072012.8970861-2.12580839 2.1361669-3.25875925 3.2696417l-.31675231.3168987-.4332701-.1138114c-1.29752507-.3408339-2.75648024.0757547-3.79213947 1.1118928-1.54100667 1.5408458-1.6328541 3.9267778-.24696779 5.3141538.44908293.4484555 1.02087899.7548626 1.66284839.8913335l.49581474.1054011.10535241.4960441c.13599598.640327.44346263 1.213235.89377356 1.6654322 1.39329469 1.400449 3.81604709 1.251354 5.30484212-.2490481 1.0381104-1.0464586 1.4605732-2.4986068 1.126532-3.7792582l-.112253-.4303574.3127621-.3160841c.1129071-.1141064.3105776-.3135755.5651775-.5699772.4243466-.4273496.8499046-.85472 1.2488998-1.2537397.7513578-.7512379 1.3004696-1.294312 1.6120455-1.5922796 1.4363256-1.3744166 5.9883753-2.8596375 9.7493598-3.347787 6.0566527-.781865 10.5787185-2.3676258 13.9450998-5.7355639z" fill="#fff"/></svg>