<svg height="45" viewBox="0 0 45 45" width="45" xmlns="http://www.w3.org/2000/svg"><path d="m6 45v-13.4161491c.03026535-6.3677186 5.1300392-11.5222049 11.4301676-11.552795h10.1396648c6.3001284.0305901 11.3999022 5.1850764 11.4301676 11.552795v13.4161491zm1.84357542-1.863354h29.40502798v-11.5527951c-.0302122-5.3386308-4.3046285-9.6589047-9.5865922-9.689441h-10.1396648c-2.5577138-.0223519-5.0184074.9883224-6.8356847 2.8076031-1.81727735 1.8192807-2.84072481 4.2965885-2.84308628 6.8818379zm14.84078208-25.621118c-4.7854393 0-8.6648044-3.9209845-8.6648044-8.75776402 0-4.83677949 3.8793651-8.75776398 8.6648044-8.75776398 4.7854394 0 8.6648045 3.92098449 8.6648045 8.75776398.0024495 2.32346152-.9096604 4.55247172-2.5351577 6.19540812-1.6254973 1.6429363-3.8308477 2.5648316-6.1296468 2.5623559zm0-15.74534166c-3.7672607 0-6.821229 3.08673247-6.821229 6.89440993 0 3.80767743 3.0539683 6.89440993 6.821229 6.89440993 3.7672608 0 6.8212291-3.0867325 6.8212291-6.89440993.0049135-1.83002913-.7121717-3.5865362-1.992467-4.88056697-1.2802952-1.29403077-3.0181578-2.01880915-4.8287621-2.01384296z" fill="#323232"/></svg>