<svg height="45" viewBox="0 0 45 45" width="45" xmlns="http://www.w3.org/2000/svg"><path d="m25.221095 38.1017771v-8.7195711c.0038873-4.8207074-3.9016449-8.7328949-8.7257807-8.7406499h-7.7343745c-2.32282204-.0056029-4.55232641.9130351-6.19613314 2.5530354-1.64380673 1.6400002-2.5666793 3.8664394-2.56480381 6.1876145l-.00000285 10.117794h45v-1.4052492zm-1.4062499 0h-22.40859581l.00000347-8.7195711c-.00389471-4.0457545 3.27091003-7.3308031 7.31953079-7.342427h7.73437455c1.9517258-.0056053 3.8253347.7657193 5.2067378 2.1435024s2.156858 3.2485804 2.1549804 5.1989246zm-11.2007805-19.3502811c3.660073-.0038806 6.6247273-2.9706192 6.6234329-6.6280895-.0012945-3.65747022-2.968048-6.62211254-6.6281229-6.62340608-3.66007493-.00129353-6.62892626 2.96125104-6.63280963 6.61871948 0 3.6631811 2.97170979 6.6327761 6.63749963 6.6327761zm0-11.85327679c2.8891394 0 5.2312496 2.34044352 5.2312496 5.22752689 0 2.8870834-2.3421102 5.2275269-5.2312496 5.2275269-2.88913946 0-5.23124972-2.3404435-5.23124972-5.2275269.00387329-2.88547862 2.34371615-5.22365636 5.23124972-5.22752689zm22.2539048 24.31081069 6.8906246-14.2562529c.5997018-1.1002597.5366916-2.4426139-.1634426-3.4819461-.7001343-1.0393322-1.9209813-1.6028325-3.1667674-1.4616692-1.2457861.1411634-2.3093743.9635192-2.7588522 2.133117l-6.8906245 14.2632791.4570312 7.6164505zm-4.450781 1.1171731-.1828125-2.5575535 2.6437499 1.2717505-1.8281249 1.5738791zm6.5249996-17.6288509c.3238882-.6893503 1.016815-1.1299899 1.7789061-1.1312256.6648691.0028472 1.283044.3420268 1.6422931.9010918.3592492.559065.4106717 1.2619155.1366131 1.8672491l-6.5882808 13.630917-3.5156248-1.7003515z" fill="#323232"/></svg>