<svg height="45" viewBox="0 0 45 45" width="45" xmlns="http://www.w3.org/2000/svg"><path d="m44.8523637 41.1912226-5.7213251-8.6755486c-.4944356-.7758621-1.2714056-1.2695925-2.0483757-1.2695925s-1.5539402.4231975-2.0483757 1.2695925l-3.0372467 4.6551724-6.8514634-9.8746082c-.5650691-.775862-1.2714056-1.1990595-2.1190093-1.1990595-.7769701 0-1.5539401.4231975-2.1190093 1.1990595l-9.6768092 13.8244515c-.1412673.2115987-.1412673.4937304-.0706336.7053291.1412673.2115988.3531682.3526646.6357028.3526646h32.491476c.2825346 0 .4944355-.1410658.6357028-.3526646.1412673-.2115987.0706337-.4231975-.0706336-.6347962zm-31.714506-.3526646 8.8998391-12.7664577c.2825346-.3526646.6357028-.6347962.9182374-.6347962.3531682 0 .7063364.2115987.988871.6347962l7.4871662 10.7210031c.1412673.2115988.3531682.2821317.5650691.2821317.211901 0 .4238019-.1410658.5650692-.3526646l3.6729495-5.5015674c.4944355-.775862 1.2714055-.775862 1.7658411 0l4.944355 7.6175549zm-4.66182047 3.0329154c0-14.8119123 8.40540357-23.9106584 12.00771937-27.4373041 2.9666131 4.4435736 7.2046317 7.8291536 12.1489867 9.6630094l.9182374-.7053292c-.1412673-3.8087774-1.977742-7.1943573-4.944355-9.3808777 2.8253457-.2821317 5.5800578-.9874608 8.122869-2.2570533l.2119009-1.1285267c-4.167385-3.8793103-10.3831456-4.30250779-15.0449661-1.1990595-.2119009-5.36050158-3.955484-9.94514108-9.2530073-11.21473355-.4238019-.07053292-.9182374-.21159875-1.4126729-.21159875l-.77697.9169279c.77697 2.82131661 2.0483756 5.43103448 3.7435831 7.8291536-3.1078804-.91692789-6.4276616-.56426332-9.32364099.98746082-.42380186.21159875-.84760373.49373038-1.20077194.77586208v1.1990595c3.67294946 2.3275863 7.76970083 3.5971787 12.07835303 3.8793104-9.53554186 6.3479624-15.53940157 17.1394984-15.7513025 28.7068965l.70633644.7053292h7.133998l.70633643-.7053292c0-.0705329 0-.2115987 0-.2821316-.07063364-.0705329-.07063364-.0705329-.07063364-.1410658zm-1.41267287-.2821317h-5.65069149c.49443551-11.637931 7.06336436-22.3589342 17.16397543-28.2131662l-.3531683-1.3401253c-4.5205531.2115987-8.89983905-.846395-12.78468944-3.1034483.07063364 0 .07063364-.0705329.14126728-.0705329 3.31978125-1.83385583 7.27526526-1.76332292 10.59504656.1410658l.8476037-1.05799373c-2.1896429-2.46865204-3.8848504-5.36050157-4.8737214-8.39341693.0706336 0 .1412673 0 .1412673.07053291 5.0856223 1.19905956 8.5466709 5.92476489 8.1935026 11.14420065l1.200772.5642633c3.8848504-3.315047 9.4649082-3.38557993 13.4910259-.4231975-2.8253457 1.1285267-5.7919588 1.7633229-8.8998391 1.7633229l-.2825346 1.3401254c3.3197813 1.5517241 5.5800579 4.7257053 6.0744934 8.322884-4.4499196-1.9043887-8.2641363-5.2194357-10.8775811-9.3808777l-1.0595047-.2115988c-3.1785139 3.1739812-12.9965904 12.6959248-13.06722404 28.8479624z" fill="#323232"/></svg>