<svg height="45" viewBox="0 0 45 45" width="45" xmlns="http://www.w3.org/2000/svg"><path d="m22.3589438.00831555c-3.2397232-.12162422-6.3594565 1.09461797-8.7592514 3.40547815-2.3997949 2.31086017-3.5996924 5.35146566-3.5996924 8.7569438 0 .7297453.479959 1.2162422 1.1998975 1.2162422.7199384 0 1.1998974-.4864969 1.1998974-1.2162422 0-2.67573282 1.0799077-5.10821721 2.8797539-6.93258051 1.9198359-1.82436329 4.3196308-2.79735705 6.9594052-2.79735705 5.1595591.12162422 9.3592001 4.62172035 9.3592001 9.85156176 0 2.6757329-1.1998974 5.3514657-3.2397231 7.175829l-5.159559 5.2298414c-1.1998975 1.2162422-1.9198359 2.9189813-1.9198359 4.7433446v3.4054781c0 .7297454.4799589 1.2162422 1.1998974 1.2162422s1.1998975-.4864968 1.1998975-1.2162422v-3.4054781c0-1.094618.4799589-2.189236 1.1998974-3.0406055l5.1595591-5.2298414c2.5197846-2.3108602 3.9596616-5.4730899 3.9596616-8.8785681.1199897-6.56770783-5.0395693-12.16242193-11.6390053-12.28404615zm.3599692 37.94675655c-2.0398257 0-3.5996924 1.5811148-3.5996924 3.6487266 0 2.0676117 1.5598667 3.6487266 3.5996924 3.6487266s3.5996924-1.5811149 3.5996924-3.6487266c0-2.0676118-1.5598667-3.6487266-3.5996924-3.6487266zm0 4.8649688c-.7199385 0-1.1998975-.4864969-1.1998975-1.2162422 0-.7297454.479959-1.2162422 1.1998975-1.2162422s1.1998974.4864968 1.1998974 1.2162422c0 .7297453-.4799589 1.2162422-1.1998974 1.2162422z" fill="#9e0a9a"/></svg>