<svg height="45" viewBox="0 0 45 45" width="45" xmlns="http://www.w3.org/2000/svg"><path d="m0 34.6082474h45v1.3917526h-45zm3.796875-6.9587629h20.53125c1.8984375 0 3.4453125-1.5309278 3.4453125-3.4097938v-11.8298969c0-1.878866-1.546875-3.4097938-3.4453125-3.4097938h-20.53125c-1.8984375 0-3.4453125 1.5309278-3.4453125 3.4097938v11.8994846c0 1.8788659 1.546875 3.3402061 3.4453125 3.3402061zm-2.0390625-15.2396907c0-1.113402.9140625-2.0180412 2.0390625-2.0180412h20.53125c1.125 0 2.0390625.9046392 2.0390625 2.0180412v11.8994846c0 1.113402-.9140625 2.0180412-2.0390625 2.0180412h-20.53125c-1.125 0-2.0390625-.9046392-2.0390625-2.0180412zm22.9921875 7.2371134h-5.5546875v4.2448454h5.5546875zm-1.40625 2.8530928h-2.7421875v-1.4613402h2.7421875zm-18.28125-3.4793814c.4921875 0 .84375-.3479382.84375-.8350516v-1.2525773c0-.4871134-.3515625-.8350516-.84375-.8350516s-.84375.2783506-.84375.765464v1.2525773c0 .4871134.3515625.9046392.84375.9046392zm3.09375 0c.4921875 0 .84375-.3479382.84375-.8350516v-1.2525773c0-.4871134-.3515625-.8350516-.84375-.8350516s-.84375.3479382-.84375.8350516v1.2525773c0 .4175258.421875.8350516.84375.8350516zm3.1640625 0c.4921875 0 .84375-.3479382.84375-.8350516v-1.2525773c0-.4871134-.3515625-.8350516-.84375-.8350516s-.84375.3479382-.84375.8350516v1.2525773c0 .4175258.3515625.8350516.84375.8350516zm-6.2578125 4.1752577c.4921875 0 .84375-.3479382.84375-.8350516v-1.2525773c0-.4871134-.3515625-.8350515-.84375-.8350515s-.84375.3479381-.84375.8350515v1.2525773c0 .4871134.3515625.8350516.84375.8350516zm3.09375 0c.4921875 0 .84375-.3479382.84375-.8350516v-1.2525773c0-.4871134-.3515625-.8350515-.84375-.8350515s-.84375.3479381-.84375.8350515v1.2525773c0 .4871134.421875.8350516.84375.8350516zm3.1640625 0c.4921875 0 .84375-.3479382.84375-.8350516v-1.2525773c0-.4871134-.3515625-.8350515-.84375-.8350515s-.84375.3479381-.84375.8350515v1.2525773c0 .4871134.3515625.8350516.84375.8350516zm3.09375-4.1752577c.4921875 0 .84375-.3479382.84375-.8350516v-1.2525773c0-.4871134-.3515625-.8350516-.84375-.8350516s-.84375.3479382-.84375.8350516v1.2525773c0 .4175258.3515625.8350516.84375.8350516zm22.9921875 8.7680412 6.890625-14.1262887c.7734375-1.6701031.0703125-3.6185567-1.6171875-4.38402058-.4921875-.20876289-.9140625-.27835052-1.40625-.27835052-1.265625 0-2.4609375.69587629-3.0234375 1.9484536l-6.890625 14.1262887.4921875 7.5154639zm-4.5 1.1134021-.140625-2.5051547 2.671875 1.2525773-1.828125 1.5309279zm6.5390625-17.4664949c.3515625-.6958763.984375-1.1134021 1.7578125-1.1134021.28125 0 .5625.0695877.84375.2087629.984375.4175258 1.40625 1.6005155.984375 2.5747423l-6.609375 13.5-3.515625-1.6701031z" fill="#323232"/></svg>