<svg height="45" viewBox="0 0 45 45" width="45" xmlns="http://www.w3.org/2000/svg"><path d="m0 7v31h45v-31zm43.59375 1.40909091v4.93181819h-42.1875v-4.93181819zm-42.1875 28.18181819v-21.8409091h42.1875v21.8409091zm39.0234375-24.6590909c-.5824878 0-1.0546875-.4731536-1.0546875-1.0568182s.4721997-1.05681818 1.0546875-1.05681818 1.0546875.47315358 1.0546875 1.05681818-.4721997 1.0568182-1.0546875 1.0568182zm-3.515625 0c-.5824878 0-1.0546875-.4731536-1.0546875-1.0568182s.4721997-1.05681818 1.0546875-1.05681818 1.0546875.47315358 1.0546875 1.05681818-.4721997 1.0568182-1.0546875 1.0568182zm-15.5390625 10.075c0-.4227273.3515625-.7045455 1.4765625-.7045455 1.4765625 0 3.09375.3522728 3.9375.6340909v-2.1136363c-.703125-.8454546-2.4609375-1.2681818-4.1484375-1.2681818-3.0234375 0-4.78125 1.55-4.78125 3.875 0 4.4386363 5.90625 3.1 5.90625 4.7204545 0 .4931818-.421875.775-1.7578125.775-1.6875 0-3.0234375-.3522727-4.1484375-.7045455v2.184091c.6328125.7045454 2.6015625 1.3386363 4.4296875 1.3386363 2.953125 0 4.9921875-1.3386363 4.9921875-3.7340909 0-4.7909091-5.90625-3.3818182-5.90625-5.0022727z" fill="#323232"/></svg>