<svg height="45" viewBox="0 0 45 45" width="45" xmlns="http://www.w3.org/2000/svg"><path d="m0 34.6082474h45v1.3917526h-45zm3.796875-6.9587629c-1.8984375 0-3.4453125-1.3221649-3.4453125-2.9226804v-10.5773196c0-1.6005154 1.546875-2.992268 3.4453125-2.992268h20.53125c1.8984375 0 3.4453125 1.3221649 3.4453125 2.992268v10.507732c0 1.6005155-1.546875 2.992268-3.4453125 2.992268zm1.265625-8.6288659c-.4921875 0-.84375-.4175258-.84375-.9046392v-1.2525773c0-.4871134.3515625-.765464.84375-.765464s.84375.3479382.84375.8350516v1.2525773c0 .4871134-.3515625.8350516-.84375.8350516zm3.09375 0c-.421875 0-.84375-.4175258-.84375-.8350516v-1.2525773c0-.4871134.3515625-.8350516.84375-.8350516s.84375.3479382.84375.8350516v1.2525773c0 .4871134-.3515625.8350516-.84375.8350516zm3.1640625 0c-.4921875 0-.84375-.4175258-.84375-.8350516v-1.2525773c0-.4871134.3515625-.8350516.84375-.8350516s.84375.3479382.84375.8350516v1.2525773c0 .4871134-.3515625.8350516-.84375.8350516zm3.09375 0c-.4921875 0-.84375-.4175258-.84375-.8350516v-1.2525773c0-.4871134.3515625-.8350516.84375-.8350516s.84375.3479382.84375.8350516v1.2525773c0 .4871134-.3515625.8350516-.84375.8350516zm3.4453125 0c-.4921875 0-.84375-.4175258-.84375-.8350516v-1.2525773c0-.4871134.3515625-.8350516.84375-.8350516s.84375.3479382.84375.8350516v1.2525773c0 .4871134-.3515625.8350516-.84375.8350516zm3.796875 0c-.4921875 0-.84375-.4175258-.84375-.8350516v-1.2525773c0-.4871134.3515625-.8350516.84375-.8350516s.84375.3479382.84375.8350516v1.2525773c0 .4871134-.3515625.8350516-.84375.8350516zm1.6875 4.1752577h-19.125v-1.4613402h19.125zm-21.5859375-9.0463918v10.5773196c0 .9742268.9140625 1.8092784 2.0390625 1.8092784h20.53125c1.125 0 2.0390625-.8350516 2.0390625-1.8092784v-10.5773196c0-.9742268-.9140625-1.8092783-2.0390625-1.8092783h-20.53125c-1.125 0-2.0390625.8350515-2.0390625 1.8092783zm35.6484375 13.6391753 6.890625-14.1262887c.7734375-1.6701031.0703125-3.6185567-1.6171875-4.38402058-.4921875-.20876289-.9140625-.27835052-1.40625-.27835052-1.265625 0-2.4609375.69587629-3.0234375 1.9484536l-6.890625 14.1262887.4921875 7.5154639zm-4.5 1.1134021-.140625-2.5051547 2.671875 1.2525773-1.828125 1.5309279zm6.5390625-17.4664949c.3515625-.6958763.984375-1.1134021 1.7578125-1.1134021.28125 0 .5625.0695877.84375.2087629.984375.4175258 1.40625 1.6005155.984375 2.5747423l-6.609375 13.5-3.515625-1.6701031z" fill="#323232"/></svg>