<svg height="30" viewBox="0 0 30 30" width="30" xmlns="http://www.w3.org/2000/svg"><path d="m1.61290323 3h28.38709677v23.4375h-21.93548387v-1.3020833h20.64516127v-20.83333337h-25.80645159v15.62499997h-1.29032258zm11.61290327 19.140625.1290322-6.5104167-12.12903225 12.2395834c-.12903226.1302083-.25806451.1302083-.51612903.1302083s-.38709677 0-.51612903-.1302083c-.25806452-.2604167-.25806452-.6510417 0-.9114584l12.12903221-12.2395833h-6.83870963c-.38709678 0-.64516129-.2604167-.64516129-.6510417s.25806451-.6510416.64516129-.6510416h8.38709673c.3870968 0 .6451613.2604166.6451613.6510416v8.0729167c0 .390625-.2580645.6510417-.6451613.6510417-.3870967 0-.6451612-.2604167-.6451612-.6510417z" fill="#323232"/></svg>