<?xml version="1.0" encoding="UTF-8"?>
<svg width="30px" height="30px" viewBox="0 0 30 30" version="1.1" xmlns="http://www.w3.org/2000/svg" xmlns:xlink="http://www.w3.org/1999/xlink">
    <!-- Generator: Sketch 57.1 (83088) - https://sketch.com -->
    <title>icon_product_dog</title>
    <desc>Created with Sketch.</desc>
    <defs>
        <path d="M8.092,5.5502 C5.831,6.5992 3.878,8.2282 2.445,10.2592 L2.445,10.2592 C0.473,12.9312 -0.367,16.3432 0.138,19.6192 L0.138,19.6192 C0.313,20.9412 1.03,22.1582 2.111,22.9602 L2.111,22.9602 C2.767,23.3962 3.539,23.6412 4.347,23.6682 L4.347,23.6682 C4.791,23.6682 5.232,23.5552 5.624,23.3372 L5.624,23.3372 C6.016,23.0982 6.342,22.7702 6.574,22.3822 L6.574,22.3822 C7.04,23.4192 7.631,24.3142 8.331,25.0452 L8.331,25.0452 C9.966,26.7522 12.24,27.6172 15.088,27.6172 L15.088,27.6172 C17.912,27.6172 20.192,26.7432 21.865,25.0192 L21.865,25.0192 C22.539,24.3142 23.111,23.4572 23.566,22.4692 L23.566,22.4692 C23.797,22.8162 24.106,23.1112 24.473,23.3302 L24.473,23.3302 C24.859,23.5392 25.292,23.6492 25.823,23.6492 L25.823,23.6492 L25.838,23.6492 C26.637,23.6262 27.415,23.3782 28.09,22.9332 L28.09,22.9332 C29.159,22.1482 29.873,20.9482 30.051,19.6412 L30.051,19.6412 C30.557,16.3592 29.718,12.9462 27.749,10.2772 L27.749,10.2772 C26.313,8.2422 24.36,6.6122 22.1,5.5652 L22.1,5.5652 C19.919,4.5362 17.492,3.9922 15.081,3.9922 L15.081,3.9922 C12.68,3.9922 10.262,4.5322 8.092,5.5502 L8.092,5.5502 Z M2.68,22.1072 C1.841,21.4682 1.282,20.4992 1.143,19.4512 L1.143,19.4512 C0.676,16.3952 1.429,13.3392 3.264,10.8452 L3.264,10.8452 C4.602,8.9592 6.419,7.4492 8.521,6.4782 L8.521,6.4782 C10.559,5.5232 12.827,5.0172 15.078,5.0172 L15.078,5.0172 C17.331,5.0172 19.599,5.5232 21.637,6.4802 L21.637,6.4802 C23.738,7.4492 25.557,8.9602 26.897,10.8502 L26.897,10.8502 C28.711,13.3022 29.485,16.4392 29.019,19.4572 L29.019,19.4572 C28.882,20.5022 28.325,21.4642 27.499,22.0952 L27.499,22.0952 C26.991,22.4342 26.389,22.6282 25.766,22.6532 L25.766,22.6532 C25.483,22.6532 25.205,22.5832 24.967,22.4512 L24.967,22.4512 C24.458,22.1452 24.13,21.6062 24.104,21.0812 L24.104,21.0812 C25.131,17.8762 24.952,14.4082 24.866,12.7482 L24.866,12.7482 L24.866,12.3742 C24.849,12.0992 24.622,11.8922 24.331,11.8922 L24.331,11.8922 C24.054,11.9092 23.844,12.1362 23.852,12.4062 L23.852,12.4062 L23.852,12.7832 C23.933,14.3202 24.101,17.5202 23.256,20.4292 L23.256,20.4292 C23.138,20.5442 23.082,20.7052 23.112,20.8592 L23.112,20.8592 C22.649,22.2672 21.983,23.4322 21.131,24.3182 L21.131,24.3182 C19.683,25.8202 17.657,26.5822 15.108,26.5822 L15.108,26.5822 C12.556,26.5822 10.527,25.8202 9.08,24.3182 L9.08,24.3182 C5.951,21.0572 6.246,15.0452 6.357,12.7742 L6.357,12.7742 L6.357,12.4182 C6.368,12.1562 6.174,11.9262 5.912,11.8942 L5.912,11.8942 L5.84,11.8882 C5.713,11.8882 5.59,11.9352 5.498,12.0182 L5.498,12.0182 C5.382,12.1202 5.317,12.2692 5.324,12.4122 L5.324,12.4122 L5.324,12.7542 C5.243,14.3422 5.074,17.6472 5.978,20.6972 L5.978,20.6972 C5.967,20.7412 5.96,20.7882 5.959,20.8482 L5.959,20.8482 C6.005,21.5012 5.69,22.1182 5.143,22.4582 L5.143,22.4582 C4.906,22.5872 4.64,22.6532 4.361,22.6532 L4.361,22.6532 C3.758,22.6272 3.175,22.4362 2.68,22.1072 L2.68,22.1072 Z M19.209,12.6252 C18.558,12.9672 18.248,13.8352 18.502,14.5912 L18.502,14.5912 C18.666,15.2522 19.176,15.7272 19.77,15.7732 L19.77,15.7732 L19.797,15.7732 L19.802,15.7732 C19.928,15.7692 20.048,15.7442 20.189,15.6882 L20.189,15.6882 C20.846,15.3512 21.158,14.4872 20.9,13.7292 L20.9,13.7292 C20.735,13.0672 20.219,12.5922 19.607,12.5472 L19.607,12.5472 C19.479,12.5472 19.361,12.5702 19.209,12.6252 L19.209,12.6252 Z M11.198,12.5482 C10.608,12.6052 10.109,13.0742 9.958,13.7082 L9.958,13.7082 C9.83,14.0982 9.831,14.5282 9.961,14.9232 L9.961,14.9232 C10.089,15.2832 10.348,15.5662 10.674,15.7022 L10.674,15.7022 C10.792,15.7472 10.915,15.7712 11.036,15.7732 L11.036,15.7732 L11.044,15.7732 L11.066,15.7732 C11.668,15.7292 12.18,15.2612 12.337,14.6162 L12.337,14.6162 C12.609,13.8262 12.292,12.9642 11.586,12.6062 L11.586,12.6062 C11.468,12.5672 11.351,12.5482 11.204,12.5482 L11.204,12.5482 L11.198,12.5482 Z M13.346,18.2942 C13.221,18.4202 13.155,18.5672 13.158,18.7352 L13.158,18.7352 C13.312,19.5762 13.947,20.2312 14.717,20.3572 L14.717,20.3572 C14.721,20.6432 14.688,22.3052 13.4,22.6032 L13.4,22.6032 C13.252,22.6392 13.104,22.6552 12.921,22.6572 L12.921,22.6572 C12.272,22.6572 11.706,22.2312 11.514,21.6062 L11.514,21.6062 C11.466,21.3792 11.267,21.2132 11.031,21.2042 L11.031,21.2042 L10.897,21.2142 C10.633,21.2852 10.475,21.5562 10.538,21.8392 L10.538,21.8392 C10.847,22.9162 11.828,23.6672 12.926,23.6672 L12.926,23.6672 L12.996,23.6682 C13.207,23.6682 13.42,23.6442 13.628,23.5942 L13.628,23.5942 C14.443,23.4082 15.073,22.8412 15.425,21.9892 L15.425,21.9892 C15.777,22.8392 16.404,23.4022 17.213,23.5852 L17.213,23.5852 C17.436,23.6422 17.659,23.6682 17.893,23.6682 L17.893,23.6682 L17.919,23.6682 C19.018,23.6682 20.002,22.9132 20.313,21.8272 L20.313,21.8272 C20.345,21.6942 20.325,21.5592 20.258,21.4432 L20.258,21.4432 C20.189,21.3262 20.074,21.2402 19.943,21.2082 L19.943,21.2082 L19.808,21.2002 C19.581,21.2102 19.382,21.3722 19.338,21.5792 L19.338,21.5792 C19.141,22.2302 18.57,22.6502 17.884,22.6502 L17.884,22.6502 C17.741,22.6502 17.595,22.6312 17.445,22.5962 L17.445,22.5962 C16.34,22.3422 16.103,21.0472 16.139,20.3232 L16.139,20.3232 C16.143,20.2532 16.133,20.1842 16.11,20.1202 L16.11,20.1202 C16.592,19.8232 16.927,19.3102 17.038,18.6802 L17.038,18.6802 C17.038,18.2612 16.431,17.8112 15.098,17.8112 L15.098,17.8112 C14.29,17.8112 13.652,17.9882 13.346,18.2942 L13.346,18.2942 Z" id="path-1"></path>
    </defs>
    <g id="icon_product_dog" stroke="none" stroke-width="1" fill="none" fill-rule="evenodd">
        <mask id="mask-2" fill="white">
            <use xlink:href="#path-1"></use>
        </mask>
        <use fill="#323232" xlink:href="#path-1"></use>
    </g>
</svg>