<svg height="30" viewBox="0 0 30 30" width="30" xmlns="http://www.w3.org/2000/svg"><path d="m30 5.74468085c0-.76595745-.6276151-1.40425532-1.3807531-1.40425532h-.8786611c-.125523-.5106383-.3765691-1.02127659-.6276151-1.53191489-.6276151-1.65957447-1.3807531-2.42553192-1.3807531-2.42553192l-.125523-.12765957h-.2510461c-.125523 0-2.0083682-.25531915-5.7740585-.25531915h-.1255231c-3.7656903 0-5.6485355.25531915-5.7740585.25531915h-.2510461l-.125523.12765957s-.753138.89361702-1.3807531 2.42553192c-.125523.5106383-.376569 1.02127659-.5020921 1.53191489h-.878661c-.75313812 0-1.38075318.63829787-1.38075318 1.40425532 0 .63829787.50209205 1.27659575 1.12970708 1.27659575l-.62761503 1.27659574v3.31914896c-3.26359833 0-4.89539749.2553191-5.02092051.2553191h-.25104602l-.12552301.2553192s-.75313808.893617-1.38075314 2.4255319c-.25104603.5106383-.37656904 1.0212766-.62761506 1.5319149h-.87866109c-.75313808 0-1.38075314.6382979-1.38075314 1.4042553 0 .6382979.50209205 1.2765957 1.12970711 1.2765957l-.75313807 1.2765958v.6382979 2.9361702 5.6170213c0 .3829787.25104602.6382978.62761506.6382978h2.38493724c.37656904 0 .62761506-.2553191.62761506-.6382978v-.8936171c.25104603 0 .62761506.1276596 1.0041841.1276596h10.7949791.8786611v.893617c0 .3829788.251046.6382979.627615.6382979h2.5104603c.125523 0 .376569-.1276596.502092-.1276596s.125523-.2553191.125523-.5106383v-5.4893617-3.4468085l-.753138-1.2765957c.627615-.1276596 1.0041841-.6382979 1.0041841-1.2765958 0-.3829787-.125523-.7659574-.3765691-1.0212766h4.6443515.8786611v.8936171c0 .3829787.251046.6382978.627615.6382978h2.5104603c.376569 0 .6276151-.2553191.6276151-.6382978v-6-2.68085111-.76595745l-.7531381-1.27659574c.627615-.12765958 1.1297071-.63829788 1.1297071-1.27659575zm-27.11297071 22.72340425h-1.12970711v-1.2765957c.37656903.2553191.75313807.5106383 1.12970711.7659574zm2.25941422-1.5319149c-2.38493723 0-3.38912133-1.0212766-3.38912133-3.4468085v-2.9361702-.2553192l1.50627615-2.8085106h-1.88284519v-.1276596h1.75732217l.12552302-.3829787c.12552301-.5106383.37656903-1.2765957.62761506-1.9148936.37656904-1.0212766.75313807-1.6595745 1.0041841-1.9148936.62761506-.1276596 2.38493724-.2553192 5.39748951-.2553192h.125523c3.0125523 0 4.7698745.1276596 5.3974896.2553192.251046.2553191.627615.893617 1.0041841 1.9148936.251046.6382979.502092 1.4042553.627615 1.9148936l.1255231.3829787h1.7573221v.1276596h-1.8828452l1.6317992 2.8085106v.3829788 2.8085106c0 2.4255319-1.0041841 3.4468085-3.2635983 3.4468085zm12.92887029 1.5319149v-.5106383c.5020921-.1276596.8786611-.3829787 1.2552301-.7659574v1.2765957zm.251046-13.2765957c-.125523-.2553192-.125523-.5106383-.251046-.6382979-.6276151-1.6595745-1.3807531-2.4255319-1.3807531-2.4255319l-.125523-.1276596h-.2510461c-.125523 0-1.8828452-.2553191-5.3974895-.2553191v-2.93617026l1.5062761-2.80851064h-1.8828451v-.38297872h1.7573221l.125523-.38297873c.1255231-.51063829.3765691-1.27659574.6276151-1.91489361.376569-1.0212766.7531381-1.65957447 1.0041841-1.91489362.6276151-.12765958 2.3849372-.25531915 5.3974895-.25531915h.1255231c2.8870292 0 4.7698744.12765957 5.3974895.25531915.251046.25531915.6276151.89361702 1.0041841 1.91489362.251046.63829787.502092 1.40425532.6276151 1.91489361l.125523.38297873h1.7573221v.12765957h-1.8828451l1.6317991 2.80851064v.38297872 2.80851069c0 2.4255319-1.0041841 3.4468085-3.2635983 3.4468085zm8.7866109 1.5319149v-.5106383c.5020921-.1276596.8786611-.3829788 1.2552301-.7659575v1.2765958zm-13.5564853-6.89361707c-.6239201 0-1.1297072-.51439624-1.1297072-1.14893617 0-.63453992.5057871-1.14893617 1.1297072-1.14893617.62392 0 1.1297071.51439625 1.1297071 1.14893617 0 .63453993-.5057871 1.14893617-1.1297071 1.14893617zm12.3012552 0c-.62392 0-1.1297071-.51439624-1.1297071-1.14893617 0-.63453992.5057871-1.14893617 1.1297071-1.14893617s1.1297071.51439625 1.1297071 1.14893617c0 .63453993-.5057871 1.14893617-1.1297071 1.14893617zm-21.46443516 11.74468087c-.62392001 0-1.12970711-.5143963-1.12970711-1.1489362s.5057871-1.1489362 1.12970711-1.1489362 1.12970711.5143963 1.12970711 1.1489362-.5057871 1.1489362-1.12970711 1.1489362zm12.30125526 0c-.62392 0-1.1297071-.5143963-1.1297071-1.1489362s.5057871-1.1489362 1.1297071-1.1489362 1.1297071.5143963 1.1297071 1.1489362-.5057871 1.1489362-1.1297071 1.1489362z" fill="#323232"/></svg>