<svg height="30" viewBox="0 0 30 30" width="30" xmlns="http://www.w3.org/2000/svg"><path d="m8.32318869 16.7057594c0 3.6260907 2.99062891 6.565618 6.67975651 6.565618 3.6891277 0 6.6797565-2.9395273 6.6797565-6.565618s-2.9906288-6.565618-6.6797565-6.565618c-3.6891276 0-6.67975651 2.9395273-6.67975651 6.565618zm12.47005691 0c-.0123659 2.7156916-1.9731715 5.0452813-4.6848438 5.5659591-2.7116723.5206779-5.4202833-.9123204-6.47153383-3.4237832-1.05125052-2.5114628-.15286067-5.4031265 2.14647303-6.9088914 2.2993336-1.5057649 5.3603258-1.2069822 7.3134585.7138649 1.0948741 1.073118 1.7059969 2.533105 1.6964461 4.0528506zm5.6724917-10.95427626h-1.2723346v-.67740504c.0047317-.24000408-.088559-.47186717-.2590222-.64376957-.1704631-.17190241-.4038878-.26951306-.6481052-.27101671h-2.6978206c-.2452404-.00004516-.4801888.09688444-.65193.26895832-.1717413.17207387-.2658344.40482312-.2610878.64582796v.67740504h-1.3017868c-.0092225-.47496298-.1008584-.9448941-.2709601-1.38954879-.1477654-.37932429-.4008231-.71030049-.7304143-.95531479-.4085319-.27988518-.89835-.42208517-1.3960338-.40528506h-4.5415276c-.4976838-.01680011-.9875019.12539988-1.3960338.40528506-.4729887.36966657-.7915649.89704789-.8953465 1.48218537-.0690824.28322377-.1124492.57191622-.1295896.86267821h-6.47948169c-1.9519194 0-3.53426271 1.55530545-3.53426271 3.47387196v14.3007729c0 1.9185665 1.58234331 3.473872 3.53426271 3.473872h22.93147459c1.9519194 0 3.5342627-1.5553055 3.5342627-3.473872v-14.3007729c0-1.91856651-1.5823433-3.47387196-3.5342627-3.47387196zm-4.9067347-.67740504h2.6919301v.67740504h-2.6919301zm-10.4319655-.38212591c.0873322-.22927318.2383516-.42986635.4358924-.57897866.2566664-.17006295.5626762-.25338741.8717848-.23738126h4.547418c.3091558-.01643178.6153009.06692951.8717848.23738126.2977918.24560226.4945821.58924495.5537012.96689436.046977.22309542.0745651.44971374.0824661.67740503h-7.5633222c.0062734-.36355826.0739531-.72356627.2002749-1.06532073zm-9.46593362 2.69225077c.49625752-.48928756 1.17025819-.76428086 1.87315923-.76425183h22.93147459c1.3470454.00124473 2.4769191.9995074 2.6212448 2.31591464h-10.5262124c-2.2616541-1.00516948-4.8539948-1.00516948-7.1156489 0h-10.52621249c.06175169-.58483786.32338829-1.13182576.74219517-1.55166281zm18.84940112 3.88494684c2.6328869 2.5913417 3.0370371 6.649803.9653257 9.6937649-2.0717115 3.0439619-6.0423987 4.225807-9.4841137 2.8228749-3.44171499-1.4029321-5.39608267-4.9999828-4.66806985-8.591671s3.93568475-6.17787743 7.66162715-6.17719581c2.0803173-.00527996 4.0762961.80782367 5.542902 2.25801681zm8.6059297 12.2569782c-.0064515 1.4362901-1.1894381 2.5990627-2.650697 2.605404h-22.93147459c-1.46125888-.0063413-2.64424546-1.1691139-2.65069703-2.605404v-13.74495338h9.03593167c-3.06064776 2.16817218-4.34940368 6.02908098-3.19042981 9.55802288 1.15897386 3.5289418 4.50115956 5.9204899 8.27387766 5.9204899 3.7727182 0 7.1149038-2.3915481 8.2738777-5.9204899 1.1589739-3.5289419-.129782-7.3898507-3.1904298-9.55802288h9.0300412z" fill="#323232"/></svg>