<svg height="30" viewBox="0 0 30 30" width="30" xmlns="http://www.w3.org/2000/svg"><path d="m7.46575342 26.5791086c.27397261 2.0271949 2.05479453 3.4208914 4.10958908 3.4208914h7.3972602c2.1917809 0 3.9726028-1.5203962 4.1095891-3.5475911l1.7808219-17.99135487h-19.4520548zm14.38356168-.2533994c-.1369863 1.3936965-1.369863 2.407294-2.7397261 2.407294h-7.5342465c-1.5068493 0-2.60273976-1.0135975-2.73972606-2.2805943l-1.91780822-16.72435805h16.43835618zm-10.8219178-.6334984c.4109589 0 .6849315-.380099.6849315-.6334984l-.9589041-11.4029714c0-.380099-.4109589-.6334984-.6849315-.6334984-.41095895 0-.68493156.380099-.68493156.6334984l.95890416 11.4029714c0 .380099.2739726.6334984.6849315.6334984zm8.219178 0c.4109589 0 .6849315-.2533994.6849315-.6334984l.9589042-11.4029714c0-.380099-.2739726-.6334984-.6849315-.6334984-.410959 0-.6849316.2533994-.6849316.6334984l-.9589041 11.4029714c0 .380099.2739726.6334984.6849315.6334984zm-4.109589 0c.4109589 0 .6849315-.2533994.6849315-.6334984v-11.4029714c0-.380099-.2739726-.6334984-.6849315-.6334984s-.6849315.2533994-.6849315.6334984v11.4029714c0 .380099.2739726.6334984.6849315.6334984zm-9.31506849-19.00495232 18.63013699-4.05438983c.4109589-.12669968.5479452-.38009904.5479452-.76019809-.1369863-.38009905-.4109589-.50679873-.8219178-.50679873l-5.3424658 1.14029714-.2739726-.88689778c-.2739726-1.14029713-1.5068493-1.90049523-2.739726-1.52039618l-3.5616438.76019809c-.5479452.12669968-1.0958904.50679873-1.369863 1.01359746-.4109589.50679873-.5479452 1.01359746-.4109589 1.64709587l.2739726.88689777-5.20547949 1.14029714c-.41095891 0-.54794521.38009905-.54794521.76019809.1369863.25339937.4109589.50679873.68493151.50679873.1369863-.12669968.1369863-.12669968.1369863-.12669968zm6.02739729-3.5475911c0-.25339936 0-.50679873.1369863-.63349841s.2739726-.38009905.5479452-.38009905l3.5616438-.76019809c.5479452-.12669968.9589041.12669968 1.0958904.63349841l.2739726.88689778-5.3424657 1.14029714z" fill="#323232"/></svg>