<svg height="45" viewBox="0 0 45 45" width="45" xmlns="http://www.w3.org/2000/svg"><path d="m41.8932028 18.1784719c-.183169-5.0506875-2.780493-9.7214844-6.9059155-12.4249219l.8302817-1.4965c4.6375352 3.01221875 7.5542958 8.2582969 7.7393662 13.9214219zm-13.8010563 0 6.348169-11.43964065c3.789507 2.49779687 6.1783098 6.79574995 6.3602112 11.43964065zm7.932676-15.4256094c-.1216901-.07303125-.2617605-.11210938-.4037324-.11210938-.0697183 0-.1388028.00896875-.2078873.0281875-.2059859.05701563-.3790141.19410938-.4873944.38757813l-8.4821831 15.28403125c-.1375352.2530469-.1375352.5669531.0012676.8206406.1426057.2568906.4088029.4164063.6959155.4164063h16.9745071c.4411267 0 .8011267-.3715625.8011267-.8270469 0-6.5657656-3.4073239-12.69590625-8.8916197-15.9976875zm-18.0811901 38.3861219c-9.12485917.0192187-16.56507044-7.7060781-16.58471833-17.22-.01901408-9.5145625 7.38950704-17.26996877 16.51436623-17.28918752 2.706338-.005125 5.3866901.69379687 7.7869014 2.02629687l-.8334507 1.51315625c-2.1454226-1.18003125-4.535493-1.8065625-6.9496479-1.8014375-8.20647889.01729688-14.86711269 6.9917813-14.85000001 15.5479688.01711267 8.5555468 6.7069014 15.5018437 14.91274651 15.4851875 8.0188732-.0166563 14.5451408-6.6817188 14.8233802-14.970125l1.6859155-.0032032c-.2750704 9.2493438-7.566338 16.6927657-16.5054929 16.7113438zm-.5159155-17.5415938c-.0988733.1787344-.0982394.3984688.0012676.5778438.099507.1774531.2826761.287.4804225.287l13.7630282-.0288282c-.2757042 7.6529063-6.3253521 13.7971407-13.7351408 13.8125157-7.5948592.0160156-13.78647892-6.4139375-13.80232399-14.3327032-.01584507-7.9194062 6.14852109-14.3743437 13.74401409-14.39035933 2.2202113-.00448437 4.4220422.56118753 6.399507 1.64192183zm17.5810563-.5810468-15.7132394.0326718 7.8255634-14.2020156c.2180281-.39526562.0849295-.90264062-.2953521-1.13134375-2.7285212-1.63871875-5.8252817-2.50164062-8.955-2.49523437-9.87464793.0205-17.89161976 8.41012502-17.87070427 18.70176562.0215493 10.291 8.07147888 18.6473125 17.94612677 18.6268125 9.8746479-.0205 17.8903521-8.4094844 17.8694366-18.7017656-.0006338-.4586875-.363169-.8315313-.806831-.8308906zm-19.4790422-6.4954251c-1.2232395.0025625-2.2214789-1.0102656-2.2240141-2.2569218-.003169-1.2460157.9919014-2.2626875 2.214507-2.26525 1.2245071-.0019219 2.2221127 1.0102656 2.2246479 2.2562812.0025352 1.2466563-.9906338 2.2633281-2.2151408 2.2658906m3.3319014-2.2684531c-.0038028-1.8738281-1.5033803-3.3953125-3.3433099-3.3914687-1.8399296.0038437-3.333169 1.5317343-3.3293662 3.4055625.003169 1.8738281 1.5033803 3.3959531 3.3433099 3.3921093 1.8392958-.0038437 3.3338028-1.532375 3.3293662-3.4062031m-8.87830988 4.5697703c.28711268 0 .52098588.2383125.52098588.5310782 0 .292125-.2338732.5310781-.52098588.5310781-.28774648 0-.52035211-.2389531-.52035211-.5310781 0-.2927657.23260563-.5310782.52035211-.5310782m0 2.2300157c.92028168 0 1.66880278-.7623438 1.66880278-1.6989375 0-.937875-.7485211-1.6995782-1.66880278-1.6995782-.92028169 0-1.66816901.7617032-1.66816901 1.6995782 0 .9365937.74788732 1.6989375 1.66816901 1.6989375m8.58542958 13.8781797c0 .2927656-.234507.5310781-.5209859.5310781-.2871127 0-.5222535-.2383125-.5222535-.5310781 0-.2927657.2351408-.5310782.5222535-.5310782.2864789 0 .5209859.2383125.5209859.5310782m-2.1897887 0c0 .9365937.7478873 1.6989375 1.6688028 1.6989375.9190141 0 1.668169-.7623438 1.668169-1.6989375 0-.9372344-.7491549-1.6995782-1.668169-1.6995782-.9209155 0-1.6688028.7623438-1.6688028 1.6995782m8.6194014-6.7922266c1.2251408 0 2.2202112 1.0141094 2.2202112 2.260125 0 1.2472969-.9950704 2.2614062-2.2202112 2.2614062-1.2232395 0-2.2195775-1.0141093-2.2195775-2.2614062 0-1.2460156.996338-2.260125 2.2195775-2.260125m0 5.6592812c1.8399296 0 3.3369718-1.5246875 3.3369718-3.3991562 0-1.8744688-1.4970422-3.397875-3.3369718-3.397875-1.8392958 0-3.3363381 1.5234062-3.3363381 3.397875 0 1.8744687 1.4970423 3.3991562 3.3363381 3.3991562m-14.7364859-3.1202922c-1.22450708 0-2.22021131-1.0141093-2.22021131-2.2607656 0-1.2472969.99570423-2.2614062 2.22021131-2.2614062 1.2238732 0 2.2195774 1.0141093 2.2195774 2.2614062 0 1.2466563-.9957042 2.2607656-2.2195774 2.2607656m0-5.6592812c-1.83929581 0-3.33697187 1.5240469-3.33697187 3.3985156 0 1.8738281 1.49767606 3.3985156 3.33697187 3.3985156 1.8399295 0 3.336338-1.5246875 3.336338-3.3985156 0-1.8744687-1.4964085-3.3985156-3.336338-3.3985156m24.9491408-9.6963078c-.2871127 0-.5209859-.2383125-.5209859-.5310781 0-.2927657.2338732-.5310782.5209859-.5310782s.5209859.2383125.5209859.5310782c0 .2927656-.2338732.5310781-.5209859.5310781m0-2.2300156c-.9196479 0-1.668169.7617031-1.668169 1.6989375 0 .9365937.7485211 1.6995781 1.668169 1.6995781s1.668169-.7629844 1.668169-1.6995781c0-.9372344-.7485211-1.6989375-1.668169-1.6989375" fill="#323232" fill-rule="evenodd"/></svg>