<svg height="30" viewBox="0 0 30 30" width="30" xmlns="http://www.w3.org/2000/svg"><g fill="none" fill-rule="evenodd"><path d="m26 24h-26v-6.875c0-3.25 2.65048544-5.875 5.93203883-5.875h5.17475727c3.2815534 0 5.9320389 2.625 5.9320389 5.875v5.625h8.8349514v1.25zm-24.73786408-1.25h14.51456308v-5.625c0-2.625-2.145631-4.625-4.6699029-4.625h-5.17475727c-2.65048543 0-4.66990291 2.125-4.66990291 4.625zm7.32038835-13.75c-2.52427184 0-4.54368932-2-4.54368932-4.5s2.01941748-4.5 4.54368932-4.5c2.52427183 0 4.54368933 2 4.54368933 4.5s-2.0194175 4.5-4.54368933 4.5zm0-7.75c-1.76699029 0-3.2815534 1.5-3.2815534 3.25s1.38834952 3.25 3.2815534 3.25c1.89320393 0 3.28155343-1.5 3.28155343-3.25s-1.5145631-3.25-3.28155343-3.25z" fill="#323232" fill-rule="nonzero" transform="translate(0 6)"/><rect fill="#e5e55a" height="18" rx="9" width="18" x="12"/></g></svg>