<svg height="45" viewBox="0 0 45 45" width="45" xmlns="http://www.w3.org/2000/svg"><path d="m38.1879442 13.1586207c-.0717937.1102905-.1718083.2005257-.2898038.2604656l-14.6481404 13.1652423v13.4597322l6.8273807 3.5401233c.6972929.3615593.440219 1.4158159-.3452378 1.4158159h-14.4642858c-.7854568 0-1.0425307-1.0542566-.3452378-1.4158159l6.8273807-3.5401233v-13.4597322l-21.44777153-19.27651569c-.51141357-.45964084-.18627142-1.30781291.50134296-1.30781291h29.86481747c.3681326-1.71865491 1.9766601-3 3.8851825-3 .1441075 0 .2865046.00730541.4267865.02155288l2.2028675-2.74134621c.2594597-.32288317.7315419-.37429806 1.0544251-.11483837.3228831.25945969.374298.73154186.1148383 1.05442503l-1.8287888 2.27582616c.9699622.52638455 1.6849072 1.42992303 1.915054 2.50438051h5.7576746c.6876144 0 1.0127565.84817207.5013429 1.30781291zm-.9548482-1.1586207 5.0068681-4.5h-39.47992821l5.00686813 4.5h21.16305738l1.7861439-2.66730829c.230473-.34417302.6963157-.4363451 1.0404887-.20587209.344173.230473.4363451.69631565.2058721 1.04048868l-1.2272489 1.8326917zm-1.6689561 1.5h-5.833387l-5.8040011 8.6673083c-.230473.344173-.6963156.4363451-1.0404887.2058721-.344173-.230473-.4363451-.6963157-.2058721-1.0404887l5.2451061-7.8326917h-18.48963703l13.06413993 11.7415974zm-3.3337478-7.5h4.6463587c-.3375345-.86836339-1.2442678-1.5-2.3231794-1.5-1.0789115 0-1.9856448.63163661-2.3231793 1.5zm-5.5739892 37.5-4.1564029-2.1551719-4.1564029 2.1551719z" fill="#323232"/></svg>