<svg height="30" viewBox="0 0 30 30" width="30" xmlns="http://www.w3.org/2000/svg"><path d="m29.7413793 14.4617414-12.2844827-11.27176779c-.2586207-.25329815-.7758621-.25329815-1.0344828 0-.2586207.25329816-.2586207.75989446 0 1.01319262l10.862069 10.00527707h-26.50862073c-.38793104 0-.77586207.3799472-.77586207.7598944 0 .3799473.38793103.7598945.77586207.7598945h26.50862073l-10.862069 10.005277c-.2586207.2532982-.387931.7598945 0 1.0131926.1293103.1266491.387931.2532982.5172414.2532982.1293103 0 .387931-.1266491.5172414-.2532982l12.2844827-11.2717678c.1293104-.126649.2586207-.3799472.2586207-.5065963 0-.126649-.1293103-.3799472-.2586207-.5065963z" fill="#323232"/></svg>