<svg height="45" viewBox="0 0 45 45" width="45" xmlns="http://www.w3.org/2000/svg"><g fill="#323232" fill-rule="evenodd"><path d="m27.6818182 19.6674622-13.309219-12.84271024-13.05441738 12.83908674v24.0397227h26.36363638zm-27.6818182 25.3325378v-25.8731637l14.3637644-14.1268363 14.6362356 14.1232128v25.8767872zm18.2568182-1.2964386v-13.5477835h-7.5136364v13.5477835zm-8.8318182-14.8442221h10.15v16.1406607h-10.15zm-1.03545406-18.2359267-7.07136412-.0993531v7.5508421zm-8.38954594-1.41444459 11.3831813.15993454-11.3831813 11.99509015z" fill-rule="nonzero"/><path d="m33.75 6.75v-4.5c0-1.24264069 1.0073593-2.25 2.25-2.25s2.25 1.00735931 2.25 2.25v4.5h4.5c1.2426407 0 2.25 1.00735931 2.25 2.25 0 1.2426407-1.0073593 2.25-2.25 2.25h-4.5v4.5c0 1.2426407-1.0073593 2.25-2.25 2.25s-2.25-1.0073593-2.25-2.25v-4.5h-4.5c-1.2426407 0-2.25-1.0073593-2.25-2.25 0-1.24264069 1.0073593-2.25 2.25-2.25z"/></g></svg>