<svg height="30" viewBox="0 0 30 30" width="30" xmlns="http://www.w3.org/2000/svg"><path d="m23.39 24.3146977v-9.2240221c0-1.1758198 1.01-2.133544 2.25-2.133544 1.24125 0 2.25125.9577242 2.25125 2.133544 0 .8474911-.53 1.6131964-1.35 1.9533781l-.375.1552746v7.1153694zm-15.52875 0h14.27875v-2.6325563h-14.27875zm-4.02625 0v-7.1153694l-.375-.1552746c-.82125-.3401817-1.35-1.105887-1.35-1.9533781 0-1.1758198 1.00875-2.133544 2.25-2.133544s2.25125.9577242 2.25125 2.133544v9.2240221zm4.02625-3.8178585h14.27875v-2.0885026h-14.27875zm2.0125-9.9506124c0-2.6799684 2.29875-4.86092455 5.12625-4.86092455 2.82625 0 5.12625 2.18095615 5.12625 4.86092455v6.6791782h-10.2525zm17.5425 13.7684709v-6.365073c1.05875-.5914659 1.725-1.6748321 1.725-2.8589491 0-1.8301067-1.57125-3.3188463-3.50125-3.3188463s-3.5 1.4887396-3.5 3.3188463v2.1347294h-.76375v-6.6791782c0-3.33425525-2.86-6.0462268-6.37625-6.0462268-3.515 0-6.37625 2.71197155-6.37625 6.0462268v6.6791782h-.7625v-2.1347294c0-1.8301067-1.5725-3.3188463-3.50125-3.3188463-1.93125 0-3.5 1.4887396-3.5 3.3188463 0 1.184117.665 2.2674832 1.725 2.8589491v6.365073h-2.585v1.1853023h30v-1.1853023z" fill="#414141" fill-rule="evenodd"/></svg>