<svg height="30" viewBox="0 0 30 30" width="30" xmlns="http://www.w3.org/2000/svg"><path d="m24.2857143 16.75v-13h-6.1904762-2.6c.247619-.375.3714286-.75.3714286-1.25 0-1.375-1.1142857-2.5-2.4761905-2.5s-2.4761905 1.125-2.4761905 2.5c0 .5.1238095.875.3714286 1.25h-3.09523811-6.19047619v22.5h12.8761905c1.1142857 2.25 3.4666666 3.75 6.1904762 3.75 3.8380952 0 6.9333333-3.125 6.9333333-7 0-2.625-1.4857143-5-3.7142857-6.25zm-12.1333333-14.25c0-.75.495238-1.25 1.2380952-1.25.7428571 0 1.2380952.5 1.2380952 1.25s-.4952381 1.25-1.2380952 1.25c-.7428572 0-1.2380952-.5-1.2380952-1.25zm11.1428571 18.125c.247619-.25.8666667-.25 1.1142857 0 .2476191.25.2476191.625 0 .875l-3.4666667 3.5c-.1238095.125-.247619.125-.4952381.125-.247619 0-.3714285 0-.495238-.125l-1.7333334-1.75c-.247619-.25-.247619-.625 0-.875.2476191-.25.6190476-.25.8666667 0l1.2380952 1.25zm-6.4380952-15.625v2.5h-7.42857147v-2.5zm-2.4761905 20h-11.14285716v-20h4.95238095v3.75h9.90476191v-3.75h4.9523809v11.25c-.6190476-.25-1.2380952-.25-1.9809523-.25-3.8380953 0-6.9333334 3.125-6.9333334 7 0 .75.1238096 1.375.2476191 2zm6.6857143 3.75c-3.0952381 0-5.6952381-2.625-5.6952381-5.75s2.6-5.75 5.6952381-5.75 5.6952381 2.625 5.6952381 5.75-2.6 5.75-5.6952381 5.75z" fill="#323232"/></svg>