<svg height="45" viewBox="0 0 45 45" width="45" xmlns="http://www.w3.org/2000/svg"><path d="m42.98007 35.3719692c1.1170213 0 2.01993.916431 2.01993 2.045605 0 1.1291739-.9029087 2.0456049-2.01993 2.0456049h-13.8082413v-4.0912099zm0-14.3151435c1.1170213 0 2.01993.916431 2.01993 2.045605 0 1.1291739-.9029087 2.0456049-2.01993 2.0456049h-13.8082413v-4.0912099zm0-14.31514349c1.1170213 0 2.01993.91643102 2.01993 2.04560496 0 1.12917393-.9029087 2.04560493-2.01993 2.04560493h-19.8680312v-4.09120989zm-17.7814436 32.75831779h-3.6358739v-8.6508634c0-3.0418145-2.4441153-5.5169965-5.4477512-5.5169965h-7.03743599c-2.99959601 0-5.44169135 2.475182-5.44169135 5.5169965v8.6508634h-3.63587396v-8.6508634c0-5.0710547 4.07217883-9.1990855 9.07756531-9.1990855h7.03743599c5.0074065 0 9.0836251 4.1280308 9.0836251 9.1990855zm-12.6023431-19.7094038c-3.8903851 0-7.05561538-3.2054629-7.05561538-7.1452981 0-3.93983513 3.16523028-7.1452981 7.05561538-7.1452981 3.8903852 0 7.0556154 3.20546297 7.0556154 7.1452981 0 3.9398352-3.1652302 7.1452981-7.0556154 7.1452981zm0-10.60850728c-1.8866146 0-3.41974142 1.55465978-3.41974142 3.46320918s1.53312682 3.4632092 3.41974142 3.4632092 3.4197415-1.5526142 3.4197415-3.4632092-1.5331269-3.46320918-3.4197415-3.46320918z" fill="#323232"/></svg>