<svg height="45" viewBox="0 0 45 45" width="45" xmlns="http://www.w3.org/2000/svg"><g fill="#fff" fill-rule="evenodd"><path d="m27.5777961 43.264949-.0505517.1442186c-.2521105.1454837-1.2618489.361179-5.0279527.361179-3.7479571 0-4.7648246-.2137977-5.022768-.3592814l-.0537922-.1461162c-.1626729-.3251244-.163321-.6957915-.1626729-.7444969l-.0000685-4.7611116h10.4798429l-.0000121 4.7807202c0 .0158135.0045367.3921734-.1620248.7248883z"/><path d="m17.2600586 36.5296871h10.4797623v-15.0600911h-10.4797623z"/><path d="m18.6443983 14.8304799.0803643-.1068989c.7239266-.9709454 1.2022238-1.6123387 1.4439647-2.874884.0103696-.0550308.0213873-.1151219.032405-.175213h4.598263c.0103696.0607236.0213873.1208147.0317569.1758455.2404448 1.2581176.7167976 1.8969807 1.4407243 2.8691912l.0836048.1125917c1.1529682 1.5459223 1.3843396 2.9185292 1.3843396 4.633339v.7754912h-10.4797623v-.7754912c0-1.7141773.2313714-3.0874167 1.3843397-4.6339715z"/><path d="m20.3463065 4.46065615.0829567-.19988192-.0628656-.20683985c-.0071291-.02150628-.0103696-.04617525-.0077772-.10753141l-.0012962-.98865649c0-.08222991.0025924-.17394788.0239796-.23024374l.0661061-.21696044-.0285163-.16066459.0758276-.27641899-.0505518-.19482163.0110177-.0955132-.020091-.09488066c-.0103696-.04933794-.0187949-.10436873-.0239797-.1575019l.0058329-.07274184-.0136101-.03415703.0032405-.0335245c.2177613-.16066459 1.5321062-.16066459 2.0933601-.16066459.5612538 0 1.8755987 0 2.0719728.15813443l.0181467.12967024c-.006481.06325378-.0142581.1189171-.0252758.16825504l-.0246278.18406848.012962.10247112-.0343493.2580754.0712909.18090579-.0304606.16445981.0596251.1575019c.0207392.05439825.0233316.14358607.0233316.2245509v1.02850637l-.006481.05060302.0012962.02150628-.0635137.20557476.0810123.19924939c.0174987.04301257.0207392.09424813.0097215.15686936-.0077772.04870541-.0213872.08349499-.0324049.10816396l-.0466632.10373619-.0116657.25491271c-.1121212 2.42704731-.0511999 4.15261027.0641618 5.35632958h-4.2761578c.1153616-1.20371931.1762829-2.92928227.0635137-5.35569705l-.0110177-.25048494-.0447189-.10373619c-.0123138-.02909674-.0272201-.06515139-.0349973-.11132664-.0103696-.06325378-.006481-.11701949.0116658-.16129713z"/></g></svg>