<svg height="30" viewBox="0 0 30 30" width="30" xmlns="http://www.w3.org/2000/svg"><path d="m28.5062241 21.3493151v-.2465754c-.373444-.739726-.6224067-1.6027397-.6224067-1.9726027s.373444-1.1095891.8713693-1.4794521c.746888-.6164383 1.2448133-1.7260274 1.2448133-2.5890411s-.4979253-1.9726027-1.2448133-2.5890411c-.4979253-.369863-.8713693-1.109589-.8713693-1.479452 0-.4931507.2489627-1.47945207.746888-2.34246577.1244813-.24657534.2489626-.49315068.2489626-.73972603.2489627-1.10958904.1244814-2.46575342-.4979253-3.45205479-.9958506-1.47945206-2.9875518-1.97260274-4.3568464-1.23287671-1.2448133.61643835-2.7385892.98630137-3.3609959.98630137-.4979253 0-1.6182572-.49315069-2.2406639-1.23287672-.9958506-.86301369-2.4896265-1.47945205-3.4854772-1.47945205-1.1203319 0-2.4896265.73972603-3.3609958 1.60273973-.6224067.73972602-1.61825728 1.23287671-2.24066391 1.23287671-.62240664-.12328767-1.99170125-.49315069-3.1120332-1.10958904-1.36929461-.73972603-3.36099585-.12328767-4.35684647 1.23287671-.74688797.98630137-1.12033195 2.46575342-.74688797 3.57534247 0 .24657534.12448133.36986301.24896266.61643835.37344398.8630137.74688796 1.97260277.74688796 2.34246577-.12448133.369863-.37344398 1.109589-.87136929 1.479452-.74688797.6164384-1.24481328 1.7260274-1.24481328 2.5890411s.49792531 1.9726028 1.24481328 2.5890411c.49792531.369863.87136929 1.1095891.87136929 1.4794521s-.24896265 1.109589-.49792531 1.8493151c-.87136929 1.2328767-.62240664 3.0821917.37344398 4.4383561 1.12033196 1.3561644 2.98755187 1.9726028 4.35684648 1.2328767 1.12033195-.6164383 2.48962655-.9863013 3.11203319-.9863013.49792531 0 1.61825729.4931506 2.24066389 1.2328767.746888.8630137 2.2406639 1.6027397 3.3609959 1.6027397 1.1203319 0 2.4896265-.739726 3.3609958-1.6027397.6224067-.7397261 1.7427386-1.2328767 2.2406639-1.2328767.6224067 0 2.1161826.369863 3.3609959.9863013 1.4937759.7397261 3.4854771.1232877 4.3568464-1.2328767.6224067-.9863014.8713693-2.4657534.4979253-3.5753424-.2489626-.2465754-.2489626-.3698631-.3734439-.4931507zm-.746888-4.6849315c-.746888.6164383-1.2448133 1.7260274-1.2448133 2.4657534s.373444 1.8493151.746888 2.5890411l.1244813.2465753s0 .1232877.1244813.2465754c.2489627.8630137.1244814 1.849315-.3734439 2.5890411-.6224067.8630137-1.86722 1.3561643-2.7385893.8630137-1.2448132-.6164384-2.9875518-1.1095891-3.8589211-1.1095891-.9958506 0-2.3651452.739726-3.2365145 1.6027397-.6224067.6164384-1.7427386 1.2328768-2.3651453 1.2328768-.7468879 0-1.8672199-.6164384-2.3651452-1.2328768-.746888-.8630137-2.2406639-1.6027397-3.11203319-1.6027397s-2.48962655.4931507-3.73443983 1.1095891c-.8713693.4931506-2.11618257 0-2.73858921-.8630137-.74688797-.8630137-.8713693-2.2191781-.24896266-3.0821918.37344399-.739726.62240664-1.7260274.62240664-2.4657534 0-.7397261-.49792531-1.8493151-1.24481328-2.4657535-.49792531-.369863-.87136929-1.2328767-.87136929-1.6027397s.37344398-1.2328767.87136929-1.6027397c.74688797-.6164384 1.24481328-1.7260274 1.24481328-2.4657534 0-.7397261-.37344398-2.09589045-.87136929-2.95890415 0-.12328767-.12448133-.12328767-.12448133-.36986302-.24896266-.73972602 0-1.84931507.49792531-2.58904109.74688797-.8630137 1.99170124-1.35616439 2.73858921-.8630137 1.24481328.61643835 2.86307054 1.10958904 3.73443984 1.10958904.99585061 0 2.36514521-.73972603 3.11203321-1.60273973.6224066-.61643835 1.7427386-1.23287671 2.3651452-1.23287671.746888 0 1.8672199.61643836 2.3651452 1.23287671.746888.8630137 2.2406639 1.60273973 3.2365146 1.60273973.8713693 0 2.6141078-.49315069 3.8589211-1.10958904.8713693-.49315069 2.2406639 0 2.7385892.8630137.4979253.61643835.6224067 1.60273972.373444 2.46575342 0 .12328767 0 .24657534-.1244813.36986302-.373444.86301369-.8713693 2.09589042-.8713693 2.95890412 0 .739726.4979253 1.8493151 1.2448133 2.4657534.373444.369863.8713693 1.1095891.8713693 1.6027397.1244813.4931507-.2489627 1.2328767-.746888 1.6027398zm-22.65560166 6.1643835h19.66804976v-15.78082189h-19.66804976zm1.24481328-1.2328767v-2.2191781h17.17842328v2.2191781zm6.34854768-3.5753425 3.2365146-3.2054794c.6224066-.6164384 1.6182572-.6164384 2.2406639 0l3.2365145 3.2054794zm10.8298756-9.73972598v9.73972598h-.373444l-4.1078838-4.0684931c-1.120332-1.109589-2.8630706-1.109589-3.9834025 0l-4.1078839 4.0684931h-4.60580908v-9.73972598zm-13.6929461 4.93150688c1.1203319 0 1.9917012-.8630137 1.9917012-1.9726028 0-1.109589-.8713693-1.97260271-1.9917012-1.97260271-1.12033195 0-2.11618258.86301371-2.11618258 1.97260271 0 1.1095891.99585063 1.9726028 2.11618258 1.9726028zm0-2.7123288c.373444 0 .746888.369863.746888.739726s-.373444.7397261-.746888.7397261c-.37344399 0-.8713693-.3698631-.8713693-.7397261s.37344399-.739726.8713693-.739726z" fill="#414141"/></svg>