<svg height="45" viewBox="0 0 45 45" width="45" xmlns="http://www.w3.org/2000/svg"><path d="m38.4389547 7.79184239c-1.5073036-2.33250708-3.5662756-4.23835214-5.9860935-5.54090417-3.0616785-1.55234706-6.4458987-2.32290317-9.8627259-2.24565279h-.1194034c-3.4115013-.07493559-6.790028.6955679-9.8468054 2.24565279-3.55230701 1.94164686-6.31008687 5.11534479-7.77714544 8.95006548-1.22221761 3.0892706-1.84928874 6.3907197-1.84677352 9.7230257.08745383 5.3687557.87448369 10.7016576 2.34030783 15.8578887-.03556062.1602304-.05424088.323891-.05572162.4881854.01310431.9515848.46447176 1.8411314 1.2179153 2.4002448.47944879.2971699 1.03142191.4495014 1.59204615.4393669.32587336-.003703.65081405-.0363718.97114814-.0976371.64500345 1.3081748 1.56354486 2.455377 2.69055796 3.3603427 1.2632609 1.0362003 2.8301309 1.6092061 4.449769 1.6272847.3759668.0036309.7515253-.0263165 1.1223925-.0895007.4822088-.0827232.9427436-.2654765 1.3532393-.5370039.563815-.3955482.9880621-.9661238 1.209955-1.6272846.2186456-.6850399.3209526-1.4032809.3024888-2.1236065-.1047159-1.9747327-.3709868-3.9370389-.7960231-5.8663611-.2861478-2.0016586-.7470271-3.9731165-1.3771199-5.8907703-.2615978-.7507707-.6768-1.4359007-1.2179153-2.0096966-.5765764-.5616592-1.3448629-.8711051-2.1413021-.8624608-.2457883.0015187-.4909247.0260303-.7323412.0732278-1.8224505.3687221-3.4231977 1.4712365-4.44180873 3.0592951-1.03673048 1.6268836-1.58973758 3.5261149-1.59204614 5.4676764-.40393706.0857613-.79666174.2195671-1.17015392.3986847l-.1830853.1301828c-1.21636416-4.6332174-1.87135371-9.4016054-1.95025653-14.1980584 0-3.3928885.74030146-8.2828788 3.3432969-12.20463477.80700045-1.24630504 1.78861174-2.36478059 2.91344442-3.31966065l.1592046.36613904c.2898656.6753604.94217 1.11241175 1.6636883 1.11468998.2332129-.00620094.4630196-.0587065.6766196-.15459204 1.345279-.59395889 2.587075-1.25300917 3.9801153-1.75746741 1.6469005-.60361795 3.3848064-.90656527 5.1343488-.89500654 1.8203014-.03691077 3.6337935.23810883 5.3651956.81364231 1.4328415.48818539 2.6507568 1.13096282 3.9801153 1.72492171.2240281.09730595.4650454.14712995.7084605.14645562.7142801.01429975 1.3708929-.39920274 1.6796087-1.05773501l.103483-.22781985c1.9559768 1.70873484 3.4796991 3.87464895 4.4418088 6.31386441 1.1456236 2.9009134 1.7321606 6.0007331 1.72737 9.1290667-.0531689 3.6884049-.4799924 7.3612595-1.2736369 10.959762-.2945285 1.3669191-.5810968 2.5141548-.7960231 3.3766156-.2720024-.199677-.5658632-.3662431-.8756253-.4963218-.2029874-.0821753-.4102707-.1527991-.620898-.211547-.0018522-1.9416297-.5548971-3.8409908-1.5920462-5.4676763-1.0379856-1.5933116-2.6636542-2.6883574-4.5054906-3.0348859-.2414165-.0471975-.4865529-.071709-.7323412-.0732278-.7997933-.0020983-1.5685342.3162936-2.141302.8868701-.8229973.9189829-1.3989367 2.040292-1.6716485 3.2545693-.3741308 1.3587827-.6527389 2.9372488-.9552277 4.6052155-.424853 1.9293562-.6911218 3.8916466-.7960231 5.8663611-.0444951.9537721.1587367 1.9025936.5890571 2.750111.2310061.4045832.5496004.7497125.931347 1.0089165.4104956.2715274.8710304.4542807 1.3532392.5370039.385857.0742176.7775275.1123452 1.1701539.11391 1.6534248-.0271933 3.2483414-.629915 4.5214111-1.7086489 1.0708317-.8929906 1.9444112-2.0077483 2.5631943-3.2708421.3176842.0610403.6399623.0937093.9631879.0976371.5606242.0101345 1.1125974-.142197 1.5920461-.4393669.7387145-.5445846 1.1839175-1.4125082 1.2019949-2.3432899 1.5953521-5.3207799 2.4711353-10.839613 2.6029954-16.403029.0700445-4.6355322-1.1650757-9.1939395-3.5582231-13.13218701zm-22.702578 20.21087511c.6179787.742434 1.0423943 1.6324435 1.2338357 2.5873826.34229 1.2367363.620898 2.7826567.9233868 4.4587599.3974398 1.8311516.6476945 3.6924604.7482617 5.5653134.0420968.6642607-.0840164 1.3283994-.3661706 1.9283323-.1073762.192679-.2572956.3570613-.4378127.4800489l-2.7860808-15.3941126c.2573987.0583845.4941888.1878431.6845799.3742755zm-4.9273828 2.0015601c.6371819-.9849023 1.5619526-1.7393858 2.6427966-2.1561521l2.8099614 15.5405682h-.0875625c-1.2643254-.0251709-2.4837494-.4836223-3.4627004-1.3018277-1.1353901-.9336568-2.0132967-2.153476-2.5472738-3.5393441-.35388241-1.0540818-.58890349-2.1460048-.70050032-3.2545692 0-.1735771 0-.3471541 0-.5207311-.02683451-1.6908844.44166347-3.3513371 1.34527902-4.767944zm-3.78110962 6.826459c.21478583-.2527472.48861541-.4458717.79602307-.5614132h.103483c0 .2196835.05572162.4475033.09552277.6753232.09919785.524516.23486591 1.0411332.40597177 1.5459204-.10871179.0059561-.21765767.0059561-.32636946 0-.27683297.0222869-.5539014-.0400174-.79602307-.1790014-.24650472-.1838071-.407808-.4635034-.44577292-.7729602-.00959779-.0865112-.00959779-.1738542 0-.2603655.00178924-.164759.061069-.323452.16716484-.4475033zm25.71154522-31.73205027c-.0369749.08317105-.1175977.13705274-.206966.13831919h-.0796023c-1.2736369-.5614132-2.5393136-1.23673632-4.1154393-1.77374025-1.888962-.67175718-3.874625-1.01552645-5.8746503-1.01705289-1.8975145-.00901452-3.7823991.315756-5.5721615.96009793-1.5442847.55327677-2.8338421 1.23673632-4.107479 1.79814952h-.0796023c-.0912512-.00269561-.1723772-.06010289-.206966-.14645562l-.2945286-.69159597c.3820911-.25222912.7960231-.49632181 1.1940347-.72414166 2.8403333-1.41280406 5.9728875-2.10231318 9.1303846-2.00969652 3.1620882-.07492269 6.2948762.63418007 9.1303846 2.06665148.4458059.24840553.8788784.51997501 1.2975176.81364232zm-5.8109684 37.96455047c-.2818012-.1960092-.4918276-.4822427-.5970173-.8136424-.1750435-.5262322-.2585611-1.0797352-.2467672-1.635421.1162427-1.8742072.3824738-3.7355342.7960231-5.5653134.2698975-1.8953852.7013926-3.7630241 1.2895574-5.5815863.1853163-.5426733.481033-1.0390488.8676651-1.4564198.1894457-.1893934.4263231-.321715.6845799-.3824119zm8.3582422-7.7377385c-.0750314.9337497-.2512354 1.8561011-.5253752 2.7501111 0 .1057735-.0636818.2196834-.103483.3254569-.5193939 1.4325583-1.4010929 2.6987508-2.5552341 3.6695268-.9908207.8473057-2.2347923 1.3237616-3.5263822 1.3506463h-.103483l2.8099615-15.5405682c1.0808439.4167662 2.0056147 1.1712498 2.6427966 2.1561521.9112062 1.4168769 1.3853954 3.0806785 1.3611994 4.7760804.0079603.1383192 0 .3010476-.0079602.4637761zm2.5472739 2.2456528c-.037965.3094568-.1992682.5891531-.445773.7729602-.2421216.138984-.5191901.2012882-.796023.1790013-.1060613.0057746-.212348.0057746-.3184093 0 .1706214-.504939.3062801-1.0215208.4059718-1.5459204.0398012-.2278198.0716421-.4475032.0955228-.6671867.1507456.0564255.2971005.1244229.4378127.2034106.1840524.0983457.3465642.2340012.4776138.3986848.0963322.1249478.1470046.2803299.1432842.4393668.0018841.0597878-.0007774.1196348-.0079603.1790013z" fill="#323232"/></svg>