<svg height="45" viewBox="0 0 45 45" width="45" xmlns="http://www.w3.org/2000/svg"><path d="m.00549716 35.0418518c.05497155-.2694363.11544025-.533374.1704118-.8028104.19789758-.9347792.65416145-1.7265922 1.32481437-2.3919351 2.29231365-2.3039558 4.59012447-4.6079117 6.89892959-6.8953715 1.99546728-1.9795325 5.20030868-1.9630363 7.19027878.0219948 1.170894 1.1657247 2.3362909 2.3259507 3.4961906 3.5026728.1484232.1484649.2968464.2089507.5057383.1979533 4.1503521-.1704598 8.0698236-2.7328546 8.9768542-7.808156.0769602-.4398961.1044459-.8907896.1154403-1.3416831.0054971-.1429662-.0714631-.3244234-.1704119-.4234-1.1379111-1.1547273-2.2868165-2.2984572-3.4357219-3.4421871-2.1109075-2.1115013-2.1054103-5.2787533.0109943-7.39575329 2.231845-2.23247276 4.4691871-4.47044421 6.7010321-6.70291696 2.0779246-2.07850912 5.2552802-2.07850912 7.3332048-.01099741.7641045.76431949 1.5062205 1.55063379 2.2978108 2.28745977 1.3413058 1.24270651 2.198862 2.77134549 2.7265889 4.49793771.813579 2.64487538 1.027968 5.35023638.7146302 8.09408838-.566207 4.9598287-2.4737198 9.3862833-5.3652234 13.4058339-3.4027389 4.7288832-7.5695825 8.6384599-12.6324623 11.5527716-3.0124409 1.7320909-6.239271 2.8593247-9.68049 3.3652052-.6486643.093478-1.3083229.1264702-1.9679815.1924546-.1264346.0109974-.2528692.0329922-.3793037.054987-.5112354 0-1.027968 0-1.5392034 0-.1099431-.0164961-.2143891-.0439896-.3243322-.0494883-1.5447006-.0659844-3.05092103-.3409195-4.52965574-.7863143s-2.85852063-1.0887429-3.99093457-2.171987c-1.02796799-.9787689-2.02295306-1.9960286-3.01244097-3.0132884-.61568136-.6323506-1.05545377-1.380174-1.24785419-2.2544675-.06596586-.3024286-.13193172-.6048572-.19240043-.9072858.00549716-.2639376.00549716-.5223766.00549716-.7753169zm14.88079874 5.3392391c.5991899-.0769819 1.7151124-.1649611 2.8090462-.368413 2.5726686-.4783871 4.9529367-1.473652 7.2012731-2.7933403 4.4142155-2.5898884 8.0368407-6.0540702 10.9778187-10.2110885 2.5396856-3.5851532 4.2493008-7.511226 4.5021699-11.9706728.0989488-1.787078-.0274857-3.5521611-.5717041-5.26775592-.3298293-1.03375586-.8190761-1.96303639-1.6491465-2.71085977-.7641046-.69283637-1.4732376-1.45165716-2.2043592-2.18298444-.3957951-.3959065-.5772013-.3959065-.9839907.0054987-2.1933649 2.19398184-4.3922269 4.39346239-6.5855918 6.58744423-.3848008.3849091-.390298.5828623-.0109943.9622727 1.418266 1.418665 2.836532 2.8373299 4.254798 4.2559949.3738066.3739117.5717041.8193065.6211785 1.3416831.1319318 1.4901481.0054972 2.9638001-.3298293 4.4209559-.6706529 2.8923169-2.022953 5.4052235-4.2822837 7.346265-2.9629666 2.5458988-6.4371686 3.6346416-10.3291544 3.4476858-.709133-.0329922-1.2698428-.2969299-1.7645868-.8028104-1.3577973-1.3911715-2.7375832-2.7548494-4.1118719-4.124026-.3298293-.3299221-.5497155-.3299221-.885042.0054987-2.22634779 2.226974-4.45819274 4.4539481-6.68454054 6.6864208-.33532645.3354208-.33532645.5498702 0 .8852909.80258464.8028104 1.62166074 1.5891247 2.40225676 2.4139299.54971551.5828624 1.20387696.9732702 1.93499858 1.2592027 1.6601408.6488467 3.402739.8138078 5.6895555.8138078z" fill="#323232"/></svg>